<?xml version="1.0" encoding="utf-8"?>
<!-- Generator: Adobe Illustrator 27.5.0, SVG Export Plug-In . SVG Version: 6.00 Build 0)  -->
<svg version="1.1" id="Ñëîé_1" xmlns="http://www.w3.org/2000/svg" xmlns:xlink="http://www.w3.org/1999/xlink" x="0px" y="0px"
	 viewBox="0 0 3000 2000" style="enable-background:new 0 0 3000 2000;" xml:space="preserve">
<rect id="_x31_4" style="fill:#FFFFFF;" width="3000" height="2000"/>
<g>
	<g id="_x31_3">
		<path style="fill:#BAD2F4;" d="M601.445,1645.494c0,0-326.79-735.363-91.621-899.11c157.188-109.449,323.8,131.826,522.662,4.186
			c177.044-113.635,120.761-459.361,403.12-507.147c317.464-53.727,387.364,591.098,647.892,502.961
			c316.134-106.948,630.603,110.158,358.844,900.514L601.445,1645.494z"/>
		<path style="fill:#C6DCF7;" d="M345.756,1581.89c-5.486-14.114-10.914-28.739-16.132-43.468l12.861-3.212
			c5.185,14.634,10.577,29.163,16.026,43.183L345.756,1581.89z M2646.56,1563.662l-13.316-1.381
			c2.211-15.024,4.311-30.156,6.241-44.973l13.338,1.225C2650.886,1533.403,2648.778,1548.587,2646.56,1563.662z M314.811,1494.638
			c-4.697-14.556-9.251-29.383-13.537-44.069l13.032-2.682c4.261,14.598,8.788,29.335,13.456,43.804L314.811,1494.638z
			 M2658.315,1473.331l-13.357-1.06c1.698-15.085,3.27-30.259,4.672-45.1l13.375,0.89
			C2661.599,1442.959,2660.021,1458.189,2658.315,1473.331z M289.013,1406.241c-3.876-14.83-7.563-29.825-10.96-44.57l13.174-2.139
			c3.376,14.653,7.041,29.556,10.892,44.294L289.013,1406.241z M2666.857,1382.729l-13.391-0.712
			c1.135-15.074,2.132-30.28,2.959-45.193l13.403,0.525C2668.997,1352.324,2667.998,1367.592,2666.857,1382.729z M268.438,1316.88
			c-2.984-15.012-5.746-30.149-8.21-44.993l13.289-1.555c2.448,14.744,5.192,29.78,8.156,44.693L268.438,1316.88z
			 M2671.877,1291.927l-13.413-0.327c0.524-15.141,0.885-30.363,1.073-45.243l13.418,0.119
			C2672.765,1261.425,2672.404,1276.717,2671.877,1291.927z M253.494,1226.714c-2-15.162-3.742-30.412-5.175-45.325l13.374-0.907
			c1.423,14.802,3.151,29.939,5.137,44.992L253.494,1226.714z M2659.593,1201.11c-0.158-15.153-0.501-30.37-1.02-45.229
			l13.413-0.329c0.52,14.936,0.865,30.23,1.024,45.46L2659.593,1201.11z M244.8,1135.944c-0.89-15.252-1.48-30.564-1.754-45.513
			l13.417-0.174c0.271,14.824,0.857,30.01,1.739,45.136L244.8,1135.944z M2656.417,1110.691c-0.921-15.133-2.054-30.317-3.366-45.13
			l13.379-0.836c1.321,14.899,2.459,30.171,3.386,45.39L2656.417,1110.691z M256.589,1045.104l-13.415-0.232
			c0.374-15.292,1.094-30.61,2.142-45.525l13.395,0.663C257.673,1014.783,256.959,1029.954,256.589,1045.104z M2648.396,1020.522
			c-1.792-15.13-3.823-30.241-6.032-44.915l13.312-1.413c2.225,14.772,4.267,29.985,6.073,45.213L2648.396,1020.522z
			 M262.966,955.036l-13.351-1.126c1.823-15.235,4.044-30.462,6.605-45.258l13.278,1.62
			C266.966,924.905,264.768,939.966,262.966,955.036z M2634.852,930.864c-2.792-15.034-5.856-30.012-9.108-44.517l13.185-2.085
			c3.28,14.62,6.369,29.716,9.182,44.866L2634.852,930.864z M1047.972,929.274c-18.644-2.468-32.13-9.594-50.811-21.9l8.481-8.73
			c16.365,10.752,28.185,17.202,43.759,19.428L1047.972,929.274z M1094.524,902.47l-11.949-5.124
			c6.142-10.099,11.572-24.113,16.139-41.653l13.108,2.405C1106.942,876.844,1101.283,891.357,1094.524,902.47z M957.782,875.063
			c-10.689-9.994-22.112-21.496-34.921-35.164l10.544-6.967c12.628,13.474,23.868,24.793,34.361,34.604L957.782,875.063z
			 M278.46,865.823l-13.172-2.146c3.476-15.037,7.409-30.03,11.69-44.565l13.025,2.705
			C285.776,836.167,281.893,850.973,278.46,865.823z M2614.899,842.123c-3.973-14.88-8.26-29.631-12.74-43.844l12.972-2.883
			c4.523,14.351,8.849,29.243,12.858,44.262L2614.899,842.123z M1120.849,812.759l-13.308-1.438
			c2.061-13.447,3.908-28.173,5.646-45.019l13.368,0.973C1124.801,784.278,1122.935,799.156,1120.849,812.759z M889.997,803.603
			c-10.907-12.367-22.219-25.44-31.967-36.722l10.862-6.615c9.729,11.261,21.018,24.307,31.889,36.633L889.997,803.603z
			 M1872.337,802.676c-10.449,0-20.702-2.621-30.472-7.79l7.154-9.532c14.677,7.779,29.115,7.797,44.705,1.592l5.773,10.17
			C1890.279,800.805,1881.141,802.676,1872.337,802.676z M304.275,778.402l-12.831-3.294c5.332-14.638,11.18-29.196,17.385-43.271
			l12.583,3.91C315.297,749.62,309.532,763.971,304.275,778.402z M1943.373,767.662l-9.858-7.642
			c10.173-9.251,21.079-20.663,33.341-34.888l10.87,6.606C1965.147,746.328,1953.912,758.079,1943.373,767.662z M1803.713,759.916
			c-8.683-11.247-17.288-24.493-26.307-40.492l12.128-4.819c8.762,15.543,17.082,28.36,25.439,39.184L1803.713,759.916z
			 M2587.335,754.927c-5.405-14.597-11.173-28.966-17.143-42.709l12.606-3.861c6.043,13.912,11.881,28.455,17.35,43.225
			L2587.335,754.927z M826.232,730.151c-12.276-14.086-22.506-25.651-32.196-36.394l10.697-6.801
			c9.735,10.793,20.007,22.405,32.328,36.543L826.232,730.151z M1130.592,721.778l-13.39-0.727
			c1.017-13.199,2.052-28.034,3.163-45.354l13.398,0.606C1132.65,693.663,1131.612,708.538,1130.592,721.778z M341.525,694.045
			l-12.276-4.549c7.366-14.007,15.215-27.761,23.556-41.211l11.898,5.208C356.495,666.727,348.773,680.261,341.525,694.045z
			 M2008.464,694.042l-11.212-6.19c9.535-12.171,19.384-25.067,29.354-38.095l11.288,6.09
			C2027.901,668.909,2018.041,681.816,2008.464,694.042z M1755.807,677.381c-6.078-12.799-12.358-26.764-19.2-42.692l12.621-3.822
			c6.792,15.809,13.02,29.659,19.042,42.342L1755.807,677.381z M2550.454,670.355c-7.214-14.109-14.844-27.813-22.68-40.734
			l11.958-5.111c7.968,13.138,15.724,27.068,23.052,41.401L2550.454,670.355z M760.907,658.06
			c-12.175-12.689-23.508-23.983-34.646-34.526l10.038-7.476c11.28,10.678,22.747,22.105,35.057,34.934L760.907,658.06z
			 M1136.556,630.858l-13.401-0.567c0.904-15.051,1.802-30.11,2.76-45.433l13.399,0.59
			C1138.356,600.764,1137.458,615.815,1136.556,630.858z M2067.311,617.798l-11.194-6.212c11.21-14.242,21.237-26.563,30.654-37.664
			l10.928,6.535C2088.375,591.451,2078.434,603.665,2067.311,617.798z M391.312,614.618l-11.309-6.063
			c10.544-13.865,21.415-26.387,32.312-37.218l10.25,7.27C412.052,589.057,401.537,601.174,391.312,614.618z M1718.692,591.699
			c-6.154-15.14-12.191-30.289-17.284-43.111l12.728-3.565c5.087,12.804,11.115,27.929,17.255,43.036L1718.692,591.699z
			 M689.37,590.91c-13.714-11.211-27.198-21.114-40.078-29.436l8.183-8.928c13.291,8.586,27.171,18.778,41.256,30.292L689.37,590.91
			z M2501.723,590.429c-9.614-13.173-19.695-25.632-29.962-37.03l10.701-6.796c10.53,11.69,20.86,24.455,30.701,37.939
			L2501.723,590.429z M460.2,547.957L452.062,539c16.023-10.263,32.7-17.664,49.566-21.998l3.926,10.773
			C490.214,531.716,474.955,538.506,460.2,547.957z M2130.062,544.511l-10.424-7.093c12.583-13.036,24.507-24.254,36.452-34.293
			l9.491,7.962C2153.969,520.847,2142.35,531.781,2130.062,544.511z M1142.32,540.081l-13.393-0.67
			c1.162-16.375,2.315-31.246,3.526-45.463l13.384,0.804C1144.629,508.923,1143.479,523.751,1142.32,540.081z M604.93,537.722
			c-16.743-6.996-33.212-11.461-48.948-13.271l1.821-11.162c17.185,1.978,35.052,6.804,53.104,14.347L604.93,537.722z
			 M2437.243,519.511c-12.917-11.112-26.293-20.92-39.752-29.152l7.9-9.106c14.065,8.602,28.013,18.827,41.455,30.389
			L2437.243,519.511z M1684.293,505.479c-6.675-16.762-12.175-30.429-17.311-43.012l12.692-3.652
			c5.148,12.61,10.659,26.303,17.344,43.092L1684.293,505.479z M2205.739,482.329l-7.69-9.231
			c16.501-9.693,33.169-16.872,49.54-21.336l4.144,10.715C2236.627,466.596,2221.153,473.276,2205.739,482.329z M2352.142,468.527
			c-16.618-5.885-33.439-9.528-49.997-10.826l1.247-11.217c17.925,1.406,36.08,5.33,53.963,11.663L2352.142,468.527z
			 M1150.129,449.522l-13.365-0.997c1.672-15.807,3.491-31.072,5.407-45.373l13.334,1.259
			C1153.601,418.626,1151.792,433.803,1150.129,449.522z M1649.13,419.618c-6.484-15.195-12.593-29.085-18.68-42.462l12.535-4.02
			c6.119,13.451,12.26,27.413,18.776,42.682L1649.13,419.618z M1162.336,359.49l-13.28-1.611
			c2.714-15.773,5.697-30.942,8.867-45.085l13.186,2.083C1167.975,328.864,1165.022,343.874,1162.336,359.49z M1610.517,335.092
			c-7.21-14.561-14.476-28.493-21.601-41.407l12.176-4.734c7.198,13.049,14.538,27.119,21.816,41.817L1610.517,335.092z
			 M1182.503,270.791l-13.018-2.73c4.68-15.732,9.839-30.55,15.335-44.043l12.696,3.645
			C1192.143,240.856,1187.091,255.367,1182.503,270.791z M1565.087,253.253c-8.825-13.955-17.839-27.055-26.794-38.938l11.338-6.024
			c9.135,12.122,18.322,25.472,27.307,39.678L1565.087,253.253z M1217.666,186.387l-12.032-4.986
			c8.81-14.989,18.58-28.241,29.039-39.391l10.54,6.971C1235.332,159.516,1226.064,172.101,1217.666,186.387z M1507.541,177.777
			c-11.724-12.34-23.825-23.272-35.967-32.491l9.001-8.356c12.678,9.626,25.28,21.006,37.455,33.821L1507.541,177.777z
			 M1282.648,119.782l-7.234-9.489c15.895-8.542,33.407-14.096,52.051-16.507l2.043,11.134
			C1312.724,107.092,1296.958,112.092,1282.648,119.782z M1429.24,119.775c-15.63-7.075-31.911-11.912-48.392-14.376l2.353-11.092
			c17.887,2.675,35.519,7.907,52.406,15.551L1429.24,119.775z"/>
		<path style="fill:#C6DCF7;" d="M2731.593,1402.883c-111.345-14.476-93.176,116.305-251.89,116.305
			c-145.112,0-191.536-498.037-297.117-355.67c-541.273,729.86-226.966-310.386-657.431-323.605
			c-194.644-5.977-324.346,176.062-372.175,498.37c-69.331,291.378-230.119-222.239-395.588-174.484
			c-105.164,30.35-93.12,355.388-238.232,355.388c-158.714,0-140.545-130.781-251.89-116.305
			c-119.881,15.586-155.688,247.064-155.688,247.064h2775.698C2887.281,1649.948,2851.474,1418.469,2731.593,1402.883z"/>
		<path style="fill:#D2E5F7;" d="M2632.99,1544.448c-102.435-6.181-85.719,49.664-231.732,49.664
			c-133.5,0-129.831-125.156-219.167-151.755c-164.518-48.984-300.149,198.929-363.932,74.507
			c-121.141-330.146-474.457-495.712-637.454,0c-63.783,124.422-212.939-97.591-363.932-74.507
			c-92.942,14.209-85.668,151.755-219.168,151.755c-146.013,0-129.298-55.845-231.732-49.664
			c-110.288,6.655-143.229,105.5-143.229,105.5h2553.576C2776.219,1649.948,2743.278,1551.103,2632.99,1544.448z"/>
		<path style="fill:#BAD2F4;" d="M111.582,1649.948c0,0-17.41,59.467,63.267,74.355c110.349,20.365,758.083,73.87,600.725,114.529
			c-88.828,22.952,45.346,54.118,478.005,65.594c432.659,11.476,1175.069-33.49,925.408-100.022
			c-249.661-66.532,694.012,4.596,708.293-154.456H111.582z"/>
	</g>
	<g id="_x31_2">
		<path style="fill:#8A9EDD;" d="M2674.75,1708.138l-316.761-62.578c-36.509-7.212-60.258-42.655-53.045-79.163l118.393-599.297
			c7.212-36.509,42.655-60.258,79.163-53.045l316.762,62.577c36.508,7.213,60.257,42.655,53.044,79.163l-118.393,599.297
			C2746.701,1691.601,2711.259,1715.35,2674.75,1708.138z"/>
		<path style="fill:#F4D4BE;" d="M2581.665,1066.631l-123.155,30.205c-1.151-7.19-1.073-14.704,0.423-22.29
			c6.807-34.474,40.278-56.89,74.751-50.083C2556.891,1029.053,2574.613,1045.71,2581.665,1066.631z"/>
		<path style="fill:#F4D4BE;" d="M2509.016,1149.298c-23.206-4.589-40.928-21.246-47.981-42.167l123.155-30.205
			c1.151,7.19,1.073,14.704-0.427,22.27C2576.955,1133.669,2543.49,1156.105,2509.016,1149.298z"/>
		<path style="fill:#F4D4BE;" d="M2541.551,1269.643l-123.135,30.2c-1.156-7.21-1.078-14.724,0.423-22.29
			c6.807-34.474,40.278-56.89,74.731-50.078C2516.797,1232.06,2534.519,1248.718,2541.551,1269.643z"/>
		<path style="fill:#F4D4BE;" d="M2468.922,1352.305c-23.206-4.589-40.928-21.246-47.98-42.167l123.154-30.205
			c1.151,7.19,1.073,14.704-0.427,22.27C2536.841,1336.681,2503.396,1359.112,2468.922,1352.305z"/>
		<path style="fill:#F4D4BE;" d="M2501.457,1472.65l-123.154,30.205c-1.151-7.191-1.073-14.704,0.423-22.29
			c6.807-34.474,40.277-56.889,74.751-50.082C2476.683,1435.072,2494.405,1451.729,2501.457,1472.65z"/>
		<path style="fill:#F4D4BE;" d="M2428.808,1555.317c-23.206-4.589-40.929-21.246-47.98-42.167l123.154-30.205
			c1.152,7.191,1.073,14.704-0.427,22.27C2496.747,1539.688,2463.281,1562.124,2428.808,1555.317z"/>
		<path style="fill:#F4D4BE;" d="M2716.204,1515.079l-123.134,30.2c-1.152-7.191-1.073-14.704,0.422-22.29
			c6.807-34.474,40.258-56.885,74.732-50.078C2691.429,1477.501,2709.151,1494.159,2716.204,1515.079z"/>
		<path style="fill:#F4D4BE;" d="M2643.569,1597.721c-23.206-4.589-40.923-21.226-47.975-42.147l123.134-30.2
			c1.151,7.19,1.073,14.704-0.427,22.27C2711.494,1582.117,2678.048,1604.548,2643.569,1597.721z"/>
		<path style="fill:#F4D4BE;" d="M2756.318,1312.068l-123.154,30.205c-1.151-7.191-1.073-14.704,0.423-22.29
			c6.807-34.474,40.278-56.89,74.751-50.082C2731.543,1274.489,2749.266,1291.147,2756.318,1312.068z"/>
		<path style="fill:#F4D4BE;" d="M2683.664,1394.714c-23.186-4.594-40.928-21.246-47.956-42.152l123.134-30.2
			c1.152,7.19,1.073,14.704-0.427,22.27C2751.608,1379.105,2718.142,1401.541,2683.664,1394.714z"/>
		<path style="fill:#F4D4BE;" d="M2796.432,1109.055l-123.154,30.205c-1.151-7.19-1.073-14.703,0.423-22.29
			c6.807-34.474,40.277-56.89,74.731-50.078C2771.637,1071.482,2789.379,1088.135,2796.432,1109.055z"/>
		<path style="fill:#F4D4BE;" d="M2723.783,1191.722c-23.211-4.609-40.928-21.246-47.98-42.167l123.155-30.205
			c1.131,7.195,1.053,14.709-0.448,22.275C2791.702,1176.098,2758.256,1198.529,2723.783,1191.722z"/>
	</g>
	<g id="_x31_1">
		<path style="fill:#9358E0;" d="M1227.018,992.789v700.074c0,35.153,128.042,63.65,285.991,63.65
			c157.949,0,285.991-28.497,285.991-63.65V992.789H1227.018z"/>
		<ellipse style="fill:#7640CC;" cx="1513.009" cy="992.789" rx="285.991" ry="63.65"/>
		<path style="fill:#9358E0;" d="M1295.016,737.938v227.97c0,26.795,97.599,48.517,217.994,48.517
			c120.395,0,217.994-21.722,217.994-48.517v-227.97H1295.016z"/>
		<ellipse style="fill:#7640CC;" cx="1513.009" cy="737.938" rx="217.994" ry="48.517"/>
		
			<ellipse transform="matrix(0.7071 -0.7071 0.7071 0.7071 -523.349 1470.196)" style="fill:#7640CC;" cx="1513.009" cy="1366.836" rx="205.701" ry="205.701"/>
		<path style="fill:#D4E8FF;" d="M1647.397,1375.374h-268.776c-4.715,0-8.537-3.822-8.537-8.537c0-4.715,3.822-8.537,8.537-8.537
			h268.776c4.715,0,8.538,3.822,8.538,8.537C1655.935,1371.552,1652.113,1375.374,1647.397,1375.374z"/>
		<path style="fill:#D4E8FF;" d="M1647.397,1309.471h-268.776c-4.715,0-8.537-3.822-8.537-8.537c0-4.715,3.822-8.537,8.537-8.537
			h268.776c4.715,0,8.538,3.822,8.538,8.537C1655.935,1305.649,1652.113,1309.471,1647.397,1309.471z"/>
		<path style="fill:#D4E8FF;" d="M1647.397,1441.276h-268.776c-4.715,0-8.537-3.822-8.537-8.538c0-4.715,3.822-8.537,8.537-8.537
			h268.776c4.715,0,8.538,3.822,8.538,8.537C1655.935,1437.454,1652.113,1441.276,1647.397,1441.276z"/>
	</g>
	<g id="_x31_0">
		<path style="fill:#8A9EDD;" d="M633.564,1632.647l-319.073,49.461c-36.775,5.701-71.208-19.49-76.908-56.264l-93.579-603.669
			c-5.701-36.775,19.49-71.208,56.264-76.908l319.073-49.462c36.775-5.701,71.207,19.49,76.908,56.265l93.579,603.669
			C695.529,1592.513,670.338,1626.946,633.564,1632.647z"/>
		<path style="fill:#1D3F70;" d="M281.088,1085.513c-0.005-0.007-41.048-33.447-41.001-33.478c0,0,35.357-43.343,35.357-43.343
			c14.006-18.391,45.663-9.263,47.171,13.683c0.684,6.74-1.202,13.743-5.823,19.408
			C316.788,1041.785,281.117,1085.562,281.088,1085.513z"/>
		<path style="fill:#FFFFFF;" d="M208.009,1132.925c-11.192-9.274-12.819-25.851-3.622-37.126l35.67-43.727
			c0.045-0.047,41.048,33.443,41.035,33.474C263.5,1102.428,238.968,1157.345,208.009,1132.925z"/>
		<path style="fill:#1D3F70;" d="M518.86,1048.262c-0.006-0.006-41.048-33.447-41.001-33.477c0,0,35.357-43.343,35.357-43.343
			c14.006-18.391,45.663-9.263,47.171,13.682c0.684,6.74-1.202,13.743-5.823,19.408
			C554.559,1004.534,518.889,1048.311,518.86,1048.262z"/>
		<path style="fill:#FFFFFF;" d="M445.78,1095.673c-11.192-9.274-12.82-25.851-3.622-37.126l35.67-43.726
			c0.045-0.047,41.048,33.443,41.035,33.474C501.271,1065.177,476.74,1120.094,445.78,1095.673z"/>
		<path style="fill:#1D3F70;" d="M355.903,1563.05c-0.005-0.007-41.048-33.447-41.001-33.478c0,0,35.357-43.343,35.357-43.343
			c14.006-18.391,45.663-9.263,47.171,13.682c0.685,6.74-1.202,13.743-5.823,19.408
			C391.602,1519.322,355.932,1563.1,355.903,1563.05z"/>
		<path style="fill:#FFFFFF;" d="M282.823,1610.462c-11.192-9.275-12.819-25.852-3.622-37.126l35.67-43.726
			c0.045-0.046,41.048,33.443,41.035,33.474C338.314,1579.966,313.783,1634.882,282.823,1610.462z"/>
		<path style="fill:#1D3F70;" d="M593.674,1525.799c-0.005-0.006-41.048-33.447-41.001-33.477c0,0,35.357-43.343,35.357-43.343
			c14.006-18.391,45.663-9.263,47.171,13.682c0.684,6.74-1.202,13.743-5.824,19.408
			C629.374,1482.071,593.703,1525.849,593.674,1525.799z"/>
		<path style="fill:#FFFFFF;" d="M520.595,1573.211c-11.192-9.274-12.82-25.852-3.622-37.126l35.67-43.726
			c0.045-0.046,41.048,33.443,41.035,33.474C576.085,1542.715,551.554,1597.631,520.595,1573.211z"/>
		<path style="fill:#1D3F70;" d="M330.965,1403.871c-0.005-0.006-41.048-33.447-41.001-33.478c0,0,35.357-43.343,35.357-43.343
			c14.006-18.391,45.664-9.263,47.171,13.682c0.685,6.74-1.202,13.743-5.823,19.408
			C366.664,1360.143,330.994,1403.921,330.965,1403.871z"/>
		<path style="fill:#FFFFFF;" d="M257.885,1451.283c-11.192-9.274-12.819-25.851-3.622-37.126l35.67-43.726
			c0.045-0.046,41.048,33.443,41.035,33.474C313.376,1420.786,288.845,1475.703,257.885,1451.283z"/>
		<path style="fill:#1D3F70;" d="M568.736,1366.62c-0.005-0.006-41.048-33.447-41.001-33.478c0,0,35.357-43.343,35.357-43.343
			c14.006-18.391,45.663-9.263,47.171,13.683c0.684,6.74-1.202,13.743-5.823,19.408
			C604.435,1322.892,568.765,1366.67,568.736,1366.62z"/>
		<path style="fill:#FFFFFF;" d="M495.656,1414.032c-11.192-9.274-12.82-25.851-3.622-37.126l35.67-43.726
			c0.045-0.046,41.048,33.443,41.035,33.474C551.147,1383.536,526.616,1438.452,495.656,1414.032z"/>
		<path style="fill:#1D3F70;" d="M306.026,1244.692c-0.005-0.006-41.048-33.447-41.001-33.478c0,0,35.357-43.343,35.357-43.343
			c14.006-18.391,45.663-9.263,47.171,13.683c0.684,6.74-1.202,13.743-5.823,19.408
			C341.726,1200.964,306.056,1244.742,306.026,1244.692z"/>
		<path style="fill:#FFFFFF;" d="M232.947,1292.104c-11.192-9.274-12.82-25.851-3.622-37.126l35.67-43.726
			c0.045-0.047,41.048,33.443,41.035,33.474C288.438,1261.607,263.906,1316.524,232.947,1292.104z"/>
		<path style="fill:#1D3F70;" d="M543.798,1207.441c-0.005-0.006-41.048-33.447-41.001-33.478l35.357-43.343
			c14.006-18.391,45.663-9.263,47.171,13.683c0.684,6.74-1.202,13.743-5.823,19.408
			C579.497,1163.713,543.827,1207.491,543.798,1207.441z"/>
		<path style="fill:#FFFFFF;" d="M470.718,1254.853c-11.192-9.274-12.819-25.851-3.622-37.126l35.67-43.726
			c0.045-0.047,41.048,33.443,41.035,33.474C526.209,1224.356,501.678,1279.273,470.718,1254.853z"/>
		<path style="fill:#7689D6;" d="M468.624,1619.007c-5.517,0.864-10.69-2.907-11.554-8.424L356.783,970.461
			c-0.864-5.517,2.907-10.691,8.424-11.555c5.517-0.864,10.69,2.908,11.555,8.425l100.286,640.122
			C477.913,1612.97,474.141,1618.143,468.624,1619.007z"/>
	</g>
	<g id="_x39_">
		<path style="fill:#8A9EDD;" d="M1937.814,800.292l-11.022-85.252c-8.737-59.294-97.082-47.89-90.458,11.695l10.999,85.076
			c-38.467,21.209-63.04,64.816-56.795,111.657c0,0,101.838,787.674,101.838,787.67c20.583,146.227,247.891,116.418,230.578-29.808
			l-101.838-787.674C2015.301,846.245,1980.275,811.21,1937.814,800.292z"/>
		<path style="fill:#EEF7FF;" d="M2028.765,1671.271l-47.855,6.187l-123.275-953.48c-1.709-13.215,7.619-25.313,20.834-27.021
			c13.215-1.708,25.313,7.619,27.021,20.834L2028.765,1671.271z"/>
		
			<rect x="1927.366" y="881.232" transform="matrix(0.9917 -0.1282 0.1282 0.9917 -97.3556 258.0721)" style="fill:#1D3F70;" width="56.661" height="7.875"/>
		
			<rect x="1931.453" y="913.754" transform="matrix(0.9917 -0.1282 0.1282 0.9917 -101.6078 257.0452)" style="fill:#1D3F70;" width="28.331" height="7.875"/>
		
			<rect x="1939.393" y="975.165" transform="matrix(0.9917 -0.1282 0.1282 0.9917 -109.4189 258.5774)" style="fill:#1D3F70;" width="28.331" height="7.875"/>
		
			<rect x="1947.332" y="1036.575" transform="matrix(0.9917 -0.1282 0.1282 0.9917 -117.2251 260.0951)" style="fill:#1D3F70;" width="28.331" height="7.875"/>
		
			<rect x="1955.272" y="1097.986" transform="matrix(0.9917 -0.1282 0.1282 0.9917 -125.0337 261.6201)" style="fill:#1D3F70;" width="28.331" height="7.875"/>
		
			<rect x="1963.212" y="1159.397" transform="matrix(0.9917 -0.1282 0.1282 0.9917 -132.8451 263.1515)" style="fill:#1D3F70;" width="28.331" height="7.874"/>
		
			<rect x="1971.152" y="1220.808" transform="matrix(0.9917 -0.1282 0.1282 0.9917 -140.6505 264.669)" style="fill:#1D3F70;" width="28.331" height="7.874"/>
		
			<rect x="1979.092" y="1282.219" transform="matrix(0.9917 -0.1282 0.1282 0.9917 -148.4627 266.2015)" style="fill:#1D3F70;" width="28.331" height="7.874"/>
		
			<rect x="1987.031" y="1343.628" transform="matrix(0.9917 -0.1282 0.1282 0.9917 -156.2681 267.7199)" style="fill:#1D3F70;" width="28.331" height="7.874"/>
		
			<rect x="1935.306" y="942.643" transform="matrix(0.9917 -0.1282 0.1282 0.9917 -105.1631 259.5935)" style="fill:#1D3F70;" width="56.661" height="7.875"/>
		
			<rect x="1943.246" y="1004.054" transform="matrix(0.9917 -0.1282 0.1282 0.9917 -112.973 261.1221)" style="fill:#1D3F70;" width="56.661" height="7.875"/>
		
			<rect x="1951.185" y="1065.464" transform="matrix(0.9917 -0.1282 0.1282 0.9917 -120.7818 262.6471)" style="fill:#1D3F70;" width="56.661" height="7.875"/>
		
			<rect x="1959.125" y="1126.875" transform="matrix(0.9917 -0.1282 0.1282 0.9917 -128.5905 264.1721)" style="fill:#1D3F70;" width="56.661" height="7.875"/>
		
			<rect x="1967.065" y="1188.286" transform="matrix(0.9917 -0.1282 0.1282 0.9917 -136.3992 265.6971)" style="fill:#1D3F70;" width="56.661" height="7.874"/>
		
			<rect x="1982.945" y="1311.108" transform="matrix(0.9917 -0.1282 0.1282 0.9917 -152.0167 268.7471)" style="fill:#1D3F70;" width="56.661" height="7.874"/>
		
			<rect x="1990.884" y="1372.517" transform="matrix(0.9917 -0.1282 0.1282 0.9917 -159.8253 270.272)" style="fill:#1D3F70;" width="56.661" height="7.874"/>
		
			<rect x="1994.971" y="1405.039" transform="matrix(0.9917 -0.1282 0.1282 0.9917 -164.0768 269.2449)" style="fill:#1D3F70;" width="28.331" height="7.874"/>
		
			<rect x="2002.911" y="1466.45" transform="matrix(0.9917 -0.1282 0.1282 0.9917 -171.8896 270.7775)" style="fill:#1D3F70;" width="28.331" height="7.874"/>
		
			<rect x="1998.824" y="1433.928" transform="matrix(0.9917 -0.1282 0.1282 0.9917 -167.634 271.797)" style="fill:#1D3F70;" width="56.661" height="7.874"/>
		
			<rect x="2006.764" y="1495.339" transform="matrix(0.9917 -0.1282 0.1282 0.9917 -175.443 273.3225)" style="fill:#1D3F70;" width="56.661" height="7.874"/>
		
			<rect x="2010.851" y="1527.86" transform="matrix(0.9917 -0.1282 0.1282 0.9917 -179.694 272.2948)" style="fill:#1D3F70;" width="28.331" height="7.874"/>
		
			<rect x="2014.704" y="1556.75" transform="matrix(0.9917 -0.1282 0.1282 0.9917 -183.2495 274.8436)" style="fill:#1D3F70;" width="56.661" height="7.874"/>
		
			<rect x="1975.005" y="1249.697" transform="matrix(0.9917 -0.1282 0.1282 0.9917 -144.2062 267.2183)" style="fill:#1D3F70;" width="56.661" height="7.874"/>
		<path style="fill:#1D3F70;" d="M2023.382,1622.821c-18.512-141.725-33.207-265.286-33.207-265.286
			c-1.685-13.721-16.649-22.01-30.26-18.958c-12.772,1.651-21.83,13.022-20.229,25.404l34.289,265.214
			c-24.189,11.491-41.94,35.471-38.092,70.012c13.287,90.33,152.217,72.382,142.106-18.37
			C2072.844,1645.852,2050.265,1627.382,2023.382,1622.821z"/>
	</g>
	<g id="_x38__2_">
		<path style="fill:#EB5648;" d="M1378.45,1832.334c0.005-0.014,10.834-93.272,10.925-93.231c0,0,98.525,11.5,98.525,11.5
			c40.855,3.39,57.414,59.422,24.552,83.569c-9.423,7.454-21.691,11.315-34.568,9.812
			C1477.877,1843.979,1378.403,1832.425,1378.45,1832.334z"/>
		<path style="fill:#FFFFFF;" d="M1237.852,1768.326c3.186-25.579,26.413-43.828,52.042-40.835l99.397,11.602
			c0.112,0.023-10.829,93.269-10.888,93.278C1336.383,1822.18,1230.885,1837.905,1237.852,1768.326z"/>
	</g>
	<g id="_x37_">
		<path style="fill:#F39200;" d="M1831.167,1738.855v42.582c0,34.362-59.333,62.218-132.526,62.218
			c-36.916,0-70.308-7.087-94.339-18.521c-23.613-11.234-38.189-26.666-38.189-43.697v-42.582H1831.167z"/>
		<path style="fill:#F9B233;" d="M1831.168,1738.854c-1.242,74.455-249.132,90.258-264.534,5.554
			c-0.566-3.108-0.725-6.116-0.506-9.025c3.676-49.308,115.517-69.731,192.857-51.998
			C1797.254,1692.16,1827.075,1710.275,1831.168,1738.854z"/>
		<path style="fill:#F39200;" d="M1759.367,1683.54l-116.276,116.386c-3.016-0.602-5.298-2.352-8.195-3.056l113.845-115.677
			C1751.758,1681.796,1756.473,1682.839,1759.367,1683.54z"/>
	</g>
	<g id="_x36_">
		<path style="fill:#F39200;" d="M478.912,1721.121v42.582c0,34.362-59.333,62.218-132.526,62.218
			c-36.916,0-70.308-7.087-94.339-18.521c-23.613-11.234-38.189-26.666-38.189-43.697v-42.582H478.912z"/>
		<path style="fill:#F9B233;" d="M478.913,1721.12c-1.242,74.455-249.132,90.258-264.534,5.554
			c-0.566-3.108-0.725-6.116-0.506-9.025c3.676-49.308,115.516-69.731,192.857-51.997
			C444.999,1674.427,474.82,1692.541,478.913,1721.12z"/>
		<path style="fill:#F39200;" d="M407.112,1665.806l-116.276,116.386c-3.016-0.602-5.298-2.352-8.194-3.056l113.845-115.677
			C399.503,1664.062,404.218,1665.105,407.112,1665.806z"/>
	</g>
	<g id="_x35_">
		<path style="fill:#F99370;" d="M2516.93,1496.547c6.154,93.132,17.726,186.059,30.466,278.512
			c2.967,21.898,29.078,26.077,31.498,2.18c2.174-23.745,1.502-46.021,3.392-69.883c4.352-69.589,10.534-139.291,18.243-208.599
			C2605.827,1438.628,2514.826,1436.097,2516.93,1496.547z"/>
		<path style="fill:#F99370;" d="M2584.09,1504.888l76.226,276.166c2.455,9.23,8.566,12.557,17.771,10.095
			c8.216-2.198,13.438,0.493,12.723-7.718l-24.346-293.015C2659.581,1430.694,2570.346,1446.296,2584.09,1504.888z"/>
		<path style="fill:#1D3F70;" d="M2547.396,1775.059c-35.515,1.705-45.857,13.823-48.767,21.945
			c-0.015,0.042-0.03,0.085-0.045,0.127c-1.258,3.55,1.45,7.267,5.208,7.28l77.277,0.251c1.305-2.27,2.028-4.788,2.349-7.382
			c1.316-10.516-3.979-22.117-3.979-22.117S2563.417,1779.298,2547.396,1775.059z"/>
		<path style="fill:#395B96;" d="M2498.629,1797.004l84.788,0.276c-0.321,2.594-1.043,5.113-2.349,7.382l-77.277-0.251
			c-3.757-0.012-6.465-3.729-5.208-7.28L2498.629,1797.004z"/>
		<path style="fill:#1D3F70;" d="M2652.962,1796.458v6.938h44.873v-6.938c0-12.429-10.047-22.503-22.431-22.503
			C2663.009,1773.955,2652.962,1784.029,2652.962,1796.458z"/>
		<rect x="2652.962" y="1796.458" style="fill:#395B96;" width="44.873" height="6.938"/>
		<path style="fill:#163260;" d="M2671.847,1100.968c8.556,14.82,5.087,32.84-7.749,40.251
			c-12.835,7.411-30.177,1.405-38.733-13.415c-8.556-14.819-5.087-32.84,7.749-40.251
			C2645.95,1080.143,2663.291,1086.149,2671.847,1100.968z"/>
		<path style="fill:#163260;" d="M2636.154,1116.471c0,0,30.24-11.911,33.115-55.165c3.017-45.391-41.408-54.514-59.303-41.61
			L2636.154,1116.471z"/>
		<path style="fill:#FFFFFF;" d="M2579,1150c0,0-71.695,16.341-100.258,119.91l72.376,16.477L2579,1150z"/>
		<path style="fill:#D1E0F2;" d="M2550.044,1177.775c0,0-21.983,20.472-26.639,33.274c-4.655,12.802,12.664,13.578,12.664,13.578
			L2550.044,1177.775z"/>
		<path style="fill:#163260;" d="M2618.435,1015.828c-43.769-12.324-72.88,51.278-51.88,84.417L2618.435,1015.828z"/>
		<path style="fill:#F99370;" d="M2666.394,1378.484h-136.628c-0.705-54.026,5.53-108.642,18.22-161.107
			c7.573-30.619,11.928-55.102,41.105-71.463c-2.079-18.132,0.757-44.281,3.286-55.052c1.33-5.817,5.493-10.217,10.171-11.677
			c11.969-4.156,26.138,6.041,22.455,19.531c-1.085-0.683-4.559,37.782-2.161,48.46c59.302,18.926,29.073,86.3,33.125,131.503
			C2656.281,1311.891,2659.485,1346.015,2666.394,1378.484z"/>
		<path style="fill:#E57D61;" d="M2625.327,1096.965c-0.083,0.585-0.187,1.178-0.323,1.751c-0.782-0.518-2.973,20.704-2.993,36.108
			c-14.474,6.582-30.566,3.617-33.52,3.011c-0.832-21.069-1.677-52.909,14.058-58.65
			C2613.848,1074.353,2627.316,1084.651,2625.327,1096.965z"/>
		<path style="fill:#F99370;" d="M2648.071,1082.78c-2.431,15.08-7.521,32.079-19.433,42.054h-0.02
			c-4.812,3.997-10.676,6.542-16.89,7.766c-35.189,9.841-76.458-31.066-48.958-60.863c9.993-9.234,12.113-25.592,20.078-34.776
			c11.583-16.809,37.003-15.939,50.729-2.229C2645.982,1047.127,2650.223,1064.209,2648.071,1082.78z"/>
		<path style="fill:#C16256;" d="M2590.518,1073.479c-1.38-2.621,2.768-4.728,4.071-2.068
			C2595.969,1074.033,2591.821,1076.14,2590.518,1073.479z"/>
		<path style="fill:#C16256;" d="M2571.326,1070.253c-1.38-2.621,2.768-4.728,4.071-2.068
			C2576.777,1070.806,2572.629,1072.914,2571.326,1070.253z"/>
		<path style="fill:#C16256;" d="M2578.583,1090.106c-4.179-0.05-10.677-2.867-5.393-6.581c4.311-2.334,7.483-11.275,7.514-11.365
			c4.46-3.366-1.888,10.557-6.69,12.884c-3.382,2.073,3.662,4.08,6.576,3.055c0.456-0.146,0.941,0.104,1.086,0.559
			C2581.924,1090.209,2579.665,1089.991,2578.583,1090.106z"/>
		<path style="fill:#EB5648;" d="M2492.586,1664.344c0,0,101.861,56.181,217.58,0.472c0,0-0.777-11.056-2.15-29.242
			c-6.02-80.651-23.332-301.574-33.473-321.675c-15.675,4.078-31.767,6.853-47.802,8.684c-35.179,4.092-77.419,3.856-110.614,0.125
			c-4.481,23.235-21.738,240.011-23.402,329.013C2492.627,1656.285,2492.586,1660.502,2492.586,1664.344z"/>
		<path style="fill:#3A72AA;" d="M2673.082,1308.805c0,0-67.028,59.406-156.963,13.9c0.122-0.161,12.687-141.641,72.973-176.79
			c0,0-7.267,27.502,33.751,1.262C2673.446,1163.789,2654.375,1245.317,2673.082,1308.805z"/>
		<path style="fill:#CE3932;" d="M2516.115,1322.703c0,0,80.751,32.766,156.967-13.898l8.305,20.555
			c0,0-62.24,53.057-167.837,17.746L2516.115,1322.703z"/>
		<path style="fill:#FFFFFF;" d="M2626.749,1322.584c0.018,0.121,0.028,0.251,0.046,0.381c3.193,25.075,7.074,159.958,7.074,280.368
			c0,0,4.401,0.51,11.41,0.798c18.855,0.798,56.584,0.009,78.215-16.59c0,0-12.793-233.086-16.627-253.538
			c-10.416-61.82-42.287-124.003-71.54-175.778c-1.522-2.692-3.036-5.357-4.54-7.993
			C2593.986,1201.051,2614.81,1262.444,2626.749,1322.584z"/>
		<path style="fill:#E57D61;" d="M2648.071,1082.78c-2.431,15.08-7.521,32.079-19.433,42.054h-0.02
			c6.602-8.196,10.719-26.533,10.719-26.533l-3.12-8.156c-52.362-16.9-47.912-59.093-47.912-59.093
			c7.812-6.825,18.397-8.068,28.431-5.573C2641.319,1031.835,2651.164,1058.385,2648.071,1082.78z"/>
		<path style="fill:#163260;" d="M2593.627,1027.215c0,0-3.931,41.703,42.93,58.726l16.818-9.283
			C2669.777,1044.479,2639.799,996.984,2593.627,1027.215z"/>
		<path style="fill:#FFFFFF;" d="M2486.314,1597.512c4.103,3.454,11.038,5.162,16.887,5.997v0.009
			c5.691,0.817,10.351,0.817,10.351,0.817c8.727-59.843,24.862-323.147,36.559-382.442c0.046-0.232,0.093-0.464,0.139-0.687
			c6.267-27.415,24.982-52.017,38.843-75.291c-0.464,0.148-0.919,0.297-1.383,0.445c-58.172,19.264-68.69,114.793-78.772,239.232
			C2501.669,1475.319,2486.314,1597.512,2486.314,1597.512z"/>
		<path style="fill:#D1E0F2;" d="M2632.144,1366.812c0,0,45.425,8.735,76.813-12.786c0,0-0.049-11.481-2.088-20.009
			c-2.039-8.528-75.468,26.306-75.468,26.306L2632.144,1366.812z"/>
		<path style="fill:#D1E0F2;" d="M2626.749,1322.584c0.018,0.121,0.028,0.251,0.046,0.381c3.193,25.075,7.074,159.958,7.074,280.368
			c0,0,4.401,0.51,11.41,0.798l-8.81-274.241c-15.829-65.71-37.701-130.065-5.682-179.659c0,0-1.892-1.11-3.933-1.9
			c-1.897-0.734-3.952-1.151-4.01-1.156C2586.042,1197.995,2614.81,1262.444,2626.749,1322.584z"/>
		<path style="fill:#D1E0F2;" d="M2503.201,1603.509v0.009c5.691,0.817,10.351,0.817,10.351,0.817
			c8.727-59.843,24.862-323.147,36.559-382.442c0.046-0.232,0.093-0.464,0.139-0.687c6.267-27.415,24.982-52.017,38.843-75.291
			c-0.464,0.148-0.919,0.297-1.383,0.445c-2.906,0.993-5.918,2.164-8.666,3.603c-2.757,2.989-5.9,7.092-8.834,11.084
			c-15.235,20.508-28.25,47.356-31.593,75.04C2532.5,1285.338,2509.337,1553.238,2503.201,1603.509z"/>
		<path style="fill:#D1E0F2;" d="M2621.199,1222.979c0,0,4.43,17.231,18.491,36.983s36.895,60.29-13.129,61.28l1.963,15.081
			l55.874-6.679l-11.316-77.086L2621.199,1222.979z"/>
		<path style="fill:#F99370;" d="M2647.103,1159.922c37.188,27.504,72.592,78.707,76.256,124.149
			c3.846,86.208-76.401,93.085-137.547,59.863c-12.89-6.551-2.174-26.36,11.657-22.693c10.076,2.589,17.198,4.853,27.13,5.131
			c88.163,2.465,35.111-68.561,0.926-100.512C2625.524,1225.86,2622.237,1142.48,2647.103,1159.922z"/>
		<path style="fill:#FFFFFF;" d="M2709.354,1348.148c-8.547,5.035-19.097,8.837-31.897,11.081c0,0-0.155-28.178-19.415-37.396
			c0,0,17.938-24.846-6.683-58.311c-13.366-18.167-30.803-30.469-33.675-54.484c-1.734-14.491,13.102-58.807,13.102-58.807
			c15.001,3.929,55.18,18.487,81.807,59.991C2743.397,1258.243,2755.365,1321.048,2709.354,1348.148z"/>
		<polygon style="fill:#1D3F70;" points="2578.173,1376.684 2479.314,1369.087 2448.926,1199.859 2547.785,1207.456 		"/>
		<path style="fill:#F99370;" d="M2472.001,1309.907c-4.334,0.846-12.949-3.953-6.364-7.836c2.505-1.347,4.849-0.146,6.881,0.67
			l-0.207,0.011C2478.996,1302.448,2477.908,1309.592,2472.001,1309.907z"/>
		<path style="fill:#F99370;" d="M2469.609,1303.362c-2.953-0.339-6.253-1.436-7.656-4.268c-1.885-4.555,7.502-7.138,9.163-3.111
			c-0.022-0.088-0.108-0.092,0.084,0.006c0.187,0.093,0.549,0.195,0.794,0.231c0.007,0.003,0.124,0.015-0.037-0.001
			C2478.701,1297.178,2474.875,1304.094,2469.609,1303.362z"/>
		<path style="fill:#F99370;" d="M2466.847,1296.589l-4.095-1.517c-5.883-2.752,1.041-8.48,5.158-6.526c0,0,4.094,1.517,4.094,1.517
			C2477.887,1292.815,2470.965,1298.543,2466.847,1296.589z"/>
		<path style="fill:#F99370;" d="M2465.531,1290.323l-4.095-1.518c-5.883-2.752,1.04-8.48,5.158-6.526c0,0,4.095,1.517,4.095,1.517
			C2476.572,1286.55,2469.649,1292.277,2465.531,1290.323z"/>
		<path style="fill:#F99370;" d="M2598.673,1332.181c-0.021-0.969-0.318-1.865-0.807-2.624c1.344-1.628,2.399-6.142,0.943-7.968
			c-7.11-8.917-25.075-14.126-35.375-15.593c-4.095-0.584-8.242-0.73-12.337-0.484c-3.987,0.148-4.057,6.41-0.01,6.581
			c4.381,0.272,8.682,1.039,12.843,2.35c-5.249-0.563-10.672-0.801-15.954-0.637c-3.894-0.036-4.368,6.032-0.456,6.554
			c7.418,1.057,14.769,2.966,21.84,5.43c-6.974-0.829-13.895-2.054-20.749-3.597c-3.979-0.948-5.614,5.26-1.646,6.373
			c7.489,2.298,15.097,4.202,22.797,5.668c-3.9-0.232-7.913-0.659-11.787-1.149c-3.912-0.56-5.132,5.518-1.233,6.461
			c1.425,0.379,2.849,0.774,4.282,1.14c10.135,2.507,20.499,4.425,30.979,4.571c5,0.557,8.498-5.522,5.226-9.434
			C2598.147,1334.886,2598.704,1333.596,2598.673,1332.181z"/>
		<path style="fill:#C16256;" d="M2617.155,1088.93c-0.381,0-0.709-0.286-0.754-0.673c-0.048-0.417,0.251-0.794,0.668-0.841
			l19.4-2.23c0.414-0.049,0.793,0.251,0.841,0.668c0.048,0.417-0.251,0.794-0.668,0.842l-19.4,2.23
			C2617.214,1088.928,2617.184,1088.93,2617.155,1088.93z"/>
		<path style="fill:#C16256;" d="M2624.01,1113.403c-0.259,0-0.511-0.132-0.653-0.37c-0.215-0.36-0.097-0.827,0.263-1.042
			l19.72-11.77c0.36-0.215,0.827-0.097,1.042,0.263c0.215,0.36,0.097,0.827-0.263,1.042l-19.72,11.77
			C2624.277,1113.368,2624.143,1113.403,2624.01,1113.403z"/>
		<path style="fill:#F99370;" d="M2657.649,1090.4c-3.71,17.139-24.637,12.714-21.093-4.459
			C2640.267,1068.802,2661.194,1073.226,2657.649,1090.4z"/>
		<path style="fill:#C16256;" d="M2652.209,1093.942c-0.569,0.007-1.002-0.572-0.826-1.117c3.266-9.117-0.775-12.949-6.924-10.418
			c-1.032,0.425-1.68-1.218-0.629-1.609c7.197-2.941,13.105,1.616,9.204,12.532
			C2652.922,1093.702,2652.58,1093.942,2652.209,1093.942z"/>
		<path style="fill:#C16256;" d="M2644.145,1092.734c-2.684-0.214,2.43-8.492,8.983-8.936c0.463-0.03,0.888,0.329,0.919,0.805
			c0.031,0.476-0.329,0.888-0.805,0.919C2646.54,1086.215,2645.731,1092.511,2644.145,1092.734z"/>
		<path style="fill:#F4D4BE;" d="M2648.207,1098.306c0.037,2.516-3.916,2.516-3.879,0
			C2644.291,1095.789,2648.244,1095.789,2648.207,1098.306z"/>
		<path style="fill:#EDEBFF;" d="M2558.082,1077.968c0,0,14.433,12.323,60.353,7.973c0,0-1.325,17.541,7.089,26.961
			c0,0-23.368,18.233-49.85,13.981c0,0-18.385-8.219-21.989-24.694S2558.082,1077.968,2558.082,1077.968z"/>
		<path style="fill:#C16256;" d="M2602.865,1069.243c-0.256,0-0.507-0.13-0.65-0.366c-4.95-8.159-11.956-8.748-12.026-8.753
			c-0.418-0.03-0.734-0.392-0.705-0.81c0.028-0.417,0.387-0.73,0.807-0.706c0.318,0.021,7.844,0.613,13.224,9.48
			c0.218,0.359,0.103,0.826-0.256,1.043C2603.135,1069.207,2603,1069.243,2602.865,1069.243z"/>
		<path style="fill:#C16256;" d="M2572.122,1061.581c-0.254,0-0.501-0.127-0.646-0.358c-0.222-0.356-0.113-0.825,0.243-1.047
			c0.221-0.137,5.471-3.349,11.333-2.036c0.409,0.092,0.667,0.498,0.575,0.907c-0.092,0.409-0.498,0.668-0.907,0.575
			c-5.261-1.179-10.148,1.813-10.198,1.844C2572.398,1061.544,2572.259,1061.581,2572.122,1061.581z"/>
		<path style="fill:#1D3F70;" d="M2601.436,1322.277c0,0,2.448,14.096-8.048,25.521c0,0,0.894,2.768,5.854,2.657
			c0,0,8.794-11.898,7.825-26.721C2607.067,1323.734,2604.824,1320.965,2601.436,1322.277z"/>
		<path style="fill:#CE3932;" d="M2492.586,1664.344c0,0,101.861,56.181,217.58,0.472c0,0-0.777-11.056-2.15-29.242
			c-10.196,1.762-22.68,6.894-37.232,18.297c-43.932,34.416-70.955,5.313-99.572,0c-26.065-4.841-34.708,18.505-78.487-2.15
			C2492.627,1656.285,2492.586,1660.502,2492.586,1664.344z"/>
	</g>
	<g id="_x34_">
		<path style="fill:#662948;" d="M1518.401,300.28c0,0,13.566-25.392,54.915-17.895c41.348,7.497,51.107,58.338,65.141,81.479
			c29.727,49.02,38.634,101.109,23.19,126.132c-17.152,27.791-55.029,16.924-110.343,11.94
			c-59.028-5.318-83.756-54.96-47.037-123.218L1518.401,300.28z"/>
		<path style="fill:#FFFFFF;" d="M1535.536,418.325c0,0.015-0.016,0.015-0.031,0.045c-0.093,0.151-0.343,0.544-0.749,1.164
			c-6.117,9.496-45.317,72.264-47.751,123.6c-0.266,5.791-1.202,11.507-2.715,17.117c-3.277-0.242-6.663-0.484-10.097-0.726
			c-4.526-0.318-9.129-0.65-13.686-0.983c-14.06-0.998-27.512-1.966-35.985-2.571c-5.509-41.008,50.608-125.097,101.777-135.062
			c0-0.015,0-0.015,0-0.015c0.016,0,0.031-0.015,0.047-0.015C1531.806,419.096,1535.224,418.37,1535.536,418.325z"/>
		<path style="fill:#F99370;" d="M1295.774,1035.848l82.217-0.875c-0.211-12.734-3.712-38.442-1.103-52.972
			c-0.002,0-35.491,4.437-35.491,4.437c0.984,6.98,3.169,22.117-8.787,25.74c-15.49,4.693-32.354,3.25-42.021,14.798
			C1288.08,1030.856,1291.048,1035.898,1295.774,1035.848z"/>
		<path style="fill:#1D3F70;" d="M1380.403,1027.276c-0.305,2.697-1.043,5.323-2.411,7.698l-83.018,0.883
			c-4.037,0.043-7.002-3.776-5.705-7.48c3.055-8.657,13.856-21.289,52.1-23.635c0,0,13.38,3.043,34.741-0.939
			C1376.111,1003.803,1381.656,1016.34,1380.403,1027.276z"/>
		<path style="fill:#E8C0A6;" d="M1313.676,1025.277c-0.656,0-1.282-0.377-1.551-1.001c-3.125-7.24-8.637-9.407-8.87-9.496
			c-4.405-6.49,8.159-1.972,11.972,8.238C1315.707,1024.06,1314.844,1025.298,1313.676,1025.277z"/>
		<path style="fill:#E8C0A6;" d="M1326.729,1023.609c-0.711,0-1.371-0.441-1.601-1.131c-2.786-8.394-10.4-12.206-10.477-12.243
			c-4.017-7.558,10.602,0.421,13.677,11.245C1328.692,1022.508,1327.844,1023.625,1326.729,1023.609z"/>
		<path style="fill:#E8C0A6;" d="M1341.58,1021.679c-0.689,0-1.335-0.414-1.582-1.078c-3.238-8.713-10.546-13.399-10.62-13.445
			c-3.117-7.932,10.185,1.584,13.784,12.34C1343.573,1020.531,1342.717,1021.698,1341.58,1021.679z"/>
		<path style="fill:#395B96;" d="M1289.317,1028.245l91.087-0.969c-0.305,2.697-1.043,5.323-2.411,7.698l-83.018,0.883
			C1290.882,1035.906,1287.904,1031.967,1289.317,1028.245z"/>
		<path style="fill:#FCB4B4;" d="M1556.24,731.693c-40.467-1.648-110.962-23.244-141.368,26.641
			c-33.289,54.482-25.14,170.064-21.773,225.92c-44.424,13.861-68.307,0-68.307,0c-18.925-114.34-81.254-374.783,127.167-338.646
			c-0.004-0.008,139.771-0.008,139.771-0.008C1615.109,691.777,1594.204,730.921,1556.24,731.693z"/>
		<path style="fill:#F99370;" d="M1394.366,1035.843l82.217-0.874c-0.211-12.734-3.712-38.442-1.103-52.972
			c-0.003,0-35.49,4.441-35.49,4.441c0.984,6.98,3.447,22.117-8.787,25.735c-15.523,4.591-32.354,3.25-42.021,14.798
			C1386.672,1030.851,1389.64,1035.893,1394.366,1035.843z"/>
		<path style="fill:#1D3F70;" d="M1478.995,1027.271c-0.305,2.698-1.043,5.323-2.411,7.698l-83.018,0.883
			c-4.037,0.043-7.002-3.776-5.705-7.48c3.055-8.657,13.856-21.289,52.1-23.635c0,0,13.398,3.463,34.759-0.519
			C1474.721,1004.218,1480.248,1016.335,1478.995,1027.271z"/>
		<path style="fill:#E8C0A6;" d="M1412.267,1025.272c-0.657,0-1.282-0.377-1.552-1.001c-3.125-7.24-8.637-9.407-8.87-9.496
			c-4.405-6.49,8.159-1.972,11.972,8.238C1414.298,1024.056,1413.436,1025.294,1412.267,1025.272z"/>
		<path style="fill:#E8C0A6;" d="M1425.321,1023.604c-0.712,0-1.372-0.441-1.601-1.131c-2.786-8.394-10.4-12.206-10.476-12.243
			c-4.017-7.558,10.602,0.421,13.678,11.245C1427.284,1022.504,1426.436,1023.62,1425.321,1023.604z"/>
		<path style="fill:#D1E0F2;" d="M1494.288,463.443c0,0-30.957,25.845-41.1,59.527c-8.189,27.193,20.054,19.045,25.101,4.117
			C1483.336,512.159,1494.288,463.443,1494.288,463.443z"/>
		<path style="fill:#E8C0A6;" d="M1440.172,1021.674c-0.69,0-1.335-0.414-1.583-1.078c-3.239-8.713-10.546-13.399-10.62-13.445
			c-3.117-7.932,10.185,1.584,13.784,12.34C1442.165,1020.526,1441.309,1021.693,1440.172,1021.674z"/>
		<path style="fill:#395B96;" d="M1387.908,1028.24l91.087-0.969c-0.305,2.698-1.043,5.323-2.411,7.698l-83.018,0.883
			C1389.474,1035.901,1386.496,1031.962,1387.908,1028.24z"/>
		<path style="fill:#F49F9F;" d="M1463.337,645.6l-11.956,84.44c-52.262,19.945-56.026,73.277-60.795,133.259
			C1366.385,770.628,1368.488,676.905,1463.337,645.6z"/>
		<path style="fill:#FCB4B4;" d="M1608.906,735.608c-42.351,25.261-84.645-2.302-114.429,55.96
			c-24.037,51.012-10.559,148.493-3.957,192.686c-44.425,13.861-68.308,0-68.308,0c-26.341-98.633-86.584-327.853,83.651-338.65
			c46.614-1.438,107.867-1.043,149.067-3.448C1654.929,642.156,1666.368,701.333,1608.906,735.608z"/>
		<path style="fill:#EB5648;" d="M1655.754,618.826c3.611,24.981-1.626,54.025-1.626,54.025
			c-55.031-16.951-105.06-18.519-188.652-29.832c52.793-153.226-69.487-46.014,70.083-224.709
			c0.335,0.027,34.675-0.603,34.675-0.603C1609.475,446.304,1634.63,487.845,1655.754,618.826z"/>
		<path style="fill:#FFFFFF;" d="M1535.505,418.37c-0.093,0.151-0.343,0.544-0.749,1.164c-6.117,9.496-45.317,72.264-47.751,123.6
			c-0.266,5.791-1.202,11.507-2.715,17.117c-12.921,48.463-68.023,90.243-106.505,115.601
			c-42.93,28.307-57.271,87.415-51.435,144.648c0,0-3.418,0.514-8.396,0.801c-7.287,0.439-17.915,0.408-26.123-2.344
			c0,0-10.377-68.468,9.426-110.671c19.787-42.218,63.341-65.898,117.007-81.85c2.013-0.59,3.917-1.24,5.743-1.92
			c21.02-7.848,30.383-21.185,34.253-35.837v-0.015c2.606-9.859,2.715-20.323,2.247-30.121c-0.39-8.211-1.217-15.968-1.342-22.5
			c-0.453-23.15,18.695-56.523,56.257-97.062C1521.616,432.297,1528.311,425.431,1535.505,418.37z"/>
		<path style="fill:#FFFFFF;" d="M1664.856,637.021c-0.968,19.915-3.464,39.27-8.521,55.812
			c-13.218,43.246-56.927,56.114-101.199,70.268s-45.504,57.4-45.504,57.4c-19.007,4.597-44.287,2.873-58.223,1.346
			c-6.32-0.696-10.3-1.346-10.3-1.346c9.02-109.719,71.706-132.294,105.179-162.325c33.473-30.031,5.836-91.452,6.335-135.213
			c0.468-42.384,16.557-101.432,17.571-105.077c0.015-0.06,0.031-0.121,0.047-0.181c2.45,0.938,4.838,1.905,7.163,2.934
			c64.168,27.868,81.615,84.739,84.689,124.946C1664.076,571.305,1666.448,604.904,1664.856,637.021z"/>
		<path style="fill:#D1E0F2;" d="M1568.666,463.022c-4.089,21.971-7.88,46.467-7.412,59.94c0.968,28.322,19.506,89.29,8.38,122.632
			c-11.127,33.342-54.696,39.526-84.97,81.729c-30.274,42.218-33.255,94.522-33.255,94.522c-6.32-0.696-10.3-1.346-10.3-1.346
			c9.02-109.719,71.706-132.294,105.179-162.325c33.473-30.031,5.836-91.452,6.335-135.213
			c0.468-42.384,16.557-101.432,17.571-105.077c0.015-0.06,0.031-0.121,0.047-0.181c2.575,0.045,5.15,0.181,7.725,0.423
			c-0.109,0.469-0.312,1.331-0.562,2.51C1575.907,427.246,1572.177,444.212,1568.666,463.022z"/>
		<path style="fill:#D1E0F2;" d="M1535.536,418.325c0,0.015-0.016,0.015-0.031,0.045c-0.093,0.151-0.343,0.544-0.749,1.164
			c-6.117,9.496-45.317,72.264-47.751,123.6c-0.266,5.791-1.202,11.507-2.715,17.117c-12.921,48.463-68.023,90.243-106.505,115.601
			c-42.93,28.307-57.271,87.415-51.435,144.648c0,0-3.418,0.514-8.396,0.801c-10.533-72.294,19.023-130.011,43.46-145.964
			c13.967-9.118,40.62-30.862,62.592-50.822c16.463-14.955,30.305-28.911,34.253-35.837v-0.015
			c5.415-9.526,11.564-19.597,15.933-29.138c3.028-6.623,5.197-12.989,5.665-18.735c1.108-14.002,0.562-35.323,14.435-63.116
			c6.913-13.866,14.872-27.989,21.13-38.695c6.305-10.781,10.877-18.07,10.877-18.07l0.047-0.03
			C1531.806,419.096,1535.224,418.37,1535.536,418.325z"/>
		<polygon style="fill:#163260;" points="1317.95,654.364 1502.943,654.364 1466.111,522.97 1282.236,522.97 		"/>
		<rect x="1317.95" y="653.714" style="fill:#234270;" width="184.993" height="8.923"/>
		<polygon style="fill:#0B274F;" points="1463.331,522.97 1469.95,522.97 1506.025,653.714 1593.817,653.714 1593.817,662.636 
			1499.863,662.636 1499.863,654.655 		"/>
		<path style="fill:#F99370;" d="M1536.392,406.405l-0.836,11.904c0,0-0.641,6.856,0.202,12.325
			c1.555,10.085,12.155,13.325,19.381,7.336c6.753-5.598,15.095-20.262,15.095-20.262s-0.054-6.888,0.59-11.687L1536.392,406.405z"
			/>
		<path style="fill:#E57D61;" d="M1577.546,372.331c-0.141,0.566-0.304,1.138-0.498,1.686c-0.741-0.583-4.957,19.225-6.487,34.326
			c-14.776,8.387-31.872,7.272-34.801,6.396c0.789-22.343,2.728-55.777,20.482-62.006
			C1568.147,349.07,1580.766,360.446,1577.546,372.331z"/>
		<path style="fill:#662948;" d="M1532.777,298.727c-44.616-5.186-51.694,63.057-21.372,88.167L1532.777,298.727z"/>
		<path style="fill:#F99370;" d="M1585.376,346.814c2.152,14.902,2.292,32.381-6.295,45.226l-0.019,0.006
			c-23.475,37.201-101.147,13.218-79.866-30.894c3.127-5.63,4.889-12.474,5.122-18.28
			C1505.02,281.954,1579.162,294.738,1585.376,346.814z"/>
		<path style="fill:#C16256;" d="M1526.676,354.748c-2.125-2.067,1.274-5.254,3.336-3.127
			C1532.137,353.688,1528.738,356.875,1526.676,354.748z"/>
		<path style="fill:#C16256;" d="M1507.064,357.276c-2.125-2.067,1.274-5.254,3.336-3.127
			C1512.526,356.216,1509.126,359.403,1507.064,357.276z"/>
		<path style="fill:#C16256;" d="M1518.747,374.17c-3.923,0.606-9.61-0.381-5.898-4.94c3.488-3.448,3.894-12.785,3.897-12.878
			c0.025-1.093,1.816-1.046,1.756,0.064c-0.016,0.41-0.436,10.089-4.401,14.005c-0.449,0.445-0.916,1.055-0.586,1.434
			c0.934,1.07,5.351,1.248,7.891-0.465c0.389-0.268,0.944-0.175,1.221,0.212C1523.285,373.38,1520.114,373.763,1518.747,374.17z"/>
		<path style="fill:#E57D61;" d="M1585.376,346.814c2.152,14.902,2.293,32.381-6.295,45.226l-0.019,0.006
			c3.961-9.63,2.474-28.087,2.474-28.087l-5.473-6.774c-55.931-0.725-64.155-41.618-64.155-41.618
			C1536.488,283.57,1582.458,312.465,1585.376,346.814z"/>
		<path style="fill:#662948;" d="M1516.196,310.431c0,0,8.317,40.262,58.939,42.698l13.562-13.617
			C1595.002,304.464,1552.009,268.58,1516.196,310.431z"/>
		<path style="fill:#F99370;" d="M1596.962,351.209c1.796,17.046-20.428,19.001-21.827,1.918
			C1573.339,336.083,1595.563,334.128,1596.962,351.209z"/>
		<path style="fill:#C16256;" d="M1591.728,346.798c0,0,0-0.001-0.001-0.001c-2.263-6.756-15.684,0.46-9.972,0.715
			c0.023-0.299,5.968-3.75,7.821-0.755c-5.859,2.679-7.812,13.263-4.42,9.842c0.006-0.064,0.713-6.091,5.321-8.369
			C1592.765,363.624,1594.845,352.944,1591.728,346.798z"/>
		<path style="fill:#F4D4BE;" d="M1590.153,361.391c0.789,2.358-3.051,3.504-3.768,1.125
			C1585.597,360.157,1589.437,359.011,1590.153,361.391z"/>
		<path style="fill:#F49F9F;" d="M1391.715,965.068c0.727,11.964,1.384,19.186,1.384,19.186c-44.424,13.861-68.307,0-68.307,0
			s-0.906-6.111-2.822-16.463C1322.502,968.049,1350.101,981.463,1391.715,965.068z"/>
		<path style="fill:#F49F9F;" d="M1490.52,984.254c-44.425,13.861-68.308,0-68.308,0s-1.492-5.542-4.009-15.108
			c0,0,24.494,12.344,69.995,0C1489.541,978.604,1490.52,984.254,1490.52,984.254z"/>
		<path style="fill:#C16256;" d="M1533.962,347.842c-0.215,0-0.431-0.066-0.612-0.204c-5.584-4.234-10.662-2.858-10.875-2.796
			c-0.527,0.151-1.079-0.14-1.235-0.65c-0.156-0.509,0.139-1.043,0.664-1.197c0.249-0.075,6.242-1.753,12.672,3.124
			c0.433,0.329,0.509,0.935,0.171,1.354C1534.55,347.715,1534.258,347.842,1533.962,347.842z"/>
		<path style="fill:#C16256;" d="M1504.746,350.168c-0.192,0-0.386-0.053-0.556-0.165c-0.456-0.298-0.576-0.898-0.268-1.338
			c0.13-0.187,3.23-4.569,8.4-4.376c0.549,0.021,0.976,0.469,0.955,1.001c-0.021,0.533-0.48,0.957-1.033,0.925
			c-4.063-0.126-6.647,3.492-6.673,3.528C1505.379,350.019,1505.065,350.168,1504.746,350.168z"/>
		<path style="fill:#C16256;" d="M1526.236,383.276c-1.301,0-2.442-0.448-3.165-1.356c-1.544-1.935-0.524-5.121,2.323-7.252
			c2.846-2.13,6.285-2.286,7.828-0.351c0,0,0,0,0,0c1.543,1.935,0.523,5.121-2.323,7.252
			C1529.388,382.701,1527.71,383.276,1526.236,383.276z M1530.046,374.902c-0.987,0-2.241,0.397-3.436,1.292
			c-2.063,1.546-2.691,3.637-1.965,4.548c0.726,0.91,2.973,0.848,5.036-0.697c2.063-1.546,2.691-3.637,1.966-4.548l0,0
			C1531.342,375.113,1530.765,374.902,1530.046,374.902z"/>
		<path style="fill:#F99370;" d="M1630.939,446.777c42.645,30.971,65.422,86.708,54.158,137.391
			c-4.316,28.471-22.855,55.549-51.855,63.608c-14.318,5.549-81.109,14.473-77.997-8.501c1.059-5.512,6.103-7.541,10.99-9.013
			c8.052-2.751,16.352-5.791,24.03-9.173c13.749-6.915,31.427-13.394,34.42-28.353c6.373-34.928-8.396-69.076-35.331-91.877
			c0.048,0.027-0.127-0.105,0.271,0.176C1553.122,474.688,1594.218,420.762,1630.939,446.777z"/>
		<path style="fill:#FFFFFF;" d="M1664.856,637.021c-2.653,1.557-5.446,3.07-8.349,4.521c-21.114,10.6-42.29,12.263-58.098,12.823
			c0,0,3.652-22.863-13.389-32.268c80.397-59.214-5.1-93.696-11.639-151.633c-2.557-22.65,4.586-52.335,4.586-52.335
			C1676.201,427.125,1775.605,572.303,1664.856,637.021z"/>
		<path style="fill:#F99370;" d="M1514.497,653.714c0,0,8.24-27.914,57.424-24.698l10.3,24.698H1514.497z"/>
		<path style="fill:#D1E0F2;" d="M1609.823,653.594c-7.033,0.759-11.41,0.772-11.41,0.772s3.649-22.858-13.396-32.275
			c0,0,4.195-2.642,9.676-7.331C1594.694,614.762,1613.375,628.054,1609.823,653.594z"/>
		<path style="fill:#E57D61;" d="M1517.183,653.432c-8.741,0.26,23.077-20.891,32.568-15.719c0.078,0.746-0.481,1.412-1.249,1.487
			C1530.596,641.013,1518.691,653.379,1517.183,653.432z"/>
		<path style="fill:#E57D61;" d="M1530.66,653.911c-6.632-2.744,13.971-7.445,24.172-10.12c0.751-0.154,1.496,0.32,1.653,1.053
			c0.156,0.733-0.33,1.449-1.087,1.601C1544.532,648.613,1531.755,653.796,1530.66,653.911z"/>
		<path style="fill:#D1E0F2;" d="M1592.839,621.513c-0.689,0-1.373-0.294-1.835-0.858c-0.804-0.981-0.635-2.408,0.378-3.187
			c31.357-24.115,28.603-54.605,19.101-69.215c-10.351-15.916-28.261-45.03-28.44-45.321c-0.661-1.076-0.298-2.468,0.812-3.11
			c1.111-0.642,2.546-0.288,3.209,0.787c0.179,0.292,18.06,29.357,28.38,45.225c10.402,15.994,13.619,49.216-20.151,75.187
			C1593.862,621.352,1593.349,621.513,1592.839,621.513z"/>
		<path style="fill:#D1E0F2;" d="M1605.652,654.055c-1.213,0-2.24-0.907-2.332-2.098c-0.098-1.249,0.869-2.338,2.158-2.432
			c0.382-0.028,38.44-2.915,55.964-13.128c1.106-0.644,2.545-0.3,3.213,0.775c0.666,1.074,0.309,2.467-0.799,3.113
			c-18.479,10.768-56.419,13.646-58.025,13.763C1605.77,654.053,1605.71,654.055,1605.652,654.055z"/>
	</g>
	<g id="_x33_">
		<path style="fill:#8A9EDD;" d="M887,1115v614c0,19.33,66.71,35,149,35c82.291,0,149-15.67,149-35v-614H887z"/>
		<path style="fill:#23659B;" d="M1149.36,1091c-29.218-7.422-69.224-12-113.36-12c-44.136,0-84.142,4.578-113.36,12H874v30
			c0,23.196,72.53,42,162,42c89.47,0,162-18.804,162-42v-30H1149.36z"/>
		<ellipse style="fill:#3A72AA;" cx="1036" cy="1091" rx="162" ry="42"/>
		<path style="fill:#7689D6;" d="M1017.602,1683.373c0,0-46.683-3.479-46.683-3.479c-0.008-0.003-0.03-0.002-0.04-0.003
			l-47.096-3.51c-12.144-0.905-22.736,8.158-23.733,20.281c-1.912,32.946,47.522,23.45,67.536,27.426
			c0.006-0.001,0.022-0.02,0.021-0.019c-0.02,0.044,47.112,3.529,47.115,3.531c6.102,0.455,11.81-1.608,16.106-5.308
			C1045.847,1710.259,1036.933,1684.166,1017.602,1683.373z"/>
		<path style="fill:#7689D6;" d="M1132.89,1674.917c0,0-45.129,12.443-45.129,12.443c-0.009,0-0.029,0.009-0.039,0.01
			l-45.528,12.553c-11.74,3.236-18.661,15.337-15.519,27.089c9.292,31.666,52.643,6.079,72.827,3.084
			c0.006-0.003,0.014-0.026,0.014-0.024c-0.004,0.048,45.549-12.54,45.553-12.539c5.898-1.626,10.579-5.49,13.378-10.422
			C1168.538,1690.723,1151.359,1669.154,1132.89,1674.917z"/>
		<path style="fill:#7689D6;" d="M1118.452,1626.485c-15.668-29.044-52.757,4.989-71.879,12.112
			c-0.005,0.004-0.008,0.028-0.008,0.027c-0.006-0.048-41.951,21.728-41.955,21.729c-5.432,2.816-9.208,7.568-10.921,12.973
			c-6.465,18.127,14.82,35.656,31.688,26.182c0,0,41.56-21.546,41.559-21.546c0.009-0.001,0.026-0.015,0.036-0.018l41.927-21.737
			C1119.71,1650.602,1123.968,1637.328,1118.452,1626.485z"/>
		<path style="fill:#7689D6;" d="M989.656,1617.278c-0.006,0-0.026,0.014-0.025,0.012c0.03-0.037-44.744-15.164-44.747-15.167
			c-5.795-1.962-11.838-1.388-16.921,1.125c-17.545,7.909-15.419,35.401,3.104,40.988l44.341,15.009
			c0.007,0.005,0.029,0.009,0.038,0.013l44.734,15.142c11.534,3.905,24.052-2.231,28.041-13.724
			C1058.288,1629.249,1008.047,1626.119,989.656,1617.278z"/>
		<path style="fill:#7689D6;" d="M1107.093,1604.776c-0.006-0.001-0.028,0.009-0.027,0.008c0.036-0.032-41.498-22.581-41.5-22.584
			c-5.375-2.922-11.427-3.388-16.865-1.781c-18.638,4.798-21.236,32.249-3.94,40.917l41.128,22.359
			c0.006,0.006,0.027,0.014,0.035,0.019l41.492,22.557c10.698,5.817,24.08,1.908,29.972-8.734
			C1172.673,1628.289,1123.705,1616.627,1107.093,1604.776z"/>
		<path style="fill:#7689D6;" d="M1056.229,1549.077c0,0-44.071,15.785-44.071,15.786c-0.009,0-0.028,0.011-0.038,0.013
			l-44.461,15.925c-11.464,4.106-17.461,16.69-13.448,28.174c11.636,30.881,52.95,2.122,72.854-2.375
			c0.005-0.004,0.012-0.027,0.012-0.025c0,0.048,44.483-15.914,44.487-15.913c5.76-2.063,10.138-6.267,12.561-11.394
			C1092.959,1562.171,1074.214,1541.948,1056.229,1549.077z"/>
		<path style="fill:#7689D6;" d="M1133.356,1544.763c-0.006-0.003-0.03,0.001-0.028,0c0.044-0.02-32.874-33.931-32.875-33.935
			c-4.259-4.393-9.896-6.643-15.566-6.73c-19.22-0.98-29.889,24.446-15.965,37.879c0,0,32.587,33.609,32.587,33.609
			c0.004,0.008,0.021,0.021,0.028,0.029l32.875,33.906c8.476,8.743,22.414,9.003,31.213,0.603
			C1188.937,1586.766,1145.676,1561.029,1133.356,1544.763z"/>
		<path style="fill:#7689D6;" d="M1111.063,1470.959c0,0-43.559,17.147-43.559,17.147c-0.009,0.001-0.028,0.012-0.037,0.015
			l-43.945,17.299c-11.331,4.46-16.934,17.225-12.566,28.578c12.59,30.505,52.99,0.476,72.745-4.637
			c0.005-0.004,0.011-0.027,0.011-0.026c0.001,0.048,43.967-17.288,43.971-17.288c5.693-2.241,9.939-6.579,12.201-11.778
			C1148.183,1482.905,1128.819,1463.275,1111.063,1470.959z"/>
		<path style="fill:#7689D6;" d="M1039.005,1468.938c0,0-44.851-13.41-44.851-13.41c-0.007-0.005-0.029-0.008-0.038-0.012
			l-45.248-13.529c-11.667-3.489-23.956,3.092-27.531,14.72c-8.933,31.769,41.387,33.096,60.083,41.272
			c0.007,0,0.026-0.015,0.025-0.014c-0.029,0.038,45.259,13.551,45.262,13.554c5.862,1.753,11.88,0.963,16.87-1.731
			C1060.826,1501.256,1057.716,1473.858,1039.005,1468.938z"/>
		<path style="fill:#7689D6;" d="M993.129,1496.705c0,0-38.309,26.904-38.309,26.904c-0.008,0.002-0.024,0.018-0.033,0.023
			l-38.648,27.142c-9.966,6.998-12.412,20.722-5.497,30.731c19.407,26.692,51.618-11.991,69.617-21.604
			c0.004-0.005,0.004-0.029,0.005-0.028c0.012,0.047,38.673-27.137,38.677-27.137c5.007-3.516,8.114-8.73,9.091-14.316
			C1032.017,1499.593,1008.581,1485.063,993.129,1496.705z"/>
		<path style="fill:#7689D6;" d="M1163.557,1476.192c0,0-31.061-35.024-31.061-35.024c-0.003-0.008-0.02-0.022-0.026-0.03
			l-31.336-35.334c-8.079-9.111-21.992-9.991-31.155-1.99c-24.328,22.298,17.747,49.933,29.332,66.73
			c0.005,0.004,0.029,0.001,0.028,0.002c-0.045,0.017,31.333,35.359,31.334,35.362c4.06,4.578,9.591,7.076,15.251,7.415
			C1165.082,1515.157,1176.87,1490.23,1163.557,1476.192z"/>
		<path style="fill:#7689D6;" d="M1030.211,1375.314c-11.51-30.929-52.941-2.339-72.863,2.077c-0.005,0.004-0.012,0.027-0.012,0.025
			c0.001-0.048-44.548,15.731-44.552,15.731c-5.768,2.04-10.164,6.225-12.607,11.342c-8.905,17.061,9.757,37.36,27.772,30.305
			c0,0,44.135-15.605,44.135-15.605c0.009,0,0.028-0.011,0.038-0.013l44.526-15.743
			C1028.13,1399.373,1034.178,1386.814,1030.211,1375.314z"/>
		<path style="fill:#7689D6;" d="M1105.452,1369.674c13.809-29.973-35.679-39.182-52.86-50.191
			c-0.006-0.001-0.028,0.011-0.026,0.009c0.035-0.033-42.571-20.487-42.573-20.49c-5.514-2.651-11.582-2.815-16.932-0.939
			c-18.376,5.719-19.605,33.266-1.898,41.062c0,0,42.19,20.284,42.19,20.284c0.006,0.006,0.027,0.012,0.036,0.017l42.564,20.463
			C1086.926,1385.167,1100.096,1380.597,1105.452,1369.674z"/>
		<path style="fill:#7689D6;" d="M1167.206,1381.941c-24.837-21.73-47.68,23.127-63.103,36.488
			c-0.003,0.006,0.002,0.029,0.001,0.028c-0.022-0.043-31.701,35.029-31.705,35.03c-4.104,4.538-5.979,10.311-5.694,15.974
			c0.283,19.243,26.355,28.22,38.845,13.445c0,0,31.398-34.721,31.398-34.722c0.007-0.004,0.02-0.023,0.027-0.03l31.676-35.029
			C1176.82,1404.094,1176.165,1390.17,1167.206,1381.941z"/>
		<path style="fill:#7689D6;" d="M1103.939,1436.231c-6.825-32.287-52.018-10.117-72.373-8.686
			c-0.006,0.003-0.016,0.025-0.016,0.023c0.008-0.047-46.38,8.993-46.384,8.992c-6.006,1.167-10.971,4.659-14.141,9.36
			c-11.323,15.562,4.144,38.39,23.002,34.068c0,0,45.953-8.929,45.953-8.929c0.009,0.001,0.03-0.006,0.039-0.007l46.36-9.008
			C1098.333,1459.722,1106.167,1448.191,1103.939,1436.231z"/>
		<path style="fill:#7689D6;" d="M1049.633,1586.292c13.627-30.056-35.917-38.964-53.164-49.869
			c-0.007-0.001-0.028,0.011-0.026,0.01c0.034-0.034-42.695-20.228-42.697-20.231c-5.53-2.617-11.599-2.745-16.938-0.836
			c-18.341,5.831-19.402,33.385-1.648,41.073c0,0,42.313,20.027,42.313,20.027c0.006,0.006,0.028,0.012,0.036,0.017l42.687,20.204
			C1031.202,1601.897,1044.344,1597.247,1049.633,1586.292z"/>
		<path style="fill:#7689D6;" d="M1122.524,1345.787c-23.48-23.189-48.989,20.207-65.19,32.613c-0.003,0.006,0.001,0.03,0,0.028
			c-0.02-0.044-33.758,33.052-33.761,33.053c-4.37,4.282-6.59,9.931-6.648,15.601c-0.879,19.225,24.603,29.76,37.962,15.765
			c0,0,33.437-32.763,33.437-32.763c0.008-0.004,0.021-0.022,0.029-0.028l33.733-33.053
			C1130.784,1368.48,1130.971,1354.541,1122.524,1345.787z"/>
	</g>
	<g id="_x32_">
		<path style="fill:#F99370;" d="M640.309,1767.543c10.524-13.892-2.276-77.399-1.83-93.632h47.795
			c0.541,16.187-11.461,79.841-1.427,93.603C687.69,1772.482,637.453,1772.428,640.309,1767.543z"/>
		<path style="fill:#F99370;" d="M874.307,1786.661h-83.658c-4.957,0-8.841-4.255-8.388-9.192c0.795-8.649,2.657-20.53,2.06-26.034
			c0.332-5.065-6.964-70.731-7.507-77.525h52.7l-8.504,67.797c-1.003,7.995,3.77,15.612,11.422,18.136
			c10.337,3.41,22.109,4.889,29.886,6.892c7.508,1.896,14.258,4.514,17.63,10.283
			C882.445,1781.29,879.254,1786.661,874.307,1786.661z"/>
		<path style="fill:#395B96;" d="M779.469,1777.836l0.011,0.093c0.609,4.986,4.843,8.733,9.866,8.733h84.287
			c4.834,0,8.371-4.691,6.897-9.295c-4.443-13.879-18.364-22.475-57.835-25.932c-0.002,0.002-14.515,4.321-38.376,0.002
			C784.32,1751.437,777.934,1765.271,779.469,1777.836z"/>
		<path style="fill:#395B96;" d="M644.19,1786.662h36.756c5.148,0,9.351-4.264,9.115-9.408
			c-1.587-34.601-53.636-34.884-54.988,0.034C634.874,1782.419,639.055,1786.662,644.19,1786.662z"/>
		<path style="fill:#E8C0A6;" d="M853.802,1774.719c0.741,0,1.443-0.443,1.738-1.171c3.392-8.367,9.508-10.927,9.766-11.032
			c2.254-0.87,0.859-4.407-1.384-3.485c-0.318,0.125-7.833,3.183-11.857,13.109C851.549,1773.337,852.506,1774.744,853.802,1774.719
			z"/>
		<path style="fill:#E8C0A6;" d="M839.233,1772.961c0.8,0,1.542-0.517,1.79-1.321c2.982-9.632,11.44-14.169,11.525-14.214
			c2.162-1.092,0.408-4.478-1.733-3.326c-0.403,0.21-9.917,5.26-13.375,16.431C837.053,1771.711,837.996,1772.98,839.233,1772.961z"
			/>
		<path style="fill:#E8C0A6;" d="M822.651,1770.923c0.776,0,1.502-0.485,1.771-1.26c3.519-10.116,11.585-15.54,11.666-15.594
			c2.045-1.307-0.057-4.504-2.068-3.128c-0.375,0.248-9.208,6.191-13.139,17.49C820.442,1769.62,821.391,1770.944,822.651,1770.923z
			"/>
		<path style="fill:#E8C0A6;" d="M649.059,1762.65c14.308-8.085,27.031,2.511,29.089-1.102c1.681-3.799-17.058-9.493-30.038-2.392
			C646.465,1760.048,647.221,1762.721,649.059,1762.65z"/>
		<path style="fill:#4867AA;" d="M880.675,1777.836H779.469l0.011,0.093c0.609,4.986,4.843,8.733,9.866,8.733h85.177
			c4.496,0,7.703-4.435,6.207-8.674C880.711,1777.937,880.693,1777.887,880.675,1777.836z"/>
		<path style="fill:#4867AA;" d="M643.44,1786.662h38.263c4.748,0,8.6-3.931,8.401-8.674c-0.002-0.05-0.004-0.101-0.007-0.151
			h-55.052c-0.003,0.062-0.005,0.123-0.007,0.184C634.862,1782.752,638.705,1786.662,643.44,1786.662z"/>
		<path style="fill:#8C4225;" d="M768.653,922.802c0,0,4.816-27.152-19.014-35.941l-15.051,11.309L768.653,922.802z"/>
		<path style="fill:#FFFFFF;" d="M809.891,1125.622c66.892,50.377,171.565,35.295,210.279-37.981l-9.8-20.368
			c-112.225,48.239-156.4-46.275-247.453-51.716l18.341,23.398C781.258,1038.956,808.316,1124.018,809.891,1125.622z"/>
		<path style="fill:#CE4ABF;" d="M632.705,1738.535c0,0,40.224,9.771,60.946-0.728c10.786-67.638,40.727-255.971,51.156-385.028
			c0.399,7.525,22.308,311.021,26.478,385.028c14.308,4.787,43.075,10.562,59.175-1.033c7.232-77.908,30.453-334.408-4.526-543.896
			c0,0-95.857,10.663-170.716-11.958C634.611,1247.368,629.153,1658.792,632.705,1738.535z"/>
		<path style="fill:#F99370;" d="M752.512,1013.782c0.663-20.663,3.231-61.641-13.537-67.135
			c-12.043-4.181-26.299,6.078-22.594,19.65c1.092-0.687,4.587,38.014,2.175,48.755
			C686.775,1024.586,782.359,1055.937,752.512,1013.782z"/>
		<path style="fill:#E57D61;" d="M716.057,964.536c0.083,0.588,0.188,1.185,0.325,1.761c0.787-0.521,2.991,20.83,3.011,36.327
			c14.563,6.622,30.417,4.027,33.388,3.417c0.812-21.39,2.118-53.42-13.807-59.393C727.606,941.786,714.056,952.147,716.057,964.536
			z"/>
		<path style="fill:#F99370;" d="M693.174,950.263c2.445,15.172,7.567,32.273,19.551,42.31h0.02
			c17.469,13.228,43.059,11.819,60.828-2.765h0.01c13.713-12.812,18.05-30.063,10.833-43.353
			c-4.721-7.834-13.416-14.727-15.762-23.655C748.305,863.406,684.537,896.623,693.174,950.263z"/>
		<path style="fill:#C16256;" d="M751.078,940.908c1.388-2.637-2.785-4.757-4.095-2.08
			C745.594,941.464,749.767,943.584,751.078,940.908z"/>
		<path style="fill:#C16256;" d="M770.386,937.661c1.388-2.637-2.785-4.757-4.095-2.08
			C764.902,938.218,769.076,940.338,770.386,937.661z"/>
		<path style="fill:#E57D61;" d="M693.178,950.265c2.445,15.172,7.567,32.274,19.551,42.31h0.02
			c0.994,0.826,1.674,1.226,2.757,1.924c-9.121-9.052-14.043-28.097-14.043-28.097l2.145-16.442
			c14.72-14.917,8.383-31.693,8.383-31.693c24.618,6.907,32.913-8.285,32.913-8.285c7.783,1.004,15.968-3.011,15.968-3.011
			C732.868,866.457,684.51,909.553,693.178,950.265z"/>
		<path style="fill:#8C4225;" d="M700.727,910.724c10.465,4.138,14.139,28.444-10.59,45.06
			C690.136,955.783,678.156,915.74,700.727,910.724z"/>
		<path style="fill:#D1E0F2;" d="M1000.978,1071.126c-4.179,20.576,14.021,25.365,14.021,25.365c3.47-5.211,5.176-8.862,5.172-8.85
			l-9.8-20.368C1010.37,1067.274,1006.045,1068.729,1000.978,1071.126z"/>
		<path style="fill:#C16256;" d="M763.084,957.636c4.204-0.05,10.742-2.885,5.426-6.621c-4.336-2.349-7.527-11.344-7.559-11.435
			c-0.354-1.063-2.031-0.489-1.641,0.574c0.139,0.396,3.446,9.72,8.372,12.388c3.404,2.085-3.688,4.106-6.616,3.073
			c-0.461-0.147-0.947,0.106-1.094,0.562C759.724,957.739,761.995,957.519,763.084,957.636z"/>
		<path style="fill:#E8C0A6;" d="M645.609,1274.849c52.05,21.641,181.694,23.399,194.268,8.076
			c24.586-60.699-20.784-222.509-76.954-267.36c-0.494-0.137-6.833-1.757-10.395-1.763c0.246,0.994,6.535,27.157-33.974,1.249
			c-0.231,0.274-9.883,0.445-12.454,2.219C709.01,1059.592,626.688,1228.514,645.609,1274.849z"/>
		<path style="fill:#D1E0F2;" d="M812.548,1051.875l25.159,90.07c39.239,21.627,106.303,17.19,137.448-7.143
			c-111.499,43.191-120.597-42.16-161.102-82.927H812.548z"/>
		<path style="fill:#8C4225;" d="M704.805,887.368C713,877.647,727.92,872.894,731.337,863c0,0,5.063,9.479,4.474,20.07
			c3.97-4.448,7.61-9.318,10.46-14.543c4.023,4.06,6.173,8.711,6.82,13.487c12.771-2.781,23.968,2.34,23.968,2.34
			c-6.563,18.546-21.873,22.63-33.881,22.699c-9.965,9.536-25.877,13.862-41.267,4.418l-14.825,19.163
			C666.019,894.119,704.805,887.368,704.805,887.368z"/>
		<path style="fill:#A523A2;" d="M771.284,1737.807c0.334-6.504-26.478-385.028-26.478-385.028s12.663,6.76,15.674,46.954
			c2.618,34.947,18.237,267.176,22.27,327.221c27.506,6.148,48.955-3.749,48.955-3.749c-0.836,8.797-1.247,13.569-1.247,13.569
			c-13.17,9.486-34.814,7.346-50.088,3.633c-3.708-0.86-6.592-1.777-8.043-2.259C771.974,1738.033,771.621,1737.92,771.284,1737.807
			z"/>
		<path style="fill:#A523A2;" d="M632.705,1738.535c0,0,40.224,9.771,60.946-0.728c0,0,0.856-5.235,2.352-14.602
			c0,0-28.339,7.653-63.791-0.288C632.054,1732.049,632.833,1737.777,632.705,1738.535z"/>
		<path style="fill:#FFFFFF;" d="M607.163,1546.963c38.311,10.823,71.049,10.245,87.531,8.862
			c7.295-0.607,11.401-1.369,11.401-1.369s12.869-265.952,16.778-322.171c6.308-57.997,10.922-192.038-16.778-215.011L696,1019
			C628.718,1102.495,613.372,1506.069,607.163,1546.963z"/>
		<path style="fill:#FFFFFF;" d="M829.511,1556.573c0,0,3.669,0.55,9.13,0.748c10.851,0.409,28.801-0.635,38.834-10.358
			c1.284-21.463,18.697-503.681-102.292-530.281l-0.014-0.014c-3.937-0.86-8.015-1.242-12.249-1.115
			C841.915,1089.891,837.315,1494.117,829.511,1556.573z"/>
		<path style="fill:#FFFFFF;" d="M713.928,980.166c0,0.006,42.064,25.083,59.654,9.641c15.518-13.624,18-30.034,10.833-43.353
			c0,0-19.791,6.893-64.511,5.004C719.904,951.459,723.03,971.626,713.928,980.166z"/>
		<path style="fill:#C16256;" d="M719.905,952.328c0.974,0.029,1.195-1.475,0.226-1.708l-18.516-5.006
			C695.597,947.546,720.11,951.786,719.905,952.328z"/>
		<path style="fill:#C16256;" d="M713.927,981.036c0.823,0.029,1.203-1.15,0.482-1.593c-0.525,0.163-18.068-13.225-18.196-11.049
			C694.896,969.734,713.317,980.548,713.927,981.036z"/>
		<path style="fill:#F99370;" d="M683.539,957.93c3.733,17.243,24.787,12.792,21.221-4.486
			C701.027,936.201,679.973,940.653,683.539,957.93z"/>
		<path style="fill:#C16256;" d="M689.011,961.494c0.572,0.007,1.008-0.576,0.831-1.123c-3.286-9.173,0.78-13.028,6.966-10.481
			c6.084-2.076-15.451-7.687-8.627,10.99C688.294,961.253,688.639,961.494,689.011,961.494z"/>
		<path style="fill:#C16256;" d="M697.125,960.279c2.635-0.372-2.364-8.445-9.038-8.989c-1.128-0.098-1.24,1.678-0.115,1.734
			C694.69,953.718,695.534,960.056,697.125,960.279z"/>
		<path style="fill:#D1E0F2;" d="M704.414,1068.121c4.346,33.867-27.511,88.494,22.336,103.791l-37.544,9.007l-10.474-40.6
			L704.414,1068.121z"/>
		<path style="fill:#D1E0F2;" d="M829.511,1556.573c0,0,3.669,0.55,9.13,0.748c7.394-70.189,5.32-160.26,3.654-204.54
			c-1.736-45.72-7.295-140.18-22.648-223.407c-15.367-83.227-44.464-112.691-44.464-112.691l-0.014-0.014
			c-3.937-0.86-8.015-1.242-12.249-1.115C841.915,1089.891,837.315,1494.117,829.511,1556.573z"/>
		<path style="fill:#D1E0F2;" d="M638.682,1218.968l-0.649,6.413c29.627,14.631,84.847,6.91,84.847,6.91
			c0.561-8.55,1.112-16.766,1.633-24.657l-78.066-22.916C643.943,1198.409,640.621,1204.765,638.682,1218.968z"/>
		<path style="fill:#D1E0F2;" d="M694.694,1555.825c7.295-0.607,11.401-1.369,11.401-1.369s12.869-265.952,16.778-322.171
			c6.308-57.997,10.927-192.042-16.773-215.015L696,1019c9.318,5.497,22.147,46.026,21.794,102.457
			c-0.479,75.65-8.17,167.471-12.009,231.323C702.498,1407.531,696.373,1523.807,694.694,1555.825z"/>
		<path style="fill:#C16256;" d="M740.121,937.327c0.267,0,0.524-0.153,0.642-0.412c3.058-6.698,10.25-6.536,10.301-6.528
			c0.374-0.007,0.717-0.292,0.73-0.681c0.012-0.39-0.292-0.716-0.681-0.73c-0.087-0.007-8.191-0.189-11.635,7.352
			c-0.161,0.356-0.005,0.773,0.349,0.936C739.922,937.307,740.023,937.327,740.121,937.327z"/>
		<path style="fill:#C16256;" d="M769.051,929.216c0.214,0,0.426-0.096,0.563-0.281c0.234-0.311,0.174-0.751-0.136-0.985
			c-0.163-0.123-4.056-3-10.462-0.735c-0.367,0.131-0.56,0.534-0.43,0.901c0.131,0.368,0.532,0.559,0.901,0.43
			c5.654-1.997,9.002,0.426,9.141,0.529C768.755,929.171,768.904,929.216,769.051,929.216z"/>
		<path style="fill:#D1A68F;" d="M706.121,1017.271c8.67,8.14,61.529,43.393,56.803-1.709c-0.494-0.134-6.834-1.753-10.395-1.759
			c0.246,0.994,4.336,25.471-33.974,1.249C718.391,1014.948,708.628,1015.629,706.121,1017.271z"/>
		<path style="fill:#F99370;" d="M1029.99,1033.95c4.332,1.846-4.165,12.097-4.289,16.474c7.905-2.545,15.135-7.395,15.188-7.378
			c7.361-7.183,14.32-14.752,20.94-22.637c2.06-2.578,6.251,0.464,4.375,3.231c-5.458,8.432-11.303,16.652-17.539,24.542
			c0.058,0.066,0.044,0.049,0.102,0.114c8.632-5.448,16.996-11.354,24.848-17.88c0.973-0.809,2.191-1.298,3.456-1.275
			c10.932,0.202-21.632,24.635-24.236,26.857c0.025,0.036,0.019,0.027,0.044,0.063c8.922-3.725,17.421-8.479,25.344-14.034
			c1.168-0.819,2.611-1.215,4.013-0.945c9.68,1.866-24.303,23.204-27.685,24.531c0.003,0.041,0.005,0.081,0.008,0.122
			c7.375-1.889,14.523-4.656,21.479-7.778c1.129-0.507,2.404-0.655,3.597-0.323c9.785,2.725-21.971,16.909-25.233,17.925
			c-3.411,2.065-15.891,10.651-34.994,13.585c-5.953,0.914-14.311-13.668-11.515-20.965c1.588-4.144,7.366-13.425,8.912-15.678
			C1018.672,1048.181,1024.516,1032.292,1029.99,1033.95z"/>
		<path style="fill:#EB5648;" d="M878.632,1052.518c0.017,0.02,127.493,103.961,127.346,104.057c0,0-109.898,134.62-109.898,134.62
			c-43.535,57.122-141.881,28.728-146.539-42.564c-2.119-20.942,3.751-42.696,18.115-60.291
			C767.669,1188.335,878.542,1052.364,878.632,1052.518z"/>
		<path style="fill:#FFFFFF;" d="M1105.734,905.3c34.761,28.827,39.799,80.331,11.21,115.349l-110.871,135.811
			c-0.14,0.144-127.494-103.95-127.452-104.046C933.297,999.985,1009.575,829.394,1105.734,905.3z"/>
		<path style="fill:#F99370;" d="M815.985,1161.224c2.965,3.658-9.342,8.741-11.5,12.552c8.176,1.45,16.836,0.548,16.875,0.587
			c9.867-2.904,19.559-6.335,29.099-10.206c3.027-1.315,5.307,3.336,2.355,4.903c-8.769,4.898-17.782,9.427-26.985,13.481
			c0.021,0.085,0.016,0.064,0.037,0.149c10.178-0.775,20.334-2.081,30.327-4.173c1.238-0.259,2.544-0.122,3.651,0.491
			c9.566,5.294-30.646,11.648-33.987,12.393c0.005,0.043,0.004,0.033,0.009,0.076c9.628,0.883,19.363,0.659,28.965-0.543
			c1.416-0.177,2.876,0.149,3.988,1.043c7.682,6.179-32.336,9.133-35.947,8.724c-0.017,0.037-0.033,0.074-0.05,0.111
			c7.401,1.782,15.013,2.681,22.622,3.178c1.235,0.081,2.431,0.546,3.33,1.398c7.372,6.987-27.33,4.662-30.688,4.032
			c-3.981,0.228-16.134,4.713-34.385-1.647c-5.689-1.978-8.227-28.334-2.462-29.657c4.326-0.992,11.99-5.4,14.411-6.667
			C799.323,1168.504,811.923,1157.197,815.985,1161.224z"/>
		<path style="fill:#FFFFFF;" d="M771.167,1212.16c4.102-1.358,8.272-2.824,12.531-4.388c0.698-3.67,4.997-20.978-2.459-29.656
			c-178.13-7.779-42.212-69.113-85.24-159.115C568.253,1027.421,504.199,1287.088,771.167,1212.16z"/>
		<path style="fill:#D1E0F2;" d="M771.163,1212.16c4.103-1.358,8.275-2.824,12.536-4.388c0.698-3.67,4.998-20.978-2.46-29.656
			c0,0-4.879-0.515-10.076-0.515C771.163,1177.6,779.949,1193.072,771.163,1212.16z"/>
	</g>
	<g id="_x31__12_">
		<path style="fill:#23659B;" d="M2348.375,1705.487h-192.366v-283.14c0-40.929,33.179-74.108,74.108-74.108h44.151
			c40.929,0,74.108,33.179,74.108,74.108V1705.487z"/>
		<ellipse style="fill:#23659B;" cx="2252.192" cy="1705.487" rx="96.183" ry="30.474"/>
		<rect x="2197.187" y="1318.894" style="fill:#23659B;" width="110.009" height="37.051"/>
		<path style="fill:#F9B233;" d="M2169.817,1517.922v166.416c0,16.83,36.88,30.474,82.375,30.474s82.375-13.644,82.375-30.474
			v-166.416H2169.817z"/>
		<ellipse style="fill:#F39200;" cx="2252.192" cy="1517.922" rx="82.375" ry="30.474"/>
		<path style="fill:#F9B233;" d="M2233.304,1511.097c0,13.412,8.456,24.284,18.888,24.284c10.431,0,18.887-10.872,18.887-24.284
			v-164.551c0-3.221-37.775-3.221-37.775,0V1511.097z"/>
		<path style="fill:#3A72AA;" d="M2176.483,1270.282v67.138c0,8.534,33.896,15.453,75.708,15.453
			c41.813,0,75.708-6.919,75.708-15.453v-67.138H2176.483z"/>
		<ellipse style="fill:#23659B;" cx="2252.192" cy="1270.282" rx="75.709" ry="15.453"/>
		<path style="fill:#617AC9;" d="M2276.475,1171.004c0-13.412-10.872-24.284-24.284-24.284c-13.411,0-24.284,10.872-24.284,24.284
			v99.278l0,0l0,0c0,3.221,10.872,5.833,24.284,5.833c13.412,0,24.284-2.612,24.284-5.833l0,0l0,0V1171.004z"/>
	</g>
</g>
</svg>
