<?xml version="1.0" encoding="utf-8"?>
<!-- Generator: Adobe Illustrator 27.5.0, SVG Export Plug-In . SVG Version: 6.00 Build 0)  -->
<svg version="1.1" xmlns="http://www.w3.org/2000/svg" xmlns:xlink="http://www.w3.org/1999/xlink" x="0px" y="0px"
	 viewBox="0 0 500 500" style="enable-background:new 0 0 500 500;" xml:space="preserve">
<g id="Background_Complete">
	<rect x="416.779" y="398.494" style="fill:#EBEBEB;" width="33.122" height="0.25"/>
	<rect x="322.527" y="401.208" style="fill:#EBEBEB;" width="8.693" height="0.25"/>
	<rect x="396.586" y="389.208" style="fill:#EBEBEB;" width="19.192" height="0.25"/>
	<rect x="52.459" y="390.888" style="fill:#EBEBEB;" width="43.193" height="0.25"/>
	<rect x="104.556" y="390.888" style="fill:#EBEBEB;" width="6.333" height="0.25"/>
	<rect x="131.471" y="395.111" style="fill:#EBEBEB;" width="93.676" height="0.25"/>
	<g>
		<path style="fill:#EBEBEB;" d="M238.401,337.8H45.302c-3.147,0-5.708-2.561-5.708-5.708V60.66c0-3.147,2.561-5.708,5.708-5.708
			h193.099c3.146,0,5.707,2.561,5.707,5.708v271.432C244.108,335.239,241.547,337.8,238.401,337.8z M45.302,55.203
			c-3.01,0-5.458,2.448-5.458,5.458v271.432c0,3.01,2.448,5.458,5.458,5.458h193.099c3.009,0,5.457-2.448,5.457-5.458V60.66
			c0-3.009-2.448-5.458-5.457-5.458H45.302z"/>
		<path style="fill:#EBEBEB;" d="M454.698,337.8H261.599c-3.146,0-5.707-2.561-5.707-5.708V60.66c0-3.147,2.561-5.708,5.707-5.708
			h193.099c3.148,0,5.708,2.561,5.708,5.708v271.432C460.406,335.239,457.845,337.8,454.698,337.8z M261.599,55.203
			c-3.009,0-5.457,2.448-5.457,5.458v271.432c0,3.01,2.448,5.458,5.457,5.458h193.099c3.01,0,5.458-2.448,5.458-5.458V60.66
			c0-3.009-2.448-5.458-5.458-5.458H261.599z"/>
	</g>
	<rect y="382.398" style="fill:#EBEBEB;" width="500" height="0.25"/>
	<g>
		<polygon style="fill:#E6E6E6;" points="130.675,118.436 137.973,113.758 141.954,121.459 150.614,121.056 150.211,129.715 
			157.912,133.696 153.233,140.994 157.912,148.292 150.211,152.273 150.614,160.933 141.954,160.53 137.973,168.231 
			130.675,163.552 123.377,168.231 119.396,160.53 110.737,160.933 111.14,152.273 103.439,148.292 108.117,140.994 
			103.439,133.696 111.14,129.715 110.737,121.056 119.396,121.459 123.377,113.758 		"/>
		<g>
			<path style="fill:#FAFAFA;" d="M127.91,152.134l-8.67-8.67c-0.993-0.992-0.993-2.602,0-3.594l0,0
				c0.993-0.993,2.602-0.993,3.594,0l5.076,5.076l10.608-10.608c0.992-0.993,2.602-0.993,3.594,0h0c0.992,0.992,0.992,2.602,0,3.594
				L127.91,152.134z"/>
		</g>
	</g>
	<g>
		<polygon style="fill:#E6E6E6;" points="401.861,194.979 407.583,191.31 410.705,197.349 417.496,197.033 417.18,203.823 
			423.219,206.945 419.55,212.668 423.219,218.391 417.18,221.513 417.496,228.303 410.705,227.987 407.583,234.026 
			401.861,230.357 396.138,234.026 393.016,227.987 386.225,228.303 386.541,221.513 380.503,218.391 384.171,212.668 
			380.503,206.945 386.541,203.823 386.225,197.033 393.016,197.349 396.138,191.31 		"/>
		<g>
			<path style="fill:#FAFAFA;" d="M399.692,221.403l-6.799-6.799c-0.778-0.778-0.778-2.04,0-2.818l0,0
				c0.778-0.778,2.04-0.778,2.819,0l3.981,3.98l8.318-8.318c0.778-0.778,2.04-0.778,2.818,0l0,0c0.778,0.778,0.778,2.04,0,2.818
				L399.692,221.403z"/>
		</g>
	</g>
	<g>
		<path style="fill:#E6E6E6;" d="M131.412,290.98l11.152,5.688c1.883,0.96,4.174,0.556,5.615-0.99l8.534-9.159
			c1.013-1.087,1.457-2.587,1.199-4.05l-4.435-25.154c-0.725-4.112-4.646-6.857-8.758-6.132l-14.122,2.49
			c-4.112,0.725-6.857,4.646-6.132,8.758l4.435,25.154C129.158,289.047,130.088,290.305,131.412,290.98z M144.113,289.033
			c1.292-0.228,2.523,0.635,2.751,1.926c0.228,1.292-0.635,2.523-1.926,2.751c-1.292,0.228-2.523-0.635-2.751-1.926
			C141.959,290.493,142.821,289.261,144.113,289.033z"/>
		
			<rect x="131.585" y="278.944" transform="matrix(-0.9848 0.1736 -0.1736 -0.9848 331.5625 531.2493)" style="fill:#FAFAFA;" width="21.915" height="2.368"/>
		
			<rect x="127.928" y="258.204" transform="matrix(-0.9848 0.1736 -0.1736 -0.9848 320.7027 490.7193)" style="fill:#FAFAFA;" width="21.915" height="2.368"/>
	</g>
	<g>
		<path style="fill:#F0F0F0;" d="M169.524,128.142l7.673,8.235c1.296,1.39,3.356,1.754,5.049,0.89l10.027-5.114
			c1.19-0.607,2.026-1.737,2.258-3.053l3.988-22.616c0.652-3.697-1.817-7.222-5.513-7.874l-12.697-2.239
			c-3.697-0.652-7.222,1.817-7.874,5.513l-3.988,22.616C168.214,125.817,168.613,127.165,169.524,128.142z M180.853,130.403
			c1.161,0.205,1.937,1.312,1.732,2.473c-0.205,1.161-1.312,1.937-2.473,1.732c-1.161-0.205-1.937-1.312-1.732-2.473
			C178.584,130.974,179.691,130.198,180.853,130.403z"/>
		
			<rect x="172.413" y="121.333" transform="matrix(-0.9848 -0.1736 0.1736 -0.9848 340.5062 274.5843)" style="fill:#FAFAFA;" width="19.703" height="2.129"/>
		
			<rect x="175.701" y="102.686" transform="matrix(-0.9848 -0.1736 0.1736 -0.9848 350.27 238.1448)" style="fill:#FAFAFA;" width="19.703" height="2.129"/>
	</g>
	<path style="fill:#EBEBEB;" d="M355.384,103.746L355.384,103.746c-2.965-4.234-8.8-5.263-13.034-2.298l-3.964,2.776l-2.776-3.964
		c-2.965-4.234-8.8-5.263-13.034-2.298l0,0c-4.234,2.965-5.263,8.8-2.298,13.034l13.512,19.297l19.297-13.512
		C357.32,113.816,358.349,107.98,355.384,103.746z"/>
	<path style="fill:#EBEBEB;" d="M383.124,105.546L383.124,105.546c-1.451-2.073-4.308-2.577-6.381-1.125l-1.941,1.359l-1.359-1.941
		c-1.452-2.073-4.309-2.577-6.381-1.125l0,0c-2.073,1.451-2.577,4.308-1.125,6.381l6.615,9.447l9.447-6.615
		C384.072,110.476,384.575,107.619,383.124,105.546z"/>
	<g>
		<path style="fill:#E0E0E0;" d="M87.364,197.361c-13.442,3.854-21.214,17.876-17.359,31.317
			c2.504,8.731,17.812,23.367,28.236,32.553c4.646,4.094,11.977,1.992,13.746-3.942c3.971-13.314,9.198-33.839,6.695-42.57
			C114.827,201.279,100.805,193.507,87.364,197.361z M97.564,232.933c-6.204,1.779-12.676-1.808-14.455-8.012
			c-1.779-6.204,1.808-12.676,8.013-14.455c6.204-1.779,12.676,1.808,14.455,8.012C107.355,224.682,103.768,231.154,97.564,232.933z
			"/>
		<path style="fill:#F5F5F5;" d="M91.324,196.225c-13.442,3.854-21.214,17.876-17.359,31.317
			c2.503,8.731,17.812,23.367,28.236,32.553c4.646,4.094,11.977,1.992,13.746-3.942c3.972-13.314,9.198-33.839,6.695-42.569
			C118.787,200.143,104.765,192.371,91.324,196.225z M101.524,231.797c-6.204,1.779-12.676-1.808-14.455-8.012
			c-1.779-6.204,1.808-12.676,8.013-14.455c6.204-1.779,12.676,1.808,14.455,8.012S107.728,230.018,101.524,231.797z"/>
	</g>
	<g>
		<path style="fill:#E0E0E0;" d="M382.911,133.028c-11.704-3.356-23.913,3.411-27.269,15.116c-2.18,7.602,2.371,25.474,5.829,37.067
			c1.541,5.167,7.925,6.997,11.97,3.432c9.076-7.999,22.406-20.743,24.586-28.346C401.383,148.593,394.615,136.384,382.911,133.028z
			 M374.03,164.002c-5.402-1.549-8.526-7.184-6.977-12.586c1.549-5.402,7.184-8.526,12.587-6.977
			c5.402,1.549,8.526,7.184,6.977,12.586S379.432,165.551,374.03,164.002z"/>
		<path style="fill:#F5F5F5;" d="M386.359,134.017c-11.704-3.356-23.913,3.411-27.269,15.116c-2.18,7.602,2.371,25.473,5.829,37.067
			c1.541,5.167,7.925,6.997,11.97,3.432c9.076-7.999,22.406-20.743,24.586-28.345C404.831,149.582,398.063,137.373,386.359,134.017z
			 M377.478,164.991c-5.402-1.549-8.526-7.184-6.977-12.586c1.549-5.402,7.184-8.526,12.586-6.977
			c5.402,1.549,8.526,7.184,6.977,12.586C388.515,163.416,382.88,166.54,377.478,164.991z"/>
	</g>
</g>
<g id="Background_Simple" style="display:none;">
	<g style="display:inline;">
		<path style="fill:#407BFF;" d="M123.385,183.94l204.103-76.315c30.983-11.585,65.308,5.429,74.85,37.101l28.729,95.357
			c10.498,34.844-13.76,70.509-50.023,73.548l-224.34,18.803c-45.817,3.84-84.722-33.159-83.187-79.111l0,0
			C74.556,222.231,94.246,194.835,123.385,183.94z"/>
		<path style="opacity:0.9;fill:#FFFFFF;" d="M123.385,183.94l204.103-76.315c30.983-11.585,65.308,5.429,74.85,37.101
			l28.729,95.357c10.498,34.844-13.76,70.509-50.023,73.548l-224.34,18.803c-45.817,3.84-84.722-33.159-83.187-79.111l0,0
			C74.556,222.231,94.246,194.835,123.385,183.94z"/>
	</g>
</g>
<g id="Shadow">
	<ellipse id="_x3C_Path_x3E__359_" style="fill:#F5F5F5;" cx="250" cy="415.693" rx="193.889" ry="11.323"/>
</g>
<g id="Device">
	<g>
		<g>
			<path style="fill:#407BFF;" d="M188.499,187.875h10.703c2.291,0,3.985,1.857,3.785,4.148l-1.975,22.57
				c-0.2,2.291-2.22,4.148-4.511,4.148h-10.703c-2.291,0-3.985-1.857-3.785-4.148l1.975-22.57
				C184.188,189.732,186.208,187.875,188.499,187.875z"/>
			<path style="opacity:0.2;enable-background:new    ;" d="M308.2,183.052h16.724c3.579,0,6.227,2.902,5.914,6.481l-2.062,23.566
				c-0.313,3.579-3.469,6.481-7.048,6.481h-16.724c-3.579,0-6.227-2.902-5.914-6.481l2.062-23.566
				C301.466,185.954,304.621,183.052,308.2,183.052z"/>
			<path style="opacity:0.2;enable-background:new    ;" d="M304.774,222.214h16.724c3.579,0,6.227,2.902,5.914,6.481l-2.062,23.566
				c-0.313,3.579-3.469,6.481-7.048,6.481h-16.724c-3.579,0-6.227-2.901-5.914-6.481l2.062-23.566
				C298.039,225.116,301.195,222.214,304.774,222.214z"/>
			<path style="fill:#407BFF;" d="M218.508,138.865h93.163c12.946,0,22.522,10.494,21.389,23.44l-19.875,227.172
				c-1.133,12.946-12.545,23.44-25.491,23.44h-93.163c-12.946,0-22.522-10.495-21.389-23.44l19.875-227.172
				C194.149,149.359,205.562,138.865,218.508,138.865z"/>
			<path style="opacity:0.2;enable-background:new    ;" d="M218.508,138.865h93.163c12.946,0,22.522,10.494,21.389,23.44
				l-19.875,227.172c-1.133,12.946-12.545,23.44-25.491,23.44h-93.163c-12.946,0-22.522-10.495-21.389-23.44l19.875-227.172
				C194.149,149.359,205.562,138.865,218.508,138.865z"/>
			<path style="fill:#407BFF;" d="M215.503,138.865h93.163c12.946,0,22.522,10.494,21.389,23.44L310.18,389.477
				c-1.133,12.946-12.545,23.44-25.491,23.44h-93.163c-12.946,0-22.522-10.495-21.389-23.44l19.875-227.172
				C191.145,149.359,202.557,138.865,215.503,138.865z"/>
			<path style="fill:#FFFFFF;" d="M327.261,162.305l-19.874,227.163c-0.998,11.402-11.05,20.646-22.452,20.646h-93.163
				c-11.402,0-19.837-9.243-18.839-20.646l19.874-227.163c0.998-11.402,11.05-20.646,22.452-20.646h93.163
				C319.824,141.659,328.258,150.903,327.261,162.305z"/>
			<g style="opacity:0.1;">
				<path d="M191.771,410.114h35.316l57.062-268.455h-45l-56.577,266.176C185.267,409.282,188.383,410.114,191.771,410.114z"/>
				<polygon points="305.751,141.659 297.185,141.659 240.124,410.114 248.689,410.114 				"/>
			</g>
			<path style="fill:#407BFF;" d="M234.531,140.994c-0.305,3.648,2.39,6.602,6.037,6.615h41.502
				c3.649-0.014,6.861-2.968,7.194-6.615H234.531z"/>
			<path style="fill:#407BFF;" d="M306.729,148.973h9.418c0.786,0,1.367,0.637,1.298,1.422l-0.359,4.107
				c-0.069,0.785-0.761,1.422-1.547,1.422h-9.418c-0.786,0-1.367-0.637-1.298-1.422l0.359-4.107
				C305.251,149.61,305.944,148.973,306.729,148.973z"/>
			<path style="fill:#407BFF;enable-background:new    ;" d="M206.151,148.973h12.608c0.888,0,1.545,0.72,1.467,1.607l-0.327,3.737
				c-0.078,0.888-0.86,1.608-1.748,1.608h-12.608c-0.888,0-1.545-0.72-1.467-1.608l0.327-3.737
				C204.481,149.693,205.264,148.973,206.151,148.973z"/>
			<path style="opacity:0.4;fill:#FFFFFF;enable-background:new    ;" d="M206.151,148.973h12.608c0.888,0,1.545,0.72,1.467,1.607
				l-0.327,3.737c-0.078,0.888-0.86,1.608-1.748,1.608h-12.608c-0.888,0-1.545-0.72-1.467-1.608l0.327-3.737
				C204.481,149.693,205.264,148.973,206.151,148.973z"/>
			<path style="fill:#407BFF;" d="M304.218,150.16h1.481c0.288,0,0.501,0.234,0.476,0.522l-0.309,3.535
				c-0.025,0.288-0.279,0.522-0.568,0.522h-1.481c-0.288,0-0.501-0.234-0.476-0.522l0.309-3.535
				C303.676,150.394,303.93,150.16,304.218,150.16z"/>
			<path style="fill:#FFFFFF;" d="M314.285,150.16h1.481c0.288,0,0.501,0.234,0.476,0.522l-0.309,3.535
				c-0.025,0.288-0.279,0.522-0.568,0.522h-1.481c-0.288,0-0.501-0.234-0.476-0.522l0.309-3.535
				C313.742,150.394,313.996,150.16,314.285,150.16z"/>
			<path style="fill:#FFFFFF;" d="M311.095,150.16h1.481c0.288,0,0.501,0.234,0.476,0.522l-0.309,3.535
				c-0.025,0.288-0.279,0.522-0.567,0.522h-1.481c-0.288,0-0.501-0.234-0.476-0.522l0.309-3.535
				C310.552,150.394,310.806,150.16,311.095,150.16z"/>
			<g>
				<g>
					<path style="fill:#407BFF;" d="M327.827,212.939l-2.032,23.23c1.955-0.361,3.558-2.046,3.736-4.074l1.32-15.082
						C331.027,214.984,329.719,213.299,327.827,212.939z"/>
					<path style="opacity:0.2;enable-background:new    ;" d="M327.827,212.939l-2.032,23.23c1.955-0.361,3.558-2.046,3.736-4.074
						l1.32-15.082C331.027,214.984,329.719,213.299,327.827,212.939z"/>
				</g>
				<g>
					<path style="fill:#407BFF;" d="M330.02,187.875l-2.032,23.23c1.955-0.361,3.558-2.046,3.736-4.074l1.32-15.083
						C333.22,189.921,331.911,188.235,330.02,187.875z"/>
					<path style="opacity:0.2;enable-background:new    ;" d="M330.02,187.875l-2.032,23.23c1.955-0.361,3.558-2.046,3.736-4.074
						l1.32-15.083C333.22,189.921,331.911,188.235,330.02,187.875z"/>
				</g>
			</g>
		</g>
		<g>
			<path style="fill:#407BFF;" d="M273.506,157.62h-31.158c-5.214,0-9.81,4.227-10.266,9.44l-1.614,18.447
				c-0.456,5.214,3.401,9.44,8.614,9.44h8.915l-0.628,7.178c-0.156,1.782,1.921,2.674,3.291,1.414l9.345-8.593h10.236
				c5.214,0,9.81-4.227,10.266-9.44l1.614-18.447C282.576,161.846,278.719,157.62,273.506,157.62z"/>
			<g>
				<path style="fill:#FFFFFF;" d="M264.194,166.438c-0.809,0-1.213,0-2.022,0c-2.183,0-3.276,0-5.458,0c-0.809,0-1.213,0-2.022,0
					c-2.183,0-3.274,0-5.457,0c-0.039-1.239-0.059-1.859-0.098-3.098c-3.293,0-4.938,0-8.23,0c0.113,0.708,0.169,1.062,0.282,1.77
					c2.375,0,3.563,0,5.938,0c0.034,0.531,0.051,0.796,0.086,1.327c0.169,2.619,0.254,3.929,0.423,6.548
					c0.046,0.708,0.069,1.062,0.115,1.77c0.169,2.619,0.254,3.929,0.423,6.548c0.091,1.399,0.136,2.099,0.226,3.499
					c6.571,0,9.851,0,16.422,0c0.225-0.708,0.338-1.062,0.563-1.77c-6.253,0-9.374,0-15.625,0c-0.022-0.691-0.033-1.037-0.055-1.729
					c1.654,0,2.48,0,4.134,0c0.613,0,0.919,0,1.531,0c1.653,0,2.481,0,4.134,0c0.612,0,0.919,0,1.531,0c2.266,0,3.399,0,5.666,0
					c0.876-2.619,1.314-3.929,2.19-6.548c0.237-0.708,0.355-1.062,0.592-1.77c0.876-2.619,1.313-3.929,2.189-6.548
					C268.682,166.438,267.186,166.438,264.194,166.438z M249.292,168.208c2.12,0,3.18,0,5.299,0
					c-0.11,1.911-0.164,2.867-0.274,4.778c-1.949,0-2.924,0-4.874,0C249.382,171.074,249.352,170.119,249.292,168.208z
					 M249.651,179.533c-0.061-1.911-0.091-2.867-0.152-4.778c1.887,0,2.83,0,4.716,0c-0.109,1.911-0.164,2.867-0.274,4.778
					C252.225,179.533,251.367,179.533,249.651,179.533z M259.823,179.533c-1.717,0-2.575,0-4.292,0
					c0.173-1.911,0.259-2.867,0.431-4.778c1.887,0,2.831,0,4.718,0C260.338,176.666,260.166,177.622,259.823,179.533z
					 M260.998,172.985c-1.95,0-2.925,0-4.875,0c0.173-1.911,0.259-2.867,0.432-4.778c2.12,0,3.181,0,5.301,0
					C261.512,170.119,261.341,171.074,260.998,172.985z M265.704,179.533c-1.717,0-2.575,0-4.292,0
					c0.406-1.911,0.609-2.867,1.015-4.778c1.886,0,2.83,0,4.717,0C266.569,176.666,266.281,177.622,265.704,179.533z
					 M267.678,172.985c-1.95,0-2.925,0-4.874,0c0.406-1.911,0.609-2.867,1.015-4.778c2.12,0,3.18,0,5.3,0
					C268.542,170.119,268.254,171.074,267.678,172.985z"/>
				<path style="fill:#FFFFFF;" d="M249.279,186.461c-1.161,0-2.184,0.941-2.286,2.102c-0.102,1.161,0.757,2.102,1.918,2.102
					c1.161,0,2.184-0.941,2.286-2.102C251.299,187.402,250.44,186.461,249.279,186.461z"/>
				<path style="fill:#FFFFFF;" d="M264.214,186.461c-1.161,0-2.184,0.941-2.286,2.102c-0.102,1.161,0.757,2.102,1.918,2.102
					c1.161,0,2.184-0.941,2.286-2.102C266.233,187.402,265.375,186.461,264.214,186.461z"/>
			</g>
		</g>
	</g>
</g>
<g id="Box">
	<g>
		<g>
			<rect x="260.266" y="288.178" style="fill:#407BFF;" width="35.63" height="35.63"/>
			<rect x="295.886" y="288.178" style="fill:#407BFF;" width="21.88" height="35.63"/>
			<polygon style="fill:#407BFF;" points="289.086,279.238 253.456,279.238 260.266,288.178 295.886,288.178 			"/>
			<rect x="295.886" y="288.178" style="opacity:0.3;fill:#FFFFFF;" width="21.88" height="35.63"/>
			<polygon style="opacity:0.4;fill:#FFFFFF;" points="289.086,279.238 253.456,279.238 260.266,288.178 295.886,288.178 			"/>
			<polygon style="fill:#407BFF;" points="302.336,279.238 324.216,279.238 317.776,288.178 295.886,288.178 			"/>
			<rect x="260.266" y="288.178" style="opacity:0.6;fill:#FFFFFF;" width="35.63" height="35.63"/>
			<polygon style="opacity:0.2;fill:#FFFFFF;" points="302.336,279.238 324.216,279.238 317.776,288.178 295.886,288.178 			"/>
		</g>
		<g>
			<g>
				<g>
					<rect x="306.348" y="322.927" style="fill:#407BFF;" width="89.799" height="89.799"/>
					<rect x="306.348" y="322.927" style="opacity:0.4;fill:#FFFFFF;" width="89.799" height="89.799"/>
					<rect x="251.174" y="322.927" style="fill:#407BFF;" width="55.158" height="89.799"/>
					<rect x="251.174" y="322.927" style="opacity:0.6;fill:#FFFFFF;" width="55.158" height="89.799"/>
				</g>
				<polygon style="opacity:0.5;fill:#FFFFFF;" points="268.21,322.927 268.21,347.047 270.401,348.203 272.292,346.627 
					275.279,348.203 278.116,346.627 280.322,348.203 282.844,346.627 284.269,347.917 284.269,322.927 				"/>
			</g>
			<polygon style="opacity:0.5;fill:#FFFFFF;" points="284.269,412.727 284.269,388.607 282.078,387.451 280.187,389.027 
				277.2,387.451 274.363,389.027 272.157,387.451 269.636,389.027 268.21,387.737 268.21,412.727 			"/>
			<g>
				<path style="fill:#FFFFFF;" d="M342.98,359.546c0.507,2.053,0.76,3.079,1.267,5.133c0.137,0.555,0.205,0.832,0.342,1.387
					c0.507,2.053,0.76,3.079,1.267,5.133c1.777,0,2.665,0,4.442,0c0.48,0,0.72,0,1.2,0c1.296,0,1.944,0,3.24,0c0.48,0,0.72,0,1.2,0
					c1.296,0,1.944,0,3.24,0c-0.065,0.542-0.097,0.813-0.161,1.355c-4.9,0-7.347,0-12.248,0c0.128,0.555,0.192,0.832,0.32,1.387
					c5.151,0,7.722,0,12.873,0c0.167-1.097,0.25-1.645,0.417-2.742c0.312-2.053,0.469-3.079,0.781-5.133
					c0.085-0.555,0.127-0.832,0.211-1.387c0.312-2.053,0.469-3.079,0.781-5.133c0.063-0.416,0.095-0.624,0.158-1.041
					c1.862,0,2.793,0,4.655,0c0.137-0.555,0.206-0.833,0.343-1.387c-2.581,0-3.87,0-6.451,0c-0.116,0.971-0.173,1.457-0.289,2.428
					c-1.711,0-2.566,0-4.277,0c-0.634,0-0.951,0-1.585,0c-1.711,0-2.568,0-4.279,0c-0.634,0-0.951,0-1.585,0
					C346.498,359.546,345.325,359.546,342.98,359.546z M359.957,364.678c-1.528,0-2.292,0-3.82,0
					c0.045-1.498,0.068-2.247,0.113-3.745c1.661,0,2.492,0,4.154,0C360.225,362.431,360.135,363.18,359.957,364.678z
					 M355.981,369.811c0.045-1.498,0.068-2.247,0.113-3.745c1.479,0,2.218,0,3.697,0c-0.178,1.498-0.268,2.247-0.447,3.745
					C357.999,369.811,357.327,369.811,355.981,369.811z M351.027,366.065c1.479,0,2.219,0,3.698,0
					c0.004,1.498,0.006,2.247,0.01,3.745c-1.346,0-2.019,0-3.364,0C351.233,368.313,351.164,367.564,351.027,366.065z
					 M350.555,360.933c1.662,0,2.493,0,4.155,0c0.004,1.498,0.007,2.247,0.011,3.745c-1.528,0-2.293,0-3.822,0
					C350.762,363.18,350.693,362.431,350.555,360.933z M345.96,366.065c1.479,0,2.219,0,3.698,0
					c0.187,1.498,0.281,2.247,0.468,3.745c-1.345,0-2.018,0-3.364,0C346.44,368.313,346.28,367.564,345.96,366.065z
					 M344.862,360.933c1.662,0,2.493,0,4.154,0c0.187,1.498,0.281,2.247,0.468,3.745c-1.528,0-2.292,0-3.821,0
					C345.343,363.18,345.182,362.431,344.862,360.933z"/>
				<circle style="fill:#FFFFFF;" cx="359.161" cy="376.889" r="1.648"/>
				<circle style="fill:#FFFFFF;" cx="347.455" cy="376.889" r="1.648"/>
			</g>
			<g style="opacity:0.5;">
				<path style="fill:#FFFFFF;" d="M266.589,359.546c0.507,2.053,0.76,3.079,1.267,5.133c0.137,0.555,0.205,0.832,0.342,1.387
					c0.507,2.053,0.76,3.079,1.267,5.133c1.777,0,2.665,0,4.441,0c0.48,0,0.72,0,1.2,0c1.296,0,1.944,0,3.24,0c0.48,0,0.72,0,1.2,0
					c1.296,0,1.944,0,3.24,0c-0.065,0.542-0.097,0.813-0.162,1.355c-4.9,0-7.347,0-12.248,0c0.128,0.555,0.192,0.832,0.32,1.387
					c5.151,0,7.722,0,12.873,0c0.167-1.097,0.25-1.645,0.417-2.742c0.312-2.053,0.469-3.079,0.781-5.133
					c0.085-0.555,0.127-0.832,0.211-1.387c0.312-2.053,0.468-3.079,0.781-5.133c0.063-0.416,0.095-0.624,0.158-1.041
					c1.862,0,2.793,0,4.655,0c0.137-0.555,0.206-0.833,0.343-1.387c-2.581,0-3.87,0-6.451,0c-0.116,0.971-0.173,1.457-0.289,2.428
					c-1.711,0-2.566,0-4.277,0c-0.634,0-0.951,0-1.585,0c-1.711,0-2.568,0-4.279,0c-0.634,0-0.951,0-1.585,0
					C270.107,359.546,268.935,359.546,266.589,359.546z M283.566,364.678c-1.528,0-2.292,0-3.82,0
					c0.045-1.498,0.068-2.247,0.113-3.745c1.661,0,2.492,0,4.154,0C283.834,362.431,283.745,363.18,283.566,364.678z
					 M279.591,369.811c0.045-1.498,0.068-2.247,0.113-3.745c1.479,0,2.218,0,3.697,0c-0.178,1.498-0.268,2.247-0.446,3.745
					C281.609,369.811,280.936,369.811,279.591,369.811z M274.636,366.065c1.479,0,2.219,0,3.698,0
					c0.004,1.498,0.006,2.247,0.01,3.745c-1.346,0-2.019,0-3.364,0C274.843,368.313,274.774,367.564,274.636,366.065z
					 M274.164,360.933c1.662,0,2.493,0,4.155,0c0.004,1.498,0.006,2.247,0.011,3.745c-1.529,0-2.293,0-3.822,0
					C274.371,363.18,274.302,362.431,274.164,360.933z M269.569,366.065c1.479,0,2.219,0,3.697,0
					c0.187,1.498,0.281,2.247,0.468,3.745c-1.346,0-2.018,0-3.364,0C270.05,368.313,269.889,367.564,269.569,366.065z
					 M268.471,360.933c1.662,0,2.493,0,4.154,0c0.187,1.498,0.281,2.247,0.468,3.745c-1.528,0-2.292,0-3.821,0
					C268.952,363.18,268.792,362.431,268.471,360.933z"/>
				<circle style="fill:#FFFFFF;" cx="282.77" cy="376.889" r="1.648"/>
				<circle style="fill:#FFFFFF;" cx="271.064" cy="376.889" r="1.648"/>
			</g>
		</g>
	</g>
</g>
<g id="Character_2">
	<g>
		<g>
			<g>
				<path style="fill:#CE7A63;" d="M363.361,251.47c0,0,3.114,22.39,5.915,26.246c2.8,3.856,15.385,14.542,15.385,14.542
					l7.946-1.158l5.33,5.043l-3.856,2.672l-4.25-1.908c0,0-3.169,0.427-7.224,0.174c-4.055-0.253-19.914-10.965-22.839-16.607
					c-2.924-5.643-6.219-26.379-6.219-26.379L363.361,251.47z"/>
				<path style="fill:#407BFF;" d="M366.025,257.939l-0.794,0.145c-0.553-5.259-2.753-21.247-8.777-17.141
					c-5.792,3.948-4.169,15.155-3.324,19.345l-0.956,0.174l0.881,2.764l13.327-2.555L366.025,257.939z"/>
				<path style="opacity:0.2;" d="M360.997,247.365l-1.465-3.152l-4.616,4.635c0,0-1.309,1.975-2.642,3.996
					c0.066,2.992,0.519,5.776,0.855,7.444l-0.956,0.174l0.881,2.764l7.516-1.441C361.936,253.964,360.997,247.365,360.997,247.365z"
					/>
			</g>
			<path style="fill:#263238;" d="M361.459,207.194c0,0,15.898,3.431,7.451,10.989l-6.979-6.115L361.459,207.194z"/>
			<polygon style="fill:#CE7A63;" points="383.528,375.082 373.411,399.869 366.391,397.141 372.047,372.5 			"/>
			<polygon style="opacity:0.2;enable-background:new    ;" points="372.547,370.75 368.56,388.118 377.207,390.049 
				384.028,373.322 			"/>
			<path style="fill:#263238;" d="M375.035,399.293c1.289,2.924,2.155,5.337,7.431,8.463c1.151,0.661-0.794,3.7-3.662,2.414
				c-4.74-2.139-3.501-2.18-7.567-3.944c-3.412-1.503-5.943-2.417-8.726-3.573c-0.072-0.031-0.139-0.071-0.2-0.12
				c-0.006-0.004-0.011-0.008-0.017-0.013c-0.491-0.369-0.59-1.067-0.22-1.558l4.098-5.611c0.184-0.258,0.522-0.352,0.813-0.226
				l6.644,2.863C374.242,398.236,374.742,398.7,375.035,399.293z"/>
			<path style="fill:#263238;" d="M406.18,316.82c-1.29,16.01-24.27,68.89-24.27,68.89l-13.64-3.8c0,0,10.42-50.81,17.22-59.22
				c0,0-2.22,0.04-5.79,0.07c-12.43,0.11-41.24,0.09-49.55-2.12c-5.93-1.58-18.32-4.75-15.05-24.59l15.36-0.53l17.89-0.62
				C348.35,294.9,407.95,294.95,406.18,316.82z"/>
			<path style="opacity:0.2;enable-background:new    ;" d="M379.7,322.76c-12.43,0.11-41.24,0.09-49.55-2.12
				c-5.93-1.58-18.32-4.75-15.05-24.59l15.36-0.53c12.09,1.43,27.89,3.82,38.66,8.45c5.24,2.25,8.88,6.31,9.95,11.09
				C379.38,316.46,379.61,319.83,379.7,322.76z"/>
			<polygon style="fill:#CE7A63;" points="359.807,374.203 354.749,399.473 347.141,399.116 348.044,373.846 			"/>
			<polygon style="opacity:0.2;enable-background:new    ;" points="359.807,374.203 348.044,373.846 347.516,388.958 
				356.787,389.285 			"/>
			<path style="fill:#263238;" d="M355.911,400.068c1.24,3.035,2.05,5.518,7.327,8.862c1.144,0.74-0.934,3.787-3.804,2.37
				c-4.761-2.328-3.498-2.325-7.581-4.248c-3.453-1.635-5.997-2.646-8.791-3.908l-0.216-0.107c-0.001-0.001-0.003-0.002-0.004-0.003
				c-0.498-0.389-0.586-1.108-0.196-1.606l4.351-5.611c0.197-0.254,0.545-0.336,0.834-0.197l6.656,3.112
				C355.112,398.984,355.62,399.461,355.911,400.068z"/>
			<path style="fill:#263238;" d="M306.166,296.031c0,0-4.345,15.626,2.844,21.796c10.053,8.637,46.363,6.01,46.363,6.01
				c-6.27,20.076-9.073,59.947-9.073,59.947h13.613c0,0,18.536-54.543,15.797-68.647c-2.739-14.104-51.379-19.086-51.379-19.086
				L306.166,296.031z"/>
			<polygon style="fill:#407BFF;" points="367.062,383.488 382.5,387.382 385.649,380.77 368.688,375.964 			"/>
			<polygon style="fill:#407BFF;" points="344.946,385.681 360.698,386.489 362.335,379.563 344.946,378.755 			"/>
			<path style="fill:#407BFF;" d="M352.174,274.391c3.963-11.786,9.007-20.757,9.572-30.808
				c-13.69-19.761-40.456-8.081-40.456-8.081c-16.203,30.394-15.124,60.529-15.124,60.529c36.814,0,38.923-0.628,38.923-0.628
				S345.224,290.196,352.174,274.391z"/>
			<path style="opacity:0.2;enable-background:new    ;" d="M339.81,234.921c0.59,3.475,1.82,9.755,3.279,10.668
				c2.026,1.217,5.024-0.486,5.024-0.486s2.427,3.286,5.019,1.095c1.44-1.382,2.565-3.059,3.298-4.916
				c-0.758,1.286-1.713,2.446-2.83,3.437c-2.604,2.182-5.03-1.094-5.03-1.094s-2.999,1.693-5.024,0.487
				C342.237,243.321,340.701,238.346,339.81,234.921z"/>
			<g>
				<polygon style="fill:#407BFF;" points="343.109,230.12 346.765,231.373 343.902,233.877 				"/>
				<polygon style="opacity:0.2;" points="343.109,230.12 346.765,231.373 343.902,233.877 				"/>
			</g>
			<path style="fill:#CE7A63;" d="M354.712,233.878l1.013,2.949c0,0-5.217,5.46-6.719,5.522c-1.502,0.061-5.897-10.267-5.897-10.267
				c5.808-2.629,5.275-5.519,5.275-5.519L354.712,233.878z"/>
			<path style="opacity:0.2;enable-background:new    ;" d="M352.815,239.669c1.539-1.407,2.911-2.841,2.911-2.841l-1.013-2.949
				l-5.649-6.531C348.34,230.189,347.62,236.134,352.815,239.669z"/>
			<path style="fill:#407BFF;" d="M357.692,238.956c-0.945,2.201-2.336,4.181-4.086,5.815c-2.604,2.182-5.03-1.094-5.03-1.094
				s-2.989,1.692-5.014,0.485c-2.025-1.206-4.562-12.273-4.562-12.273l4.109-1.769l5.66,11.957l7.634-6.306L357.692,238.956z"/>
			<path style="fill:#CE7A63;" d="M348.156,216.474c-0.008-1.773,0.449-3.516,1.327-5.056c2.767-4.86,8.951-6.557,13.811-3.79
				c7.253,3.915,7.452,15.335,5.296,22.028c-0.585,1.947-1.748,3.669-3.336,4.939c-4.318,3.453-10.618,2.752-14.071-1.566
				c-3.566-4.378-3.105-8.872-3.008-16.578L348.156,216.474z"/>
			<path style="fill:#263238;" d="M361.682,221.25c0.421,0.034,0.673,0.606,0.57,1.217c-0.103,0.611-0.483,1.028-0.893,0.984
				c-0.41-0.044-0.673-0.606-0.57-1.217C360.881,221.612,361.262,221.216,361.682,221.25z"/>
			<path style="fill:#263238;" d="M368.615,222.548c0.421,0.044,0.684,0.595,0.581,1.216c-0.103,0.621-0.483,1.028-0.904,0.984
				c-0.421-0.044-0.663-0.596-0.57-1.217C367.824,222.921,368.194,222.504,368.615,222.548z"/>
			<path style="fill:#263238;" d="M359.824,219.792c0.724-0.562,1.676-0.739,2.554-0.475l0,0c0.004,0.001,0.007,0.003,0.011,0.004
				c0.187,0.063,0.389-0.037,0.452-0.224l0,0c0.059-0.188-0.037-0.39-0.22-0.464c-1.133-0.346-2.364-0.107-3.286,0.638l0,0
				c-0.151,0.126-0.172,0.35-0.047,0.501c0.047,0.038,0.102,0.065,0.161,0.078C359.575,219.911,359.724,219.887,359.824,219.792z"/>
			<g>
				<path style="fill:#263238;" d="M370.359,221.74L370.359,221.74c0.167-0.107,0.219-0.328,0.117-0.498
					c-0.575-1.039-1.609-1.743-2.787-1.896l0,0c-0.158,0.008-0.292,0.119-0.329,0.272c0,0.003-0.001,0.005-0.002,0.007
					c-0.046,0.197,0.076,0.395,0.274,0.441c0.951,0.146,1.778,0.729,2.234,1.576c0.06,0.105,0.168,0.174,0.288,0.184
					C370.23,221.821,370.302,221.79,370.359,221.74z"/>
			</g>
			<path style="fill:#BA4D3C;" d="M364.496,229.372c0.96,0.439,2.064,0.436,3.022-0.006c-0.925-1.861-1.603-3.836-2.016-5.873
				L364.496,229.372z"/>
			<path style="fill:#263238;" d="M347.68,221.465c-2.986-10.908,1.853-13.748,7.093-15.7c5.241-1.952,8.142-0.082,9.817,1.759
				c0.519,0.572,1.563,2.316-1.799,2.546c-2.036,0.08-4.075-0.076-6.076-0.466c-0.812-0.146-1.638,0.179-2.133,0.839
				c-1.161,1.515-3.037,4.353-3.017,6.839c0.147,1.911-0.564,3.788-1.94,5.122L347.68,221.465z"/>
			<path style="fill:#407BFF;" d="M343.902,276.239c0.003,0,0.007,0,0.01,0c0.73,0.006,1.317,0.603,1.312,1.333
				s-0.602,1.318-1.333,1.312c-0.73-0.006-1.318-0.602-1.312-1.333C342.586,276.824,343.176,276.239,343.902,276.239z"/>
			<path style="fill:#407BFF;" d="M341.017,290.196c0.007,0,0.014,0,0.021,0c0.73,0.006,1.317,0.602,1.312,1.333
				c-0.006,0.73-0.602,1.318-1.333,1.312c-0.73-0.006-1.318-0.602-1.312-1.333C339.705,290.783,340.292,290.196,341.017,290.196z"/>
			<path style="fill:#CE7A63;" d="M347.765,218.969c2.114,0.386,3.131,3.376,3.152,5.335c0.025,2.106-1.498,3.688-3.37,2.435
				c-1.421-0.976-2.419-2.454-2.794-4.137C344.341,220.523,345.651,218.583,347.765,218.969z"/>
			<g>
				<path style="fill:#263238;" d="M357.445,229.258c0,0,1.88,0.393,6.652,2.594c-1.221,1.176-2.804,1.866-5.238,0.716
					C356.425,231.418,357.445,229.258,357.445,229.258z"/>
				<path style="fill:#A02724;" d="M360.513,231.963c-1.174-0.555-2.151-0.679-2.982-0.534c0.231,0.412,0.648,0.815,1.328,1.136
					c1.174,0.555,2.143,0.684,2.977,0.532C361.603,232.685,361.193,232.285,360.513,231.963z"/>
				<path style="fill:#FFFFFF;" d="M357.68,229.318c-0.006,0.368-0.013,0.736,0.419,1.056c0.963,0.526,3.639,1.417,4.388,1.59
					c0.471,0.13,0.913,0.153,1.403-0.207C360.211,230.071,358.304,229.486,357.68,229.318z"/>
			</g>
			<g>
				
					<rect x="365.32" y="299.846" transform="matrix(-1 -0.0053 0.0053 -1 747.1266 604.5954)" style="fill:#263238;" width="18.103" height="2.906"/>
				<path style="fill:#263238;" d="M343.782,302.589l23.031,0.123l0.015-2.906l-24.392-0.13l-0.008,1.544
					C342.423,301.972,343.03,302.585,343.782,302.589z"/>
				<path style="opacity:0.3;fill:#FFFFFF;" d="M343.782,302.589l23.031,0.123l0.015-2.906l-24.392-0.13l-0.008,1.544
					C342.423,301.972,343.03,302.585,343.782,302.589z"/>
				
					<rect x="360.255" y="300.716" transform="matrix(-1 -0.0054 0.0054 -1 721.7963 604.3989)" style="fill:#263238;" width="2.908" height="1.032"/>
				
					<rect x="355.725" y="300.691" transform="matrix(-1 -0.0054 0.0054 -1 712.7259 604.3385)" style="fill:#263238;" width="2.908" height="1.032"/>
				<polygon style="fill:#263238;" points="370.283,299.824 368.35,299.814 376.051,273.587 377.984,273.597 				"/>
				<polygon style="opacity:0.3;fill:#FFFFFF;" points="370.283,299.824 368.35,299.814 376.051,273.587 377.984,273.597 				"/>
				<polygon style="fill:#263238;" points="369.57,299.82 403.54,300.002 411.241,273.775 377.271,273.593 				"/>
				<polygon style="opacity:0.6;fill:#FFFFFF;" points="369.57,299.82 403.54,300.002 411.241,273.775 377.271,273.593 				"/>
				<path style="fill:#263238;" d="M367.907,299.811c0.372,0.002,34.99,0.187,35.362,0.189c0.596,0.003,1.075,0.656,1.071,1.459
					c-0.004,0.802-0.491,1.45-1.087,1.447c-0.595-0.003-34.766-0.186-35.362-0.189c-0.596-0.003-1.075-0.656-1.071-1.459
					C366.825,300.456,367.311,299.808,367.907,299.811z"/>
				<path style="opacity:0.5;fill:#FFFFFF;" d="M367.907,299.811c0.372,0.002,34.99,0.187,35.362,0.189
					c0.596,0.003,1.075,0.656,1.071,1.459c-0.004,0.802-0.491,1.45-1.087,1.447c-0.595-0.003-34.766-0.186-35.362-0.189
					c-0.596-0.003-1.075-0.656-1.071-1.459C366.825,300.456,367.311,299.808,367.907,299.811z"/>
				<path style="fill:#263238;" d="M366.821,301.259c-0.004,0.803,0.475,1.456,1.071,1.459c0.596,0.003,1.082-0.645,1.086-1.447
					c0.004-0.802-0.475-1.456-1.071-1.459C367.311,299.808,366.825,300.456,366.821,301.259z"/>
				<path style="opacity:0.3;fill:#FFFFFF;" d="M366.821,301.259c-0.004,0.803,0.475,1.456,1.071,1.459
					c0.596,0.003,1.082-0.645,1.086-1.447c0.004-0.802-0.475-1.456-1.071-1.459C367.311,299.808,366.825,300.456,366.821,301.259z"
					/>
			</g>
			<path style="opacity:0.2;" d="M333.435,275.532c-1.631-2.246-3.364-10.545-4.572-17.402l1.568-0.301l-0.37-2.836l-0.824,0.15
				c-0.564-5.367-2.784-21.481-8.798-17.988c-1.745,3.408-3.284,6.824-4.63,10.203c-0.21,3.945,0.424,7.91,0.86,10.074l-0.993,0.181
				l0.915,2.87l2.125-0.408c1.275,6.622,3.122,14.995,4.846,18.321c2.262,4.363,11.969,11.643,18.519,15.186
				c7.332-1.301,9.016-2.221,9.016-2.221s-0.237-0.285-0.501-0.901l-1.183,0.172C349.412,290.633,336.343,279.536,333.435,275.532z"
				/>
			<g>
				<path style="fill:#CE7A63;" d="M331.64,248.377c0,0,2.14,23.378,4.856,27.514c2.717,4.137,15.251,15.835,15.251,15.835
					l8.299-0.814l5.283,5.491l-4.13,2.584l-4.316-2.186c0,0-3.309,0.289-7.503-0.171c-4.194-0.46-20.124-12.345-22.882-18.34
					c-2.759-5.996-5.165-27.668-5.165-27.668L331.64,248.377z"/>
				<path style="fill:#407BFF;" d="M333.498,253.422l-0.824,0.15c-0.574-5.461-2.859-22.065-9.116-17.8
					c-6.015,4.1-4.33,15.738-3.452,20.089l-0.993,0.181l0.915,2.87l13.84-2.654L333.498,253.422z"/>
			</g>
		</g>
		<g>
			<path style="fill:#407BFF;" d="M405.292,240.878h-19.636c-3.286,0-5.95,2.664-5.95,5.95v11.626c0,3.286,2.664,5.949,5.949,5.949
				h5.618v4.524c0,1.123,1.358,1.685,2.152,0.891l5.415-5.415h6.451c3.286,0,5.95-2.664,5.95-5.95v-11.625
				C411.241,243.542,408.578,240.878,405.292,240.878z"/>
			<g>
				<path style="fill:#FFFFFF;" d="M400.54,246.436c-0.51,0-0.764,0-1.274,0c-1.376,0-2.064,0-3.44,0c-0.51,0-0.765,0-1.274,0
					c-1.375,0-2.063,0-3.439,0c-0.093-0.781-0.139-1.171-0.232-1.952c-2.075,0-3.112,0-5.187,0c0.11,0.446,0.165,0.669,0.275,1.115
					c1.497,0,2.245,0,3.742,0c0.051,0.335,0.076,0.502,0.127,0.837c0.251,1.651,0.376,2.476,0.628,4.127
					c0.068,0.446,0.102,0.669,0.17,1.116c0.251,1.651,0.377,2.476,0.628,4.126c0.134,0.882,0.202,1.323,0.336,2.205
					c4.142,0,6.208,0,10.35,0c0.103-0.446,0.154-0.669,0.257-1.116c-3.941,0-5.908,0-9.848,0c-0.052-0.436-0.078-0.654-0.13-1.089
					c1.042,0,1.563,0,2.605,0c0.386,0,0.579,0,0.965,0c1.042,0,1.563,0,2.605,0c0.386,0,0.579,0,0.965,0c1.428,0,2.142,0,3.571,0
					c0.408-1.651,0.612-2.476,1.019-4.126c0.11-0.446,0.165-0.669,0.275-1.116c0.407-1.651,0.611-2.476,1.019-4.127
					C403.368,246.436,402.426,246.436,400.54,246.436z M391.246,247.551c1.336,0,2.004,0,3.339,0
					c0.036,1.204,0.055,1.807,0.091,3.011c-1.229,0-1.843,0-3.072,0C391.461,249.358,391.389,248.756,391.246,247.551z
					 M392.096,254.689c-0.144-1.204-0.215-1.807-0.359-3.011c1.189,0,1.783,0,2.972,0c0.036,1.204,0.055,1.807,0.091,3.011
					C393.719,254.689,393.178,254.689,392.096,254.689z M398.507,254.689c-1.082,0-1.623,0-2.705,0
					c0.003-1.204,0.005-1.807,0.008-3.011c1.189,0,1.784,0,2.973,0C398.673,252.882,398.618,253.484,398.507,254.689z
					 M398.887,250.562c-1.229,0-1.844,0-3.073,0c0.003-1.204,0.005-1.807,0.009-3.011c1.336,0,2.005,0,3.341,0
					C399.053,248.756,398.997,249.358,398.887,250.562z M402.214,254.689c-1.082,0-1.623,0-2.705,0
					c0.151-1.204,0.226-1.807,0.376-3.011c1.189,0,1.783,0,2.973,0C402.6,252.882,402.472,253.484,402.214,254.689z
					 M403.097,250.562c-1.229,0-1.843,0-3.072,0c0.151-1.204,0.226-1.807,0.376-3.011c1.336,0,2.004,0,3.34,0
					C403.483,248.756,403.354,249.358,403.097,250.562z"/>
				<path style="fill:#FFFFFF;" d="M392.244,259.055c-0.732,0-1.325,0.593-1.325,1.325c0,0.732,0.593,1.325,1.325,1.325
					c0.732,0,1.325-0.593,1.325-1.325C393.569,259.648,392.976,259.055,392.244,259.055z"/>
				<circle style="fill:#FFFFFF;" cx="401.656" cy="260.379" r="1.325"/>
			</g>
		</g>
	</g>
</g>
<g id="Bag">
	<g>
		<g>
			<path style="fill:#263238;" d="M131.219,333.557l-2.393-0.126l0.569-10.839c0.387-7.376,6.703-13.376,14.079-13.376
				c3.598,0,6.911,1.404,9.331,3.953c2.423,2.554,3.653,5.945,3.465,9.549l-0.567,10.839l-2.394-0.126l0.567-10.839
				c0.154-2.941-0.843-5.702-2.81-7.774c-1.962-2.068-4.658-3.206-7.592-3.206c-6.123,0-11.365,4.982-11.686,11.107L131.219,333.557
				z"/>
		</g>
		<polygon style="fill:#407BFF;" points="182.494,328.737 111.816,328.737 109.421,412.586 119.902,410.19 130.384,412.586 
			184.89,412.586 		"/>
		<polygon style="opacity:0.6;fill:#FFFFFF;" points="182.494,328.737 111.816,328.737 109.421,412.586 119.902,410.19 
			130.384,412.586 184.89,412.586 		"/>
		<polygon style="fill:#407BFF;" points="130.384,412.586 119.902,410.19 109.421,412.586 111.816,328.737 127.988,328.737 		"/>
		<polygon style="opacity:0.3;fill:#FFFFFF;" points="130.384,412.586 119.902,410.19 109.421,412.586 111.816,328.737 
			127.988,328.737 		"/>
		<g>
			<path style="fill:#263238;" d="M167.527,333.557l-0.569-10.839c-0.319-6.124-5.561-11.107-11.686-11.107
				c-2.934,0-5.63,1.138-7.592,3.206c-1.967,2.072-2.964,4.833-2.81,7.774l0.568,10.839l-2.393,0.126l-0.568-10.839
				c-0.188-3.604,1.042-6.996,3.465-9.549c2.419-2.549,5.732-3.953,9.331-3.953c7.377,0,13.693,6.001,14.079,13.377l0.569,10.837
				L167.527,333.557z"/>
		</g>
		<g style="opacity:0.2;">
			<path style="fill:#FFFFFF;" d="M167.527,333.557l-0.569-10.839c-0.319-6.124-5.561-11.107-11.686-11.107
				c-2.934,0-5.63,1.138-7.592,3.206c-1.967,2.072-2.964,4.833-2.81,7.774l0.568,10.839l-2.393,0.126l-0.568-10.839
				c-0.188-3.604,1.042-6.996,3.465-9.549c2.419-2.549,5.732-3.953,9.331-3.953c7.377,0,13.693,6.001,14.079,13.377l0.569,10.837
				L167.527,333.557z"/>
		</g>
		<path style="fill:#FFFFFF;" d="M172.939,367.351h-32.852c-0.742,0-1.344-0.602-1.344-1.344v-5.299
			c0-0.742,0.602-1.343,1.344-1.343h32.852c0.742,0,1.343,0.602,1.343,1.343v5.299C174.283,366.75,173.681,367.351,172.939,367.351z
			"/>
	</g>
	<g>
		<g>
			<path style="fill:#263238;" d="M98.738,359.608l-1.604-0.085l0.381-7.266c0.26-4.944,4.494-8.967,9.438-8.967
				c2.412,0,4.633,0.941,6.255,2.65c1.624,1.712,2.449,3.985,2.323,6.402l-0.38,7.266l-1.604-0.085l0.38-7.266
				c0.104-1.971-0.566-3.822-1.884-5.211c-1.315-1.387-3.123-2.15-5.09-2.15c-4.105,0-7.619,3.34-7.834,7.445L98.738,359.608z"/>
		</g>
		<polygon style="fill:#407BFF;" points="133.11,356.377 85.731,356.377 84.125,412.586 91.151,410.98 98.178,412.586 
			134.717,412.586 		"/>
		<polygon style="fill:#407BFF;" points="98.178,412.586 91.151,410.98 84.125,412.586 85.731,356.377 96.572,356.377 		"/>
		<polygon style="opacity:0.2;" points="98.178,412.586 91.151,410.98 84.125,412.586 85.731,356.377 96.572,356.377 		"/>
		<g>
			<path style="fill:#263238;" d="M123.077,359.608l-0.381-7.266c-0.214-4.105-3.728-7.445-7.834-7.445
				c-1.967,0-3.774,0.763-5.09,2.15c-1.318,1.389-1.987,3.24-1.884,5.211l0.381,7.266l-1.604,0.085l-0.381-7.266
				c-0.126-2.416,0.699-4.69,2.323-6.402c1.622-1.709,3.843-2.65,6.255-2.65c4.945,0,9.179,4.023,9.438,8.968l0.381,7.265
				L123.077,359.608z"/>
		</g>
		<g style="opacity:0.2;">
			<path style="fill:#FFFFFF;" d="M123.077,359.608l-0.381-7.266c-0.214-4.105-3.728-7.445-7.834-7.445
				c-1.967,0-3.774,0.763-5.09,2.15c-1.318,1.389-1.987,3.24-1.884,5.211l0.381,7.266l-1.604,0.085l-0.381-7.266
				c-0.126-2.416,0.699-4.69,2.323-6.402c1.622-1.709,3.843-2.65,6.255-2.65c4.945,0,9.179,4.023,9.438,8.968l0.381,7.265
				L123.077,359.608z"/>
		</g>
		<path style="fill:#FFFFFF;" d="M126.262,382.262h-21.137c-0.742,0-1.343-0.602-1.343-1.343v-2.667
			c0-0.742,0.601-1.343,1.343-1.343h21.137c0.742,0,1.343,0.602,1.343,1.343v2.667C127.606,381.661,127.004,382.262,126.262,382.262
			z"/>
	</g>
</g>
<g id="Character_1">
	<g>
		<polygon style="fill:#B55B52;" points="171.678,407.101 164.068,406.306 164.446,388.529 172.056,389.324 		"/>
		<polygon style="fill:#B55B52;" points="236.064,381.595 229.246,385.068 219.012,370.394 225.83,366.922 		"/>
		<path style="fill:#263238;" d="M227.828,384.121l6.998-4.992c0.255-0.182,0.587-0.152,0.801,0.071l4.747,4.968
			c0.492,0.515,0.386,1.411-0.208,1.82c-2.47,1.699-3.748,2.394-6.826,4.589c-1.893,1.351-4.519,3.521-7.134,5.386
			c-2.557,1.824-4.598-0.621-3.677-1.632c4.133-4.532,3.871-6.53,4.53-9.085C227.179,384.786,227.455,384.387,227.828,384.121z"/>
		<path style="fill:#263238;" d="M163.421,405.347l8.55,0.893c0.311,0.033,0.541,0.275,0.553,0.583l0.267,6.866
			c0.028,0.712-0.645,1.313-1.361,1.226c-2.976-0.363-4.394-0.688-8.154-1.081c-2.313-0.242-8.982-0.696-12.176-1.029
			c-3.124-0.326-3.035-3.51-1.674-3.657c6.098-0.659,10.489-1.989,12.675-3.466C162.495,405.416,162.966,405.3,163.421,405.347z"/>
		<g style="opacity:0.2;">
			<polygon points="164.447,388.534 164.251,397.697 171.865,398.492 172.061,389.329 			"/>
			<polygon points="225.834,366.925 219.013,370.399 224.292,377.961 231.113,374.487 			"/>
		</g>
		<path style="fill:#263238;" d="M168.089,234.932c0,0-7.891,58.724-8.126,82.063c-0.244,24.276,2.84,78.772,2.84,78.772
			l10.291,1.075c0,0,4.175-53.599,5.841-77.396c1.816-25.942,11.9-83.797,11.9-83.797L168.089,234.932z"/>
		<polygon style="fill:#407BFF;" points="173.948,397.304 161.873,396.043 161.39,392.099 174.961,393.04 		"/>
		<path style="opacity:0.6;" d="M181.025,250.013c-8.113,15.107-2.899,43.296-0.53,53.797c1.877-15.6,4.813-34.649,7.074-48.635
			C186.664,247.194,184.766,243.048,181.025,250.013z"/>
		<path style="fill:#263238;" d="M176.292,235.191c0,0,5.104,61.471,9.797,81.302c5.572,23.544,35.753,60.731,35.753,60.731
			l9.298-4.735c0,0-20.448-41.322-24.883-53.774c-9.466-26.574,0.58-65.414-7.107-82.802L176.292,235.191z"/>
		<polygon style="fill:#407BFF;" points="232.459,372.428 220.924,378.303 217.849,375.303 231.106,367.78 		"/>
		<path style="fill:#407BFF;" d="M225.145,387.259c-0.031-0.001-0.062-0.003-0.092-0.007c-0.344-0.041-0.614-0.247-0.803-0.61
			c-0.142-0.274-0.08-0.491-0.003-0.624c0.491-0.845,3.254-0.973,3.567-0.985c0.077-0.004,0.139,0.038,0.171,0.103
			c0.031,0.065,0.021,0.143-0.027,0.197C227.308,386.076,226.097,387.289,225.145,387.259z M227.389,385.421
			c-1.103,0.084-2.57,0.335-2.829,0.78c-0.032,0.056-0.06,0.138,0.01,0.275c0.132,0.254,0.304,0.39,0.525,0.417
			C225.613,386.953,226.459,386.41,227.389,385.421z"/>
		<path style="fill:#407BFF;" d="M227.557,385.402c-0.95-0.03-2.679-0.537-3.004-1.259c-0.069-0.154-0.134-0.457,0.203-0.766
			c0.214-0.196,0.474-0.28,0.765-0.248c1.105,0.117,2.393,1.904,2.447,1.98c0.038,0.052,0.044,0.121,0.018,0.18
			c-0.027,0.059-0.082,0.099-0.146,0.106C227.757,385.403,227.662,385.405,227.557,385.402z M225.428,383.485
			c-0.164-0.005-0.304,0.047-0.427,0.159c-0.172,0.157-0.153,0.27-0.117,0.35c0.219,0.489,1.646,0.994,2.576,1.045
			c-0.46-0.573-1.318-1.481-1.976-1.55C225.465,383.487,225.446,383.486,225.428,383.485z"/>
		<path style="fill:#407BFF;" d="M160.426,406.379c-0.757-0.079-1.442-0.269-1.797-0.661c-0.225-0.249-0.304-0.556-0.234-0.912
			c0.042-0.213,0.165-0.367,0.356-0.447c0.985-0.413,3.858,1.453,4.182,1.667c0.064,0.043,0.095,0.121,0.076,0.195
			c-0.019,0.075-0.082,0.129-0.159,0.136C162.189,406.418,161.264,406.466,160.426,406.379z M159.234,404.663
			c-0.14-0.015-0.256-0.006-0.343,0.03c-0.079,0.033-0.122,0.089-0.14,0.183c-0.048,0.241,0.001,0.437,0.147,0.599
			c0.418,0.463,1.663,0.667,3.379,0.563C161.285,405.427,159.955,404.738,159.234,404.663z"/>
		<path style="fill:#407BFF;" d="M162.814,406.357c-0.025-0.003-0.05-0.01-0.072-0.024c-0.864-0.505-2.488-2.334-2.257-3.181
			c0.055-0.201,0.226-0.44,0.73-0.438c0.372,0.001,0.698,0.141,0.966,0.415c0.874,0.897,0.835,2.964,0.833,3.051
			c-0.002,0.064-0.037,0.123-0.093,0.154C162.888,406.353,162.85,406.361,162.814,406.357z M161.323,403.082
			c-0.035-0.004-0.072-0.006-0.109-0.006c-0.333-0.001-0.368,0.128-0.379,0.171c-0.138,0.509,0.945,1.927,1.811,2.584
			c-0.027-0.606-0.152-1.861-0.725-2.449C161.748,403.205,161.552,403.106,161.323,403.082z"/>
		<path style="fill:#B55B52;" d="M164.811,203.707c-2.889,3.823-5.922,7.23-9.484,10.501c-1.783,1.628-3.667,3.193-5.981,4.573
			c-1.164,0.683-2.431,1.35-4.051,1.802c-0.81,0.222-1.727,0.393-2.789,0.378c-0.522-0.002-1.093-0.068-1.663-0.195
			c-0.286-0.066-0.578-0.153-0.862-0.253c-0.303-0.122-0.51-0.185-0.955-0.43c-0.773-0.423-1.403-1.013-1.811-1.553
			c-0.418-0.543-0.711-1.081-0.907-1.549c-0.414-0.963-0.572-1.767-0.688-2.52c-0.212-1.495-0.201-2.79-0.146-4.049
			c0.124-2.504,0.516-4.824,0.958-7.115c0.923-4.573,2.197-8.928,3.761-13.27l4.141,1.071c-0.599,4.354-1.144,8.788-1.475,13.09
			c-0.165,2.146-0.245,4.293-0.162,6.272c0.041,0.98,0.147,1.934,0.329,2.646c0.087,0.347,0.205,0.638,0.258,0.696
			c0.054,0.098,0.012-0.213-0.587-0.586c-0.203-0.099-0.14-0.082-0.184-0.099c-0.018-0.014-0.039-0.024-0.052-0.031
			c-0.021-0.02-0.033-0.019,0.006-0.035c0.06-0.016,0.255-0.058,0.516-0.161c0.525-0.204,1.262-0.587,1.994-1.091
			c1.482-1.011,3.02-2.373,4.508-3.803c1.492-1.443,2.921-3.02,4.337-4.622c1.417-1.577,2.821-3.299,4.105-4.882L164.811,203.707z"
			/>
		<g>
			<path style="fill:#407BFF;" d="M163.144,192.698c-3.138-0.863-12.425,10.996-12.425,10.996l8.879,9.905
				c0,0,10.416-9.396,10.024-13.61C169.213,195.602,167.723,193.957,163.144,192.698z"/>
		</g>
		<g>
			<path style="fill:#B55B52;" d="M144.436,189.979l-0.347-6.233l-6.008,4.945c0,0,0.906,4.829,3.939,5.788l1.872-2.625
				C144.282,191.309,144.473,190.648,144.436,189.979z"/>
			<polygon style="fill:#B55B52;" points="140.184,178.634 135.378,183.046 138.082,188.691 144.089,183.746 			"/>
		</g>
		<g>
			<path style="fill:#263238;" d="M137.739,190.683l-1.385-0.504c-0.779-0.284-1.239-1.09-1.085-1.905l2.11-11.221l3.787,1.379
				l-1.163,10.84C139.886,190.366,138.773,191.059,137.739,190.683z"/>
			<path style="fill:#263238;" d="M147.735,176.427c0.236-0.649,0.462-1.291,0.68-1.927c-0.595-1.11-1.774-2.299-3.352-3.442
				c-0.504,1.233-1.004,2.518-1.49,3.853c-0.486,1.335-0.93,2.641-1.336,3.91c1.944,0.139,3.612-0.013,4.781-0.481
				C147.258,177.713,147.498,177.076,147.735,176.427z"/>
			<path style="fill:#407BFF;" d="M145.222,175.516c0.663-1.821,1.099-3.53,1.269-4.82l-12.433-4.527l-3.383,9.291l12.44,4.529
				C143.809,178.895,144.566,177.32,145.222,175.516z"/>
			<path style="opacity:0.6;fill:#FFFFFF;" d="M145.222,175.516c0.663-1.821,1.099-3.53,1.269-4.82l-12.433-4.527l-3.383,9.291
				l12.44,4.529C143.809,178.895,144.566,177.32,145.222,175.516z"/>
			<path style="fill:#407BFF;" d="M137.293,166.478c-0.565-0.206-13.965-14.026-15.501-14.585c-1.634-0.595-5.131,4.887-7.81,12.245
				s-3.526,13.805-1.892,14.4c1.536,0.559,20.685-1.41,21.25-1.204c0.666,0.242,2.09-1.991,3.182-4.989
				C137.613,169.347,137.958,166.721,137.293,166.478z"/>
			<path style="opacity:0.4;fill:#FFFFFF;" d="M137.293,166.478c-0.565-0.206-13.965-14.026-15.501-14.585
				c-1.634-0.595-5.131,4.887-7.81,12.245s-3.526,13.805-1.892,14.4c1.536,0.559,20.685-1.41,21.25-1.204
				c0.666,0.242,2.09-1.991,3.182-4.989C137.613,169.347,137.958,166.721,137.293,166.478z"/>
			<path style="fill:#407BFF;" d="M119.9,166.293c-2.679,7.358-6.175,12.84-7.81,12.245c-1.634-0.595-0.787-7.042,1.892-14.4
				s6.175-12.84,7.81-12.245C123.426,152.488,122.579,158.935,119.9,166.293z"/>
			<path style="fill:#263238;" d="M115.946,164.853c-0.177,0.487-0.345,0.97-0.507,1.447c0.622,0.897,1.791,1.893,3.326,2.879
				c0.388-0.922,0.769-1.885,1.134-2.887c0.365-1.002,0.692-1.984,0.987-2.94c-1.81-0.232-3.346-0.221-4.399,0.066
				C116.305,163.888,116.123,164.366,115.946,164.853z"/>
			<path style="opacity:0.7;fill:#FFFFFF;" d="M115.946,164.853c-0.177,0.487-0.345,0.97-0.507,1.447
				c0.622,0.897,1.791,1.893,3.326,2.879c0.388-0.922,0.769-1.885,1.134-2.887c0.365-1.002,0.692-1.984,0.987-2.94
				c-1.81-0.232-3.346-0.221-4.399,0.066C116.305,163.888,116.123,164.366,115.946,164.853z"/>
		</g>
		<path style="opacity:0.2;" d="M160.524,199.671c0.46,6.649-1.097,10.607-2.191,12.518l1.265,1.411c0,0,5.875-5.3,8.634-9.724
			C165.13,199.282,160.04,192.684,160.524,199.671z"/>
		<circle style="fill:#263238;" cx="195.478" cy="154.298" r="7.548"/>
		<path style="fill:#407BFF;" d="M194.665,157.742c0,2.618-2.122,4.741-4.741,4.741c-2.618,0-4.741-2.122-4.741-4.741
			c0-2.618,2.122-4.741,4.741-4.741C192.543,153.001,194.665,155.124,194.665,157.742z"/>
		<path style="fill:#263238;" d="M174.842,151.849c0,0-10.034-0.819-10.016,16.382c0.013,11.779,5.722,17.23,12.735,13.269
			c0,0,15.464-1.269,17.243-15.416C196.583,151.937,185.652,146.663,174.842,151.849z"/>
		<g>
			<path style="fill:#407BFF;" d="M161.097,193.157c0,0-3.543,1.545,6.996,45.796c12.299-0.894,25.01-1.818,30.995-2.253
				c-1.437-12.577-2.017-20.355,2.13-46.682c0,0-6.597-0.941-13.288-0.777c-5.234,0.128-9.52,0.272-14.074,1.024
				C167.85,191.256,161.097,193.157,161.097,193.157z"/>
		</g>
		<path style="fill:#B55B52;" d="M185.383,173.495c-0.559,4.593-0.841,12.955,2.547,15.746c0,0-0.904,4.684-9.319,5.296
			c-9.253,0.673-4.756-4.272-4.756-4.272c4.962-1.573,4.559-5.31,3.424-8.765L185.383,173.495z"/>
		<path style="opacity:0.2;" d="M182.079,176.761l-4.797,4.735c0.272,0.817,0.497,1.65,0.616,2.467
			c1.909-0.419,4.405-2.729,4.463-4.764C182.39,178.183,182.277,177.218,182.079,176.761z"/>
		<path style="fill:#B55B52;" d="M190.561,165.85c-1.734,7.393-2.311,10.56-6.739,13.751c-6.661,4.8-15.363,1.052-15.872-6.71
			c-0.459-6.987,2.455-17.904,10.276-19.629C185.931,151.563,192.295,158.457,190.561,165.85z"/>
		<path style="fill:#263238;" d="M177.815,165.8c-0.104,0.608-0.51,1.046-0.908,0.979c-0.398-0.068-0.636-0.616-0.532-1.224
			c0.104-0.608,0.51-1.047,0.908-0.979S177.919,165.192,177.815,165.8z"/>
		<path style="fill:#263238;" d="M170.938,164.626c-0.104,0.608-0.51,1.046-0.908,0.979c-0.398-0.068-0.636-0.616-0.532-1.225
			c0.104-0.608,0.51-1.047,0.908-0.979C170.804,163.469,171.042,164.018,170.938,164.626z"/>
		<path style="fill:#263238;" d="M170.576,163.465l-1.389-0.671C169.187,162.795,169.742,164.064,170.576,163.465z"/>
		<path style="fill:#A02724;" d="M173.362,166.084c0,0-1.48,2.443-2.832,3.513c0.675,0.887,2.099,0.777,2.099,0.777L173.362,166.084
			z"/>
		<path style="fill:#B55B52;" d="M191.415,173.047c-0.78,1.367-2.119,2.247-3.372,2.568c-1.885,0.483-2.786-1.214-2.227-2.971
			c0.503-1.582,2.091-3.739,3.966-3.443C191.63,169.493,192.308,171.484,191.415,173.047z"/>
		<path style="fill:#263238;" d="M180.814,164.871c-0.153-0.002-0.293-0.102-0.34-0.256c-0.494-1.603-2.542-2.288-2.562-2.294
			c-0.19-0.062-0.294-0.267-0.232-0.457c0.062-0.19,0.265-0.295,0.457-0.232c0.099,0.032,2.427,0.812,3.03,2.77
			c0.059,0.191-0.048,0.394-0.24,0.453C180.889,164.866,180.851,164.871,180.814,164.871z"/>
		<path style="fill:#263238;" d="M169.414,161.097c-0.124-0.002-0.243-0.067-0.309-0.182c-0.099-0.174-0.039-0.395,0.135-0.495
			c1.739-0.996,3.239-0.252,3.301-0.22c0.178,0.091,0.249,0.31,0.158,0.488c-0.09,0.177-0.308,0.248-0.486,0.158l0,0
			c-0.049-0.025-1.223-0.593-2.612,0.202C169.542,161.082,169.477,161.098,169.414,161.097z"/>
		<path style="fill:#263238;" d="M177.453,164.639l-1.389-0.671C176.064,163.969,176.618,165.238,177.453,164.639z"/>
		<g>
			<path style="fill:#263238;" d="M173.234,172.259c0,0,2.011-0.566,7.721-0.842c-0.586,1.749-1.767,3.21-4.693,3.324
				C173.337,174.854,173.234,172.259,173.234,172.259z"/>
			<path style="fill:#A02724;" d="M177.553,173.326c-1.412,0.055-2.416,0.426-3.146,0.984c0.43,0.282,1.034,0.46,1.852,0.428
				c1.412-0.055,2.41-0.417,3.139-0.983C178.968,173.473,178.371,173.294,177.553,173.326z"/>
			<path style="fill:#FFFFFF;" d="M173.491,172.197c0.18,0.358,0.358,0.717,0.936,0.808c1.194,0.024,4.222-0.462,5.032-0.672
				c0.52-0.111,0.958-0.311,1.249-0.905C176.312,171.652,174.178,172.046,173.491,172.197z"/>
		</g>
		<path style="fill:#263238;" d="M169.24,160.42c0,0,3.839-1.557,5.737-4.494c0,0,0.035,5.322,2.173,4.914
			c2.138-0.408-1.086-4.919-1.086-4.919s5.011,2.217,6.709,6.562c1.698,4.345,3.655,9.074,7.51,7.895
			c3.855-1.178,3.004-13.477-2.678-16.547l-8.039-1.437l-2.356,0.341c-1.21,0.175-2.372,0.596-3.415,1.236l0,0
			c-1.581,0.971-2.822,2.407-3.554,4.112L169.24,160.42z"/>
		<path style="fill:#407BFF;" d="M187.914,161.064c-0.369-0.78-2.142-0.716-3.959,0.143c-1.818,0.86-1.893,1.669-1.524,2.45
			c0.369,0.78,1.043,1.236,2.86,0.376C187.108,163.174,188.283,161.844,187.914,161.064z M183.625,163.092
			c-0.264-0.558-0.21-1.137,1.089-1.751c1.299-0.614,2.566-0.66,2.829-0.102c0.264,0.558-0.576,1.508-1.874,2.122
			C184.37,163.975,183.889,163.65,183.625,163.092z"/>
		<path style="opacity:0.2;" d="M197.799,200.284l-2.351-2.02l-1.742,0.784c0,0-1.408,8.645,4.43,17.449
			c0.154-3.327,0.467-7.079,0.991-11.56C198.396,202.255,197.799,200.284,197.799,200.284z"/>
		<g>
			<path style="fill:#263238;" d="M229.481,224.648l-1.266,0.133l-0.602-5.735c-0.41-3.902,2.406-7.576,6.276-8.189
				c1.888-0.299,3.743,0.162,5.225,1.299c1.484,1.139,2.411,2.816,2.612,4.723l0.603,5.734l-1.266,0.133l-0.603-5.734
				c-0.163-1.556-0.917-2.922-2.121-3.845c-1.201-0.922-2.711-1.295-4.25-1.052c-3.213,0.509-5.549,3.559-5.209,6.799
				L229.481,224.648z"/>
		</g>
		<path style="fill:#B55B52;" d="M205.914,198.957c0.171,0.861,0.419,1.924,0.645,2.896c0.238,0.993,0.499,1.985,0.779,2.969
			c0.56,1.968,1.148,3.926,1.859,5.817c1.423,3.768,3.137,7.4,5.39,10.303l0.212,0.27l0.105,0.135
			c-0.025-0.03-0.077-0.082-0.121-0.115c-0.175-0.157-0.408-0.263-0.548-0.31c-0.303-0.087-0.293-0.003-0.096-0.004
			c0.405,0.026,1.249-0.152,2.074-0.437c1.694-0.592,3.557-1.478,5.36-2.468c3.632-1.975,7.299-4.281,10.854-6.597l2.765,3.264
			c-3.137,3.228-6.425,6.168-10.124,8.863c-1.874,1.32-3.79,2.618-6.119,3.681c-1.187,0.52-2.43,1.038-4.196,1.26
			c-0.881,0.089-1.985,0.107-3.307-0.365c-0.653-0.232-1.348-0.642-1.927-1.159c-0.14-0.128-0.29-0.275-0.411-0.401l-0.16-0.174
			l-0.319-0.348c-1.703-1.861-3.099-3.875-4.295-5.944c-1.215-2.063-2.214-4.194-3.088-6.35c-0.87-2.157-1.647-4.33-2.279-6.541
			c-0.313-1.106-0.602-2.217-0.868-3.338c-0.273-1.142-0.492-2.202-0.7-3.481L205.914,198.957z"/>
		<g>
			<path style="fill:#407BFF;" d="M201.217,190.018c3.174,0.719,8.726,12.185,8.726,12.185l-12.466,8.445
				c0,0-5.042-8.607-4.029-12.715C194.503,193.653,197.595,189.198,201.217,190.018z"/>
		</g>
		<g>
			<path style="fill:#B55B52;" d="M231.9,211.444l7.238-3.993l-1.517,7.632c0,0-4.684,1.485-6.963-0.734L231.9,211.444z"/>
			<polygon style="fill:#B55B52;" points="245.489,208.475 243.874,214.796 237.621,215.083 239.138,207.451 			"/>
		</g>
		<g>
			<g>
				<path style="fill:#263238;" d="M248.532,221.631l-1.199-5.64c-0.676-3.187-3.841-5.366-7.055-4.857
					c-1.54,0.244-2.86,1.065-3.717,2.314c-0.86,1.251-1.154,2.782-0.828,4.313l1.199,5.64l-1.245,0.265l-1.199-5.64
					c-0.398-1.876-0.034-3.757,1.025-5.299c1.058-1.539,2.679-2.551,4.568-2.85c3.871-0.613,7.684,2.011,8.499,5.849l1.199,5.639
					L248.532,221.631z"/>
			</g>
			<g style="opacity:0.3;">
				<path style="fill:#FFFFFF;" d="M248.532,221.631l-1.199-5.64c-0.676-3.187-3.841-5.366-7.055-4.857
					c-1.54,0.244-2.86,1.065-3.717,2.314c-0.86,1.251-1.154,2.782-0.828,4.313l1.199,5.64l-1.245,0.265l-1.199-5.64
					c-0.398-1.876-0.034-3.757,1.025-5.299c1.058-1.539,2.679-2.551,4.568-2.85c3.871-0.613,7.684,2.011,8.499,5.849l1.199,5.639
					L248.532,221.631z"/>
			</g>
		</g>
		<g>
			<polygon style="fill:#407BFF;" points="255.986,217.858 218.899,223.732 224.611,267.928 229.912,265.8 235.611,266.186 
				264.211,261.656 			"/>
			<polygon style="opacity:0.6;fill:#FFFFFF;" points="255.986,217.858 218.899,223.732 224.611,267.928 229.912,265.8 
				235.611,266.186 264.211,261.656 			"/>
			<polygon style="fill:#407BFF;" points="235.611,266.186 229.912,265.8 224.611,267.928 218.899,223.732 227.385,222.388 			"/>
			<polygon style="opacity:0.3;fill:#FFFFFF;" points="235.611,266.186 229.912,265.8 224.611,267.928 218.899,223.732 
				227.385,222.388 			"/>
			<path style="fill:#FFFFFF;" d="M252.843,240.02l-15.337,2.429c-0.824,0.131-1.597-0.431-1.728-1.255l-0.021-0.134
				c-0.131-0.824,0.431-1.597,1.255-1.728l15.337-2.429c0.824-0.131,1.597,0.432,1.728,1.255l0.021,0.134
				C254.229,239.116,253.667,239.889,252.843,240.02z"/>
		</g>
	</g>
</g>
</svg>
