<?xml version="1.0" encoding="utf-8"?>
<!-- Generator: Adobe Illustrator 27.5.0, SVG Export Plug-In . SVG Version: 6.00 Build 0)  -->
<svg version="1.1" xmlns="http://www.w3.org/2000/svg" xmlns:xlink="http://www.w3.org/1999/xlink" x="0px" y="0px"
	 viewBox="0 0 3710 3710" style="enable-background:new 0 0 3710 3710;" xml:space="preserve">
<g id="Background">
	<g>
		<g>
			<rect style="fill:#FFFFFF;" width="3710" height="3710"/>
		</g>
	</g>
</g>
<g id="Illustration">
	<g>
		<linearGradient id="SVGID_1_" gradientUnits="userSpaceOnUse" x1="3418.04" y1="3609.1321" x2="1363.8369" y2="1391.8969">
			<stop  offset="0" style="stop-color:#DAE3FE"/>
			<stop  offset="1" style="stop-color:#E9EFFD"/>
		</linearGradient>
		<path style="fill:url(#SVGID_1_);" d="M3136.691,2343.825c-283.377,657.497-1031.4,939.908-1617.488,891.756
			c-160.026-13.147-482.001-39.6-733.403-275.596c-482.799-453.216-408.443-1400.563,53.734-1958.309
			c59.519-71.826,471.499-553.053,1113.494-546.612c470.034,4.716,799.945,268.282,840.061,301.118
			c50.677,41.48,162.451,140.049,263.186,296.423C3292.967,1420.029,3313.773,1932.955,3136.691,2343.825z"/>
		<g>
			<path style="fill:#7D97F4;" d="M2047.329,1583.884H943.226c-44.759,0-82.172-34.051-86.372-78.614l-69.586-738.259
				c-4.737-50.25,34.257-93.919,84.72-94.88l1173.69-22.346c48.551-0.924,88.406,38.179,88.406,86.739v760.606
				C2134.084,1545.043,2095.242,1583.884,2047.329,1583.884z"/>
			<path style="opacity:0.87;fill:#FFFFFF;" d="M857.838,832.81l49.35,638.381c2.144,27.731,25.122,49.226,52.934,49.517
				l1059.694,11.101c29.852,0.313,54.217-23.8,54.217-53.652V790.876c0-30.35-25.151-54.658-55.483-53.624L909.506,775.05
				C878.984,776.09,855.483,802.361,857.838,832.81z"/>
			<path style="fill:#7D97F4;" d="M1423.572,826.973l597.576-17.875c6.125-0.183,11.191,4.733,11.191,10.861v9.622
				c0,5.943-4.774,10.782-10.716,10.865l-597.576,8.252c-6.059,0.083-11.015-4.805-11.015-10.865l0,0
				C1413.031,831.959,1417.7,827.148,1423.572,826.973z"/>
			<path style="fill:#7D97F4;" d="M1413.031,887.934v4.101c0,6,4.865,10.865,10.866,10.865h597.576
				c6.001,0,10.866-4.865,10.866-10.865v-4.101c0-6.001-4.865-10.866-10.866-10.866h-597.576
				C1417.896,877.068,1413.031,881.933,1413.031,887.934z"/>
			
				<linearGradient id="SVGID_00000121982098520328533240000007260721322222556846_" gradientUnits="userSpaceOnUse" x1="1261.7994" y1="1339.9866" x2="1271.96" y2="1339.9866">
				<stop  offset="0" style="stop-color:#4F52FF"/>
				<stop  offset="1" style="stop-color:#4042E2"/>
			</linearGradient>
			<path style="fill:url(#SVGID_00000121982098520328533240000007260721322222556846_);" d="M1267.084,1425.307
				c-2.688,0-4.869-2.176-4.875-4.861l-0.038-14.626c-0.007-2.695,2.171-4.885,4.864-4.89c0,0,0.007,0,0.012,0
				c2.688,0,4.868,2.176,4.875,4.861l0.038,14.627c0.007,2.695-2.171,4.885-4.864,4.89H1267.084z M1266.96,1376.552
				c-2.688,0-4.868-2.175-4.875-4.861l-0.038-14.626c-0.007-2.695,2.171-4.885,4.864-4.89h0.012c2.688,0,4.869,2.176,4.875,4.861
				l0.038,14.627c0.007,2.695-2.171,4.885-4.864,4.889C1266.972,1376.552,1266.965,1376.552,1266.96,1376.552z M1266.837,1327.798
				c-2.688,0-4.869-2.176-4.875-4.861l-0.038-14.626c-0.007-2.695,2.171-4.885,4.864-4.89c0,0,0.007,0,0.012,0
				c2.688,0,4.868,2.176,4.875,4.862l0.038,14.626c0.007,2.695-2.171,4.885-4.864,4.89
				C1266.849,1327.798,1266.842,1327.798,1266.837,1327.798z M1266.713,1279.043c-2.688,0-4.869-2.176-4.875-4.861l-0.038-14.626
				c-0.007-2.695,2.171-4.885,4.864-4.89h0.012c2.688,0,4.869,2.176,4.875,4.862l0.038,14.626c0.007,2.695-2.171,4.885-4.864,4.89
				C1266.725,1279.043,1266.718,1279.043,1266.713,1279.043z"/>
			
				<linearGradient id="SVGID_00000183213702097131613900000007457957917490901160_" gradientUnits="userSpaceOnUse" x1="1507.0793" y1="1301.7159" x2="1516.8304" y2="1301.7159">
				<stop  offset="0" style="stop-color:#4F52FF"/>
				<stop  offset="1" style="stop-color:#4042E2"/>
			</linearGradient>
			<path style="fill:url(#SVGID_00000183213702097131613900000007457957917490901160_);" d="M1511.955,1411.414
				c-2.693,0-4.876-2.18-4.876-4.875v-14.626c0-2.695,2.183-4.875,4.876-4.875s4.875,2.18,4.875,4.875v14.626
				C1516.83,1409.233,1514.647,1411.414,1511.955,1411.414z M1511.955,1362.659c-2.693,0-4.876-2.18-4.876-4.875v-14.626
				c0-2.695,2.183-4.875,4.876-4.875s4.875,2.18,4.875,4.875v14.626C1516.83,1360.479,1514.647,1362.659,1511.955,1362.659z
				 M1511.955,1313.905c-2.693,0-4.876-2.181-4.876-4.875v-14.626c0-2.695,2.183-4.875,4.876-4.875s4.875,2.181,4.875,4.875v14.626
				C1516.83,1311.724,1514.647,1313.905,1511.955,1313.905z M1511.955,1265.15c-2.693,0-4.876-2.181-4.876-4.875v-14.626
				c0-2.695,2.183-4.875,4.876-4.875s4.875,2.181,4.875,4.875v14.626C1516.83,1262.969,1514.647,1265.15,1511.955,1265.15z
				 M1511.955,1216.396c-2.693,0-4.876-2.181-4.876-4.876v-14.626c0-2.695,2.183-4.875,4.876-4.875s4.875,2.181,4.875,4.875v14.626
				C1516.83,1214.215,1514.647,1216.396,1511.955,1216.396z"/>
			
				<linearGradient id="SVGID_00000155117729567337942460000004806924902153610643_" gradientUnits="userSpaceOnUse" x1="1684.5027" y1="1296.2679" x2="1703.5978" y2="1296.2679">
				<stop  offset="0" style="stop-color:#4F52FF"/>
				<stop  offset="1" style="stop-color:#4042E2"/>
			</linearGradient>
			<path style="fill:url(#SVGID_00000155117729567337942460000004806924902153610643_);" d="M1698.72,1451.703
				c-2.623,0-4.79-2.085-4.871-4.723l-0.271-8.732c-0.084-2.69,2.031-4.942,4.72-5.028c2.764-0.176,4.942,2.033,5.026,4.723
				l0.271,8.733c0.083,2.69-2.031,4.942-4.721,5.027C1698.822,1451.703,1698.77,1451.703,1698.72,1451.703z M1697.391,1408.862
				c-2.623,0-4.79-2.085-4.871-4.723l-0.455-14.622c-0.083-2.69,2.031-4.942,4.721-5.028c2.747-0.076,4.942,2.033,5.025,4.724
				l0.455,14.621c0.083,2.69-2.031,4.943-4.721,5.028C1697.494,1408.862,1697.441,1408.862,1697.391,1408.862z M1695.877,1360.131
				c-2.623,0-4.79-2.085-4.871-4.723l-0.453-14.622c-0.083-2.695,2.031-4.942,4.723-5.027c2.602,0.024,4.94,2.037,5.023,4.723
				l0.453,14.622c0.083,2.695-2.031,4.942-4.723,5.027C1695.98,1360.131,1695.927,1360.131,1695.877,1360.131z M1694.366,1311.4
				c-2.623,0-4.79-2.085-4.871-4.723l-0.452-14.622c-0.083-2.695,2.031-4.942,4.723-5.027c2.585-0.134,4.94,2.033,5.023,4.723
				l0.452,14.622c0.083,2.695-2.031,4.942-4.723,5.027C1694.468,1311.4,1694.416,1311.4,1694.366,1311.4z M1692.854,1262.669
				c-2.624,0-4.79-2.085-4.871-4.723l-0.455-14.622c-0.084-2.69,2.031-4.942,4.72-5.027c2.702-0.029,4.942,2.033,5.026,4.723
				l0.455,14.622c0.083,2.69-2.031,4.942-4.721,5.027C1692.956,1262.669,1692.904,1262.669,1692.854,1262.669z M1691.342,1213.939
				c-2.623,0-4.79-2.086-4.871-4.724l-0.455-14.621c-0.083-2.69,2.031-4.943,4.721-5.028c2.685-0.186,4.942,2.033,5.025,4.723
				l0.455,14.622c0.083,2.69-2.031,4.942-4.721,5.028C1691.445,1213.939,1691.392,1213.939,1691.342,1213.939z M1689.83,1165.208
				c-2.623,0-4.79-2.086-4.87-4.723l-0.455-14.622c-0.083-2.69,2.031-4.942,4.721-5.028c2.797-0.086,4.94,2.033,5.025,4.723
				l0.455,14.622c0.084,2.69-2.031,4.942-4.72,5.028C1689.933,1165.208,1689.881,1165.208,1689.83,1165.208z"/>
			
				<linearGradient id="SVGID_00000061440240770360364710000001818800235202202814_" gradientUnits="userSpaceOnUse" x1="1871.3724" y1="1217.2048" x2="1881.1237" y2="1217.2048">
				<stop  offset="0" style="stop-color:#4F52FF"/>
				<stop  offset="1" style="stop-color:#4042E2"/>
			</linearGradient>
			<path style="fill:url(#SVGID_00000061440240770360364710000001818800235202202814_);" d="M1876.248,1424.412
				c-2.693,0-4.875-2.18-4.875-4.875v-14.626c0-2.695,2.183-4.875,4.875-4.875c2.693,0,4.876,2.18,4.876,4.875v14.626
				C1881.124,1422.231,1878.941,1424.412,1876.248,1424.412z M1876.248,1375.657c-2.693,0-4.875-2.18-4.875-4.875v-14.627
				c0-2.695,2.183-4.875,4.875-4.875c2.693,0,4.876,2.181,4.876,4.875v14.627
				C1881.124,1373.477,1878.941,1375.657,1876.248,1375.657z M1876.248,1326.903c-2.693,0-4.875-2.181-4.875-4.875v-14.627
				c0-2.695,2.183-4.875,4.875-4.875c2.693,0,4.876,2.181,4.876,4.875v14.627
				C1881.124,1324.722,1878.941,1326.903,1876.248,1326.903z M1876.248,1278.148c-2.693,0-4.875-2.181-4.875-4.875v-14.627
				c0-2.695,2.183-4.875,4.875-4.875c2.693,0,4.876,2.181,4.876,4.875v14.627
				C1881.124,1275.968,1878.941,1278.148,1876.248,1278.148z M1876.248,1229.393c-2.693,0-4.875-2.18-4.875-4.875v-14.626
				c0-2.695,2.183-4.875,4.875-4.875c2.693,0,4.876,2.18,4.876,4.875v14.626C1881.124,1227.213,1878.941,1229.393,1876.248,1229.393
				z M1876.248,1180.639c-2.693,0-4.875-2.18-4.875-4.875v-14.626c0-2.695,2.183-4.875,4.875-4.875c2.693,0,4.876,2.18,4.876,4.875
				v14.626C1881.124,1178.458,1878.941,1180.639,1876.248,1180.639z M1876.248,1131.884c-2.693,0-4.875-2.181-4.875-4.875v-14.626
				c0-2.695,2.183-4.875,4.875-4.875c2.693,0,4.876,2.181,4.876,4.875v14.626
				C1881.124,1129.703,1878.941,1131.884,1876.248,1131.884z M1876.248,1083.13c-2.693,0-4.875-2.181-4.875-4.875v-14.626
				c0-2.695,2.183-4.875,4.875-4.875c2.693,0,4.876,2.181,4.876,4.875v14.626C1881.124,1080.949,1878.941,1083.13,1876.248,1083.13z
				 M1876.248,1034.375c-2.693,0-4.875-2.181-4.875-4.875v-14.626c0-2.695,2.183-4.875,4.875-4.875c2.693,0,4.876,2.18,4.876,4.875
				v14.626C1881.124,1032.194,1878.941,1034.375,1876.248,1034.375z"/>
			<g>
				
					<linearGradient id="SVGID_00000059992956205051581410000008778757771245550978_" gradientUnits="userSpaceOnUse" x1="947.6796" y1="1179.5333" x2="1012.2845" y2="1179.5333">
					<stop  offset="0" style="stop-color:#4F52FF"/>
					<stop  offset="1" style="stop-color:#4042E2"/>
				</linearGradient>
				<path style="fill:url(#SVGID_00000059992956205051581410000008778757771245550978_);" d="M1004.964,1481.965
					c-3.761,0-6.956-2.88-7.28-6.695l-49.978-590.25c-0.34-4.028,2.645-7.565,6.67-7.908c4.049-0.219,7.561,2.647,7.904,6.67
					l49.978,590.25c0.34,4.028-2.645,7.565-6.67,7.908C1005.378,1481.956,1005.169,1481.965,1004.964,1481.965z"/>
				<g>
					
						<linearGradient id="SVGID_00000006681336840928122740000016733826672324714421_" gradientUnits="userSpaceOnUse" x1="930.9659" y1="891.6347" x2="982.1578" y2="891.6347">
						<stop  offset="0" style="stop-color:#4F52FF"/>
						<stop  offset="1" style="stop-color:#4042E2"/>
					</linearGradient>
					<polygon style="fill:url(#SVGID_00000006681336840928122740000016733826672324714421_);" points="932.742,915.524 
						955.357,888.709 982.158,911.339 980.382,890.361 953.582,867.745 930.966,894.544 					"/>
				</g>
			</g>
			<g>
				
					<linearGradient id="SVGID_00000052811097410837743720000014454290807545568949_" gradientUnits="userSpaceOnUse" x1="959.7351" y1="1446.8278" x2="2002.8005" y2="1446.8278">
					<stop  offset="0" style="stop-color:#4F52FF"/>
					<stop  offset="1" style="stop-color:#4042E2"/>
				</linearGradient>
				<path style="fill:url(#SVGID_00000052811097410837743720000014454290807545568949_);" d="M1995.488,1454.141H967.048
					c-4.039,0-7.313-3.276-7.313-7.313c0-4.037,3.274-7.313,7.313-7.313h1028.439c4.04,0,7.313,3.276,7.313,7.313
					C2002.801,1450.865,1999.527,1454.141,1995.488,1454.141z"/>
				<g>
					
						<linearGradient id="SVGID_00000121249759953043912760000017539501213125759934_" gradientUnits="userSpaceOnUse" x1="1966.3531" y1="1446.8253" x2="2012.2036" y2="1446.8253">
						<stop  offset="0" style="stop-color:#4F52FF"/>
						<stop  offset="1" style="stop-color:#4042E2"/>
					</linearGradient>
					<polygon style="fill:url(#SVGID_00000121249759953043912760000017539501213125759934_);" points="1966.353,1471.622 
						1991.163,1446.825 1966.353,1422.029 1987.407,1422.029 2012.204,1446.825 1987.407,1471.622 					"/>
				</g>
			</g>
			<g>
				
					<linearGradient id="SVGID_00000067958351677799044570000017198672922335912323_" gradientUnits="userSpaceOnUse" x1="1040.4464" y1="1130.6429" x2="1897.088" y2="1130.6429">
					<stop  offset="0" style="stop-color:#4F52FF"/>
					<stop  offset="1" style="stop-color:#4042E2"/>
				</linearGradient>
				<path style="fill:url(#SVGID_00000067958351677799044570000017198672922335912323_);" d="M1047.75,1284.543
					c-3.609,0-6.751-2.671-7.239-6.346c-0.534-4.004,2.281-7.685,6.284-8.218c5.404-0.719,543.869-74.455,838.638-291.804
					c3.25-2.405,7.828-1.709,10.228,1.542c2.395,3.252,1.704,7.832-1.548,10.227c-297.814,219.596-839.948,293.813-845.39,294.536
					C1048.398,1284.524,1048.072,1284.543,1047.75,1284.543z"/>
			</g>
			<g>
				
					<linearGradient id="SVGID_00000055685179111786838050000012497444855284220324_" gradientUnits="userSpaceOnUse" x1="1839.6143" y1="996.1397" x2="1902.1852" y2="996.1397">
					<stop  offset="0" style="stop-color:#4F52FF"/>
					<stop  offset="1" style="stop-color:#4042E2"/>
				</linearGradient>
				<path style="fill:url(#SVGID_00000055685179111786838050000012497444855284220324_);" d="M1892.034,1022.959
					c-0.191,0-0.385-0.009-0.581-0.024c-4.026-0.313-7.034-3.837-6.718-7.861l2.262-28.728l-40.501-2.405
					c-4.03-0.238-7.106-3.699-6.868-7.732c0.238-4.033,3.673-7.19,7.735-6.866l47.943,2.842c1.959,0.114,3.792,1.014,5.082,2.495
					c1.288,1.481,1.928,3.418,1.776,5.375l-2.845,36.161C1899.016,1020.049,1895.814,1022.959,1892.034,1022.959z"/>
			</g>
		</g>
		<g>
			<path style="fill:#7D97F4;" d="M567.537,1328.521c-3.777-12.384,10.758-22.255,21.001-14.336
				c104.014,80.413,359.027,326.645,346.988,800.968c-15.104,595.109,128.067,797.961,293.178,914.217
				c0,0-215.382-41.425-368.11-246.545C485.612,2279.207,634.688,1548.714,567.537,1328.521z"/>
			<path style="fill:#FFFFFF;" d="M657.804,1505.262c18.232,64.335,35.185,128.996,49.75,194.184
				c14.904,65.1,27.829,130.623,38.693,196.454c10.61,65.867,19.983,131.923,26.536,198.279
				c6.851,66.323,10.845,132.866,14.622,199.691c4.148,66.765,7.947,134.047,18.645,201.146
				c10.615,66.968,29.394,133.744,59.818,195.109c7.601,15.292,15.51,30.505,24.236,45.1c8.46,14.763,17.575,29.156,26.945,43.38
				c18.885,28.36,39.685,55.516,62.405,81.004c45.576,50.869,98.865,94.758,156.376,130.708c6.053,3.784,14.027,1.944,17.812-4.11
				c3.716-5.943,2.008-13.74-3.786-17.603l-0.041-0.027c-13.741-9.14-27.36-18.426-40.518-28.287
				c-6.66-4.826-13.09-9.938-19.615-14.926c-6.327-5.229-12.861-10.215-19.02-15.634c-24.997-21.255-48.471-44.239-70.129-68.845
				c-43.511-48.946-79.932-104.648-109.1-163.22c-14.257-29.46-26.319-59.918-35.995-91.201
				c-9.653-31.292-16.917-63.374-22.356-95.896c-10.887-65.079-15.197-131.642-19.825-198.373
				c-4.715-66.74-9.912-133.774-17.859-200.49c-3.883-33.364-8.365-66.655-13.441-99.849c-2.442-16.611-5.206-33.171-7.939-49.734
				c-2.892-16.537-5.876-33.055-8.993-49.546c-12.592-65.943-27.189-131.469-43.836-196.443
				c-16.958-64.894-35.633-129.316-56.758-192.91c-0.604-1.818-2.566-2.802-4.384-2.198
				C658.282,1501.613,657.305,1503.491,657.804,1505.262z"/>
		</g>
		<g>
			<g>
				<path style="fill:#91B3FA;" d="M775.289,3153.997c-7.621,19.605-32.787,25.055-48.027,10.558
					c-84.09-79.991-301.389-327.654-270.171-727.087c26.363-337.304,8.604-522.709-5.29-606.317
					c-2.938-17.68,18.402-28.834,31.265-16.355C624.989,1952.477,1051.438,2443.613,775.289,3153.997z"/>
				<path style="fill:#FFFFFF;" d="M746.813,3153.5c-0.441,0.278-0.914,0.517-1.419,0.712c-4.228,1.639-8.986-0.461-10.625-4.689
					c-1.858-4.794-185.599-484.788-170.13-955.442c0.15-4.529,3.944-8.083,8.479-7.939c4.534,0.151,8.086,3.945,7.939,8.479
					c-15.358,467.228,167.181,944.205,169.025,948.967C751.528,3147.313,750.072,3151.447,746.813,3153.5z"/>
			</g>
		</g>
		<g>
			
				<linearGradient id="SVGID_00000058590574009126576620000007148267967887656874_" gradientUnits="userSpaceOnUse" x1="1106.9637" y1="766.1324" x2="916.9133" y2="3386.1162">
				<stop  offset="0" style="stop-color:#FF928E"/>
				<stop  offset="1" style="stop-color:#FE7062"/>
			</linearGradient>
			<path style="fill:url(#SVGID_00000058590574009126576620000007148267967887656874_);" d="M1318.542,2532.126H648.537
				c-2.007,0-3.634-1.627-3.634-3.634v-121.737c0-2.007,1.627-3.634,3.634-3.634h670.005c2.007,0,3.634,1.627,3.634,3.634v121.737
				C1322.176,2530.5,1320.549,2532.126,1318.542,2532.126z"/>
			
				<linearGradient id="SVGID_00000112599540540414329670000010451056474191608706_" gradientUnits="userSpaceOnUse" x1="1117.8876" y1="765.9476" x2="927.837" y2="3385.9321">
				<stop  offset="0" style="stop-color:#FF928E"/>
				<stop  offset="1" style="stop-color:#FE7062"/>
			</linearGradient>
			<path style="fill:url(#SVGID_00000112599540540414329670000010451056474191608706_);" d="M1319.073,2675.207H649.069
				c-2.007,0-3.634-1.627-3.634-3.634v-121.737c0-2.007,1.627-3.634,3.634-3.634h670.005c2.007,0,3.634,1.627,3.634,3.634v121.737
				C1322.707,2673.58,1321.08,2675.207,1319.073,2675.207z"/>
			
				<linearGradient id="SVGID_00000067199763904345867750000010828212217992896442_" gradientUnits="userSpaceOnUse" x1="1128.8114" y1="765.7697" x2="938.7609" y2="3385.7529">
				<stop  offset="0" style="stop-color:#FF928E"/>
				<stop  offset="1" style="stop-color:#FE7062"/>
			</linearGradient>
			<path style="fill:url(#SVGID_00000067199763904345867750000010828212217992896442_);" d="M1319.605,2818.287H649.601
				c-2.007,0-3.634-1.627-3.634-3.634v-121.737c0-2.007,1.627-3.634,3.634-3.634h670.004c2.007,0,3.634,1.627,3.634,3.634v121.737
				C1323.239,2816.66,1321.612,2818.287,1319.605,2818.287z"/>
			
				<linearGradient id="SVGID_00000177470488749370810640000001013358115993867196_" gradientUnits="userSpaceOnUse" x1="1139.7354" y1="765.5849" x2="949.6849" y2="3385.5688">
				<stop  offset="0" style="stop-color:#FF928E"/>
				<stop  offset="1" style="stop-color:#FE7062"/>
			</linearGradient>
			<path style="fill:url(#SVGID_00000177470488749370810640000001013358115993867196_);" d="M1320.137,2961.367H650.132
				c-2.007,0-3.634-1.627-3.634-3.634v-121.737c0-2.007,1.627-3.634,3.634-3.634h670.005c2.007,0,3.634,1.627,3.634,3.634v121.737
				C1323.771,2959.74,1322.144,2961.367,1320.137,2961.367z"/>
			
				<linearGradient id="SVGID_00000084493757054074595680000014974732494439100580_" gradientUnits="userSpaceOnUse" x1="1150.6592" y1="765.4" x2="960.6087" y2="3385.3845">
				<stop  offset="0" style="stop-color:#FF928E"/>
				<stop  offset="1" style="stop-color:#FE7062"/>
			</linearGradient>
			<path style="fill:url(#SVGID_00000084493757054074595680000014974732494439100580_);" d="M1320.669,3104.448H650.664
				c-2.007,0-3.634-1.627-3.634-3.634v-121.737c0-2.007,1.627-3.634,3.634-3.634h670.005c2.007,0,3.633,1.627,3.633,3.634v121.737
				C1324.302,3102.821,1322.676,3104.448,1320.669,3104.448z"/>
			
				<linearGradient id="SVGID_00000182487345888485652880000004580131808950451615_" gradientUnits="userSpaceOnUse" x1="1160.9449" y1="765.175" x2="970.8945" y2="3385.1582">
				<stop  offset="0" style="stop-color:#FF928E"/>
				<stop  offset="1" style="stop-color:#FE7062"/>
			</linearGradient>
			<path style="fill:url(#SVGID_00000182487345888485652880000004580131808950451615_);" d="M1320.669,3246.019H650.664
				c-2.007,0-3.634-1.627-3.634-3.634v-121.737c0-2.007,1.627-3.634,3.634-3.634h670.005c2.007,0,3.633,1.627,3.633,3.634v121.737
				C1324.302,3244.392,1322.676,3246.019,1320.669,3246.019z"/>
			<g>
				
					<linearGradient id="SVGID_00000165196716229262984280000013374052214116766340_" gradientUnits="userSpaceOnUse" x1="496.8024" y1="2556.4534" x2="960.4215" y2="2018.3247">
					<stop  offset="0" style="stop-color:#FF928E"/>
					<stop  offset="1" style="stop-color:#FE7062"/>
				</linearGradient>
				
					<circle style="fill:url(#SVGID_00000165196716229262984280000013374052214116766340_);" cx="969.786" cy="2007.455" r="345.645"/>
				
					<linearGradient id="SVGID_00000173857582090793731500000015692064666722365114_" gradientUnits="userSpaceOnUse" x1="937.1417" y1="1256.6375" x2="1004.5579" y2="2807.1809">
					<stop  offset="0" style="stop-color:#FF928E"/>
					<stop  offset="1" style="stop-color:#FE7062"/>
				</linearGradient>
				
					<circle style="fill:url(#SVGID_00000173857582090793731500000015692064666722365114_);" cx="969.786" cy="2007.455" r="334.152"/>
				<path style="opacity:0.7;fill:#FFFFFF;" d="M694.242,1876.312c-1.16,0-2.339-0.262-3.447-0.823
					c-3.781-1.905-5.297-6.517-3.388-10.297c54.129-107.24,162.332-173.86,282.377-173.86c19.169,0,38.356,1.726,57.023,5.128
					c4.166,0.76,6.928,4.754,6.169,8.916c-0.76,4.17-4.754,6.929-8.916,6.169c-17.765-3.238-36.027-4.881-54.275-4.881
					c-114.225,0-217.183,63.393-268.693,165.438C699.745,1874.773,697.046,1876.312,694.242,1876.312z"/>
				
					<ellipse transform="matrix(0.7071 -0.7071 0.7071 0.7071 -1138.4569 1280.9928)" style="opacity:0.78;fill:#FFFFFF;" cx="977.067" cy="2014.735" rx="282.818" ry="282.818"/>
				<g>
					
						<linearGradient id="SVGID_00000181069979230055321550000002281071174847058097_" gradientUnits="userSpaceOnUse" x1="1058.2476" y1="1390.4282" x2="1002.6331" y2="1835.3456">
						<stop  offset="0" style="stop-color:#FF928E"/>
						<stop  offset="1" style="stop-color:#FE7062"/>
					</linearGradient>
					<path style="fill:url(#SVGID_00000181069979230055321550000002281071174847058097_);" d="M949.313,2224.986v-30.769
						c-32.076-1.285-63.802-8.855-86.336-18.719c-8.047-3.522-12.148-12.553-9.836-21.027l7.816-28.661
						c2.868-10.514,14.302-15.953,24.353-11.74c22.352,9.37,49.953,16.784,79.713,16.784c30.894,0,53.934-10.474,53.934-31.944
						c0-19.373-17.803-30.893-60.742-42.412c-61.265-16.757-105.253-43.464-105.253-97.398c0-48.702,35.61-85.879,97.398-95.826
						v-30.773c0-9.901,8.027-17.927,17.928-17.927h18.078c9.901,0,17.928,8.027,17.928,17.927v27.629
						c29.68,1.188,51.286,6.263,68.432,12.288c8.784,3.086,13.585,12.55,11.148,21.537l-7.188,26.506
						c-2.772,10.221-13.697,15.82-23.603,12.074c-15.786-5.969-38.105-12.185-67.117-12.185c-36.656,0-47.127,15.184-47.127,28.799
						c0,16.757,21.992,28.276,69.643,42.94c68.075,20.421,96.35,48.697,96.35,99.49c0,46.604-34.559,88.496-101.585,98.97v34.434
						c0,9.901-8.027,17.928-17.929,17.928h-18.079C957.34,2242.915,949.313,2234.887,949.313,2224.986z"/>
				</g>
			</g>
		</g>
		<g>
			
				<linearGradient id="SVGID_00000163775602840182659480000007640448220544628617_" gradientUnits="userSpaceOnUse" x1="1886.9613" y1="1408.0223" x2="1628.3975" y2="3585.3892">
				<stop  offset="0" style="stop-color:#FF928E"/>
				<stop  offset="1" style="stop-color:#FE7062"/>
			</linearGradient>
			<path style="fill:url(#SVGID_00000163775602840182659480000007640448220544628617_);" d="M2079.144,2675.207H1409.14
				c-2.007,0-3.634-1.627-3.634-3.634v-121.737c0-2.007,1.627-3.634,3.634-3.634h670.005c2.007,0,3.634,1.627,3.634,3.634v121.737
				C2082.778,2673.58,2081.151,2675.207,2079.144,2675.207z"/>
			
				<linearGradient id="SVGID_00000108295064590475866460000011646611666949512321_" gradientUnits="userSpaceOnUse" x1="1904.3964" y1="1408.7625" x2="1645.8326" y2="3586.1282">
				<stop  offset="0" style="stop-color:#FF928E"/>
				<stop  offset="1" style="stop-color:#FE7062"/>
			</linearGradient>
			<path style="fill:url(#SVGID_00000108295064590475866460000011646611666949512321_);" d="M2079.676,2818.287h-670.004
				c-2.007,0-3.634-1.627-3.634-3.634v-121.737c0-2.007,1.627-3.634,3.634-3.634h670.004c2.007,0,3.634,1.627,3.634,3.634v121.737
				C2083.31,2816.66,2081.683,2818.287,2079.676,2818.287z"/>
			
				<linearGradient id="SVGID_00000178918522102114367130000010677360187453953922_" gradientUnits="userSpaceOnUse" x1="1921.8311" y1="1409.5012" x2="1663.2672" y2="3586.8679">
				<stop  offset="0" style="stop-color:#FF928E"/>
				<stop  offset="1" style="stop-color:#FE7062"/>
			</linearGradient>
			<path style="fill:url(#SVGID_00000178918522102114367130000010677360187453953922_);" d="M2080.208,2961.367h-670.005
				c-2.007,0-3.634-1.627-3.634-3.634v-121.737c0-2.007,1.627-3.634,3.634-3.634h670.005c2.007,0,3.634,1.627,3.634,3.634v121.737
				C2083.842,2959.74,2082.215,2961.367,2080.208,2961.367z"/>
			
				<linearGradient id="SVGID_00000036971523818843409910000001052451033682998718_" gradientUnits="userSpaceOnUse" x1="1939.266" y1="1410.2385" x2="1680.7021" y2="3587.6052">
				<stop  offset="0" style="stop-color:#FF928E"/>
				<stop  offset="1" style="stop-color:#FE7062"/>
			</linearGradient>
			<path style="fill:url(#SVGID_00000036971523818843409910000001052451033682998718_);" d="M2080.74,3104.448h-670.005
				c-2.007,0-3.634-1.627-3.634-3.634v-121.737c0-2.007,1.627-3.634,3.634-3.634h670.005c2.007,0,3.634,1.627,3.634,3.634v121.737
				C2084.373,3102.821,2082.746,3104.448,2080.74,3104.448z"/>
			
				<linearGradient id="SVGID_00000109010749981175702620000005733354688965869753_" gradientUnits="userSpaceOnUse" x1="1955.9979" y1="1410.9103" x2="1697.4342" y2="3588.2759">
				<stop  offset="0" style="stop-color:#FF928E"/>
				<stop  offset="1" style="stop-color:#FE7062"/>
			</linearGradient>
			<path style="fill:url(#SVGID_00000109010749981175702620000005733354688965869753_);" d="M2080.74,3246.019h-670.005
				c-2.007,0-3.634-1.627-3.634-3.634v-121.737c0-2.007,1.627-3.634,3.634-3.634h670.005c2.007,0,3.634,1.627,3.634,3.634v121.737
				C2084.373,3244.392,2082.746,3246.019,2080.74,3246.019z"/>
			<g>
				
					<linearGradient id="SVGID_00000063594860281946098550000017388604219933373574_" gradientUnits="userSpaceOnUse" x1="1245.9894" y1="2702.9246" x2="1709.6084" y2="2164.7959">
					<stop  offset="0" style="stop-color:#FF928E"/>
					<stop  offset="1" style="stop-color:#FE7062"/>
				</linearGradient>
				
					<circle style="fill:url(#SVGID_00000063594860281946098550000017388604219933373574_);" cx="1718.973" cy="2153.926" r="345.645"/>
				
					<linearGradient id="SVGID_00000055704436812243672160000006115452827285575340_" gradientUnits="userSpaceOnUse" x1="1777.8369" y1="1133.637" x2="1696.9379" y2="2535.873">
					<stop  offset="0" style="stop-color:#FF928E"/>
					<stop  offset="1" style="stop-color:#FE7062"/>
				</linearGradient>
				
					<circle style="fill:url(#SVGID_00000055704436812243672160000006115452827285575340_);" cx="1718.973" cy="2153.926" r="334.152"/>
				<path style="opacity:0.7;fill:#FFFFFF;" d="M1443.429,2022.783c-1.16,0-2.339-0.262-3.447-0.823
					c-3.781-1.905-5.297-6.517-3.387-10.297c54.129-107.24,162.332-173.86,282.377-173.86c19.168,0,38.356,1.726,57.023,5.128
					c4.166,0.76,6.928,4.754,6.169,8.916c-0.76,4.17-4.754,6.928-8.916,6.169c-17.765-3.238-36.027-4.881-54.275-4.881
					c-114.225,0-217.183,63.393-268.692,165.438C1448.931,2021.245,1446.233,2022.783,1443.429,2022.783z"/>
				
					<ellipse transform="matrix(0.7071 -0.7071 0.7071 0.7071 -1022.5959 1853.6484)" style="opacity:0.78;fill:#FFFFFF;" cx="1726.254" cy="2161.207" rx="282.818" ry="282.818"/>
				<g>
					
						<linearGradient id="SVGID_00000069364812993926704040000001171709715024031893_" gradientUnits="userSpaceOnUse" x1="2132.8665" y1="1285.5635" x2="1945.7987" y2="1695.0892">
						<stop  offset="0" style="stop-color:#FF928E"/>
						<stop  offset="1" style="stop-color:#FE7062"/>
					</linearGradient>
					<path style="fill:url(#SVGID_00000069364812993926704040000001171709715024031893_);" d="M1698.5,2371.458v-30.769
						c-32.076-1.285-63.802-8.855-86.336-18.719c-8.047-3.522-12.148-12.553-9.836-21.027l7.816-28.661
						c2.868-10.514,14.302-15.953,24.353-11.74c22.352,9.37,49.953,16.784,79.713,16.784c30.894,0,53.934-10.474,53.934-31.944
						c0-19.373-17.802-30.893-60.742-42.412c-61.265-16.757-105.253-43.463-105.253-97.398c0-48.701,35.61-85.879,97.398-95.826
						v-30.773c0-9.901,8.027-17.927,17.928-17.927h18.078c9.901,0,17.928,8.027,17.928,17.927v27.629
						c29.68,1.187,51.286,6.263,68.432,12.288c8.784,3.086,13.585,12.55,11.148,21.537l-7.188,26.506
						c-2.772,10.221-13.697,15.82-23.602,12.074c-15.786-5.969-38.105-12.185-67.117-12.185c-36.656,0-47.127,15.184-47.127,28.799
						c0,16.757,21.992,28.276,69.643,42.94c68.075,20.421,96.35,48.697,96.35,99.49c0,46.604-34.559,88.496-101.585,98.97v34.435
						c0,9.901-8.027,17.928-17.929,17.928h-18.079C1706.527,2389.386,1698.5,2381.359,1698.5,2371.458z"/>
				</g>
			</g>
		</g>
		<g>
			<g>
				<g>
					
						<linearGradient id="SVGID_00000115507914362959260710000008170118307301419701_" gradientUnits="userSpaceOnUse" x1="2476.134" y1="562.5158" x2="2044.6798" y2="1243.4055">
						<stop  offset="0" style="stop-color:#FF928E"/>
						<stop  offset="1" style="stop-color:#FE7062"/>
					</linearGradient>
					<path style="fill:url(#SVGID_00000115507914362959260710000008170118307301419701_);" d="M1656.969,1475.938
						c171.292,25.702,282.935-82.378,366.127-147.941c109.836-86.56,195.309-44.448,195.309-44.448l-98.728,220.826
						c-174.925,164.929-372.683,131.03-485.752,77.584C1632.185,1538.779,1643.724,1502.643,1656.969,1475.938z"/>
					
						<linearGradient id="SVGID_00000178184916603720900840000010672186658757943479_" gradientUnits="userSpaceOnUse" x1="-3687.4768" y1="1069.4431" x2="-4474.103" y2="2075.8625" gradientTransform="matrix(-1 0 0 1 -2445.2913 0)">
						<stop  offset="0" style="stop-color:#FEBBBA"/>
						<stop  offset="1" style="stop-color:#FF928E"/>
					</linearGradient>
					<path style="fill:url(#SVGID_00000178184916603720900840000010672186658757943479_);" d="M1416.22,1373.745l56.803,30.568
						c68.125,41.478,129.086,63.394,183.945,71.625c-13.245,26.705-24.783,62.842-23.043,106.021
						c-71.977-34.021-117.102-74.857-117.102-74.857C1388.143,1430.371,1416.22,1373.745,1416.22,1373.745z"/>
				</g>
				
					<linearGradient id="SVGID_00000180351333714685176640000001139271822149420697_" gradientUnits="userSpaceOnUse" x1="-3582.2002" y1="1151.7249" x2="-4368.8286" y2="2158.147" gradientTransform="matrix(-1 0 0 1 -2445.2913 0)">
					<stop  offset="0" style="stop-color:#FEBBBA"/>
					<stop  offset="1" style="stop-color:#FF928E"/>
				</linearGradient>
				<path style="fill:url(#SVGID_00000180351333714685176640000001139271822149420697_);" d="M1248.877,1453.792
					c3.667-12.19,12.68-22.053,24.493-26.803l115.282-46.359c0,0,1.74-14.785-24.357-24.832
					c-26.099-10.047-19.997-39.276-19.997-39.276s35.654,16.265,87.853,42.061c29.851,14.752,46.6,40.8,55.482,60.406
					l-29.677,39.028c-71.051,21.344-142.947,25.426-215.456,16.959L1248.877,1453.792z"/>
			</g>
			<g>
				<g>
					<path style="fill:#91B3FA;" d="M2433.117,1733.651c22.639,1.148,33.26-4.995,36.128-15.073
						c9.348-32.505-60.646-103.122-63.089-105.591c2.632,1.66,95.011,60.4,185.5-2.674c60.781-42.368,6.154-78.625-39.076-98.351
						c20.174-1.871,49.281-8.349,91.466-23.02c117.04-40.652,24.049-92.292-18.501-111.35
						c22.051,2.665,62.729-10.143,116.914-102.352c85.821-145.944-54.203-84.114-54.203-84.114s63.237-52.112,49.817-228.889
						c-9.315-122.986-53.106-58.311-76.75-12.942c26.012-59.378,71.068-186.488,19.961-256.438
						c-47.837-65.509-79.457,30.153-89.797,71.411c7.696-44.636,18.172-150.497-4.07-223.835c-0.079-0.177-0.11-0.352-0.188-0.53
						c-5.097-16.682-11.914-31.598-20.813-43.637c-50.287-67.84-86.922,251.959-121.065,335.546
						c-34.097,83.522-169.521,203.681-117.87,321.316c54.623,124.321-62.984,439.602-62.984,439.602
						C2282.183,1690.327,2338.98,1728.877,2433.117,1733.651z"/>
					<path style="fill:#BDD0FB;" d="M2469.245,1718.578c9.348-32.505-60.646-103.122-63.089-105.591
						c2.632,1.66,95.011,60.4,185.5-2.674c60.781-42.368,6.154-78.625-39.076-98.351c20.174-1.871,49.281-8.349,91.466-23.02
						c117.04-40.652,24.049-92.292-18.501-111.35c22.051,2.665,62.729-10.143,116.914-102.352
						c85.821-145.944-54.203-84.114-54.203-84.114s63.237-52.112,49.817-228.889c-9.315-122.986-53.106-58.311-76.75-12.942
						c26.012-59.378,71.068-186.488,19.961-256.438c-47.837-65.509-79.457,30.153-89.797,71.411
						c7.696-44.636,18.172-150.497-4.07-223.835c-0.079-0.177-0.11-0.352-0.188-0.53c-24.699-74.348-42.058,42.52-45.971,68.355
						c-12.197,80.729-10.518,174.234-44.576,253.864c-16.961,39.759-41.748,76.162-60.501,114.922
						c-18.683,38.54-36.893,80.852-36.208,124.574c0.802,51.819,29.655,96.73,34.677,149.142
						c7.201,75.104-24.502,167.546-48.154,237.378c-14.987,44.354-30.883,88.882-49.143,131.479
						C2340.172,1690.786,2406.418,1720.954,2469.245,1718.578z"/>
				</g>
				<g>
					<path style="fill:#7D97F4;" d="M2595.226,1747.864c24.63,7.265,38.387,4.515,44.996-3.958
						c21.448-27.331-31.429-114.332-33.321-117.452c2.389,2.406,83.607,84.801,201.055,52.856
						c76.802-20.891,34.441-70.024-5.457-102.349c21.779,4.607,54.201,7.688,102.369,7.246
						c129.245-1.14,57.923-77.345,22.25-109.342c21.275,9.947,66.487,11.617,153.82-55.485
						c136.763-105.016-20.489-99.038-20.489-99.038s81.526-25.693,138.785-202.577c41.294-127.494-27.994-82.282-69.91-47.085
						c49.982-48.345,146.575-156.89,126.425-256.364c-19.617-96.944-92.9-10.438-121.014,28.541
						c26.826-44.082,83.08-154.085,92.298-249.391c-0.004-0.249,0.041-0.466,0.039-0.715c2.094-22.081,1.624-43.37-2.313-62.831
						c-22.906-112.563-202.726,233.418-275.594,307.56c-72.829,74.134-281.149,136.359-264.512,291.706
						c16.676,155.34-236.801,431.158-236.801,431.158C2435.572,1662.529,2489.671,1716.73,2595.226,1747.864z"/>
					<path style="fill:#91B3FA;" d="M2640.222,1743.906c21.448-27.331-31.429-114.332-33.321-117.452
						c2.389,2.406,83.607,84.801,201.055,52.856c76.802-20.891,34.441-70.024-5.457-102.349
						c21.779,4.607,54.201,7.688,102.369,7.246c129.245-1.14,57.923-77.345,22.25-109.342c21.275,9.947,66.487,11.617,153.82-55.485
						c136.763-105.016-20.489-99.038-20.489-99.038s81.526-25.693,138.785-202.577c41.294-127.494-27.994-82.282-69.91-47.085
						c49.982-48.345,146.575-156.89,126.425-256.364c-19.617-96.944-92.9-10.438-121.014,28.541
						c26.826-44.082,83.08-154.085,92.298-249.391c-0.004-0.249,0.041-0.466,0.039-0.715c7.358-100.806-62.787,22.386-78.223,49.309
						c-47.858,83.546-85.674,187.837-155.532,256.441c-34.866,34.312-77.088,61.022-113.702,93.479
						c-36.513,32.314-74.04,68.976-90.408,116.106c-19.206,55.261-3.762,114.871-18.091,170.844
						c-20.19,78.893-89.959,159.188-142.204,219.812c-33.085,38.451-67.243,76.719-103.46,112.314
						C2504.104,1680.696,2569.702,1728.594,2640.222,1743.906z"/>
				</g>
			</g>
			
				<linearGradient id="SVGID_00000035514443266522579570000014494869450804069783_" gradientUnits="userSpaceOnUse" x1="-5902.1733" y1="3165.2947" x2="-5637.0493" y2="3165.2947" gradientTransform="matrix(-1 0 0 1 -3471.8828 0)">
				<stop  offset="0" style="stop-color:#4F52FF"/>
				<stop  offset="1" style="stop-color:#4042E2"/>
			</linearGradient>
			<path style="fill:url(#SVGID_00000035514443266522579570000014494869450804069783_);" d="M2172.653,3152.471
				c45.419,3.926,124.245,10.303,186.389,13.038c37.356,1.645,58.863-2.014,71.249-6.973c-0.021,1.396-0.06,2.716-0.115,3.941
				c-0.294,6.539-5.607,11.771-12.212,12.14c-117.424,6.554-210.81,2.268-244.056,0.245c-6.875-0.419-10.971-7.89-7.456-13.75
				C2168.21,3158.182,2170.34,3155.31,2172.653,3152.471z"/>
			
				<linearGradient id="SVGID_00000023249254150737559930000003483925752887913893_" gradientUnits="userSpaceOnUse" x1="-5902.1885" y1="3113.3337" x2="-5644.5361" y2="3113.3337" gradientTransform="matrix(-1 0 0 1 -3471.8828 0)">
				<stop  offset="0" style="stop-color:#09005D"/>
				<stop  offset="1" style="stop-color:#1A0F91"/>
			</linearGradient>
			<path style="fill:url(#SVGID_00000023249254150737559930000003483925752887913893_);" d="M2359.042,3165.51
				c-62.144-2.735-140.97-9.112-186.389-13.038c44.654-54.786,186.389-91.712,186.389-91.712h40.031
				c27.533,39.688,31.52,77.473,31.218,97.778C2417.905,3163.496,2396.399,3167.154,2359.042,3165.51z"/>
			
				<linearGradient id="SVGID_00000040554669029445237110000001781795563126775969_" gradientUnits="userSpaceOnUse" x1="-5877.6963" y1="3040.7893" x2="-5803.0166" y2="3040.7893" gradientTransform="matrix(-1 0 0 1 -3471.8828 0)">
				<stop  offset="0" style="stop-color:#FEBBBA"/>
				<stop  offset="1" style="stop-color:#FF928E"/>
			</linearGradient>
			<path style="fill:url(#SVGID_00000040554669029445237110000001781795563126775969_);" d="M2405.814,2995.408l-3.746,74.129
				c-0.406,8.027-6.414,14.773-14.454,15.922c-7.999,1.144-18.711,1.29-30.07-2.492c-6.989-2.326-12.177-8.214-13.466-15.397
				l-12.944-72.163H2405.814z"/>
			<g>
				
					<linearGradient id="SVGID_00000147910716640361845480000017608703597799249071_" gradientUnits="userSpaceOnUse" x1="-6375.3848" y1="3231.0371" x2="-6273.7852" y2="3231.0371" gradientTransform="matrix(-1 0 0 1 -3471.8828 0)">
					<stop  offset="0" style="stop-color:#4F52FF"/>
					<stop  offset="1" style="stop-color:#4042E2"/>
				</linearGradient>
				<path style="fill:url(#SVGID_00000147910716640361845480000017608703597799249071_);" d="M2870.418,3237.986
					c19.697-3.551,28.608-16.774,32.345-30.912c0.025,0.128,0.05,0.254,0.074,0.38c2.898,14.913-3.819,30.369-17.25,37.719
					c-16.233,8.885-33.982,10.399-47.761,9.664c-14.783-0.787-28.353-8.693-35.812-21.347l-0.112-0.19
					C2816.741,3242.79,2837.571,3243.906,2870.418,3237.986z"/>
				
					<linearGradient id="SVGID_00000167368618165687331860000001730126378392452779_" gradientUnits="userSpaceOnUse" x1="-6374.6455" y1="3129.9331" x2="-6225.5171" y2="3129.9331" gradientTransform="matrix(-1 0 0 1 -3471.8828 0)">
					<stop  offset="0" style="stop-color:#09005D"/>
					<stop  offset="1" style="stop-color:#1A0F91"/>
				</linearGradient>
				<path style="fill:url(#SVGID_00000167368618165687331860000001730126378392452779_);" d="M2777.554,3018.248h33.012
					c50.285-1.328,81.862,135.744,92.198,188.826c-3.736,14.138-12.648,27.361-32.345,30.912
					c-32.847,5.921-53.677,4.804-68.516-4.686c-27.166-46.202-40.635-113.87-47.109-153.361
					C2747.43,3035.024,2777.554,3018.248,2777.554,3018.248z"/>
			</g>
			
				<linearGradient id="SVGID_00000178188173439887136710000010375394400582588551_" gradientUnits="userSpaceOnUse" x1="-6297.1309" y1="3001.8464" x2="-6207.8804" y2="3001.8464" gradientTransform="matrix(-1 0 0 1 -3471.8828 0)">
				<stop  offset="0" style="stop-color:#FEBBBA"/>
				<stop  offset="1" style="stop-color:#FF928E"/>
			</linearGradient>
			<path style="fill:url(#SVGID_00000178188173439887136710000010375394400582588551_);" d="M2806.323,2949.442l18.331,72.909
				c2.248,8.94-2.031,18.186-10.296,22.427c-10.255,5.263-24.693,10.793-37.961,9.192c-6.24-0.753-11.424-5.148-13.486-11.024
				l-26.913-76.708L2806.323,2949.442z"/>
			
				<linearGradient id="SVGID_00000096753129745498680960000001193413438412372614_" gradientUnits="userSpaceOnUse" x1="-5575.2246" y1="2038.7247" x2="-6337.2178" y2="3286.9429" gradientTransform="matrix(-1 0 0 1 -3471.8828 0)">
				<stop  offset="0" style="stop-color:#09005D"/>
				<stop  offset="1" style="stop-color:#1A0F91"/>
			</linearGradient>
			<path style="fill:url(#SVGID_00000096753129745498680960000001193413438412372614_);" d="M2161.471,1989.183
				c0,0,163.817,1023.997,161.119,1029.625c0,0,45.245,20.564,94.569,2.621c0,0-14.814-547.399-49.525-757.286
				c0,0,279.581,489.268,368.364,733.06c0,0,46.307-5.522,84.638-30.749c0,0-301.03-880.66-381.341-997.959L2161.471,1989.183z"/>
			
				<linearGradient id="SVGID_00000001647394132627032680000008784504051763744952_" gradientUnits="userSpaceOnUse" x1="2618.6404" y1="1369.8048" x2="2299.3013" y2="2223.6887">
				<stop  offset="0" style="stop-color:#53D8FF"/>
				<stop  offset="1" style="stop-color:#3840F7"/>
			</linearGradient>
			<path style="opacity:0.49;fill:url(#SVGID_00000001647394132627032680000008784504051763744952_);" d="M2361.106,2260.557
				c-2.198,0-4.347-1.093-5.591-3.086l-59.728-95.389l-42.266-8.502c-3.574-0.719-5.881-4.19-5.156-7.753
				c0.725-3.574,4.178-5.827,7.753-5.156l45.044,9.063c1.775,0.356,3.333,1.431,4.287,2.958l61.226,97.786
				c1.932,3.085,0.99,7.149-2.089,9.075C2363.497,2260.237,2362.289,2260.557,2361.106,2260.557z"/>
			
				<linearGradient id="SVGID_00000093896828464193081340000008122968678902323621_" gradientUnits="userSpaceOnUse" x1="2831.0178" y1="787.3917" x2="2399.562" y2="1468.2838">
				<stop  offset="0" style="stop-color:#FF928E"/>
				<stop  offset="1" style="stop-color:#FE7062"/>
			</linearGradient>
			<path style="fill:url(#SVGID_00000093896828464193081340000008122968678902323621_);" d="M2135.643,1274.183
				c63.913-3.748,274.527-10.585,448.804,46.993c36.678,12.117,62.278,60.71,77.588,95.843
				c47.144,108.188-65.083,151.86-151.771,122.175c-44.153,119.223-64.867,293.183-69.195,370.169
				c-1.425,25.347,3.022,50.646,12.967,74.048l1.085,2.552c2.128,5.008-0.801,10.763-6.155,11.965
				c-119.285,26.795-243.35,19.515-280.415,16.453c-6.617-0.546-12.115-5.281-13.633-11.677
				c-58.004-244.408-58.137-411.127-43.936-516.519C2056.723,1498.317,2123.938,1274.87,2135.643,1274.183z"/>
			
				<linearGradient id="SVGID_00000077291133863854677080000013142444752336627354_" gradientUnits="userSpaceOnUse" x1="2563.8792" y1="398.0806" x2="1991.1777" y2="1741.3252">
				<stop  offset="0" style="stop-color:#E1473D"/>
				<stop  offset="1" style="stop-color:#E9605A"/>
			</linearGradient>
			<path style="fill:url(#SVGID_00000077291133863854677080000013142444752336627354_);" d="M2110.756,1494.498
				c-0.29,0-0.58-0.018-0.882-0.054c-3.599-0.477-6.135-3.786-5.652-7.391c13.984-105.708,42.121-150.993,43.317-152.865
				c1.956-3.061,6.038-3.949,9.069-2.035c3.067,1.944,3.985,6.008,2.053,9.081c-0.278,0.435-27.835,45.14-41.397,147.546
				C2116.831,1492.089,2114.005,1494.498,2110.756,1494.498z"/>
			
				<linearGradient id="SVGID_00000055684818746688830910000009775746674742201007_" gradientUnits="userSpaceOnUse" x1="-5857.4355" y1="1419.1056" x2="-5818.7642" y2="1216.0809" gradientTransform="matrix(-1 0 0 1 -3471.8828 0)">
				<stop  offset="0" style="stop-color:#FEBBBA"/>
				<stop  offset="1" style="stop-color:#FF928E"/>
			</linearGradient>
			<path style="fill:url(#SVGID_00000055684818746688830910000009775746674742201007_);" d="M2405.122,1131.806
				c0,0,12.067,127.59,22.692,165.331c1.612,5.726-0.875,11.764-6.077,14.736c-18.033,10.304-61.283,27.11-120.443-1.884
				c-9.584-4.697-15.346-14.687-14.899-25.26l5.212-123.294L2405.122,1131.806z"/>
			<g>
				
					<linearGradient id="SVGID_00000170985171919667087220000003488581608300429458_" gradientUnits="userSpaceOnUse" x1="-5752.7964" y1="1046.6201" x2="-5973.4399" y2="1215.446" gradientTransform="matrix(-1 0 0 1 -3471.8828 0)">
					<stop  offset="0" style="stop-color:#FEBBBA"/>
					<stop  offset="1" style="stop-color:#FF928E"/>
				</linearGradient>
				<path style="fill:url(#SVGID_00000170985171919667087220000003488581608300429458_);" d="M2289.004,968.578
					c0,0-38.597,88.662-41.188,135.198c-2.592,46.536-12.62,76.732,41.188,86.104c53.808,9.371,99.137-17.434,123.693-63.789
					c0,0,38.476-71.428,29.845-100.68C2433.911,996.158,2289.004,968.578,2289.004,968.578z"/>
				
					<linearGradient id="SVGID_00000036252703598103666820000015395223676630450102_" gradientUnits="userSpaceOnUse" x1="-5908.1196" y1="912.9466" x2="-5702.625" y2="1177.5208" gradientTransform="matrix(-1 0 0 1 -3471.8828 0)">
					<stop  offset="0" style="stop-color:#09005D"/>
					<stop  offset="1" style="stop-color:#1A0F91"/>
				</linearGradient>
				<path style="fill:url(#SVGID_00000036252703598103666820000015395223676630450102_);" d="M2394.311,1092.761l-3.063-1.35
					c-3.9-1.719-5.568-6.36-3.609-10.146c7.587-14.66,22.379-48.255,3.271-56.092c-24.627-10.1-122.177-29.993-143.223-64.606
					c-20.228-33.267-2.305-76.209,24.63-88.423c1.802-0.818,3.928-0.169,4.853,1.581l2.245,4.247
					c1.536,2.907,5.831,2.467,6.745-0.692c0.878-3.032,4.911-3.621,6.584-0.944c6.47,10.356,23.936,27.144,70.644,35.765
					c66.382,12.251,110.269,39.114,111.362,84.984c0.069,2.914,3.169,4.535,5.659,3.018c4.901-2.987,12.745-4.388,23.227,4.426
					c18.23,15.329,10.771,55.093-29.194,87.802c-1.898,1.554-1.883,4.518,0.173,5.856c7.245,4.716,18.046,15.939-9.94,30.899
					c-28.947,15.473-50.562,14.204-58.885,12.83c-2.071-0.342-3.406-2.347-2.954-4.396l8.884-40.316
					c0.503-2.282-1.234-4.443-3.571-4.443H2394.311z"/>
				
					<linearGradient id="SVGID_00000178201861341455942040000000721655987672397451_" gradientUnits="userSpaceOnUse" x1="-5780.1641" y1="1010.8513" x2="-6000.8086" y2="1179.6779" gradientTransform="matrix(-1 0 0 1 -3471.8828 0)">
					<stop  offset="0" style="stop-color:#FEBBBA"/>
					<stop  offset="1" style="stop-color:#FF928E"/>
				</linearGradient>
				<path style="fill:url(#SVGID_00000178201861341455942040000000721655987672397451_);" d="M2392.639,1101.269
					c0,0,14.724-56.636,40.117-40.756c25.393,15.88-13.177,63.458-33.591,65.578L2392.639,1101.269z"/>
			</g>
			<g>
				
					<linearGradient id="SVGID_00000094597177040695884160000012352457329926102431_" gradientUnits="userSpaceOnUse" x1="2706.061" y1="2105.116" x2="2683.5894" y2="2318.5969">
					<stop  offset="0" style="stop-color:#4F52FF"/>
					<stop  offset="1" style="stop-color:#4042E2"/>
				</linearGradient>
				<path style="fill:url(#SVGID_00000094597177040695884160000012352457329926102431_);" d="M2416.459,2379.344l5.394,167.761
					c0.941,29.253,24.947,52.532,54.352,52.706l401.732,2.368c19.653,0.116,36.396-14.164,39.265-33.516
					c6.281-42.365,14.286-118.169,5.273-189.318H2416.459z"/>
				
					<linearGradient id="SVGID_00000127011909952733614420000010524537704092663486_" gradientUnits="userSpaceOnUse" x1="2588.7104" y1="1998.1848" x2="2581.969" y2="2086.9482">
					<stop  offset="0" style="stop-color:#4F52FF"/>
					<stop  offset="1" style="stop-color:#4042E2"/>
				</linearGradient>
				<path style="fill:url(#SVGID_00000127011909952733614420000010524537704092663486_);" d="M2534.194,2257.559l1.208-12.938
					c1.364-3.089,4.197-5.276,7.544-5.809c12.516-1.992,43.555-5.494,58.501,5.675l2.233,15.035L2534.194,2257.559z"/>
				
					<linearGradient id="SVGID_00000137091390827178736870000008499386620642966710_" gradientUnits="userSpaceOnUse" x1="2565.5696" y1="1952.0156" x2="2566.6934" y2="2039.6553">
					<stop  offset="0" style="stop-color:#4F52FF"/>
					<stop  offset="1" style="stop-color:#4042E2"/>
				</linearGradient>
				<path style="fill:url(#SVGID_00000137091390827178736870000008499386620642966710_);" d="M2573.29,2245.11
					c-2.882,0.703-5.768,0.701-8.661-0.01c-3.499-0.86-5.968-3.991-5.968-7.578l0-40.513h20.617l0,40.483
					C2579.28,2241.095,2576.806,2244.252,2573.29,2245.11z"/>
				
					<linearGradient id="SVGID_00000013883207243982729380000014248225837151354755_" gradientUnits="userSpaceOnUse" x1="2787.2598" y1="2013.2637" x2="2780.5183" y2="2102.0269">
					<stop  offset="0" style="stop-color:#4F52FF"/>
					<stop  offset="1" style="stop-color:#4042E2"/>
				</linearGradient>
				<path style="fill:url(#SVGID_00000013883207243982729380000014248225837151354755_);" d="M2733.888,2257.559l1.209-12.938
					c1.364-3.089,4.197-5.276,7.544-5.809c12.516-1.992,43.555-5.494,58.501,5.675l2.233,15.035L2733.888,2257.559z"/>
				
					<linearGradient id="SVGID_00000150823809038040383760000002688487810936216242_" gradientUnits="userSpaceOnUse" x1="2765.2588" y1="1949.4551" x2="2766.3823" y2="2037.0946">
					<stop  offset="0" style="stop-color:#4F52FF"/>
					<stop  offset="1" style="stop-color:#4042E2"/>
				</linearGradient>
				<path style="fill:url(#SVGID_00000150823809038040383760000002688487810936216242_);" d="M2772.984,2245.11
					c-2.881,0.703-5.768,0.701-8.661-0.01c-3.499-0.86-5.968-3.991-5.967-7.578l0-44.781h20.617l0,44.751
					C2778.974,2241.095,2776.501,2244.252,2772.984,2245.11z"/>
				
					<linearGradient id="SVGID_00000013878741640573487800000013403638816830783156_" gradientUnits="userSpaceOnUse" x1="2674.8157" y1="2169.511" x2="2755.7136" y2="1998.7266">
					<stop  offset="0" style="stop-color:#4F52FF"/>
					<stop  offset="1" style="stop-color:#4042E2"/>
				</linearGradient>
				<path style="fill:url(#SVGID_00000013878741640573487800000013403638816830783156_);" d="M2556.568,2206.939l221.726-7.34
					c5.055-0.167,9.344-3.814,10.213-8.774c1.215-6.941,2.285-17.333,0.689-28.105c-1.816-12.25-12.353-21.35-24.79-21.646
					c-41.364-0.984-146.664-0.955-204.7,22.002c-6.138,2.428-10.691,7.674-12.245,14.064c-1.482,6.094-2.467,14.232-0.531,22.515
					C2547.959,2204.057,2552.031,2207.089,2556.568,2206.939z"/>
				<path style="fill:#91B3FA;" d="M2552.729,2195.415c-0.494,0-0.918-0.375-0.969-0.877c-0.035-0.351-0.843-8.687,1.327-16.709
					c1.649-6.097,6.474-11,12.59-12.795c12.353-3.625,35.956-9.786,55.242-10.327c0.54-0.015,0.987,0.409,1.002,0.948
					c0.015,0.538-0.409,0.987-0.948,1.002c-19.066,0.535-42.484,6.651-54.746,10.249c-5.47,1.605-9.783,5.985-11.257,11.432
					c-2.074,7.666-1.278,15.922-1.269,16.004c0.054,0.536-0.337,1.014-0.873,1.068
					C2552.794,2195.414,2552.762,2195.415,2552.729,2195.415z"/>
				
					<linearGradient id="SVGID_00000081635436319124541140000010755880127581355138_" gradientUnits="userSpaceOnUse" x1="2810.1123" y1="2094.0769" x2="3322.4668" y2="1177.2327">
					<stop  offset="0" style="stop-color:#4F52FF"/>
					<stop  offset="1" style="stop-color:#4042E2"/>
				</linearGradient>
				<path style="fill:url(#SVGID_00000081635436319124541140000010755880127581355138_);" d="M2431.32,2252.518
					c71.633-0.916,381.511-4.172,471.524,6.688c7.75,0.935,14.074,6.605,15.753,14.194c5.319,24.045,16.019,79.905,14.751,135.274
					c-0.173,7.535-5.698,13.893-13.137,15.301l-205.47,38.871h-72.986l-218.931-43.518c-7.717-1.534-13.405-8.07-13.805-15.892
					c-1.423-27.857-3.647-93.219,3.886-135.291C2414.507,2259.206,2422.198,2252.635,2431.32,2252.518z"/>
				
					<linearGradient id="SVGID_00000111876057525264390160000002602289791609953970_" gradientUnits="userSpaceOnUse" x1="2694.7793" y1="2267.3794" x2="2666.009" y2="2495.3254">
					<stop  offset="0" style="stop-color:#09005D"/>
					<stop  offset="1" style="stop-color:#1A0F91"/>
				</linearGradient>
				<path style="fill:url(#SVGID_00000111876057525264390160000002602289791609953970_);" d="M2707.87,2493.489h-63.942
					c-8.379,0-15.436-6.234-16.43-14.515l-7.387-61.529c-1.177-9.801,6.513-18.424,16.43-18.424h76.815
					c9.716,0,17.341,8.293,16.482,17.926l-5.486,61.529C2723.595,2486.974,2716.442,2493.489,2707.87,2493.489z"/>
				<path style="fill:#7D97F4;" d="M2702.877,2486.326h-54.245c-7.108,0-13.095-5.289-13.938-12.314l-6.267-52.198
					c-0.999-8.315,5.525-15.63,13.938-15.63h65.167c8.243,0,14.711,7.035,13.983,15.207l-4.654,52.198
					C2716.218,2480.799,2710.149,2486.326,2702.877,2486.326z"/>
			</g>
			<g>
				
					<linearGradient id="SVGID_00000114053843088778122860000014804131815437881258_" gradientUnits="userSpaceOnUse" x1="-3480.2256" y1="2622.0645" x2="-3635.7271" y2="1505.2769" gradientTransform="matrix(-1 0 0 1 -924.0277 0)">
					<stop  offset="0" style="stop-color:#FEBBBA"/>
					<stop  offset="1" style="stop-color:#FF928E"/>
				</linearGradient>
				<path style="fill:url(#SVGID_00000114053843088778122860000014804131815437881258_);" d="M2602.812,1652.41
					c0,0,64.531,291.121,6.077,454.788c71.661,33.227,58.423,26.963,58.423,26.963s141.769-414.218,96-524.768
					C2673.075,1599.819,2628.314,1624.065,2602.812,1652.41z"/>
				
					<linearGradient id="SVGID_00000057838953476294920630000010409236805544061076_" gradientUnits="userSpaceOnUse" x1="-3519.9055" y1="2370.376" x2="-3600.7507" y2="1789.7582" gradientTransform="matrix(-1 0 0 1 -924.0277 0)">
					<stop  offset="0" style="stop-color:#FEBBBA"/>
					<stop  offset="1" style="stop-color:#FF928E"/>
				</linearGradient>
				<path style="fill:url(#SVGID_00000057838953476294920630000010409236805544061076_);" d="M2608.889,2107.197
					c0,0-36.928,47.794-33.974,66.831c2.953,19.037,3.659,26.793,3.659,26.793s18.556-12.691,17.386-28.907
					c-2.58,51.47,10.782,46.854,26.447,44.035c15.663-2.82,66.156-14.423,47.825-94.094
					C2628.633,2092.946,2616.972,2096.089,2608.889,2107.197z"/>
				
					<linearGradient id="SVGID_00000090259554881828232470000009299130098347954596_" gradientUnits="userSpaceOnUse" x1="3085.2993" y1="948.5202" x2="2653.844" y2="1629.4116">
					<stop  offset="0" style="stop-color:#FF928E"/>
					<stop  offset="1" style="stop-color:#FE7062"/>
				</linearGradient>
				<path style="fill:url(#SVGID_00000090259554881828232470000009299130098347954596_);" d="M2481.828,1540.243l106.447-217.522
					c0,0,288.1,173.555,148.1,586.614c-38.182-26.612-57.852-19.67-105.29-2.314
					C2619.514,1480.077,2481.828,1540.243,2481.828,1540.243z"/>
			</g>
		</g>
	</g>
</g>
</svg>
