<?xml version="1.0" encoding="utf-8"?>
<!-- Generator: Adobe Illustrator 27.5.0, SVG Export Plug-In . SVG Version: 6.00 Build 0)  -->
<svg version="1.1" xmlns="http://www.w3.org/2000/svg" xmlns:xlink="http://www.w3.org/1999/xlink" x="0px" y="0px"
	 viewBox="0 0 500 500" style="enable-background:new 0 0 500 500;" xml:space="preserve">
<g id="Background_Complete">
	<g>
		<rect x="416.779" y="398.494" style="fill:#EBEBEB;" width="33.122" height="0.25"/>
		<rect x="322.527" y="401.208" style="fill:#EBEBEB;" width="8.693" height="0.25"/>
		<rect x="396.586" y="389.208" style="fill:#EBEBEB;" width="19.192" height="0.25"/>
		<rect x="52.459" y="390.888" style="fill:#EBEBEB;" width="43.193" height="0.25"/>
		<rect x="104.556" y="390.888" style="fill:#EBEBEB;" width="6.333" height="0.25"/>
		<rect x="131.471" y="395.111" style="fill:#EBEBEB;" width="93.676" height="0.25"/>
		<path style="fill:#EBEBEB;" d="M237.014,337.8H43.915c-3.147,0-5.708-2.561-5.708-5.708V60.66c0-3.147,2.561-5.708,5.708-5.708
			h193.099c3.146,0,5.707,2.561,5.707,5.708v271.432C242.721,335.239,240.16,337.8,237.014,337.8z M43.915,55.203
			c-3.01,0-5.458,2.448-5.458,5.458v271.432c0,3.01,2.448,5.458,5.458,5.458h193.099c3.009,0,5.457-2.448,5.457-5.458V60.66
			c0-3.009-2.448-5.458-5.457-5.458H43.915z"/>
		<path style="fill:#EBEBEB;" d="M453.31,337.8H260.212c-3.147,0-5.707-2.561-5.707-5.708V60.66c0-3.147,2.561-5.708,5.707-5.708
			H453.31c3.148,0,5.708,2.561,5.708,5.708v271.432C459.019,335.239,456.458,337.8,453.31,337.8z M260.212,55.203
			c-3.009,0-5.457,2.448-5.457,5.458v271.432c0,3.01,2.448,5.458,5.457,5.458H453.31c3.01,0,5.458-2.448,5.458-5.458V60.66
			c0-3.009-2.448-5.458-5.458-5.458H260.212z"/>
		<rect y="382.398" style="fill:#EBEBEB;" width="500" height="0.25"/>
	</g>
	<g>
		<g>
			<g>
				<path style="fill:#F5F5F5;" d="M412.849,292.758c-11.35,8.752-14.631,27.907-15.201,41.411c-0.052,1.231-1.972,1.237-1.92,0
					c0.603-14.302,3.858-33.59,16.151-43.069C412.857,290.346,413.814,292.013,412.849,292.758L412.849,292.758z"/>
			</g>
			<g>
				<path style="fill:#E6E6E6;" d="M386.503,282.964c2.894-0.334,5.331,2.625,6.588,4.799c6.53,11.287,4.003,28.322,2.767,40.433
					c-0.124,1.217-2.046,1.23-1.92,0c1.203-11.788,3.391-27.143-1.934-38.346c-0.914-1.923-2.868-5.27-5.501-4.966
					C385.278,285.025,385.288,283.104,386.503,282.964L386.503,282.964z"/>
			</g>
			<g>
				<path style="fill:#E6E6E6;" d="M379.469,298.47c12.141-2.997,13.656,23.92,14.015,29.726c0.076,1.234-1.844,1.229-1.92,0
					c-0.486-7.854-0.874-19.106-6.555-25.409c-1.148-1.274-3.143-2.932-5.03-2.466C378.78,300.618,378.268,298.767,379.469,298.47
					L379.469,298.47z"/>
			</g>
			<g>
				<path style="fill:#E6E6E6;" d="M415.449,311.531c-10.036-7.434-13.303,12.101-13.858,17.731c-0.12,1.218-2.041,1.231-1.92,0
					c0.63-6.388,1.601-17.961,8.981-20.645c2.53-0.92,5.609-0.341,7.766,1.257C417.4,310.601,416.444,312.268,415.449,311.531
					L415.449,311.531z"/>
			</g>
			<g>
				<path style="fill:#F5F5F5;" d="M375.525,315.057c1.507-1.525,3.824-2.538,5.974-2.177c6.122,1.028,7.822,10.266,8.75,15.06
					c0.234,1.207-1.616,1.724-1.851,0.51c-0.801-4.137-4.659-18.972-11.515-12.036C376.013,317.295,374.655,315.937,375.525,315.057
					L375.525,315.057z"/>
			</g>
			<path style="fill:#EBEBEB;" d="M411.678,378.013h-29.034c-5.093-4.325-8.336-10.759-8.336-17.968
				c0-8.234,4.628-32.935,4.628-32.935h36.451c0,0,4.628,24.701,4.628,32.935C420.014,367.254,416.772,373.688,411.678,378.013z"/>
			<path style="fill:#F5F5F5;" d="M416.298,321.004c-8.756,0-17.324-3.549-19.137-7.927c-1.813-4.378,3.815-7.927,12.57-7.927
				c2.891,0,5.756,0.393,8.37,1.069c2.054-0.676,4.593-1.069,7.484-1.069c8.756,0,17.324,3.549,19.137,7.927
				c1.813,4.378-3.814,7.927-12.57,7.927H416.298z"/>
			<path style="fill:#F0F0F0;" d="M359.169,304.034c-7.162,0-10.065-2.903-6.484-6.484s12.29-6.484,19.451-6.484
				c2.365,0,4.254,0.322,5.609,0.875c2.462-0.553,4.993-0.875,7.358-0.875c7.162,0,10.065,2.903,6.484,6.484
				s-12.289,6.484-19.451,6.484H359.169z"/>
			<path style="fill:#EBEBEB;" d="M425.035,297.55c-9.01,0-19.967-3.652-24.472-8.158c-4.505-4.505-0.853-8.158,8.157-8.158
				c2.975,0,6.161,0.405,9.258,1.1c1.706-0.696,4.082-1.1,7.057-1.1c9.011,0,19.967,3.652,24.473,8.158s0.853,8.158-8.158,8.158
				H425.035z"/>
			<path style="fill:#F0F0F0;" d="M374.942,287.016c-4.505,0-7.401-1.826-6.468-4.079c0.933-2.253,5.342-4.079,9.847-4.079
				c1.488,0,2.794,0.202,3.851,0.55c1.345-0.348,2.819-0.55,4.307-0.55c4.505,0,7.401,1.826,6.468,4.079
				c-0.933,2.253-5.342,4.079-9.847,4.079H374.942z"/>
			<path style="fill:#EBEBEB;" d="M369.747,319.65c-4.505,0-8.914-1.826-9.847-4.079c-0.933-2.253,1.963-4.079,6.468-4.079
				c1.488,0,2.962,0.202,4.307,0.55c1.057-0.348,2.363-0.55,3.851-0.55c4.505,0,8.914,1.826,9.847,4.079
				c0.933,2.253-1.963,4.079-6.468,4.079H369.747z"/>
			<path style="fill:#F5F5F5;" d="M378.109,331.683c0.49-2.775,0.826-4.574,0.826-4.574h36.451c0,0,0.336,1.798,0.826,4.574H378.109
				z"/>
		</g>
		<path style="fill:#FAFAFA;" d="M376.525,293.517c0,0-10,3.333-13.167,8.833C363.358,302.35,363.858,294.35,376.525,293.517z"/>
		<path style="fill:#FAFAFA;" d="M381.228,280.437c0,0-2.604,1.449-4.186,3.615C377.042,284.053,377.831,280.905,381.228,280.437z"
			/>
		<path style="fill:#FAFAFA;" d="M420.014,284.053c0,0,10.835,3.964,17.502,11.464C437.516,295.517,432.345,285.089,420.014,284.053
			z"/>
		<path style="fill:#E6E6E6;" d="M420.014,308.178c0,0,6.502,2.338,11.335,8.838C431.349,317.017,429.345,309.507,420.014,308.178z"
			/>
		<path style="fill:#FAFAFA;" d="M370.849,313.679c0,0,2.5,1.088,2.833,4.338C373.683,318.017,371.349,316.007,370.849,313.679z"/>
	</g>
	<g>
		<g>
			
				<rect x="372.093" y="103.637" transform="matrix(-1.836970e-16 1 -1 -1.836970e-16 544.1881 -204.6177)" style="fill:#F5F5F5;" width="4.62" height="132.297"/>
			<g>
				<g>
					<path style="fill:#E0E0E0;" d="M343.511,172.095h-22.131v4.75v0.87v4.75h11.065v0c0-2.623,2.127-4.75,4.75-4.75h6.315V172.095z
						"/>
					<path style="fill:#F5F5F5;" d="M333.511,172.095h-16.131v10.37h5.065v0c0-2.623,2.127-4.75,4.75-4.75h6.315V172.095z"/>
				</g>
				<g>
					<path style="fill:#EBEBEB;" d="M405.294,172.095h22.131v4.75v0.87v4.75H416.36v0c0-2.623-2.127-4.75-4.75-4.75h-6.315V172.095z
						"/>
					<path style="fill:#F5F5F5;" d="M415.294,172.095h16.131v10.37h-5.065v0c0-2.623-2.127-4.75-4.75-4.75h-6.315V172.095z"/>
				</g>
			</g>
		</g>
		<g>
			<path style="fill:#EBEBEB;" d="M390.23,167.924h11.52c2.021-1.716,3.307-4.269,3.307-7.129c0-3.267-1.836-22.673-1.836-22.673
				h-14.462c0,0-1.836,19.406-1.836,22.673C386.923,163.655,388.21,166.208,390.23,167.924z"/>
			<path style="fill:#F5F5F5;" d="M397.556,155.116c-0.05,0.928-0.078,1.668-0.078,2.16c0,4.272,1.921,8.084,4.94,10.647h17.204
				c3.018-2.563,4.939-6.375,4.939-10.647c0-0.492-0.028-1.233-0.078-2.16H397.556z"/>
			<path style="fill:#E0E0E0;" d="M390.207,155.248c-0.021-1.233-1.026-2.225-2.259-2.225h-13.472c-1.233,0-2.238,0.992-2.259,2.225
				c-0.001,0.057-0.002,0.11-0.003,0.166c-0.494-0.158-1.003-0.248-1.5-0.248c-2.21,0-3.694,1.725-3.694,4.293
				c0,2.457,2.583,4.293,4.891,4.293c0.243,0,0.473-0.029,0.697-0.07c0.543,1.668,1.536,3.132,2.844,4.242h11.52
				c2.021-1.716,3.307-4.269,3.307-7.129C390.279,159.905,390.25,157.816,390.207,155.248z M371.912,162.313
				c-1.564,0-3.453-1.273-3.453-2.854c0-0.669,0.163-2.854,2.256-2.854c0.483,0,0.996,0.122,1.475,0.336
				c-0.028,1.774-0.045,3.17-0.045,3.855c0,0.51,0.055,1.006,0.133,1.494C372.163,162.304,372.041,162.313,371.912,162.313z"/>
		</g>
	</g>
	<g>
		<rect x="152.603" y="130.219" style="fill:#EBEBEB;" width="66.149" height="144.965"/>
		<rect x="86.455" y="130.219" style="fill:#EBEBEB;" width="66.149" height="144.965"/>
		<path style="fill:#E0E0E0;" d="M188.932,367.643h22.131v4.75v0.87v4.75h-11.065l0,0c0-2.623-2.127-4.75-4.75-4.75h-6.315V367.643z
			"/>
		<path style="fill:#E0E0E0;" d="M116.275,367.643H94.145v4.75v0.87v4.75h11.065l0,0c0-2.623,2.127-4.75,4.75-4.75h6.315V367.643z"
			/>
		<rect x="86.455" y="275.184" style="fill:#EBEBEB;" width="132.297" height="45.667"/>
		<rect x="86.455" y="320.851" style="fill:#EBEBEB;" width="132.297" height="45.667"/>
		
			<rect x="150.293" y="213.749" transform="matrix(-1.836970e-16 1 -1 -1.836970e-16 432.5009 127.2942)" style="fill:#E0E0E0;" width="4.62" height="132.297"/>
		
			<rect x="117.219" y="101.455" transform="matrix(-1.836970e-16 1 -1 -1.836970e-16 254.058 15)" style="fill:#E0E0E0;" width="4.62" height="66.149"/>
		
			<rect x="183.368" y="101.455" transform="matrix(-1.836970e-16 1 -1 -1.836970e-16 320.2068 -51.1488)" style="fill:#E0E0E0;" width="4.62" height="66.149"/>
		
			<rect x="150.293" y="259.059" transform="matrix(-1.836970e-16 1 -1 -1.836970e-16 477.8109 172.6042)" style="fill:#E0E0E0;" width="4.62" height="132.297"/>
		<path style="fill:#F5F5F5;" d="M218.752,127.909h-2.31H88.765h-2.31h-2.31v240.604h2.31h2.31h127.677h2.31h2.31V127.909H218.752z
			 M216.442,278.018v40.627H88.765v-40.627H216.442z M154.913,273.397V132.529h61.528v140.868H154.913z M150.293,132.529v140.868
			H88.765V132.529H150.293z M88.765,363.893v-40.628h127.677v40.628H88.765z"/>
		<path style="fill:#F5F5F5;" d="M106.275,367.643H84.145v4.75v0.87v4.75H95.21l0,0c0-2.623,2.127-4.75,4.75-4.75h6.315V367.643z"/>
		<path style="fill:#F5F5F5;" d="M198.932,367.643h22.131v4.75v0.87v4.75h-11.065l0,0c0-2.623-2.127-4.75-4.75-4.75h-6.315V367.643z
			"/>
		<g>
			<path style="fill:#E0E0E0;" d="M158.273,302.018c0,3.131-2.538,5.669-5.669,5.669c-3.131,0-5.669-2.538-5.669-5.669
				c0-3.131,2.538-5.669,5.669-5.669C155.734,296.348,158.273,298.887,158.273,302.018z"/>
			<path style="fill:#F5F5F5;" d="M158.273,298.018c0,3.131-2.538,5.669-5.669,5.669c-3.131,0-5.669-2.538-5.669-5.669
				c0-3.131,2.538-5.669,5.669-5.669C155.734,292.348,158.273,294.887,158.273,298.018z"/>
		</g>
		<g>
			<path style="fill:#E0E0E0;" d="M158.273,347.684c0,3.131-2.538,5.669-5.669,5.669c-3.131,0-5.669-2.538-5.669-5.669
				c0-3.131,2.538-5.669,5.669-5.669C155.734,342.015,158.273,344.553,158.273,347.684z"/>
			<path style="fill:#F5F5F5;" d="M158.273,343.684c0,3.131-2.538,5.669-5.669,5.669c-3.131,0-5.669-2.538-5.669-5.669
				c0-3.131,2.538-5.669,5.669-5.669C155.734,338.015,158.273,340.553,158.273,343.684z"/>
		</g>
		<g>
			<path style="fill:#E0E0E0;" d="M145.111,199.867c0-1.566-1.269-2.835-2.835-2.835c-1.566,0-2.835,1.269-2.835,2.835
				c0,0.794,0,8.876,0,9.669c0,1.566,1.269,2.835,2.835,2.835c1.566,0,2.835-1.269,2.835-2.835
				C145.111,208.679,145.111,200.724,145.111,199.867z"/>
			<path style="fill:#F5F5F5;" d="M145.111,195.867c0-1.566-1.269-2.835-2.835-2.835c-1.566,0-2.835,1.269-2.835,2.835
				c0,0.794,0,8.876,0,9.669c0,1.566,1.269,2.835,2.835,2.835c1.566,0,2.835-1.269,2.835-2.835
				C145.111,204.679,145.111,196.724,145.111,195.867z"/>
		</g>
		<g>
			<path style="fill:#E0E0E0;" d="M165.942,199.867c0-1.566-1.269-2.835-2.835-2.835s-2.835,1.269-2.835,2.835
				c0,0.794,0,8.876,0,9.669c0,1.566,1.269,2.835,2.835,2.835s2.835-1.269,2.835-2.835
				C165.942,208.679,165.942,200.724,165.942,199.867z"/>
			<path style="fill:#F5F5F5;" d="M165.942,195.867c0-1.566-1.269-2.835-2.835-2.835s-2.835,1.269-2.835,2.835
				c0,0.794,0,8.876,0,9.669c0,1.566,1.269,2.835,2.835,2.835s2.835-1.269,2.835-2.835
				C165.942,204.679,165.942,196.724,165.942,195.867z"/>
		</g>
	</g>
	<g>
		<g>
			<g>
				
					<rect x="372.093" y="146.819" transform="matrix(-1.836970e-16 1 -1 -1.836970e-16 587.3702 -161.4356)" style="fill:#F5F5F5;" width="4.62" height="132.297"/>
				<g>
					<g>
						<path style="fill:#E0E0E0;" d="M343.511,215.277h-22.131v4.75v0.87v4.75h11.065l0,0c0-2.623,2.127-4.75,4.75-4.75h6.315
							V215.277z"/>
						<path style="fill:#F5F5F5;" d="M333.511,215.277h-16.131v10.37h5.065l0,0c0-2.623,2.127-4.75,4.75-4.75h6.315V215.277z"/>
					</g>
					<g>
						<path style="fill:#EBEBEB;" d="M405.294,215.277h22.131v4.75v0.87v4.75H416.36l0,0c0-2.623-2.127-4.75-4.75-4.75h-6.315
							V215.277z"/>
						<path style="fill:#F5F5F5;" d="M415.294,215.277h16.131v10.37h-5.065l0,0c0-2.623-2.127-4.75-4.75-4.75h-6.315V215.277z"/>
					</g>
				</g>
			</g>
		</g>
		<g>
			<path style="fill:#F0F0F0;" d="M379.255,196.467c0-7.683,6.229-13.912,13.912-13.912c7.683,0,13.912,6.229,13.912,13.912v14.396
				h-27.824V196.467z"/>
			
				<ellipse transform="matrix(0.2298 -0.9732 0.9732 0.2298 111.6244 533.9772)" style="fill:#FAFAFA;" cx="393.167" cy="196.467" rx="10.869" ry="10.869"/>
			<path style="fill:#E0E0E0;" d="M393.167,187.314c5.713,0,10.387,4.41,10.826,10.011c0.022-0.284,0.043-0.568,0.043-0.858
				c0-6.003-4.866-10.869-10.869-10.869c-6.003,0-10.869,4.866-10.869,10.869c0,0.29,0.021,0.574,0.043,0.858
				C382.78,191.725,387.454,187.314,393.167,187.314z"/>
			<path style="fill:#E0E0E0;" d="M400.031,196.461c-0.325,0-3.835,0-5.715,0c0-1.881,0-5.396,0-5.715c0-0.635-0.515-1.15-1.15-1.15
				c-0.635,0-1.15,0.515-1.15,1.15c0,0.43,0,6.434,0,6.865c0,0.635,0.515,1.15,1.15,1.15l0,0l0,0c0.421,0,6.444,0,6.865,0
				c0.635,0,1.15-0.515,1.15-1.15C401.181,196.976,400.666,196.461,400.031,196.461z"/>
			<path style="fill:#F5F5F5;" d="M400.031,197.617c0.635,0,1.15-0.515,1.15-1.15c0-0.635-0.515-1.15-1.15-1.15
				c-0.43,0-6.434,0-6.865,0c-0.635,0-1.15,0.515-1.15,1.15c0,0.635,0.515,1.15,1.15,1.15
				C393.588,197.617,399.61,197.617,400.031,197.617z"/>
			<path style="fill:#EBEBEB;" d="M394.316,189.602c0-0.635-0.515-1.15-1.15-1.15c-0.635,0-1.15,0.515-1.15,1.15
				c0,0.43,0,6.434,0,6.865c0,0.635,0.515,1.15,1.15,1.15c0.635,0,1.15-0.515,1.15-1.15
				C394.316,196.046,394.316,190.023,394.316,189.602z"/>
		</g>
	</g>
</g>
<g id="Background_Simple" style="display:none;">
	<g style="display:inline;">
		<path style="fill:#407BFF;" d="M185.724,371.659c-31.797-6.467-125.895-22.387-125.895-97.142
			c0-77.905,55.282-97.596,130.312-97.596c70.067,0,52.345-77.017,147.12-77.017c80.244,0,136.518,121.012,38.064,219.466
			C315.548,379.147,221.662,378.968,185.724,371.659z"/>
		<path style="opacity:0.9;fill:#FFFFFF;" d="M185.724,371.659c-31.797-6.467-125.895-22.387-125.895-97.142
			c0-77.905,55.282-97.596,130.312-97.596c70.067,0,52.345-77.017,147.12-77.017c80.244,0,136.518,121.012,38.064,219.466
			C315.548,379.147,221.662,378.968,185.724,371.659z"/>
	</g>
</g>
<g id="Shadow">
	<ellipse id="_x3C_Path_x3E__1_" style="fill:#F5F5F5;" cx="245.178" cy="412.391" rx="193.889" ry="11.323"/>
</g>
<g id="Settings">
	<g>
		<g>
			<path style="fill:#407BFF;" d="M330.189,383.4H225.504c-8.606,0-15.217-6.976-14.766-15.582l13.602-259.535
				c0.451-8.606,7.793-15.582,16.399-15.582h104.686c8.606,0,15.217,6.976,14.766,15.582l-13.602,259.535
				C346.137,376.424,338.795,383.4,330.189,383.4z"/>
			<g>
				<path style="fill:#407BFF;" d="M344.876,103.15H240.191c-5.449,0-10.115,4.433-10.4,9.882l-13.104,250.035
					c-0.286,5.449,3.915,9.882,9.364,9.882h104.686c5.449,0,10.115-4.433,10.4-9.882l13.104-250.035
					C354.526,107.583,350.325,103.15,344.876,103.15z"/>
				<path style="opacity:0.8;fill:#FFFFFF;" d="M344.876,103.15H240.191c-5.449,0-10.115,4.433-10.4,9.882l-13.104,250.035
					c-0.286,5.449,3.915,9.882,9.364,9.882h104.686c5.449,0,10.115-4.433,10.4-9.882l13.104-250.035
					C354.526,107.583,350.325,103.15,344.876,103.15z"/>
			</g>
			<g>
				<path style="fill:#407BFF;" d="M353.974,92.7h-8.55c8.606,0,15.217,6.976,14.766,15.582l-13.602,259.535
					c-0.451,8.606-7.793,15.582-16.399,15.582h8.55c8.606,0,15.948-6.976,16.399-15.582l13.602-259.535
					C369.191,99.677,362.58,92.7,353.974,92.7z"/>
				<path style="opacity:0.4;fill:#FFFFFF;" d="M353.974,92.7h-8.55c8.606,0,15.217,6.976,14.766,15.582l-13.602,259.535
					c-0.451,8.606-7.793,15.582-16.399,15.582h8.55c8.606,0,15.948-6.976,16.399-15.582l13.602-259.535
					C369.191,99.677,362.58,92.7,353.974,92.7z"/>
			</g>
			<g>
				<path style="opacity:0.4;fill:#FFFFFF;" d="M240.178,103.151l14.217,269.799h37.05l-14.217-269.8h-37.037
					C240.187,103.15,240.182,103.151,240.178,103.151z"/>
				<polygon style="opacity:0.4;fill:#FFFFFF;" points="298.095,372.95 306.43,372.95 292.213,103.15 283.878,103.15 				"/>
			</g>
		</g>
		<g>
			<g>
				<path style="fill:#407BFF;" d="M245.462,88.15c1.223,0,2.445,0,3.668,0c0.579,0,0.58-0.9,0-0.9c-1.223,0-2.445,0-3.668,0
					C244.883,87.25,244.882,88.15,245.462,88.15L245.462,88.15z"/>
			</g>
			<g>
				<path style="fill:#407BFF;" d="M218.783,117.773c0.224-4.28,0.048-8.855,0.974-13.055c2.126-9.643,10.782-16.241,20.479-16.568
					c0.578-0.02,0.58-0.92,0-0.9c-8.662,0.292-16.501,5.227-20.037,13.259c-2.354,5.346-2.016,11.54-2.316,17.264
					C217.852,118.352,218.752,118.35,218.783,117.773L218.783,117.773z"/>
			</g>
		</g>
		<g>
			<g>
				<path style="fill:#FFFFFF;" d="M300.782,156.705h-24.005c-4.51,0-7.974-3.656-7.737-8.165l1.258-24.005
					c0.236-4.51,4.084-8.165,8.593-8.165h24.005c4.51,0,7.974,3.656,7.738,8.165l-1.258,24.005
					C309.139,153.049,305.291,156.705,300.782,156.705z"/>
				<g>
					<path style="fill:#407BFF;" d="M285.46,140.159c-1.54-1.559-2.578-3.94-2.807-6.696c-0.034,0.003-0.068,0.007-0.103,0.007
						c-0.971,0-1.703-1.067-1.634-2.382c0.069-1.316,0.912-2.382,1.883-2.382c0.086,0,0.169,0.011,0.251,0.027
						c0.055-0.216,0.117-0.428,0.181-0.639c5.785-0.315,9.047-2.228,10.768-3.783c0.763,1.404,1.965,2.816,3.801,3.266
						c0.093,0.375,0.17,0.761,0.229,1.156c0.083-0.016,0.168-0.027,0.254-0.027c0.971,0,1.702,1.067,1.633,2.382
						c-0.069,1.316-0.912,2.382-1.883,2.382c-0.035,0-0.068-0.004-0.102-0.007c-0.485,2.581-1.645,4.832-3.188,6.387
						c0.862,0.33,2.19,0.545,4.238,0.426c5.846-0.34,2.761-12.365-0.387-16.675c-1.93-2.643-2.986-3.875-4.098-3.379
						c-1.214-0.668-8.543-3.695-13.284,5.194C276.29,134.649,274.831,143.047,285.46,140.159z"/>
				</g>
				<path style="fill:#407BFF;" d="M301.566,146.629l-6.05-1.928c0,0-5.23,2.009-6.472,6.97c-0.722-4.961-5.742-6.97-5.742-6.97
					l-6.252,1.928c-3.746,0.522-5.571,3.735-6.454,7.052c1.401,1.844,3.622,3.024,6.182,3.024h24.005c2.56,0,4.905-1.18,6.499-3.024
					C306.746,150.364,305.257,147.151,301.566,146.629z"/>
			</g>
			<g>
				<g>
					<path style="fill:#407BFF;" d="M318.15,153.165c0.025-0.481,0.014-0.954-0.026-1.418l2.383-2.055
						c-0.228-1.009-0.578-1.967-1.035-2.86l-3.069,0.156c-0.533-0.758-1.173-1.433-1.901-2.006l0.317-3.06
						c-0.866-0.504-1.804-0.904-2.798-1.185l-2.174,2.276c-0.46-0.064-0.931-0.1-1.413-0.1c-0.481,0-0.956,0.036-1.423,0.1
						l-1.935-2.276c-1.023,0.281-2.003,0.681-2.922,1.185l-0.004,3.06c-0.788,0.573-1.499,1.248-2.111,2.006l-3.052-0.156
						c-0.551,0.893-1.001,1.851-1.335,2.86l2.168,2.055c-0.089,0.464-0.149,0.936-0.174,1.418c-0.025,0.481-0.014,0.954,0.026,1.418
						l-2.383,2.055c0.228,1.009,0.578,1.967,1.035,2.86l3.068-0.156c0.533,0.758,1.173,1.433,1.901,2.006l-0.317,3.06
						c0.866,0.504,1.804,0.904,2.798,1.185l2.174-2.276c0.46,0.064,0.931,0.1,1.413,0.1c0.481,0,0.956-0.036,1.423-0.1l1.935,2.276
						c1.023-0.281,2.003-0.681,2.922-1.185l0.004-3.06c0.788-0.573,1.499-1.248,2.111-2.006l3.052,0.156
						c0.551-0.893,1.001-1.852,1.335-2.86l-2.168-2.055C318.064,154.12,318.125,153.647,318.15,153.165z M307.73,156.38
						c-1.776,0-3.14-1.439-3.047-3.215c0.093-1.776,1.608-3.215,3.384-3.215c1.776,0,3.139,1.439,3.046,3.215
						C311.02,154.941,309.505,156.38,307.73,156.38z"/>
					<path style="opacity:0.4;fill:#FFFFFF;" d="M318.15,153.165c0.025-0.481,0.014-0.954-0.026-1.418l2.383-2.055
						c-0.228-1.009-0.578-1.967-1.035-2.86l-3.069,0.156c-0.533-0.758-1.173-1.433-1.901-2.006l0.317-3.06
						c-0.866-0.504-1.804-0.904-2.798-1.185l-2.174,2.276c-0.46-0.064-0.931-0.1-1.413-0.1c-0.481,0-0.956,0.036-1.423,0.1
						l-1.935-2.276c-1.023,0.281-2.003,0.681-2.922,1.185l-0.004,3.06c-0.788,0.573-1.499,1.248-2.111,2.006l-3.052-0.156
						c-0.551,0.893-1.001,1.851-1.335,2.86l2.168,2.055c-0.089,0.464-0.149,0.936-0.174,1.418c-0.025,0.481-0.014,0.954,0.026,1.418
						l-2.383,2.055c0.228,1.009,0.578,1.967,1.035,2.86l3.068-0.156c0.533,0.758,1.173,1.433,1.901,2.006l-0.317,3.06
						c0.866,0.504,1.804,0.904,2.798,1.185l2.174-2.276c0.46,0.064,0.931,0.1,1.413,0.1c0.481,0,0.956-0.036,1.423-0.1l1.935,2.276
						c1.023-0.281,2.003-0.681,2.922-1.185l0.004-3.06c0.788-0.573,1.499-1.248,2.111-2.006l3.052,0.156
						c0.551-0.893,1.001-1.852,1.335-2.86l-2.168-2.055C318.064,154.12,318.125,153.647,318.15,153.165z M307.73,156.38
						c-1.776,0-3.14-1.439-3.047-3.215c0.093-1.776,1.608-3.215,3.384-3.215c1.776,0,3.139,1.439,3.046,3.215
						C311.02,154.941,309.505,156.38,307.73,156.38z"/>
				</g>
				<path style="fill:#FFFFFF;" d="M307.73,156.38c-1.776,0-3.14-1.439-3.047-3.215c0.093-1.776,1.608-3.215,3.384-3.215
					c1.776,0,3.139,1.439,3.046,3.215C311.02,154.941,309.505,156.38,307.73,156.38z"/>
			</g>
		</g>
		<g>
			<polygon style="fill:#407BFF;" points="287.107,267.374 283.703,267.374 284.01,261.515 287.414,261.515 			"/>
			<polygon style="fill:#407BFF;" points="302.624,267.374 299.22,267.374 299.726,257.715 303.13,257.715 			"/>
			<polygon style="fill:#407BFF;" points="318.14,267.374 314.736,267.374 315.441,253.915 318.845,253.915 			"/>
			<polygon style="fill:#FFFFFF;" points="333.657,267.374 330.253,267.374 331.157,250.115 334.561,250.115 			"/>
		</g>
		<g>
			<path style="fill:#FFFFFF;" d="M240.079,267.374c1.578,0,7.075,0,8.652,0c1.578,0,7.075,0,8.652,0
				c4.779,0,8.855-3.874,9.106-8.652c0.25-4.779-3.42-8.652-8.199-8.652c-1.578,0-7.075,0-8.653,0c-1.578,0-7.075,0-8.652,0
				c-4.779,0-8.856,3.874-9.106,8.652C231.629,263.5,235.3,267.374,240.079,267.374z"/>
			<g>
				<path style="fill:#407BFF;" d="M240.886,251.969c1.578,0,7.075,0,8.653,0c1.578,0,7.075,0,8.652,0
					c4.457,0,7.948,3.371,8.194,7.702c0.05-0.312,0.088-0.629,0.104-0.95c0.25-4.779-3.42-8.652-8.199-8.652
					c-1.578,0-7.075,0-8.653,0s-7.075,0-8.652,0c-4.779,0-8.855,3.874-9.106,8.652c-0.017,0.321-0.013,0.638,0.005,0.95
					C232.585,255.34,236.429,251.969,240.886,251.969z"/>
				<path style="opacity:0.3;fill:#FFFFFF;" d="M240.886,251.969c1.578,0,7.075,0,8.653,0c1.578,0,7.075,0,8.652,0
					c4.457,0,7.948,3.371,8.194,7.702c0.05-0.312,0.088-0.629,0.104-0.95c0.25-4.779-3.42-8.652-8.199-8.652
					c-1.578,0-7.075,0-8.653,0s-7.075,0-8.652,0c-4.779,0-8.855,3.874-9.106,8.652c-0.017,0.321-0.013,0.638,0.005,0.95
					C232.585,255.34,236.429,251.969,240.886,251.969z"/>
			</g>
			<path style="fill:#407BFF;" d="M231.88,258.721c0.25-4.779,4.327-8.653,9.106-8.653c4.779,0,8.449,3.874,8.199,8.653
				c-0.25,4.779-4.327,8.652-9.106,8.652C235.3,267.374,231.629,263.5,231.88,258.721z"/>
		</g>
		<g>
			<g>
				<g>
					<polygon style="fill:#407BFF;" points="230.334,341.94 226.93,341.94 227.336,334.182 230.74,334.182 					"/>
					<polygon style="fill:#407BFF;" points="242.952,340.04 239.548,340.04 239.705,337.032 243.109,337.032 					"/>
					<polygon style="fill:#407BFF;" points="255.42,340.99 252.016,340.99 252.273,336.082 255.677,336.082 					"/>
					<polygon style="fill:#407BFF;" points="267.988,340.04 264.584,340.04 264.742,337.032 268.146,337.032 					"/>
					<polygon style="fill:#407BFF;" points="280.407,341.94 277.003,341.94 277.409,334.182 280.813,334.182 					"/>
					<polygon style="fill:#407BFF;" points="293.025,340.04 289.62,340.04 289.778,337.032 293.182,337.032 					"/>
					<polygon style="fill:#407BFF;" points="305.493,340.99 302.089,340.99 302.346,336.082 305.75,336.082 					"/>
					<polygon style="fill:#407BFF;" points="318.061,340.04 314.657,340.04 314.815,337.032 318.219,337.032 					"/>
					<polygon style="fill:#407BFF;" points="330.48,341.94 327.076,341.94 327.482,334.182 330.886,334.182 					"/>
				</g>
				<g style="opacity:0.3;">
					<polygon points="230.334,341.94 226.93,341.94 227.336,334.182 230.74,334.182 					"/>
					<polygon points="242.952,340.04 239.548,340.04 239.705,337.032 243.109,337.032 					"/>
					<polygon points="255.42,340.99 252.016,340.99 252.273,336.082 255.677,336.082 					"/>
					<polygon points="267.988,340.04 264.584,340.04 264.742,337.032 268.146,337.032 					"/>
					<polygon points="280.407,341.94 277.003,341.94 277.409,334.182 280.813,334.182 					"/>
					<polygon points="293.025,340.04 289.62,340.04 289.778,337.032 293.182,337.032 					"/>
					<polygon points="305.493,340.99 302.089,340.99 302.346,336.082 305.75,336.082 					"/>
					<polygon points="318.061,340.04 314.657,340.04 314.815,337.032 318.219,337.032 					"/>
					<polygon points="330.48,341.94 327.076,341.94 327.482,334.182 330.886,334.182 					"/>
				</g>
			</g>
			<path style="fill:#407BFF;" d="M270.801,343.217c0.045-0.854,0.201-3.827,0.245-4.681c0.045-0.854,0.201-3.827,0.245-4.681
				c0.135-2.585-1.85-4.681-4.436-4.681c-2.585,0-4.791,2.096-4.926,4.681c-0.045,0.854-0.201,3.827-0.245,4.681
				c-0.045,0.854-0.201,3.827-0.245,4.681c-0.135,2.585,1.85,4.681,4.436,4.681C268.46,347.898,270.665,345.803,270.801,343.217z"/>
		</g>
		<g>
			<path style="fill:#FFFFFF;" d="M237.893,309.074c1.578,0,7.075,0,8.653,0c1.578,0,7.075,0,8.653,0
				c4.779,0,8.855-3.874,9.106-8.652c0.251-4.779-3.42-8.653-8.199-8.653c-1.578,0-7.075,0-8.652,0c-1.578,0-7.075,0-8.653,0
				c-4.779,0-8.855,3.874-9.106,8.653C229.444,305.2,233.115,309.074,237.893,309.074z"/>
			<g>
				<path style="fill:#407BFF;" d="M238.701,293.669c1.578,0,7.075,0,8.652,0c1.578,0,7.075,0,8.653,0
					c4.457,0,7.948,3.371,8.194,7.703c0.051-0.312,0.088-0.629,0.104-0.95c0.251-4.779-3.42-8.652-8.199-8.652
					c-1.578,0-7.075,0-8.652,0c-1.578,0-7.075,0-8.653,0c-4.779,0-8.856,3.874-9.106,8.652c-0.017,0.321-0.013,0.638,0.005,0.95
					C230.4,297.04,234.243,293.669,238.701,293.669z"/>
				<path style="opacity:0.3;fill:#FFFFFF;" d="M238.701,293.669c1.578,0,7.075,0,8.652,0c1.578,0,7.075,0,8.653,0
					c4.457,0,7.948,3.371,8.194,7.703c0.051-0.312,0.088-0.629,0.104-0.95c0.251-4.779-3.42-8.652-8.199-8.652
					c-1.578,0-7.075,0-8.652,0c-1.578,0-7.075,0-8.653,0c-4.779,0-8.856,3.874-9.106,8.652c-0.017,0.321-0.013,0.638,0.005,0.95
					C230.4,297.04,234.243,293.669,238.701,293.669z"/>
			</g>
			<path style="fill:#407BFF;" d="M246.999,300.422c0.25-4.779,4.327-8.652,9.106-8.652c4.779,0,8.45,3.874,8.199,8.652
				c-0.25,4.779-4.327,8.652-9.106,8.652C250.42,309.074,246.749,305.2,246.999,300.422z"/>
		</g>
		<g>
			<g>
				<g>
					<path style="fill:#FFFFFF;" d="M239.587,188.034c1.807,0,92.56,0,94.367,0c2.536,0,4.7-2.056,4.832-4.592
						c0.133-2.536-1.815-4.592-4.351-4.592c-2.052,0-92.315,0-94.367,0c-2.536,0-4.699,2.056-4.832,4.592
						C235.103,185.978,237.051,188.034,239.587,188.034z"/>
				</g>
				<g>
					<path style="fill:#407BFF;" d="M240.068,180.85c2.052,0,92.315,0,94.367,0c2.112,0,3.797,1.434,4.231,3.375
						c0.058-0.256,0.106-0.515,0.12-0.783c0.133-2.536-1.815-4.592-4.351-4.592c-2.052,0-92.315,0-94.367,0
						c-2.536,0-4.699,2.056-4.832,4.592c-0.022,0.424,0.033,0.827,0.12,1.217C235.843,182.498,237.801,180.85,240.068,180.85z"/>
					<path style="opacity:0.3;fill:#FFFFFF;" d="M240.068,180.85c2.052,0,92.315,0,94.367,0c2.112,0,3.797,1.434,4.231,3.375
						c0.058-0.256,0.106-0.515,0.12-0.783c0.133-2.536-1.815-4.592-4.351-4.592c-2.052,0-92.315,0-94.367,0
						c-2.536,0-4.699,2.056-4.832,4.592c-0.022,0.424,0.033,0.827,0.12,1.217C235.843,182.498,237.801,180.85,240.068,180.85z"/>
				</g>
			</g>
			<path style="fill:#407BFF;" d="M248.194,183.442c0.25-4.779,4.327-8.652,9.106-8.652c4.779,0,8.449,3.874,8.199,8.652
				c-0.251,4.779-4.327,8.653-9.106,8.653C251.615,192.094,247.944,188.221,248.194,183.442z"/>
		</g>
		<g>
			<g>
				<path style="fill:#407BFF;" d="M332.346,295.104c0.096-1.842-1.318-3.335-3.16-3.335h-5.318h-22.537
					c-1.841,0-3.413,1.493-3.509,3.335l-0.557,10.636c-0.096,1.842,1.318,3.335,3.16,3.335h22.537h5.318
					c1.842,0,3.413-1.493,3.509-3.335L332.346,295.104z"/>
				<g>
					<path style="fill:#407BFF;" d="M301.232,293.669h22.537h5.318c1.842,0,3.256,1.493,3.16,3.335l0.1-1.9
						c0.096-1.842-1.318-3.335-3.16-3.335h-5.318h-22.537c-1.841,0-3.413,1.493-3.509,3.335l-0.1,1.9
						C297.819,295.162,299.39,293.669,301.232,293.669z"/>
					<path style="opacity:0.3;" d="M301.232,293.669h22.537h5.318c1.842,0,3.256,1.493,3.16,3.335l0.1-1.9
						c0.096-1.842-1.318-3.335-3.16-3.335h-5.318h-22.537c-1.841,0-3.413,1.493-3.509,3.335l-0.1,1.9
						C297.819,295.162,299.39,293.669,301.232,293.669z"/>
				</g>
			</g>
			<g>
				<path style="fill:#FFFFFF;" d="M315.127,295.104c0.096-1.842-1.318-3.335-3.16-3.335h-5.318h-5.318
					c-1.841,0-3.413,1.493-3.509,3.335l-0.557,10.636c-0.096,1.842,1.318,3.335,3.16,3.335h5.318h5.318
					c1.842,0,3.413-1.493,3.509-3.335L315.127,295.104z"/>
				<polygon style="fill:#407BFF;" points="307.744,303.351 304.34,303.351 304.647,297.492 308.051,297.492 				"/>
			</g>
		</g>
		<g>
			<g>
				<path style="fill:#407BFF;" d="M332.463,216.49c-1.807,0-92.56,0-94.367,0c-2.536,0-4.699,2.056-4.832,4.592
					c-0.133,2.536,1.815,4.592,4.351,4.592c2.052,0,92.315,0,94.367,0c2.536,0,4.699-2.056,4.832-4.592
					C336.947,218.546,334.999,216.49,332.463,216.49z"/>
				<path style="opacity:0.3;" d="M238.096,218.49c1.806,0,92.56,0,94.367,0c2.112,0,3.797,1.434,4.231,3.375
					c0.057-0.256,0.106-0.515,0.12-0.783c0.133-2.536-1.815-4.592-4.351-4.592c-1.807,0-92.56,0-94.367,0
					c-2.536,0-4.7,2.056-4.833,4.592c-0.022,0.424,0.033,0.827,0.12,1.217C233.87,220.137,235.828,218.49,238.096,218.49z"/>
			</g>
			<g>
				<path style="fill:#FFFFFF;" d="M317.818,229.734h-7.23c-2.782,0-4.919-2.255-4.774-5.038l0.379-7.23
					c0.146-2.782,2.519-5.038,5.302-5.038h7.23c2.782,0,4.919,2.255,4.774,5.038l-0.379,7.23
					C322.974,227.479,320.601,229.734,317.818,229.734z"/>
				<polygon style="fill:#407BFF;" points="316.585,224.011 313.181,224.011 313.488,218.152 316.892,218.152 				"/>
			</g>
		</g>
	</g>
</g>
<g id="Character">
	<g>
		<g>
			<g>
				<path style="fill:#407BFF;" d="M167.811,190.559l-12.78,14.504c1.034,6.914,3.087,26.953,3.087,26.953
					c-1.919,2.54-6.611,1.82-6.611,1.82s-6.148-13.851-4.581-30.072c0.906-9.376,12.928-27.801,21.479-33.021
					c1.354-0.826,2.828-1.456,4.498-1.898l1.69-0.195l-5.989,22.286L167.811,190.559z"/>
				<path style="opacity:0.6;" d="M167.811,190.559l-12.78,14.504c1.034,6.914,3.087,26.953,3.087,26.953
					c-1.919,2.54-6.611,1.82-6.611,1.82s-6.148-13.851-4.581-30.072c0.906-9.376,12.928-27.801,21.479-33.021
					c1.354-0.826,2.828-1.456,4.498-1.898l1.69-0.195l-5.989,22.286L167.811,190.559z"/>
			</g>
			<path style="fill:#FAB27B;" d="M157.391,233.642l3.096,3.313c0.102,0.109,0.18,0.238,0.23,0.378l1.82,5.12
				c0.098,0.275,0.081,0.578-0.047,0.841l-0.882,1.808c-0.148,0.303-0.428,0.521-0.759,0.589l-6.277,1.287
				c-0.598,0.122-1.179-0.27-1.288-0.871l-1.225-6.74c-0.024-0.133-0.023-0.269,0.003-0.402l0.841-4.325
				c0.086-0.442,0.435-0.785,0.879-0.863l2.628-0.463C156.77,233.25,157.14,233.373,157.391,233.642z"/>
			<g>
				<polygon style="fill:#407BFF;" points="160.063,232.877 150.201,237.353 150.075,232.579 159.168,229.084 				"/>
				<polygon style="opacity:0.5;fill:#FFFFFF;" points="160.063,232.877 150.201,237.353 150.075,232.579 159.168,229.084 				"/>
			</g>
		</g>
		<g>
			<path style="fill:#407BFF;" d="M156.244,250.518c-5.883,21.031-3.391,52.009-6.62,72.792
				c-2.225,14.321-17.405,61.446-17.405,61.446l13.401,4.061c0,0,16.724-41.503,19.963-53.88
				c5.253-20.07,13.157-58.146,13.157-58.146s2.945-10.805,1.611-11.971C179.018,263.653,156.244,250.518,156.244,250.518z"/>
			<path style="opacity:0.3;" d="M170.989,264.941l9.688,3.142l-3.626,17.032C177.051,285.115,178.843,268.818,170.989,264.941z"/>
			<g>
				<polygon style="fill:#FAB27B;" points="134.912,384.152 132.514,391.76 139.006,394.68 142.229,386.595 				"/>
				<polygon style="opacity:0.2;" points="133.49,388.664 140.35,391.309 141.264,389.016 134.049,386.889 				"/>
			</g>
			<polygon style="fill:#407BFF;" points="132.362,380.592 148.749,385.075 145.783,390.348 131.444,386.121 			"/>
			<polygon style="opacity:0.5;fill:#FFFFFF;" points="132.362,380.592 148.749,385.075 145.783,390.348 131.444,386.121 			"/>
			<g>
				<path style="fill:#407BFF;" d="M140.4,395.716c-0.068-0.045-0.103-0.126-0.088-0.206c0.016-0.081,0.081-0.142,0.162-0.154
					c0.144-0.022,3.411-0.5,4.551,0.352c0.214,0.155,0.359,0.388,0.405,0.648c0.08,0.3-0.038,0.618-0.295,0.794
					c-0.476,0.285-1.527,0.074-2.478-0.298C141.872,396.539,141.117,396.159,140.4,395.716z M141.082,395.703
					c1.355,0.734,3.29,1.478,3.84,1.119c0.076-0.042,0.166-0.132,0.12-0.41c-0.021-0.163-0.116-0.308-0.256-0.393
					c-0.1-0.076-0.211-0.137-0.329-0.181C143.35,395.581,142.205,395.535,141.082,395.703z"/>
				<path style="fill:#407BFF;" d="M140.308,395.668c-0.041-0.057-0.048-0.132-0.017-0.196c0.048-0.092,1.061-2.076,2.349-2.495
					c0.373-0.127,0.781-0.096,1.13,0.086c0.48,0.246,0.537,0.559,0.474,0.774c-0.174,0.924-2.663,1.863-3.737,1.91
					c-0.028,0.003-0.056-0.006-0.078-0.023C140.383,395.721,140.34,395.701,140.308,395.668z M143.514,393.359
					c-0.229-0.092-0.483-0.099-0.715-0.018c-0.829,0.436-1.505,1.116-1.936,1.948c1.168-0.189,2.882-1.015,3.039-1.552
					c0.005-0.052,0.035-0.191-0.281-0.347L143.514,393.359L143.514,393.359z"/>
				<path style="fill:#263238;" d="M140.038,394.338l-8.353-3.273c-0.315-0.124-0.673-0.012-0.862,0.268l-4.173,6.204
					c-0.374,0.548-0.234,1.295,0.314,1.669c0.07,0.048,0.145,0.088,0.224,0.12c3.031,1.128,5.774,2.012,9.52,3.486
					c4.423,1.735,3.093,1.824,8.265,3.937c3.117,1.27,5.087-2.068,3.827-2.764c-5.781-3.149-5.693-5.232-7.186-8.328
					C141.269,395.039,140.708,394.569,140.038,394.338z"/>
			</g>
		</g>
		<g>
			<g>
				<polygon style="fill:#FAB27B;" points="194.482,390.348 194.635,397.675 201.72,398.361 202.146,390.348 				"/>
				<polygon style="opacity:0.2;" points="201.965,393.75 202.068,391.827 194.52,392.141 194.566,394.378 				"/>
			</g>
			<path style="fill:#407BFF;" d="M156.244,250.518c2.217-10.575,11.074-19.962,11.074-19.962l33.976,2.185
				c0,0,2.141,21.841,2.641,29.142c1.009,14.741,5.135,37.622,5.246,52.409c0.149,19.986-4.433,73.067-4.433,73.067l-12.836,1.52
				c0,0,0.191-49.087-1.912-67.603c-1.593-14.026-11.17-52.453-11.17-52.453S152.526,268.258,156.244,250.518z"/>
			<g>
				<polygon style="fill:#407BFF;" points="189.72,386.773 206.677,385.734 205.57,391.682 190.633,392.303 				"/>
				<polygon style="opacity:0.5;fill:#FFFFFF;" points="189.72,386.773 206.677,385.734 205.57,391.682 190.633,392.303 				"/>
			</g>
			<g>
				<path style="fill:#407BFF;" d="M203.257,398.87c-0.079-0.02-0.138-0.085-0.151-0.166c-0.012-0.081,0.029-0.161,0.102-0.199
					c0.129-0.068,3.058-1.591,4.415-1.16c0.253,0.077,0.466,0.249,0.595,0.479c0.174,0.258,0.167,0.597-0.018,0.847
					c-0.356,0.426-1.418,0.571-2.439,0.531C204.917,399.164,204.08,399.053,203.257,398.87z M203.897,398.634
					c1.521,0.249,3.593,0.318,3.995-0.201c0.058-0.064,0.113-0.179-0.022-0.427c-0.073-0.147-0.21-0.253-0.371-0.287
					c-0.12-0.039-0.244-0.06-0.37-0.063C205.999,397.775,204.903,398.107,203.897,398.634z"/>
				<path style="fill:#407BFF;" d="M203.154,398.854c-0.057-0.041-0.088-0.109-0.08-0.179c0.015-0.103,0.322-2.309,1.402-3.127
					c0.311-0.242,0.706-0.346,1.096-0.29c0.534,0.075,0.69,0.352,0.702,0.576c0.139,0.93-1.905,2.633-2.904,3.03
					c-0.026,0.012-0.055,0.013-0.081,0.004C203.243,398.88,203.195,398.875,203.154,398.854z M205.426,395.622
					c-0.246-0.012-0.488,0.065-0.682,0.218c-0.641,0.684-1.056,1.548-1.19,2.475c1.042-0.562,2.39-1.904,2.362-2.463
					c-0.013-0.05-0.03-0.192-0.379-0.236L205.426,395.622L205.426,395.622z"/>
				<path style="fill:#263238;" d="M202.464,397.687l-8.964-0.353c-0.338-0.014-0.64,0.209-0.727,0.536l-1.908,7.229
					c-0.174,0.64,0.204,1.3,0.844,1.474c0.082,0.022,0.166,0.036,0.251,0.04c3.234,0.071,6.114,0.008,10.137,0.172
					c4.748,0.189,3.521,0.709,9.099,1.009c3.361,0.177,4.128-3.621,2.709-3.866c-6.494-1.079-7.094-3.076-9.52-5.512
					C203.856,397.945,203.172,397.686,202.464,397.687z"/>
			</g>
		</g>
		<path style="fill:#FAB27B;" d="M191.835,160.277c-0.594,1.892-2.079,5.085,0.025,7.933l-10.213-0.989c0,0,1.094-7.531,1.727-9.984
			c0.41-1.588,0.938-3.313,6.305-1.813C192.729,156.277,192.232,159.01,191.835,160.277z"/>
		<path style="fill:#FAB27B;" d="M182.623,157.487c-5.619-4.333-17.503-16.095-6.104-26.363c9.496-8.554,18.208-3.555,21.185,2.226
			c3.331,6.468,10.878,23.756-5.869,26.927C188.748,160.862,185.54,159.737,182.623,157.487z"/>
		<g>
			<path style="fill:#407BFF;" d="M174.592,167.552c0,0,7.876-6.92,22.844,2.212l-0.207,2.138l-22.494-2.178L174.592,167.552z"/>
			<path style="opacity:0.5;fill:#FFFFFF;" d="M174.592,167.552c0,0,7.876-6.92,22.844,2.212l-0.207,2.138l-22.494-2.178
				L174.592,167.552z"/>
		</g>
		<path style="opacity:0.1;" d="M189.678,158.24c0.056,2.311,0.708,3.511,1.54,4.107c0.268-1.207,0.616-2.07,0.616-2.07
			C189.825,159.398,189.678,158.24,189.678,158.24z"/>
		<g>
			<path style="fill:#407BFF;" d="M195.683,169.493c-3.267-0.741-6.536-1.173-9.81-1.559c-5.805-0.685-10.229-1.135-13.435,0.276
				c-5.103,2.246-5.753,3.693-5.753,3.693l1.012,16.525c0,0,1.21,9.533,0.432,24.002c-0.004,0.07-0.401,15.753-8.868,24.168
				c0,0,5.119,4.461,12.139,5.669l4.78-11.432l1.505,12.041c0,0,17.216,5.104,31.418,0.399c0,0-7.777-12.422-5.274-25.122
				c1.206-6.117,2.088-8.977,2.77-13.802c0.648-4.589,0.029-7.814,0.029-7.814l-3.193-21.8
				C203.435,174.737,197.762,169.964,195.683,169.493z"/>
			<path style="opacity:0.6;" d="M195.683,169.493c-3.267-0.741-6.536-1.173-9.81-1.559c-5.805-0.685-10.229-1.135-13.435,0.276
				c-5.103,2.246-5.753,3.693-5.753,3.693l1.012,16.525c0,0,1.21,9.533,0.432,24.002c-0.004,0.07-0.401,15.753-8.868,24.168
				c0,0,5.119,4.461,12.139,5.669l4.78-11.432l1.505,12.041c0,0,17.216,5.104,31.418,0.399c0,0-7.777-12.422-5.274-25.122
				c1.206-6.117,2.088-8.977,2.77-13.802c0.648-4.589,0.029-7.814,0.029-7.814l-3.193-21.8
				C203.435,174.737,197.762,169.964,195.683,169.493z"/>
			<g>
				<path d="M205.573,210.49c0.408-2.208,0.765-4.291,1.026-6.14c0.648-4.589,0.029-7.814,0.029-7.814l-4.564-5.134
					C202.065,191.403,206.402,197.58,205.573,210.49z"/>
			</g>
		</g>
		<g>
			<path style="fill:#FAB27B;" d="M246.385,186.953l3.151-8.985c0.063-0.18,0.193-0.329,0.363-0.416l4.954-2.529
				c0.271-0.139,0.6-0.097,0.828,0.104l3.53,3.107c0.293,0.257,0.336,0.697,0.1,1.007l-3.649,4.795
				c-0.042,0.056-0.076,0.117-0.102,0.182c-0.277,0.713-2.159,5.199-6.166,6.32c-0.049,0.014-0.096,0.032-0.141,0.056l-1.348,0.72
				c-0.329,0.176-0.737,0.08-0.954-0.223l-1.713-2.395c-0.273-0.381-0.129-0.916,0.298-1.109l0.453-0.205
				C246.175,187.3,246.318,187.144,246.385,186.953z"/>
			<g>
				<path style="fill:#407BFF;" d="M195.593,169.484c5.155,1.337,10.18,3.957,14.792,10.116
					c6.025,8.048,14.976,15.329,14.976,15.329s11.557-2.455,18.854-8.765l4.28,6.389c0,0-17.566,13.242-24.714,12.55
					c-6.099-0.591-17.223-8.53-17.223-8.53l-4.571-5.142L195.593,169.484z"/>
				<path style="opacity:0.6;" d="M195.593,169.484c5.155,1.337,10.18,3.957,14.792,10.116c6.025,8.048,14.976,15.329,14.976,15.329
					s11.557-2.455,18.854-8.765l4.28,6.389c0,0-17.566,13.242-24.714,12.55c-6.099-0.591-17.223-8.53-17.223-8.53l-4.571-5.142
					L195.593,169.484z"/>
			</g>
			<g>
				<polygon style="fill:#407BFF;" points="244.627,185.359 251.046,193.326 246.747,194.467 241.627,186.98 				"/>
				<polygon style="opacity:0.5;fill:#FFFFFF;" points="244.627,185.359 251.046,193.326 246.747,194.467 241.627,186.98 				"/>
			</g>
		</g>
		<polygon style="fill:#E07F50;" points="201.869,147.17 201.869,150.274 203.964,149.977 		"/>
		<path d="M185.48,165.726c-4.812,0.495-19.027,0.77-17.315-9.638s-0.607-15.567,3.803-22.893c4.41-7.327,13.606-9.476,21.873-7.31
			c6.885,1.804,7.447,6.625,5.58,9.528c-1.867,2.903-2.712,3.438-2.383,5.497c0.329,2.059-0.921,3.211-1.462,4.176
			c-0.484,0.863-2.192,1.59-2.192,1.59s-0.638,2.262,0.362,6.075S196.788,164.563,185.48,165.726z"/>
		<g>
			<path d="M191.88,125.965c2.269,0.251,4.62,0.867,6.653,1.908c1.632,0.835,3.259,2.093,3.627,3.996
				c0.532,2.755-1.598,5.364-3.287,7.265c-0.27,0.304,0.244,0.671,0.512,0.37c2.989-3.363,5.32-8.083,0.911-11.302
				c-2.342-1.71-5.498-2.549-8.355-2.865C191.537,125.291,191.476,125.92,191.88,125.965L191.88,125.965z"/>
		</g>
		<g>
			<path d="M172.032,133.131c-3.176,4.109-3.323,9.482-3.96,14.378c-0.45,3.462-4.349,10.206-1.59,13.47
				c0.262,0.31,0.758-0.081,0.495-0.392c-1.883-2.228-0.003-5.509,0.645-7.818c0.643-2.291,0.98-4.564,1.225-6.927
				c0.435-4.193,1.015-8.871,3.69-12.333C172.786,133.188,172.28,132.81,172.032,133.131L172.032,133.131z"/>
		</g>
		<g>
			<path d="M199.717,141.267c-0.054,0.132,0.05-0.094,0.069-0.128c0.066-0.117,0.142-0.227,0.231-0.327
				c0.313-0.35,0.708-0.465,1.165-0.347c0.374,0.096,0.534-0.482,0.16-0.579c-0.983-0.253-1.834,0.314-2.203,1.221
				C198.992,141.465,199.573,141.62,199.717,141.267L199.717,141.267z"/>
		</g>
		<path style="fill:#FAB27B;" d="M197.258,145.829c0.644,1.926,0.033,3.866-1.365,4.334c-1.398,0.468-3.054-0.714-3.698-2.64
			c-0.644-1.926-0.033-3.866,1.365-4.334S196.613,143.903,197.258,145.829z"/>
		<path d="M201.956,140.953c-0.083,0.718-0.783,0.866-1.146,0.925c-0.244,0.04-0.388,0.476-0.32,0.991
			c0.068,0.515,0.321,0.907,0.566,0.875c0.245-0.032,0.388-0.476,0.32-0.991c-0.021-0.159-0.063-0.299-0.114-0.426
			C202.426,141.695,201.956,140.953,201.956,140.953z"/>
	</g>
</g>
</svg>
