<svg width="36" height="35" viewBox="0 0 36 35" fill="none" xmlns="http://www.w3.org/2000/svg">
<path d="M23.3224 2.91668C23.9416 2.91522 24.4311 3.39623 24.4325 4.03758L24.434 5.13078C28.4512 5.44562 31.1048 8.183 31.1091 12.3809L31.125 24.6685C31.1307 29.2454 28.2554 32.0615 23.6464 32.0687L12.3882 32.0833C7.808 32.0892 4.89662 29.206 4.89086 24.616L4.87501 12.4727C4.86926 8.24713 7.42932 5.51704 11.4465 5.14827L11.4451 4.05507C11.4436 3.41372 11.9188 2.93125 12.5523 2.93125C13.1859 2.9298 13.661 3.41081 13.6624 4.05215L13.6639 5.07247L22.2166 5.06081L22.2152 4.04049C22.2137 3.39915 22.6889 2.91814 23.3224 2.91668ZM23.9099 23.6132H23.8955C23.2331 23.6292 22.7018 24.1846 22.7162 24.8551C22.7177 25.5256 23.2519 26.078 23.9142 26.0926C24.5895 26.0911 25.1366 25.5358 25.1352 24.8507C25.1352 24.1656 24.5866 23.6132 23.9099 23.6132ZM12.0455 23.6146C11.3832 23.6438 10.8648 24.1991 10.8662 24.8696C10.8965 25.5401 11.4436 26.0649 12.106 26.0343C12.7553 26.0051 13.2722 25.4498 13.242 24.7793C13.2276 24.1234 12.6934 23.6132 12.0455 23.6146ZM17.9777 23.6074C17.3154 23.638 16.7984 24.1919 16.7984 24.8624C16.8287 25.5329 17.3758 26.0561 18.0382 26.027C18.6861 25.9964 19.2044 25.4425 19.1742 24.7705C19.1598 24.1161 18.6256 23.6059 17.9777 23.6074ZM12.0383 18.3673C11.376 18.3964 10.859 18.9518 10.8605 19.6223C10.8893 20.2928 11.4379 20.8175 12.1002 20.7869C12.7481 20.7577 13.265 20.2024 13.2348 19.5319C13.2204 18.876 12.6877 18.3658 12.0383 18.3673ZM17.9719 18.3163C17.3096 18.3454 16.7912 18.9008 16.7927 19.5713C16.8215 20.2418 17.3701 20.765 18.0324 20.7359C18.6803 20.7053 19.1972 20.1514 19.1684 19.4809C19.1526 18.825 18.6199 18.3148 17.9719 18.3163ZM23.9041 18.3235C23.2418 18.3381 22.7234 18.8774 22.7249 19.5479V19.564C22.7393 20.2345 23.2864 20.7432 23.9502 20.7286C24.5981 20.7126 25.115 20.1572 25.1006 19.4867C25.0704 18.8454 24.5506 18.3221 23.9041 18.3235ZM22.2195 7.30552L13.6668 7.31718L13.6682 8.49638C13.6682 9.12461 13.1945 9.6202 12.561 9.6202C11.9274 9.62165 11.4508 9.12753 11.4508 8.4993L11.4494 7.37694C8.64168 7.65826 7.08807 9.30827 7.09238 12.4698L7.09383 12.9231L28.8932 12.894V12.3838C28.8313 9.24996 27.259 7.60579 24.4369 7.36091L24.4383 8.48327C24.4383 9.11003 23.9502 9.60708 23.3311 9.60708C22.6975 9.60854 22.2209 9.11295 22.2209 8.48618L22.2195 7.30552Z" fill="black"/>
</svg>
