<?xml version="1.0" standalone="no"?>
<!DOCTYPE svg PUBLIC "-//W3C//DTD SVG 20010904//EN"
 "http://www.w3.org/TR/2001/REC-SVG-20010904/DTD/svg10.dtd">
<svg version="1.0" xmlns="http://www.w3.org/2000/svg"
 width="100.000000pt" height="100.000000pt" viewBox="0 0 100.000000 100.000000"
 preserveAspectRatio="xMidYMid meet">

<g transform="translate(0.000000,100.000000) scale(0.100000,-0.100000)"
fill="#000000" stroke="none">
<path d="M56 914 c-24 -24 -4 -51 44 -59 22 -4 40 -12 40 -19 0 -33 41 -484
46 -508 3 -15 19 -39 36 -53 l30 -25 282 0 c364 0 339 -16 376 238 25 179 25
203 -1 236 l-20 26 -325 0 -324 0 -10 26 c-6 14 -10 45 -10 68 0 24 -6 48 -12
54 -10 7 -112 32 -134 32 -1 0 -10 -7 -18 -16z m679 -344 c3 -6 3 -19 0 -30
-6 -18 -15 -20 -91 -20 -88 0 -104 8 -90 45 4 12 24 15 90 15 47 0 88 -5 91
-10z"/>
<path d="M246 159 c-32 -25 -35 -70 -6 -99 41 -41 110 -10 110 49 0 30 -38 71
-65 71 -7 0 -24 -9 -39 -21z"/>
<path d="M746 159 c-32 -25 -35 -70 -6 -99 41 -41 110 -10 110 49 0 30 -38 71
-65 71 -7 0 -24 -9 -39 -21z"/>
</g>
</svg>
