<svg width="14" height="14" viewBox="0 0 14 14" fill="none" xmlns="http://www.w3.org/2000/svg">
<g clip-path="url(#clip0_133_366)">
<path d="M6.73164 5.2895V3.64072H5.08287V2.54154H6.73164V0.892761H7.83083V2.54154H9.47961V3.64072H7.83083V5.2895H6.73164ZM4.53327 12.4342C4.231 12.4342 3.97232 12.3267 3.75725 12.1116C3.54181 11.8962 3.43409 11.6373 3.43409 11.335C3.43409 11.0327 3.54181 10.7739 3.75725 10.5584C3.97232 10.3434 4.231 10.2358 4.53327 10.2358C4.83555 10.2358 5.09422 10.3434 5.3093 10.5584C5.52474 10.7739 5.63246 11.0327 5.63246 11.335C5.63246 11.6373 5.52474 11.8962 5.3093 12.1116C5.09422 12.3267 4.83555 12.4342 4.53327 12.4342ZM10.0292 12.4342C9.72692 12.4342 9.46825 12.3267 9.25317 12.1116C9.03773 11.8962 8.93001 11.6373 8.93001 11.335C8.93001 11.0327 9.03773 10.7739 9.25317 10.5584C9.46825 10.3434 9.72692 10.2358 10.0292 10.2358C10.3315 10.2358 10.5903 10.3434 10.8058 10.5584C11.0208 10.7739 11.1284 11.0327 11.1284 11.335C11.1284 11.6373 11.0208 11.8962 10.8058 12.1116C10.5903 12.3267 10.3315 12.4342 10.0292 12.4342ZM4.53327 9.68624C4.12108 9.68624 3.80506 9.50524 3.58523 9.14324C3.36539 8.78161 3.36081 8.42218 3.57149 8.06494L4.31344 6.71844L2.3349 2.54154H1.23572V1.44235H3.03563L5.3714 6.38869H9.23229L11.362 2.54154L12.3237 3.06365L10.1941 6.9108C10.0933 7.094 9.9605 7.23598 9.79562 7.33673C9.63074 7.43749 9.44297 7.48787 9.23229 7.48787H5.13783L4.53327 8.58706H11.1284V9.68624H4.53327Z" fill="white"/>
</g>
<defs>
<clipPath id="clip0_133_366">
<rect width="13.1902" height="13.1902" fill="white" transform="translate(0.686157 0.34314)"/>
</clipPath>
</defs>
</svg>
