<?xml version="1.0" standalone="no"?>
<!DOCTYPE svg PUBLIC "-//W3C//DTD SVG 20010904//EN"
 "http://www.w3.org/TR/2001/REC-SVG-20010904/DTD/svg10.dtd">
<svg version="1.0" xmlns="http://www.w3.org/2000/svg"
 width="512.000000pt" height="512.000000pt" viewBox="0 0 512.000000 512.000000"
 preserveAspectRatio="xMidYMid meet">

<g transform="translate(0.000000,512.000000) scale(0.100000,-0.100000)"
fill="#000000" stroke="none">
<path d="M2410 5105 c-280 -63 -477 -244 -561 -515 -31 -101 -31 -277 0 -394
61 -230 196 -448 419 -677 l112 -116 -100 -93 -100 -92 0 81 0 81 -190 0 -190
0 0 -258 0 -258 -55 -54 -55 -54 0 -263 c0 -145 4 -263 8 -263 4 0 34 27 67
60 33 33 63 60 67 60 4 0 8 -40 8 -90 l0 -89 -152 -3 -152 -3 -127 -434 c-70
-238 -130 -444 -133 -457 -6 -24 -6 -24 74 -24 l80 0 0 -70 0 -70 -245 0 -245
0 0 505 0 505 -55 0 -55 0 0 -560 0 -560 300 0 300 0 0 -94 0 -93 -40 -7 c-93
-15 -210 -87 -263 -162 l-31 -44 -331 2 -330 3 -3 313 -2 312 -190 0 -190 0 0
-55 0 -55 140 0 140 0 0 -310 0 -310 361 0 361 0 -6 -22 c-3 -13 -6 -26 -6
-30 0 -3 -14 -9 -30 -13 -49 -11 -146 -82 -186 -136 -37 -51 -74 -134 -74
-169 0 -17 -8 -19 -87 -22 l-88 -3 -3 -52 -3 -53 1991 0 1991 0 -3 53 -3 52
-87 3 c-80 3 -88 5 -88 22 0 35 -37 118 -74 169 -40 53 -137 125 -185 136 -26
5 -40 26 -41 58 0 4 162 7 360 7 l360 0 0 310 0 310 140 0 140 0 0 55 0 55
-190 0 -190 0 -2 -312 -3 -313 -330 -3 -331 -2 -31 44 c-53 76 -171 148 -260
162 l-43 6 0 94 0 94 300 0 300 0 0 560 0 560 -55 0 -55 0 0 -505 0 -505 -245
0 -245 0 0 70 0 70 80 0 c80 0 80 0 74 24 -3 13 -63 219 -133 457 l-127 434
-152 3 -152 3 0 96 0 96 73 -69 72 -69 3 70 c2 39 1 161 -3 273 l-7 203 -338
315 -338 316 75 71 c237 225 405 496 460 741 25 112 22 284 -6 376 -76 250
-268 437 -516 505 -85 23 -264 28 -345 10z m340 -123 c115 -40 183 -83 261
-162 211 -213 235 -499 67 -828 -26 -52 -73 -130 -105 -175 -58 -82 -306 -340
-376 -392 l-37 -27 -48 38 c-94 78 -259 252 -339 359 -240 321 -301 622 -177
873 41 83 129 184 207 235 57 38 166 83 230 97 69 15 254 4 317 -18z m-240
-1682 c21 -16 43 -30 50 -30 6 0 31 14 56 31 l43 32 143 -135 c79 -74 224
-210 323 -303 203 -191 198 -182 193 -337 l-3 -81 -175 163 c-96 90 -266 248
-377 352 l-203 189 -377 -352 -378 -353 -3 117 -3 117 63 59 c35 32 182 172
328 309 146 138 269 251 274 251 4 1 25 -12 46 -29z m-440 -108 l0 -78 -52
-50 c-29 -27 -65 -60 -80 -73 l-28 -24 0 151 0 152 80 0 80 0 0 -78z m799
-447 l301 -280 0 -387 0 -388 -610 0 -610 0 0 388 0 387 303 282 c166 155 305
281 309 280 3 -1 142 -128 307 -282z m-1029 -925 l0 -240 720 0 720 0 0 240 0
241 112 -3 111 -3 101 -345 101 -345 -572 -3 c-315 -1 -831 -1 -1146 0 l-573
3 102 345 c57 190 103 346 103 348 1 1 51 2 111 2 l110 0 0 -240z m1748 -1142
l2 -568 -540 0 -540 0 -2 388 -3 387 -377 3 -378 2 0 -390 0 -390 -110 0 -110
0 0 563 c0 310 3 567 7 570 3 4 466 6 1027 5 l1021 -3 3 -567z m-1188 -233 l0
-335 -275 0 -275 0 0 328 c0 181 3 332 7 335 3 4 127 7 275 7 l268 0 0 -335z
m-970 -40 l0 -295 -285 0 c-321 0 -303 -6 -260 79 38 75 127 139 217 156 35 7
37 9 43 58 19 136 97 239 212 282 79 29 73 50 73 -280z m2333 279 c101 -34
186 -145 208 -271 11 -59 12 -61 47 -68 90 -17 179 -81 217 -156 43 -85 61
-79 -260 -79 l-285 0 0 295 c0 238 3 295 13 295 7 0 34 -7 60 -16z"/>
<path d="M2436 4701 c-95 -39 -146 -86 -197 -181 -20 -38 -24 -59 -24 -140 0
-79 4 -103 23 -141 35 -71 84 -122 154 -160 60 -33 67 -34 168 -34 96 0 110 2
158 28 68 36 131 98 162 162 21 42 25 64 25 145 0 85 -3 101 -28 148 -37 70
-97 128 -166 160 -76 36 -202 41 -275 13z m222 -107 c86 -36 141 -120 142
-217 1 -201 -250 -306 -402 -169 -55 49 -78 99 -78 167 0 96 51 177 135 216
50 23 151 25 203 3z"/>
<path d="M2260 2230 l0 -300 300 0 300 0 0 300 0 300 -300 0 -300 0 0 -300z
m250 0 l0 -190 -70 0 -70 0 0 190 0 190 70 0 70 0 0 -190z m240 0 l0 -190 -70
0 -70 0 0 190 0 190 70 0 70 0 0 -190z"/>
<path d="M2720 715 l0 -325 325 0 325 0 0 325 0 325 -325 0 -325 0 0 -325z
m270 0 l0 -215 -80 0 -80 0 0 215 0 215 80 0 80 0 0 -215z m270 0 l0 -215 -80
0 -80 0 0 215 0 215 80 0 80 0 0 -215z"/>
<path d="M1736 5062 c-131 -156 -220 -375 -233 -570 l-6 -93 54 3 54 3 6 80
c13 168 89 358 195 489 l56 69 -38 33 c-22 18 -41 33 -44 33 -3 0 -23 -21 -44
-47z"/>
<path d="M320 4784 c-220 -59 -360 -292 -309 -513 36 -156 184 -304 328 -327
l41 -7 0 -182 0 -182 -142 -134 c-79 -74 -161 -151 -183 -171 l-40 -37 35 -36
c22 -23 41 -34 52 -31 17 4 18 -18 18 -355 l0 -359 585 0 585 0 0 361 c0 342
1 360 18 355 12 -4 29 5 53 30 l34 36 -57 52 -58 51 0 248 0 247 -180 0 -180
0 0 -70 c0 -38 -3 -70 -6 -70 -3 0 -49 40 -102 89 -53 50 -101 90 -107 90 -5
0 -56 -43 -112 -96 l-103 -95 0 130 0 129 38 7 c21 3 66 20 101 37 163 82 262
271 233 446 -43 261 -291 424 -542 357z m255 -127 c64 -33 128 -99 157 -162
31 -69 32 -190 1 -257 -29 -64 -94 -132 -156 -163 -80 -39 -87 -36 -87 38 l0
63 65 64 65 64 -37 38 -37 38 -28 -27 -28 -27 0 97 0 97 -55 0 -55 0 0 -95 c0
-52 -4 -95 -8 -95 -5 0 -19 11 -32 25 l-24 25 -38 -37 -38 -37 70 -71 70 -70
0 -58 c0 -67 -7 -70 -85 -33 -104 49 -174 152 -183 268 -11 150 74 280 218
332 67 24 181 17 245 -17z m413 -1192 l191 -180 1 -362 0 -363 -110 0 -110 0
0 245 0 245 -255 0 -255 0 0 -245 0 -245 -110 0 -110 0 0 363 1 362 236 222
236 222 47 -42 c26 -23 134 -123 238 -222z m178 252 c2 -7 3 -71 2 -142 l-3
-129 -72 68 -73 68 0 68 c0 36 3 70 7 73 13 13 133 8 139 -6z m-316 -967 l0
-190 -145 0 -145 0 0 190 0 190 145 0 145 0 0 -190z"/>
<path d="M4580 4787 c-172 -49 -293 -184 -322 -360 -29 -175 70 -364 233 -446
35 -17 80 -34 101 -37 l38 -7 0 -129 0 -130 -107 100 -107 100 -102 -94 c-56
-52 -105 -94 -108 -94 -3 0 -6 32 -6 70 l0 70 -180 0 -180 0 0 -247 0 -248
-57 -52 -58 -51 35 -37 c22 -23 41 -34 52 -31 17 4 18 -18 18 -355 l0 -359
585 0 585 0 0 360 c0 322 2 359 16 353 14 -5 84 50 84 67 0 3 -81 81 -180 174
l-180 169 0 182 0 182 41 7 c108 17 239 120 291 228 113 232 6 508 -232 599
-68 26 -197 34 -260 16z m208 -113 c76 -25 140 -79 181 -154 34 -61 36 -70 36
-155 0 -78 -4 -97 -27 -140 -34 -66 -91 -122 -153 -151 -89 -42 -85 -51 -85
171 l0 195 -55 0 -55 0 0 -60 c0 -55 -10 -75 -25 -50 -3 6 -10 10 -15 10 -10
0 -65 -89 -59 -94 2 -1 25 -15 52 -30 l47 -27 0 -69 c0 -82 -6 -85 -87 -45
-62 31 -127 99 -156 163 -31 67 -30 188 1 257 38 83 125 159 212 186 44 13
136 10 188 -7z m-690 -1019 l3 -71 -73 -69 -73 -70 -3 129 c-1 72 0 136 3 143
3 10 23 13 72 11 l68 -3 3 -70z m600 -190 l191 -180 1 -362 0 -363 -110 0
-110 0 0 245 0 245 -255 0 -255 0 0 -245 0 -245 -110 0 -110 0 0 363 1 362
236 222 236 222 47 -42 c26 -23 134 -123 238 -222z m-138 -715 l0 -190 -145 0
-145 0 0 190 0 190 145 0 145 0 0 -190z"/>
<path d="M1528 4253 c-22 -6 -22 -16 -2 -104 l16 -71 36 7 c69 13 72 18 56 77
-7 29 -14 63 -14 76 0 19 -5 22 -37 21 -21 -1 -46 -3 -55 -6z"/>
<path d="M1648 3923 c-21 -8 -38 -19 -38 -24 0 -11 68 -149 82 -166 8 -10 20
-7 52 12 22 13 41 28 41 32 0 17 -81 163 -90 162 -5 0 -27 -7 -47 -16z"/>
<path d="M574 2117 c-2 -7 -3 -94 -2 -192 l3 -180 53 -3 52 -3 0 195 0 196
-50 0 c-32 0 -52 -5 -56 -13z"/>
<path d="M330 1905 l0 -215 -141 0 -140 0 3 -52 3 -53 190 0 190 0 3 268 2
267 -55 0 -55 0 0 -215z"/>
<path d="M4440 1935 l0 -186 53 3 52 3 0 180 0 180 -52 3 -53 3 0 -186z"/>
<path d="M4682 1853 l3 -268 190 0 190 0 3 53 3 52 -140 0 -141 0 0 215 0 215
-55 0 -55 0 2 -267z"/>
<path d="M570 1455 l0 -65 55 0 55 0 0 65 0 65 -55 0 -55 0 0 -65z"/>
<path d="M4440 1460 l0 -60 55 0 55 0 0 60 0 60 -55 0 -55 0 0 -60z"/>
<path d="M4787 1463 c-4 -3 -7 -28 -7 -55 l0 -48 135 0 135 0 0 55 0 55 -128
0 c-71 0 -132 -3 -135 -7z"/>
<path d="M50 1400 l0 -50 150 0 150 0 0 50 0 50 -150 0 -150 0 0 -50z"/>
<path d="M4440 1164 l0 -65 53 3 52 3 3 63 3 62 -56 0 -55 0 0 -66z"/>
<path d="M572 1153 l3 -68 53 -3 52 -3 0 70 0 71 -55 0 -56 0 3 -67z"/>
<path d="M630 805 l0 -55 245 0 245 0 0 55 0 55 -245 0 -245 0 0 -55z"/>
<path d="M4000 805 l0 -55 245 0 245 0 0 55 0 55 -245 0 -245 0 0 -55z"/>
<path d="M270 55 l0 -55 65 0 65 0 0 55 0 55 -65 0 -65 0 0 -55z"/>
<path d="M4720 55 l0 -55 65 0 65 0 0 55 0 55 -65 0 -65 0 0 -55z"/>
</g>
</svg>
