<svg width="30" height="27" viewBox="0 0 30 27" fill="none" xmlns="http://www.w3.org/2000/svg">
<path fill-rule="evenodd" clip-rule="evenodd" d="M24.2553 16.2755C27.0438 16.2755 29.3123 18.5326 29.3123 21.3065C29.3123 24.0804 27.0438 26.3375 24.2553 26.3375C21.4652 26.3375 19.1951 24.0804 19.1951 21.3065C19.1951 18.5326 21.4652 16.2755 24.2553 16.2755ZM24.2553 18.713C22.8091 18.713 21.6326 19.8765 21.6326 21.3065C21.6326 22.7381 22.8091 23.9 24.2553 23.9C25.7 23.9 26.8748 22.7381 26.8748 21.3065C26.8748 19.8765 25.7 18.713 24.2553 18.713ZM12.3805 20.1508C13.0532 20.1508 13.5992 20.6968 13.5992 21.3696C13.5992 22.0423 13.0532 22.5883 12.3805 22.5883H2.14136C1.46861 22.5883 0.922612 22.0423 0.922612 21.3696C0.922612 20.6968 1.46861 20.1508 2.14136 20.1508H12.3805ZM5.93362 0.5C8.72375 0.5 10.9922 2.75875 10.9922 5.53262C10.9922 8.3065 8.72375 10.562 5.93362 10.562C3.14512 10.562 0.875 8.3065 0.875 5.53262C0.875 2.75875 3.14512 0.5 5.93362 0.5ZM5.93362 2.9375C4.489 2.9375 3.3125 4.101 3.3125 5.53262C3.3125 6.96263 4.489 8.1245 5.93362 8.1245C7.37987 8.1245 8.55475 6.96263 8.55475 5.53262C8.55475 4.101 7.37987 2.9375 5.93362 2.9375ZM27.1855 4.40065C27.8583 4.40065 28.4043 4.94665 28.4043 5.6194C28.4043 6.29215 27.8583 6.83815 27.1855 6.83815H16.948C16.2753 6.83815 15.7293 6.29215 15.7293 5.6194C15.7293 4.94665 16.2753 4.40065 16.948 4.40065H27.1855Z" fill="#6B6C70"/>
</svg>
