<?xml version="1.0" standalone="no"?>
<!DOCTYPE svg PUBLIC "-//W3C//DTD SVG 20010904//EN"
 "http://www.w3.org/TR/2001/REC-SVG-20010904/DTD/svg10.dtd">
<svg version="1.0" xmlns="http://www.w3.org/2000/svg"
 width="100.000000pt" height="100.000000pt" viewBox="0 0 100.000000 100.000000"
 preserveAspectRatio="xMidYMid meet">

<g transform="translate(0.000000,100.000000) scale(0.100000,-0.100000)"
fill="#000000" stroke="none">
<path d="M432 950 c-58 -35 -347 -271 -359 -293 -9 -16 -12 -94 -13 -267 0
-278 4 -296 76 -337 31 -18 55 -23 119 -23 44 0 85 4 92 8 22 14 33 62 33 142
0 106 5 110 124 110 121 0 126 -5 126 -126 0 -127 6 -134 117 -134 101 0 148
21 182 80 20 36 21 52 21 281 0 215 -2 247 -18 271 -17 26 -294 251 -355 288
-41 26 -103 25 -145 0z"/>
</g>
</svg>
