<?xml version="1.0" standalone="no"?>
<!DOCTYPE svg PUBLIC "-//W3C//DTD SVG 20010904//EN"
 "http://www.w3.org/TR/2001/REC-SVG-20010904/DTD/svg10.dtd">
<svg version="1.0" xmlns="http://www.w3.org/2000/svg"
 width="512.000000pt" height="512.000000pt" viewBox="0 0 512.000000 512.000000"
 preserveAspectRatio="xMidYMid meet">

<g transform="translate(0.000000,512.000000) scale(0.100000,-0.100000)"
fill="#000000" stroke="none">
<path d="M2472 5108 c-9 -9 -12 -80 -12 -258 l0 -245 -85 -85 -85 -85 0 -102
0 -103 -36 0 c-72 0 -74 -4 -74 -158 0 -94 4 -142 12 -150 7 -7 38 -12 70 -12
l59 0 -5 -87 c-3 -49 -8 -149 -11 -223 -13 -310 -66 -745 -133 -1080 l-37
-185 -114 -3 c-64 -1 -121 -8 -128 -14 -10 -8 -13 -46 -13 -144 0 -159 3 -164
108 -164 l64 0 -7 -32 c-13 -59 -104 -352 -141 -456 l-36 -102 -137 0 c-93 0
-141 -4 -149 -12 -8 -8 -12 -60 -12 -170 0 -181 -2 -178 94 -178 31 0 56 -4
56 -8 0 -18 -234 -476 -306 -599 l-78 -133 -238 0 c-146 0 -247 -4 -259 -10
-21 -12 -25 -50 -7 -68 17 -17 1409 -17 1426 0 17 17 15 44 -4 62 -13 13 -43
16 -175 16 l-160 0 7 23 c24 78 113 201 191 261 161 127 370 174 557 126 193
-49 339 -164 426 -336 16 -32 30 -62 30 -66 0 -5 -79 -8 -176 -8 -102 0 -183
-4 -195 -10 -21 -12 -25 -50 -7 -68 17 -17 1309 -17 1326 0 17 17 15 44 -4 62
-13 13 -46 16 -208 16 l-192 0 -87 150 c-78 133 -297 563 -297 582 0 5 25 8
56 8 96 0 94 -3 94 178 0 110 -4 162 -12 170 -8 8 -56 12 -149 12 l-137 0 -40
113 c-43 122 -142 445 -142 465 0 8 20 12 63 12 103 0 107 5 107 164 0 98 -3
136 -13 144 -7 6 -64 13 -127 14 l-114 3 -23 105 c-83 389 -148 951 -154 1330
l-2 135 61 5 c33 3 64 9 69 13 4 5 8 69 8 144 0 153 -5 163 -77 163 l-38 0 0
101 0 102 -85 86 -85 87 0 241 c0 206 -2 244 -16 257 -18 19 -45 21 -62 4z
m95 -650 l63 -62 0 -83 0 -83 -125 0 -125 0 0 87 0 87 57 58 c32 32 60 58 62
58 3 0 34 -28 68 -62z m181 -390 l3 -68 -246 0 -245 0 0 70 0 70 243 -2 242
-3 3 -67z m-136 -357 c14 -405 63 -825 139 -1201 16 -80 29 -153 29 -162 0
-17 -20 -18 -275 -18 -213 0 -275 3 -275 13 0 6 16 91 34 187 79 403 136 928
136 1249 0 65 3 121 7 125 4 4 50 5 103 4 l95 -3 7 -194z m428 -1541 l0 -70
-535 0 -535 0 0 70 0 70 535 0 535 0 0 -70z m-702 -267 c-20 -114 -74 -331
-106 -423 l-19 -55 -125 -3 -126 -3 48 143 c27 79 67 206 89 283 23 77 43 146
46 153 3 8 34 12 108 12 l104 0 -19 -107z m226 85 c3 -13 10 -54 16 -93 15
-100 56 -265 90 -372 17 -50 30 -94 30 -97 0 -3 -88 -6 -196 -6 -182 0 -196 1
-191 18 3 9 21 73 41 142 37 124 86 351 86 394 0 32 7 36 66 36 48 0 54 -3 58
-22z m338 -118 c22 -74 63 -206 92 -293 l53 -158 -125 3 -125 3 -29 85 c-36
108 -83 300 -101 413 l-14 88 105 -3 106 -3 38 -135z m456 -627 l-3 -88 -852
-3 -853 -2 0 90 0 90 855 0 856 0 -3 -87z m-141 -245 c78 -177 236 -479 350
-671 2 -4 -73 -6 -167 -5 l-172 3 -25 60 c-66 158 -196 296 -347 370 -125 62
-198 79 -331 79 -133 0 -206 -17 -331 -79 -152 -74 -280 -209 -345 -365 l-28
-65 -192 -3 -192 -2 15 22 c72 110 224 396 309 581 l63 137 682 0 683 0 28
-62z"/>
<path d="M1043 3925 c-158 -43 -277 -156 -324 -306 -10 -33 -19 -76 -19 -95 0
-28 -6 -36 -32 -50 -53 -27 -106 -73 -138 -119 l-30 -43 -80 5 c-62 5 -90 2
-127 -12 -90 -35 -158 -122 -177 -226 -5 -28 -2 -42 13 -60 16 -20 22 -22 43
-12 20 9 27 21 32 61 16 121 137 198 246 157 81 -31 89 -28 130 45 108 190
350 224 495 69 25 -27 54 -69 65 -94 16 -37 24 -45 45 -45 15 0 36 5 48 12 93
49 215 9 258 -86 46 -101 -1 -218 -106 -261 -11 -5 -119 -11 -239 -14 -194 -5
-220 -8 -230 -23 -8 -13 -8 -23 0 -35 10 -16 35 -18 241 -21 l231 -2 62 32
c140 73 190 239 114 379 -30 54 -88 104 -147 126 -39 14 -147 16 -181 3 -22
-8 -27 -5 -46 25 -35 57 -125 132 -188 156 -33 12 -90 24 -136 27 l-78 5 5 34
c17 102 101 209 205 260 50 25 68 28 152 28 87 0 101 -3 161 -32 82 -40 141
-103 180 -189 16 -36 36 -67 45 -71 8 -3 38 7 67 23 71 39 144 39 209 1 56
-32 87 -81 103 -156 l11 -56 94 0 95 0 0 35 0 35 -57 3 c-47 2 -58 6 -58 20
-1 64 -93 178 -173 212 -62 27 -163 31 -218 8 l-35 -15 -25 45 c-90 171 -317
268 -506 217z"/>
<path d="M116 3664 c-36 -36 -4 -77 57 -72 52 4 74 33 51 66 -18 27 -84 31
-108 6z"/>
<path d="M346 3664 c-21 -20 -20 -37 2 -57 15 -14 40 -17 123 -17 110 0 129 7
129 45 0 39 -19 45 -131 45 -84 0 -111 -3 -123 -16z"/>
<path d="M3970 3079 c-79 -15 -164 -65 -224 -130 -31 -33 -56 -65 -56 -70 0
-7 -15 -8 -42 -4 -135 23 -244 -17 -308 -113 -17 -25 -36 -63 -42 -84 l-11
-38 -72 0 c-76 0 -95 -9 -95 -47 0 -32 33 -43 125 -43 108 0 120 7 134 77 25
127 140 199 252 158 90 -34 95 -33 124 24 37 74 88 126 153 158 47 22 71 27
137 27 99 1 168 -28 235 -97 25 -26 53 -47 64 -47 10 0 36 16 57 35 76 69 171
34 190 -70 14 -73 26 -82 90 -62 65 21 151 22 194 1 61 -29 79 -108 39 -170
-25 -37 -58 -44 -220 -44 -88 0 -164 -4 -175 -10 -11 -6 -19 -21 -19 -35 0
-14 8 -29 19 -35 11 -6 87 -10 178 -10 180 0 214 10 270 73 64 73 68 172 10
249 -51 66 -94 83 -209 83 l-97 -1 -7 29 c-3 16 -23 46 -44 67 -64 64 -154 76
-238 32 l-38 -19 -34 29 c-48 40 -124 74 -194 87 -67 12 -83 12 -146 0z"/>
<path d="M4276 304 c-41 -40 -6 -74 78 -74 66 0 86 11 86 45 0 34 -20 45 -86
45 -44 0 -67 -5 -78 -16z"/>
<path d="M2456 74 c-19 -18 -21 -45 -4 -62 9 -9 104 -12 364 -12 352 0 353 0
368 22 13 19 14 25 2 43 -13 19 -23 20 -364 23 -309 2 -352 0 -366 -14z"/>
</g>
</svg>
