<svg width="25" height="28" viewBox="0 0 25 28" fill="none" xmlns="http://www.w3.org/2000/svg">
<path fill-rule="evenodd" clip-rule="evenodd" d="M12.5185 0.00268679C16.8833 0.00268679 20.4378 3.2904 20.4378 7.3316L20.4376 9.51133C23.0912 10.3655 25 12.702 25 15.4441V21.3739C25 24.8372 21.9552 27.6535 18.2108 27.6535H6.78924C3.04484 27.6535 0 24.8372 0 21.3739V15.4441C0 12.7025 1.9081 10.3664 4.56085 9.51181L4.56188 7.3316C4.57085 5.34072 5.40344 3.50331 6.90568 2.12629C8.40942 0.747883 10.3945 -0.0498502 12.5185 0.00268679ZM18.2108 11.2384H6.78924C4.28102 11.2384 2.24215 13.1242 2.24215 15.4441V21.3739C2.24215 23.6938 4.28102 25.5796 6.78924 25.5796H18.2108C20.7175 25.5796 22.7578 23.6938 22.7578 21.3739V15.4441C22.7578 13.1242 20.7175 11.2384 18.2108 11.2384ZM12.4997 15.8365C13.1185 15.8365 13.6208 16.301 13.6208 16.8734V19.9441C13.6208 20.5164 13.1185 20.981 12.4997 20.981C11.8809 20.981 11.3786 20.5164 11.3786 19.9441V16.8734C11.3786 16.301 11.8809 15.8365 12.4997 15.8365ZM12.514 2.07652H12.4901C10.9759 2.07652 9.5574 2.61571 8.48565 3.59871C7.40643 4.58585 6.81001 5.90342 6.80404 7.30809L6.80269 9.1638H18.1943L18.1957 7.3316C18.1957 4.43377 15.6471 2.07652 12.514 2.07652Z" fill="#6B6C70"/>
</svg>
