<svg width="310" height="174" viewBox="0 0 310 174" fill="none" xmlns="http://www.w3.org/2000/svg">
<path d="M302.102 67.6045L298.816 76.0125L301.146 76.9232L304.432 68.5152L302.102 67.6045Z" fill="#367CFF"/>
<path d="M96.81 46.9871L94.9465 48.6561L100.969 55.3807L102.833 53.7118L96.81 46.9871Z" fill="#0CBC8B"/>
<path d="M124.422 77.0854L117.197 82.4974L118.697 84.4999L125.922 79.0879L124.422 77.0854Z" fill="#367CFF"/>
<path d="M207.989 14.9804L206.275 16.8022L212.849 22.9889L214.564 21.1671L207.989 14.9804Z" fill="#367CFF"/>
<path d="M160.184 16.9922L155.685 24.8188L157.853 26.0656L162.353 18.239L160.184 16.9922Z" fill="#0CBC8B"/>
<path d="M225.52 83.9222L223.405 85.2572L228.222 92.8916L230.338 91.5565L225.52 83.9222Z" fill="#0CBC8B"/>
<path d="M127.422 121.098L125.184 122.216L129.218 130.292L131.456 129.174L127.422 121.098Z" fill="#0CBC8B"/>
<path d="M94.6803 99.8494L92.088 108.497L94.484 109.215L97.0763 100.568L94.6803 99.8494Z" fill="#367CFF"/>
<path d="M251.281 126.795L243.784 131.823L245.177 133.901L252.674 128.873L251.281 126.795Z" fill="#367CFF"/>
<path d="M252.404 0.672783L247.905 8.49915L250.074 9.74591L254.573 1.91954L252.404 0.672783Z" fill="#0CBC8B"/>
<path d="M2.32996 64.7011L0 65.6118L3.28641 74.0198L5.61636 73.1091L2.32996 64.7011Z" fill="#0CBC8B"/>
<path d="M244.195 54.314L242.695 56.3164L249.92 61.7284L251.42 59.726L244.195 54.314Z" fill="#0CBC8B"/>
<path d="M41.2391 17.4286L34.6646 23.6152L36.3789 25.4371L42.9535 19.2504L41.2391 17.4286Z" fill="#367CFF"/>
<path d="M114.06 10.0612L111.891 11.308L116.39 19.1346L118.559 17.8878L114.06 10.0612Z" fill="#367CFF"/>
<path d="M25.6002 108.328L20.7825 115.962L22.8981 117.297L27.7158 109.663L25.6002 108.328Z" fill="#0CBC8B"/>
<path d="M4.2612 129.241L2.8678 131.32L10.3696 136.348L11.763 134.269L4.2612 129.241Z" fill="#367CFF"/>
<path d="M293.684 29.5451L291.516 30.7919L296.015 38.6182L298.184 37.3715L293.684 29.5451Z" fill="#367CFF"/>
<path d="M199.694 50.8738L193.672 57.5985L195.535 59.2675L201.558 52.5428L199.694 50.8738Z" fill="#367CFF"/>
<path d="M146.822 126.672L142.788 134.748L145.025 135.866L149.06 127.79L146.822 126.672Z" fill="#0CBC8B"/>
<path d="M179.564 105.424L177.168 106.142L179.761 114.789L182.157 114.071L179.564 105.424Z" fill="#367CFF"/>
<path d="M180.371 110.359L171.845 103.877C171.657 103.735 171.442 103.633 171.213 103.579C170.984 103.524 170.747 103.517 170.515 103.56C170.284 103.602 170.063 103.692 169.869 103.824C169.674 103.955 169.508 104.126 169.383 104.326C169.164 104.701 169.091 105.144 169.18 105.57C169.269 105.995 169.512 106.373 169.863 106.629L171.692 108.018L163.937 106.287C163.078 106.08 161.891 106.375 161.722 107.353C161.632 107.726 161.671 108.118 161.833 108.465C161.994 108.812 162.269 109.095 162.611 109.266C162.607 109.273 162.604 109.281 162.602 109.29C162.602 109.296 162.602 109.303 162.602 109.309L161.277 108.989C161.032 108.93 160.777 108.926 160.53 108.978C160.283 109.031 160.05 109.137 159.85 109.29C159.649 109.444 159.486 109.64 159.37 109.864C159.255 110.089 159.192 110.336 159.184 110.589C159.181 110.986 159.313 111.373 159.561 111.684C159.808 111.995 160.155 112.212 160.543 112.298L161.105 112.434C161.109 112.453 161.116 112.47 161.125 112.486C160.723 112.482 160.333 112.622 160.024 112.88C159.716 113.137 159.509 113.497 159.441 113.893C159.379 114.329 159.483 114.772 159.734 115.134C159.984 115.496 160.362 115.75 160.792 115.846L162.192 116.184C162.169 116.194 162.148 116.208 162.132 116.227C162.116 116.246 162.104 116.268 162.098 116.292C162.092 116.321 162.095 116.351 162.106 116.379C161.747 116.475 161.43 116.686 161.203 116.981C160.976 117.275 160.851 117.636 160.849 118.007C160.855 118.398 160.993 118.775 161.239 119.078C161.486 119.38 161.828 119.591 162.209 119.675L174.021 122.529C175.674 122.928 177.408 122.824 179.001 122.232C180.594 121.639 181.974 120.584 182.964 119.202C183.818 118.01 184.173 116.533 183.954 115.083C183.736 113.634 182.961 112.327 181.794 111.44L180.371 110.359Z" fill="#E98862"/>
<g opacity="0.2">
<path d="M170.279 111.018C170.269 111.057 170.244 111.092 170.21 111.113C170.175 111.134 170.133 111.141 170.093 111.132L162.72 109.475C162.7 109.471 162.681 109.462 162.664 109.45C162.647 109.438 162.633 109.423 162.622 109.406C162.611 109.389 162.603 109.369 162.6 109.349C162.596 109.329 162.597 109.308 162.601 109.288C162.606 109.268 162.614 109.249 162.626 109.232C162.638 109.216 162.653 109.201 162.67 109.19C162.688 109.179 162.707 109.172 162.727 109.168C162.748 109.165 162.768 109.165 162.788 109.17L170.162 110.827C170.182 110.832 170.201 110.84 170.218 110.852C170.235 110.864 170.249 110.879 170.26 110.896C170.271 110.914 170.278 110.933 170.282 110.954C170.285 110.974 170.285 110.995 170.28 111.015L170.279 111.018Z" fill="#0C0C0C"/>
</g>
<g opacity="0.2">
<path d="M169.639 114.29C169.629 114.33 169.604 114.364 169.568 114.386C169.533 114.407 169.491 114.414 169.451 114.405L161.222 112.556C161.202 112.552 161.183 112.544 161.166 112.532C161.149 112.52 161.135 112.505 161.124 112.487C161.113 112.47 161.106 112.45 161.102 112.43C161.099 112.41 161.099 112.389 161.104 112.369C161.114 112.329 161.14 112.295 161.174 112.273C161.209 112.251 161.251 112.243 161.292 112.251L169.52 114.099C169.54 114.103 169.56 114.112 169.576 114.124C169.593 114.135 169.608 114.151 169.619 114.168C169.629 114.185 169.637 114.205 169.64 114.225C169.644 114.245 169.643 114.266 169.639 114.286V114.29Z" fill="#0C0C0C"/>
</g>
<g opacity="0.2">
<path d="M168.965 117.838C168.955 117.877 168.93 117.911 168.896 117.933C168.861 117.954 168.819 117.961 168.779 117.952L162.215 116.478C162.175 116.469 162.14 116.444 162.117 116.409C162.095 116.374 162.088 116.332 162.097 116.291C162.106 116.251 162.131 116.216 162.166 116.194C162.201 116.171 162.243 116.164 162.284 116.173L168.848 117.647C168.868 117.652 168.887 117.66 168.904 117.672C168.921 117.684 168.935 117.699 168.946 117.716C168.957 117.734 168.964 117.753 168.968 117.774C168.971 117.794 168.971 117.815 168.966 117.835L168.965 117.838Z" fill="#0C0C0C"/>
</g>
<path d="M139.891 65.7786L144.651 56.1846C144.756 55.9738 144.903 55.7871 145.084 55.6364C145.265 55.4856 145.475 55.3742 145.701 55.3091C145.927 55.244 146.164 55.2268 146.398 55.2584C146.631 55.2901 146.855 55.3699 147.055 55.4929C147.419 55.7313 147.681 56.0963 147.791 56.5169C147.901 56.9376 147.85 57.384 147.65 57.7697L146.629 59.827L152.807 54.8322C153.485 54.2646 154.679 54.0016 155.265 54.8034C155.511 55.0972 155.65 55.4656 155.659 55.8486C155.669 56.2315 155.548 56.6064 155.317 56.912C155.324 56.917 155.331 56.9228 155.336 56.9292C155.34 56.9347 155.343 56.9404 155.345 56.9464L156.39 56.0708C156.584 55.9088 156.811 55.7921 157.055 55.7291C157.3 55.6661 157.555 55.6584 157.803 55.7066C158.051 55.7548 158.285 55.8577 158.487 56.0077C158.69 56.1578 158.857 56.3512 158.976 56.5739C159.156 56.9284 159.208 57.3339 159.125 57.7226C159.042 58.1113 158.828 58.4597 158.518 58.7094L158.074 59.0818C158.079 59.0996 158.08 59.1182 158.079 59.1365C158.437 58.9546 158.849 58.9063 159.24 59.0001C159.631 59.0938 159.976 59.3237 160.213 59.6484C160.462 60.0115 160.565 60.4551 160.501 60.8907C160.437 61.3263 160.212 61.7219 159.869 61.9984L158.765 62.923C158.79 62.9209 158.815 62.9247 158.838 62.9342C158.861 62.9436 158.881 62.9585 158.897 62.9775C158.915 63.0011 158.926 63.0294 158.929 63.0591C159.293 62.9857 159.672 63.0341 160.006 63.1969C160.34 63.3597 160.611 63.6278 160.778 63.96C160.947 64.3123 160.991 64.7112 160.904 65.0919C160.818 65.4727 160.605 65.813 160.301 66.0579L150.985 73.8611C149.682 74.9527 148.083 75.6304 146.392 75.807C144.701 75.9837 142.996 75.6514 141.496 74.8526C140.202 74.164 139.227 72.9982 138.78 71.6027C138.332 70.2072 138.445 68.692 139.097 67.379L139.891 65.7786Z" fill="#E98862"/>
<g opacity="0.2">
<path d="M149.225 61.8861C149.252 61.9176 149.29 61.9374 149.331 61.9412C149.372 61.945 149.412 61.9325 149.444 61.9064L155.315 57.1477C155.347 57.1216 155.368 57.0837 155.372 57.0425C155.376 57.0012 155.364 56.9599 155.338 56.9277C155.312 56.8955 155.274 56.875 155.233 56.8707C155.191 56.8663 155.15 56.8786 155.118 56.9047L149.247 61.6634C149.215 61.6895 149.195 61.7271 149.191 61.7681C149.186 61.8091 149.198 61.8502 149.224 61.8823L149.225 61.8861Z" fill="#0C0C0C"/>
</g>
<g opacity="0.2">
<path d="M151.253 64.5334C151.279 64.5649 151.317 64.5846 151.358 64.5884C151.399 64.5921 151.44 64.5796 151.471 64.5534L158.023 59.2428C158.055 59.2167 158.075 59.179 158.08 59.1381C158.084 59.0971 158.072 59.056 158.046 59.0239C158.019 58.9931 157.982 58.9736 157.941 58.9693C157.9 58.965 157.86 58.9763 157.827 59.0008L151.273 64.3105C151.241 64.3365 151.221 64.3742 151.217 64.4151C151.212 64.4561 151.224 64.4972 151.25 64.5293L151.253 64.5334Z" fill="#0C0C0C"/>
</g>
<g opacity="0.2">
<path d="M153.432 67.4128C153.458 67.4443 153.496 67.4641 153.537 67.4679C153.578 67.4717 153.619 67.4592 153.651 67.4331L158.877 63.197C158.909 63.1708 158.93 63.133 158.934 63.0917C158.938 63.0505 158.926 63.0092 158.9 62.977C158.874 62.9447 158.836 62.9242 158.795 62.9199C158.753 62.9156 158.712 62.9279 158.68 62.954L153.452 67.1902C153.42 67.2162 153.4 67.2539 153.396 67.2948C153.391 67.3358 153.403 67.3769 153.429 67.409L153.432 67.4128Z" fill="#0C0C0C"/>
</g>
<path d="M33.0529 57.5526C33.0529 57.5526 32.3815 67.6263 30.1154 71.2803C23.5905 81.8021 21.7002 93.6385 28.2342 99.8228C34.7681 106.007 76.4435 106.093 79.6008 91.8692C82.2588 79.8943 76.5548 78.6066 75.1667 68.7292C74.5388 64.2595 72.8111 54.8868 72.8111 54.8868" fill="#0A0A0A"/>
<path d="M68.8148 89.7838C68.7429 89.7744 67.9446 103.021 52.5562 101.866C41.903 101.068 38.1046 89.7644 37.8607 89.7644C39.0093 89.5202 40.9433 89.1653 41.4534 88.8929C43.131 87.9917 45.2058 87.0536 45.7474 83.7959C46.0601 81.9197 45.5301 72.3128 45.693 70.4122L62.0454 74.0633C61.8168 78.0756 60.2177 87.3766 65.8229 89.0227C66.7554 89.2957 67.7601 89.5462 68.8148 89.7838Z" fill="#E98862"/>
<path opacity="0.5" d="M62.2746 85.2221C62.0185 84.3967 61.8535 83.5456 61.7827 82.6842C61.603 80.7186 61.6389 78.7392 61.8897 76.7813C58.5662 76.3327 55.4353 74.9608 52.8526 72.8216C52.5489 73.9429 50.8788 78.843 51.3413 79.9087C52.2147 81.9234 56.3214 85.2221 62.2746 85.2221Z" fill="#0C0C0C"/>
<path d="M60.1601 81.0954C53.7128 81.7208 45.3712 79.1404 43.6432 70.5546L42.0841 62.8077C40.3561 54.2221 43.4647 46.3545 51.5483 44.7275C59.6323 43.1015 67.0752 48.8443 68.8032 57.4301L69.4937 60.8599C70.1566 64.1542 71.6629 79.9822 60.1601 81.0954Z" fill="#E98862"/>
<path opacity="0.1" d="M56.0619 69.8445C57.1228 69.7179 57.9077 68.9844 57.8148 68.2062C57.722 67.4281 56.7866 66.8998 55.7256 67.0264C54.6647 67.153 53.8798 67.8865 53.9727 68.6647C54.0655 69.4429 55.0009 69.9711 56.0619 69.8445Z" fill="#0C0C0C"/>
<path opacity="0.1" d="M67.2729 66.7333C67.3668 67.5104 68.3033 68.0379 69.3643 67.9129C69.5476 67.8909 69.7282 67.8499 69.9031 67.7906C69.9525 66.864 69.9553 65.9728 69.9284 65.1476C69.6337 65.0739 69.3279 65.056 69.0266 65.0948C67.9656 65.2199 67.181 65.9531 67.2729 66.7333Z" fill="#0C0C0C"/>
<path opacity="0.5" d="M62.5847 69.1351C62.59 69.1346 62.5952 69.1338 62.6004 69.1326C62.928 69.0644 63.2516 68.978 63.5698 68.874C64.0444 68.7152 64.6642 68.4544 64.5792 68.025C64.481 67.536 62.0775 62.5274 61.8049 61.9586C61.7937 61.9329 61.7775 61.9098 61.7571 61.8905C61.7368 61.8713 61.7128 61.8563 61.6866 61.8465C61.6603 61.8368 61.6324 61.8324 61.6044 61.8337C61.5764 61.8349 61.549 61.8418 61.5238 61.8539C61.4985 61.8661 61.476 61.8831 61.4575 61.9042C61.439 61.9252 61.425 61.9497 61.4162 61.9763C61.4074 62.0029 61.404 62.031 61.4064 62.0589C61.4087 62.0868 61.4166 62.1139 61.4296 62.1387C62.4544 64.2717 64.1048 67.7786 64.1711 68.1079C64.1192 68.2614 63.3318 68.5613 62.5191 68.7252C62.4921 68.7295 62.4663 68.7391 62.443 68.7535C62.4198 68.7678 62.3996 68.7866 62.3836 68.8087C62.3676 68.8309 62.3562 68.856 62.3499 68.8825C62.3436 68.9091 62.3426 68.9366 62.3469 68.9636C62.3513 68.9906 62.3609 69.0164 62.3752 69.0396C62.3896 69.0629 62.4084 69.0831 62.4305 69.0991C62.4526 69.115 62.4777 69.1265 62.5043 69.1328C62.5309 69.1391 62.5584 69.1401 62.5854 69.1358L62.5847 69.1351Z" fill="#0C0C0C"/>
<path d="M35.634 65.5891L42.8812 64.1735C48.3557 61.8842 49.9089 52.3434 49.9089 52.3434C49.9089 52.3434 56.6651 58.7779 72.8125 54.8869C72.8125 54.8869 69.3049 32.3454 45.462 39.1892C37.7742 41.3954 32.3285 49.2317 33.1384 59.6109C33.7059 66.8825 35.634 65.5891 35.634 65.5891Z" fill="#0A0A0A"/>
<path d="M44.6717 73.0692C42.2151 73.5636 39.6947 71.3363 39.1994 68.879C38.7041 66.4218 40.4239 64.6669 42.8805 64.1722L44.4778 65.5638L46.7834 72.6437L44.6717 73.0692Z" fill="#E98862"/>
<path d="M63.5464 57.9645C64.161 57.5299 64.8798 57.2658 65.6296 57.1991C66.0064 57.1629 66.3864 57.184 66.7569 57.2616C67.1305 57.3377 67.493 57.4604 67.836 57.6268L67.8467 57.6318C67.8847 57.6486 67.9277 57.6499 67.9667 57.6353C68.0056 57.6207 68.0373 57.5915 68.055 57.5539C68.0726 57.5163 68.0749 57.4733 68.0613 57.434C68.0477 57.3948 68.0192 57.3624 67.9821 57.3438C67.6186 57.1519 67.2324 57.0065 66.8326 56.9111C66.43 56.8132 66.015 56.7764 65.6015 56.8019C64.7639 56.8482 63.954 57.1181 63.2562 57.5837C63.2302 57.6013 63.2079 57.6239 63.1906 57.6501C63.1733 57.6764 63.1614 57.7058 63.1555 57.7366C63.1496 57.7675 63.1498 57.7992 63.1562 57.83C63.1626 57.8608 63.175 57.89 63.1927 57.916C63.2104 57.9419 63.233 57.9642 63.2593 57.9814C63.2856 57.9986 63.315 58.0104 63.3459 58.0163C63.3768 58.0221 63.4085 58.0218 63.4393 58.0153C63.47 58.0088 63.4992 57.9964 63.5251 57.9786L63.5307 57.9749L63.5464 57.9645Z" fill="#0C0C0C"/>
<path d="M56.9262 58.8794C56.1032 58.7157 55.2514 58.7758 54.4596 59.0536C54.0682 59.1884 53.6993 59.3812 53.3651 59.6255C53.0323 59.8667 52.7312 60.1489 52.4689 60.4655C52.4424 60.4969 52.4291 60.5374 52.4319 60.5785C52.4346 60.6195 52.4531 60.6579 52.4835 60.6856C52.5139 60.7133 52.5539 60.7282 52.595 60.7271C52.6361 60.7259 52.6752 60.709 52.7041 60.6797L52.7125 60.6709C52.9655 60.3858 53.2534 60.1337 53.5693 59.9204C53.8819 59.7072 54.225 59.5424 54.5868 59.4317C55.3051 59.206 56.0703 59.1747 56.8045 59.341L56.8227 59.3457C56.8843 59.3606 56.9493 59.3504 57.0034 59.3174C57.0576 59.2844 57.0964 59.2312 57.1113 59.1696C57.1262 59.108 57.116 59.043 57.083 58.9888C57.05 58.9347 56.9969 58.8959 56.9352 58.881L56.9262 58.8794Z" fill="#0C0C0C"/>
<path d="M42.8861 64.0541C47.7577 62.2404 49.3744 58.8763 49.8722 56.3728C50.1944 54.7032 50.1643 52.9847 49.7837 51.3274L49.633 51.369C50.0079 53.0047 50.0368 54.7006 49.7181 56.3481C49.2265 58.8107 47.633 62.1209 42.8314 63.908L42.8861 64.0541Z" fill="#0C0C0C"/>
<path d="M81.3476 91.3595L127.605 106.822L114.024 112.858L137.089 65.5403L155.94 74.3254L134.539 122.419C133.457 124.851 131.536 126.812 129.126 127.945C126.717 129.077 123.981 129.305 121.418 128.586L120.958 128.456L74.0006 115.273L81.3476 91.3595Z" fill="#367CFF"/>
<path d="M52.2691 98.5545C41.6084 98.052 41.1597 89.0037 41.1597 89.0037C41.1597 89.0037 35.8775 89.3451 32.3662 89.8201C26.6175 90.5978 22.825 92.5472 19.8068 95.5651C16.9994 98.3728 15.2902 101.41 17.0988 120.804C18.4084 134.846 17.4869 165.732 17.4869 165.732H82.4508C82.4508 165.732 86.9872 121.11 87.525 114.79C88.5513 102.723 91.451 100.059 85.5759 93.843C81.3154 89.3351 70.3161 89.0037 65.8888 89.0043C65.8166 89.0043 66.7872 99.239 52.2691 98.5545Z" fill="#367CFF"/>
<path d="M64.7459 70.8275C62.6512 71.8926 60.2613 72.2294 57.9537 71.7847C57.8738 71.7697 57.7913 71.7777 57.7159 71.8079C57.6404 71.8381 57.575 71.8891 57.5275 71.955C57.4799 72.0209 57.452 72.099 57.4472 72.1801C57.4423 72.2612 57.4606 72.3421 57.5 72.4132C58.1879 73.6252 59.8196 75.6966 62.6189 74.8523C64.4264 74.3069 65.1096 72.4476 65.3629 71.2972C65.3802 71.2176 65.3745 71.1347 65.3463 71.0583C65.3182 70.9819 65.2688 70.9151 65.204 70.8658C65.1392 70.8165 65.0617 70.7867 64.9806 70.7799C64.8994 70.7731 64.818 70.7896 64.7459 70.8275Z" fill="white"/>
<path d="M64.8768 61.5114C65.4359 61.5114 65.8891 61.0582 65.8891 60.4992C65.8891 59.9402 65.4359 59.487 64.8768 59.487C64.3178 59.487 63.8646 59.9402 63.8646 60.4992C63.8646 61.0582 64.3178 61.5114 64.8768 61.5114Z" fill="#0C0C0C"/>
<path d="M55.1506 63.2141C55.7097 63.2141 56.1629 62.7609 56.1629 62.2019C56.1629 61.6429 55.7097 61.1897 55.1506 61.1897C54.5916 61.1897 54.1384 61.6429 54.1384 62.2019C54.1384 62.7609 54.5916 63.2141 55.1506 63.2141Z" fill="#0C0C0C"/>
<path d="M87.3806 119.186C87.374 119.187 87.3674 119.187 87.3609 119.186C87.3198 119.181 87.2825 119.16 87.257 119.127C87.2316 119.095 87.2201 119.053 87.2252 119.012L88.2311 110.857C88.2333 110.837 88.2395 110.817 88.2495 110.799C88.2595 110.781 88.2731 110.765 88.2893 110.753C88.3056 110.74 88.3243 110.731 88.3442 110.725C88.3641 110.72 88.3849 110.719 88.4053 110.722C88.4257 110.724 88.4454 110.731 88.4633 110.741C88.4811 110.751 88.4969 110.765 88.5095 110.781C88.5221 110.797 88.5314 110.816 88.5369 110.835C88.5424 110.855 88.5439 110.876 88.5413 110.896L87.5354 119.051C87.5304 119.088 87.5119 119.123 87.4835 119.148C87.455 119.172 87.4184 119.186 87.3806 119.186Z" fill="#0C0C0C"/>
<path d="M251.819 56.2637C251.819 56.2637 247.944 51.9118 248.394 43.7619C248.742 37.4515 253.609 42.5548 253.609 42.5548C253.609 42.5548 253.904 38.0135 257.039 39.0948C260.173 40.1761 261.054 45.1837 261.054 45.1837" fill="#0C0C0C"/>
<path d="M273.598 42.9335C273.598 42.9335 289.25 47.8364 279.148 68.3562L277.714 68.1686L274.803 67.7887" fill="#0C0C0C"/>
<path d="M251.332 89.7506C251.404 89.7412 252.199 102.944 267.537 101.793C278.155 100.997 281.94 89.7322 282.184 89.7322C281.039 89.4886 279.111 89.1349 278.603 88.8635C276.931 87.9651 274.862 87.0304 274.323 83.7836C274.013 81.9121 274.539 72.3387 274.377 70.445L258.079 74.0827C258.307 78.0815 259.901 87.3519 254.314 88.9926C253.384 89.2641 252.382 89.5136 251.332 89.7506Z" fill="#E98862"/>
<path opacity="0.52" d="M257.851 85.2043C258.106 84.3814 258.27 83.5331 258.341 82.6745C258.52 80.7154 258.484 78.7424 258.234 76.791C261.547 76.344 264.668 74.9768 267.242 72.8447C267.545 73.9623 269.209 78.8461 268.748 79.9084C267.877 81.9162 263.784 85.2043 257.851 85.2043Z" fill="#0C0C0C"/>
<path d="M259.805 80.7333C266.223 81.4247 274.564 78.9447 276.38 70.4067L278.018 62.7026C279.832 54.1659 276.82 46.2898 268.781 44.5809C260.742 42.872 253.262 48.5163 251.447 57.0543L250.721 60.4649C250.493 61.6403 250.345 62.8299 250.278 64.0254C250.078 67.1836 249.787 71.9883 251.244 75.5681C252.62 78.9478 255.704 80.2915 259.805 80.7333Z" fill="#E98862"/>
<path d="M254.706 61.0638C255.265 61.0638 255.719 60.6106 255.719 60.0516C255.719 59.4926 255.265 59.0394 254.706 59.0394C254.147 59.0394 253.694 59.4926 253.694 60.0516C253.694 60.6106 254.147 61.0638 254.706 61.0638Z" fill="#0C0C0C"/>
<path d="M264.32 62.0759C264.879 62.0759 265.332 61.6227 265.332 61.0637C265.332 60.5046 264.879 60.0515 264.32 60.0515C263.761 60.0515 263.308 60.5046 263.308 61.0637C263.308 61.6227 263.761 62.0759 264.32 62.0759Z" fill="#0C0C0C"/>
<path d="M275.328 72.9017C277.771 73.4211 280.307 71.2285 280.826 68.7853C281.346 66.3422 279.651 64.5741 277.209 64.0547L275.602 65.4241L273.227 72.4552L275.328 72.9017Z" fill="#E98862"/>
<path d="M273.677 68.4804C273.677 68.4804 275.264 56.2034 271.741 54.7234C269.395 53.7377 262.771 56.0248 257.485 53.8819C255.173 52.9438 252.772 53.0845 252.314 54.1736C252.132 54.6049 251.923 47.8461 256.664 43.6934C260.439 40.3869 270.466 41.2397 274.673 43.4092C286.321 49.4159 277.609 64.6889 277.609 64.6889L276.225 68.754L273.677 68.4804Z" fill="#0C0C0C"/>
<g opacity="0.52">
<path d="M257.34 69.3587L257.324 69.3562C256.536 69.1908 255.233 68.8246 255.356 68.2364C255.459 67.7483 257.901 62.7582 258.18 62.191C258.204 62.1422 258.246 62.1049 258.298 62.0873C258.349 62.0697 258.405 62.0732 258.454 62.0972C258.503 62.1211 258.54 62.1634 258.558 62.2148C258.575 62.2663 258.572 62.3226 258.548 62.3714C257.464 64.5809 255.827 67.9888 255.757 68.3206C255.806 68.4769 256.592 68.7837 257.408 68.9547C257.459 68.9662 257.504 68.9969 257.533 69.0404C257.562 69.084 257.574 69.1371 257.565 69.1889C257.556 69.2406 257.528 69.2871 257.486 69.3187C257.444 69.3503 257.392 69.3646 257.34 69.3587Z" fill="#0C0C0C"/>
</g>
<path d="M257.158 56.8851C256.384 56.4945 255.519 56.3199 254.654 56.3794C254.229 56.4062 253.811 56.4965 253.412 56.6474C253.018 56.7949 252.645 56.9916 252.3 57.2328C252.242 57.2695 252.202 57.3274 252.186 57.394C252.171 57.4605 252.182 57.5305 252.218 57.5887C252.254 57.6469 252.311 57.6886 252.378 57.7049C252.444 57.7213 252.514 57.7108 252.573 57.6759L252.591 57.6656C252.907 57.4696 253.246 57.3141 253.601 57.2028C253.951 57.091 254.316 57.0329 254.683 57.0305C255.409 57.0198 256.124 57.2012 256.757 57.5561L256.781 57.5702C256.825 57.5966 256.875 57.614 256.926 57.6213C256.977 57.6287 257.029 57.6259 257.079 57.613C257.129 57.6002 257.176 57.5776 257.217 57.5465C257.258 57.5155 257.293 57.4766 257.319 57.4321C257.345 57.3876 257.362 57.3384 257.369 57.2872C257.376 57.2361 257.373 57.1841 257.36 57.1342C257.346 57.0844 257.324 57.0376 257.292 56.9966C257.261 56.9556 257.222 56.9212 257.177 56.8954L257.158 56.8851Z" fill="#0C0C0C"/>
<path d="M262.946 58.4496C263.649 58.2692 264.387 58.2777 265.086 58.4743C265.44 58.5712 265.777 58.721 266.087 58.9186C266.401 59.1175 266.689 59.355 266.944 59.6256L266.958 59.6397C267.006 59.6864 267.071 59.7128 267.138 59.7132C267.205 59.7136 267.27 59.688 267.318 59.6419C267.367 59.5958 267.396 59.5326 267.399 59.4655C267.403 59.3984 267.38 59.3327 267.336 59.282C267.065 58.9604 266.754 58.6743 266.412 58.4305C266.066 58.1825 265.684 57.9877 265.28 57.8526C264.46 57.5724 263.579 57.5184 262.731 57.6963C262.681 57.7072 262.633 57.7279 262.591 57.7573C262.549 57.7866 262.513 57.8239 262.485 57.8672C262.429 57.9545 262.41 58.0605 262.432 58.1619C262.454 58.2633 262.516 58.3517 262.603 58.4078C262.69 58.4638 262.796 58.4829 262.898 58.4608L262.918 58.4558L262.946 58.4496Z" fill="#0C0C0C"/>
<path d="M256.101 71.2528C258.381 71.8224 260.786 71.616 262.935 70.6661C263.01 70.6337 263.092 70.6231 263.172 70.6356C263.252 70.6481 263.327 70.6832 263.389 70.7367C263.45 70.7903 263.494 70.8602 263.517 70.9381C263.54 71.0161 263.54 71.099 263.518 71.1771C263.118 72.5127 261.992 74.8983 259.075 74.7006C257.191 74.5737 256.109 72.9142 255.604 71.8497C255.569 71.7759 255.556 71.6936 255.566 71.6126C255.576 71.5316 255.609 71.4552 255.662 71.3924C255.714 71.3297 255.783 71.2832 255.861 71.2584C255.939 71.2337 256.022 71.2317 256.101 71.2528Z" fill="white"/>
<path d="M265.148 45.4425C266.237 42.8853 265.712 40.2122 263.974 39.4721C262.237 38.732 259.945 40.205 258.856 42.7623C257.767 45.3195 258.292 47.9926 260.029 48.7327C261.767 49.4728 264.058 47.9998 265.148 45.4425Z" fill="#0C0C0C"/>
<path d="M267.775 98.5545C278.436 98.052 278.884 89.0037 278.884 89.0037C278.884 89.0037 284.167 89.3451 287.678 89.8201C293.427 90.5978 297.219 92.5472 300.237 95.5651C303.045 98.3728 304.754 101.41 302.945 120.804C301.636 134.846 302.558 165.732 302.558 165.732H237.594C237.594 165.732 233.057 121.111 232.519 114.79C231.493 102.723 228.593 100.059 234.468 93.843C238.729 89.3351 249.728 89.0037 254.156 89.0043C254.227 89.0043 253.258 99.239 267.775 98.5545Z" fill="#367CFF"/>
<path d="M232.366 96.6376L215.57 132.246L182.447 107.337L169.291 124.832L213.151 157.814C213.543 158.106 213.953 158.373 214.378 158.615C215.632 159.317 217.011 159.765 218.437 159.934C219.864 160.103 221.31 159.99 222.692 159.6C224.075 159.21 225.367 158.552 226.495 157.663C227.624 156.774 228.566 155.671 229.268 154.418L229.458 154.079L255.083 108.341L232.366 96.6376Z" fill="#367CFF"/>
<path d="M305.05 166.045H9.20784C9.12491 166.045 9.04537 166.012 8.98673 165.953C8.92809 165.895 8.89514 165.815 8.89514 165.732C8.89514 165.649 8.92809 165.57 8.98673 165.511C9.04537 165.453 9.12491 165.42 9.20784 165.42H305.05C305.133 165.42 305.213 165.453 305.271 165.511C305.33 165.57 305.363 165.649 305.363 165.732C305.363 165.815 305.33 165.895 305.271 165.953C305.213 166.012 305.133 166.045 305.05 166.045Z" fill="#292A2E"/>
<path d="M240.702 119.221H82.2814V173.372H240.702V119.221Z" fill="white"/>
<path d="M240.858 173.528H82.125V119.064H240.858V173.528ZM82.4377 173.216H240.546V119.377H82.4377V173.216Z" fill="#0C0C0C"/>
<path d="M74.4587 135.77L84.2378 131.403C84.4527 131.307 84.6852 131.257 84.9205 131.255C85.1559 131.254 85.3889 131.302 85.6047 131.396C85.8205 131.49 86.0144 131.628 86.1741 131.8C86.3338 131.973 86.4557 132.178 86.5321 132.4C86.6604 132.815 86.63 133.264 86.4467 133.658C86.2634 134.052 85.9402 134.364 85.5399 134.533L83.4429 135.471L91.389 135.553C92.2727 135.547 93.3609 136.104 93.3027 137.096C93.3053 137.479 93.1779 137.851 92.9414 138.153C92.705 138.454 92.3733 138.667 92.0006 138.755C92.0028 138.763 92.0041 138.772 92.0044 138.781C92.0035 138.787 92.0021 138.793 92.0003 138.8L93.3631 138.79C93.6153 138.788 93.8646 138.843 94.0931 138.95C94.3215 139.057 94.5232 139.213 94.6835 139.408C94.8438 139.603 94.9587 139.831 95.0198 140.075C95.0809 140.32 95.0866 140.575 95.0367 140.823C94.9498 141.21 94.7323 141.557 94.4205 141.804C94.1088 142.05 93.7218 142.183 93.3243 142.178L92.7445 142.182C92.7369 142.199 92.7263 142.214 92.7133 142.227C93.1056 142.316 93.4538 142.54 93.6956 142.862C93.9374 143.183 94.0571 143.58 94.0332 143.981C93.9944 144.42 93.7916 144.828 93.4653 145.123C93.139 145.419 92.7133 145.58 92.273 145.576L90.8327 145.586C90.8529 145.6 90.8696 145.619 90.8813 145.641C90.893 145.662 90.8995 145.687 90.9002 145.711C90.8989 145.741 90.8892 145.769 90.8721 145.794C91.1998 145.969 91.4607 146.247 91.6148 146.586C91.7689 146.924 91.8075 147.304 91.7248 147.666C91.6302 148.045 91.4105 148.38 91.1013 148.619C90.7921 148.857 90.4116 148.984 90.0212 148.979L77.8696 149.066C76.1698 149.078 74.5051 148.582 73.0888 147.642C71.6725 146.702 70.5693 145.361 69.9204 143.789C69.3609 142.435 69.3517 140.915 69.8947 139.554C70.4378 138.192 71.4902 137.096 72.8285 136.498L74.4587 135.77Z" fill="#E98862"/>
<g opacity="0.2">
<path d="M84.1349 138.712C84.1355 138.753 84.1522 138.792 84.1814 138.821C84.2107 138.85 84.2501 138.866 84.2912 138.866L91.848 138.934C91.8895 138.934 91.9294 138.918 91.959 138.889C91.9886 138.86 92.0054 138.82 92.0058 138.779C92.0061 138.737 91.99 138.697 91.961 138.668C91.9319 138.638 91.8923 138.621 91.8508 138.621L84.2941 138.553C84.2526 138.553 84.2128 138.569 84.1835 138.599C84.1542 138.628 84.1377 138.668 84.1377 138.709L84.1349 138.712Z" fill="#0C0C0C"/>
</g>
<g opacity="0.2">
<path d="M84.013 142.045C84.0136 142.086 84.0303 142.125 84.0596 142.154C84.0889 142.183 84.1283 142.199 84.1694 142.199L92.6027 142.275C92.6441 142.275 92.6839 142.259 92.7132 142.229C92.7425 142.2 92.759 142.16 92.759 142.119C92.7576 142.078 92.7407 142.039 92.7117 142.01C92.6826 141.981 92.6437 141.964 92.6027 141.962L84.1694 141.886C84.1487 141.886 84.1282 141.89 84.1091 141.898C84.0899 141.906 84.0725 141.917 84.0578 141.932C84.0431 141.946 84.0315 141.963 84.0235 141.982C84.0156 142.002 84.0115 142.022 84.0115 142.043L84.013 142.045Z" fill="#0C0C0C"/>
</g>
<g opacity="0.2">
<path d="M83.86 145.652C83.8606 145.693 83.8773 145.732 83.9065 145.761C83.9358 145.79 83.9752 145.806 84.0163 145.806L90.7435 145.866C90.785 145.867 90.8249 145.851 90.8545 145.822C90.8841 145.792 90.9009 145.753 90.9013 145.711C90.9016 145.67 90.8855 145.63 90.8565 145.6C90.8274 145.571 90.7878 145.554 90.7463 145.554L84.0192 145.493C83.9777 145.493 83.9379 145.509 83.9086 145.539C83.8793 145.568 83.8628 145.608 83.8628 145.649L83.86 145.652Z" fill="#0C0C0C"/>
</g>
<path d="M77.2578 153.182L23.0393 165.508C21.2381 165.704 19.4161 165.48 17.716 164.853C16.016 164.227 14.4842 163.215 13.2409 161.897C11.9976 160.579 11.0766 158.991 10.5501 157.257C10.0237 155.524 9.9061 153.692 10.2066 151.905L16.4113 101.998C16.9273 98.9308 18.6405 96.1945 21.174 94.3907C23.7076 92.5869 26.8539 91.8635 29.9208 92.3795C32.9877 92.8955 35.7241 94.6087 37.5278 97.1423C39.3316 99.6758 40.0551 102.822 39.539 105.889L36.5512 141.611L74.2205 133.086L77.2578 153.182Z" fill="#367CFF"/>
<path d="M28.9284 143.014C28.8891 143.014 28.8514 142.999 28.8228 142.972C28.7941 142.945 28.7766 142.909 28.7737 142.869C28.7709 142.83 28.7828 142.791 28.8072 142.761C28.8317 142.73 28.8668 142.709 28.9055 142.703L36.4607 141.09C36.4811 141.087 36.5018 141.088 36.5219 141.093C36.5419 141.097 36.5607 141.106 36.5773 141.118C36.5938 141.131 36.6078 141.146 36.6183 141.164C36.6287 141.182 36.6356 141.201 36.6384 141.222C36.6445 141.263 36.6341 141.304 36.6094 141.338C36.5848 141.371 36.548 141.393 36.507 141.399L28.9518 143.012C28.9441 143.014 28.9362 143.014 28.9284 143.014Z" fill="#0C0C0C"/>
<path d="M24.6659 165.732C24.6244 165.735 24.5836 165.721 24.5523 165.694C24.5211 165.666 24.502 165.628 24.4994 165.586C24.4967 165.545 24.5105 165.504 24.538 165.473C24.5654 165.441 24.6041 165.422 24.6455 165.42L76.9175 153.108L73.9556 133.314L36.511 141.398C36.4868 141.401 36.4622 141.398 36.4392 141.39C36.4161 141.382 36.3952 141.369 36.3781 141.351C36.3611 141.334 36.3484 141.312 36.3411 141.289C36.3338 141.265 36.3322 141.241 36.3362 141.217L38.4367 120.806C38.4398 120.786 38.447 120.767 38.4578 120.749C38.4686 120.731 38.4828 120.716 38.4996 120.704C38.5164 120.692 38.5354 120.684 38.5556 120.679C38.5757 120.675 38.5965 120.675 38.6168 120.678C38.6577 120.685 38.6941 120.708 38.7182 120.742C38.7422 120.776 38.7519 120.817 38.745 120.858L36.6811 141.059L74.0284 132.969C74.0485 132.964 74.0695 132.962 74.0902 132.965C74.1109 132.968 74.1308 132.974 74.1488 132.985C74.1668 132.996 74.1825 133.01 74.195 133.026C74.2075 133.043 74.2165 133.062 74.2217 133.082L77.2589 153.181C77.2685 153.22 77.2624 153.262 77.2418 153.297C77.2212 153.332 77.1877 153.357 77.1486 153.368L24.6862 165.731C24.6795 165.732 24.6727 165.732 24.6659 165.732Z" fill="#0C0C0C"/>
<path d="M245.585 145.151L235.806 140.784C235.591 140.688 235.359 140.638 235.124 140.636C234.888 140.635 234.655 140.683 234.439 140.777C234.224 140.871 234.03 141.009 233.87 141.182C233.71 141.354 233.589 141.559 233.512 141.781C233.384 142.196 233.414 142.645 233.598 143.039C233.781 143.433 234.104 143.745 234.504 143.914L236.601 144.852L228.655 144.934C227.772 144.928 226.683 145.485 226.742 146.477C226.739 146.86 226.866 147.233 227.103 147.534C227.339 147.835 227.671 148.048 228.044 148.136C228.041 148.145 228.04 148.153 228.04 148.162C228.041 148.168 228.042 148.174 228.044 148.181L226.681 148.171C226.429 148.169 226.18 148.224 225.951 148.331C225.723 148.438 225.521 148.594 225.361 148.789C225.2 148.984 225.085 149.212 225.024 149.456C224.963 149.701 224.957 149.956 225.007 150.204C225.094 150.591 225.312 150.938 225.624 151.184C225.935 151.431 226.322 151.563 226.72 151.559L227.3 151.563C227.308 151.58 227.318 151.595 227.331 151.609C226.939 151.697 226.591 151.921 226.349 152.243C226.107 152.564 225.987 152.961 226.011 153.362C226.05 153.801 226.253 154.209 226.579 154.504C226.905 154.8 227.331 154.961 227.772 154.957L229.212 154.967C229.192 154.981 229.175 155 229.163 155.022C229.151 155.043 229.145 155.068 229.144 155.092C229.145 155.122 229.155 155.15 229.172 155.175C228.845 155.35 228.584 155.628 228.43 155.967C228.276 156.305 228.237 156.685 228.319 157.047C228.414 157.426 228.634 157.762 228.943 158C229.252 158.238 229.633 158.365 230.023 158.36L242.175 158.447C243.875 158.459 245.54 157.963 246.956 157.023C248.372 156.083 249.476 154.741 250.124 153.17C250.684 151.815 250.693 150.295 250.15 148.934C249.607 147.572 248.554 146.476 247.216 145.878L245.585 145.151Z" fill="#E98862"/>
<g opacity="0.2">
<path d="M235.909 148.093C235.909 148.134 235.892 148.173 235.863 148.202C235.833 148.231 235.794 148.247 235.753 148.247L228.196 148.315C228.175 148.315 228.155 148.311 228.136 148.304C228.117 148.296 228.1 148.285 228.085 148.27C228.07 148.256 228.059 148.239 228.051 148.22C228.043 148.201 228.038 148.181 228.038 148.16C228.038 148.139 228.042 148.119 228.05 148.1C228.057 148.081 228.069 148.064 228.083 148.049C228.097 148.034 228.115 148.023 228.133 148.015C228.152 148.007 228.173 148.002 228.193 148.002L235.75 147.934C235.791 147.934 235.831 147.951 235.86 147.98C235.89 148.009 235.906 148.049 235.906 148.09L235.909 148.093Z" fill="#0C0C0C"/>
</g>
<g opacity="0.2">
<path d="M236.031 151.426C236.031 151.467 236.014 151.506 235.985 151.535C235.956 151.563 235.917 151.58 235.876 151.58L227.443 151.656C227.401 151.656 227.362 151.64 227.332 151.61C227.303 151.581 227.286 151.541 227.286 151.5C227.288 151.459 227.305 151.42 227.334 151.391C227.363 151.362 227.402 151.345 227.443 151.343L235.876 151.267C235.917 151.267 235.957 151.284 235.987 151.313C236.016 151.343 236.032 151.382 236.032 151.424L236.031 151.426Z" fill="#0C0C0C"/>
</g>
<g opacity="0.2">
<path d="M236.184 155.033C236.184 155.074 236.167 155.113 236.138 155.142C236.108 155.171 236.069 155.187 236.028 155.187L229.301 155.247C229.28 155.248 229.26 155.244 229.241 155.236C229.222 155.228 229.204 155.217 229.19 155.203C229.175 155.188 229.163 155.171 229.155 155.152C229.147 155.133 229.143 155.113 229.143 155.093C229.143 155.072 229.147 155.052 229.154 155.033C229.162 155.014 229.173 154.996 229.188 154.982C229.202 154.967 229.219 154.955 229.238 154.947C229.257 154.939 229.277 154.935 229.298 154.935L236.025 154.874C236.067 154.874 236.106 154.891 236.136 154.92C236.165 154.949 236.181 154.989 236.181 155.03L236.184 155.033Z" fill="#0C0C0C"/>
</g>
<path d="M245.913 162.563L297.005 165.508C298.806 165.704 300.628 165.48 302.328 164.853C304.028 164.227 305.56 163.215 306.803 161.897C308.047 160.579 308.968 158.991 309.494 157.257C310.021 155.524 310.138 153.692 309.838 151.905L303.634 101.996C303.379 100.478 302.827 99.0241 302.009 97.7189C301.192 96.4137 300.126 95.2822 298.871 94.3891C297.617 93.4959 296.199 92.8586 294.698 92.5136C293.197 92.1685 291.643 92.1224 290.125 92.3779C288.606 92.6334 287.153 93.1855 285.847 94.0027C284.542 94.8199 283.411 95.8861 282.518 97.1406C281.625 98.3951 280.987 99.8132 280.642 101.314C280.297 102.815 280.251 104.369 280.506 105.887L283.494 143.798L246.138 142.465L245.913 162.563Z" fill="#367CFF"/>
<path d="M291.116 143.64C291.155 143.639 291.193 143.624 291.221 143.598C291.25 143.571 291.268 143.534 291.271 143.495C291.274 143.456 291.262 143.417 291.237 143.386C291.213 143.355 291.178 143.335 291.139 143.329L283.584 143.279C283.563 143.276 283.543 143.277 283.523 143.281C283.502 143.286 283.484 143.295 283.467 143.307C283.45 143.32 283.437 143.335 283.426 143.353C283.415 143.37 283.409 143.39 283.406 143.41C283.4 143.451 283.41 143.493 283.435 143.527C283.459 143.56 283.496 143.582 283.537 143.588L291.093 143.638C291.1 143.639 291.108 143.64 291.116 143.64Z" fill="#0C0C0C"/>
<path d="M295.379 165.732C295.42 165.735 295.461 165.721 295.492 165.694C295.523 165.666 295.543 165.627 295.545 165.586C295.548 165.545 295.534 165.504 295.506 165.473C295.479 165.441 295.44 165.422 295.399 165.42L246.253 162.491L246.401 142.697L283.532 143.588C283.557 143.591 283.581 143.588 283.604 143.58C283.627 143.572 283.648 143.559 283.665 143.541C283.682 143.524 283.695 143.502 283.702 143.479C283.71 143.456 283.711 143.431 283.707 143.407L281.607 120.808C281.604 120.787 281.597 120.768 281.586 120.75C281.575 120.733 281.561 120.718 281.544 120.706C281.527 120.694 281.508 120.685 281.488 120.681C281.468 120.676 281.447 120.676 281.427 120.679C281.407 120.683 281.387 120.69 281.37 120.701C281.352 120.712 281.337 120.726 281.325 120.743C281.313 120.76 281.305 120.779 281.3 120.799C281.296 120.819 281.295 120.839 281.298 120.86L283.364 143.249L246.329 142.352C246.309 142.346 246.288 142.345 246.267 142.347C246.247 142.35 246.227 142.357 246.209 142.367C246.191 142.378 246.175 142.392 246.163 142.409C246.15 142.425 246.141 142.444 246.136 142.464L245.913 162.563C245.903 162.602 245.909 162.644 245.93 162.679C245.951 162.714 245.984 162.74 246.023 162.75L295.357 165.729C295.364 165.731 295.372 165.732 295.379 165.732Z" fill="#0C0C0C"/>
<path d="M119.84 154.652H115.687L113.358 145.617C113.271 145.295 113.124 144.631 112.917 143.623C112.709 142.615 112.589 141.939 112.558 141.593C112.511 142.017 112.393 142.697 112.205 143.634C112.016 144.572 111.871 145.24 111.77 145.64L109.452 154.652H105.311L100.923 137.453H104.511L106.711 146.841C107.095 148.575 107.374 150.076 107.546 151.347C107.593 150.9 107.701 150.208 107.87 149.271C108.038 148.333 108.197 147.606 108.346 147.088L110.852 137.453H114.299L116.804 147.088C116.914 147.52 117.051 148.178 117.216 149.064C117.381 149.95 117.506 150.711 117.592 151.347C117.67 150.736 117.795 149.973 117.967 149.059C118.139 148.145 118.295 147.406 118.436 146.841L120.625 137.454H124.213L119.84 154.652Z" fill="#0CBC8B"/>
<path d="M136.286 154.652H126.38V137.453H136.286V140.441H130.028V144.218H135.851V147.204H130.028V151.64H136.286V154.652Z" fill="#0CBC8B"/>
<path d="M139.874 154.652V137.453H143.521V151.641H150.497V154.653L139.874 154.652Z" fill="#0CBC8B"/>
<path d="M160.792 140.24C160.173 140.212 159.558 140.339 159.001 140.609C158.444 140.879 157.963 141.284 157.602 141.787C156.849 142.819 156.473 144.256 156.473 146.099C156.473 149.935 157.912 151.853 160.79 151.853C162.293 151.794 163.776 151.488 165.179 150.946V154.005C163.676 154.61 162.069 154.91 160.449 154.887C157.948 154.887 156.034 154.128 154.708 152.61C153.382 151.093 152.719 148.914 152.72 146.075C152.684 144.455 153.018 142.847 153.696 141.375C154.298 140.084 155.276 139.006 156.502 138.281C157.808 137.541 159.29 137.169 160.79 137.205C162.538 137.223 164.259 137.638 165.825 138.417L164.648 141.381C164.016 141.08 163.368 140.813 162.707 140.581C162.092 140.36 161.445 140.245 160.792 140.24Z" fill="#0CBC8B"/>
<path d="M184.449 146.028C184.449 148.875 183.743 151.063 182.332 152.593C180.92 154.122 178.896 154.887 176.261 154.887C173.626 154.887 171.603 154.122 170.191 152.593C168.779 151.064 168.073 148.868 168.073 146.005C168.073 143.142 168.781 140.956 170.197 139.446C171.612 137.937 173.642 137.182 176.284 137.181C178.927 137.181 180.949 137.942 182.349 139.464C183.75 140.986 184.45 143.174 184.449 146.028ZM171.897 146.028C171.897 147.95 172.261 149.397 172.991 150.369C173.721 151.342 174.811 151.828 176.261 151.828C179.171 151.828 180.626 149.895 180.626 146.028C180.626 142.154 179.179 140.217 176.285 140.217C174.834 140.217 173.74 140.705 173.001 141.681C172.263 142.658 171.895 144.107 171.897 146.028Z" fill="#0CBC8B"/>
<path d="M195.296 154.652L191.155 141.158H191.049C191.198 143.903 191.272 145.734 191.273 146.652V154.652H188.014V137.453H192.978L197.049 150.606H197.119L201.437 137.453H206.401V154.652H203.002V146.511C203.002 146.127 203.007 145.684 203.019 145.181C203.03 144.679 203.083 143.346 203.178 141.182H203.072L198.637 154.652H195.296Z" fill="#0CBC8B"/>
<path d="M220.636 154.652H210.73V137.453H220.636V140.441H214.378V144.218H220.201V147.204H214.378V151.64H220.636V154.652Z" fill="#0CBC8B"/>
</svg>
