<?xml version="1.0" standalone="no"?>
<!DOCTYPE svg PUBLIC "-//W3C//DTD SVG 20010904//EN"
 "http://www.w3.org/TR/2001/REC-SVG-20010904/DTD/svg10.dtd">
<svg version="1.0" xmlns="http://www.w3.org/2000/svg"
 width="100.000000pt" height="100.000000pt" viewBox="0 0 100.000000 100.000000"
 preserveAspectRatio="xMidYMid meet">

<g transform="translate(0.000000,100.000000) scale(0.100000,-0.100000)"
fill="#000000" stroke="none">
<path d="M446 958 c-9 -12 -16 -33 -16 -45 0 -18 -11 -28 -52 -47 -58 -26
-121 -85 -137 -129 -6 -16 -11 -65 -12 -110 0 -45 -4 -115 -7 -154 -8 -72 -9
-74 -60 -121 -59 -55 -69 -95 -32 -132 20 -20 30 -21 371 -18 l351 3 20 25
c29 36 17 77 -37 125 -57 50 -65 78 -65 230 0 94 -4 129 -19 160 -22 48 -78
100 -137 125 -36 16 -44 24 -50 55 -7 39 -28 55 -73 55 -20 0 -35 -8 -45 -22z"/>
<path d="M365 118 c13 -44 37 -70 81 -89 37 -17 50 -18 86 -9 49 14 98 62 98
96 l0 24 -136 0 -135 0 6 -22z"/>
</g>
</svg>
