<?xml version="1.0" standalone="no"?>
<!DOCTYPE svg PUBLIC "-//W3C//DTD SVG 20010904//EN"
 "http://www.w3.org/TR/2001/REC-SVG-20010904/DTD/svg10.dtd">
<svg version="1.0" xmlns="http://www.w3.org/2000/svg"
 width="100.000000pt" height="100.000000pt" viewBox="0 0 100.000000 100.000000"
 preserveAspectRatio="xMidYMid meet">

<g transform="translate(0.000000,100.000000) scale(0.100000,-0.100000)"
fill="#000000" stroke="none">
<path d="M310 930 l0 -70 271 0 270 0 -3 43 -3 42 -137 3 -138 3 0 24 0 25
-130 0 -130 0 0 -70z"/>
<path d="M47 943 c-4 -3 -7 -17 -7 -30 0 -22 4 -23 60 -23 l60 0 0 -229 0
-229 -40 -40 c-29 -29 -40 -48 -40 -70 0 -49 17 -81 54 -103 32 -19 34 -22 24
-50 -32 -91 62 -189 158 -165 35 9 81 56 90 92 4 15 3 45 -3 66 l-10 38 148 0
149 0 -10 -26 c-32 -82 30 -174 117 -174 66 0 133 66 133 130 0 39 -33 92 -71
112 -31 16 -63 18 -361 18 -354 0 -358 1 -358 54 0 49 8 51 389 56 l355 5 33
190 c17 105 32 200 32 213 l1 22 -365 0 -365 0 0 75 0 75 -83 0 c-46 0 -87 -3
-90 -7z m536 -375 l-63 -62 -35 34 c-39 37 -43 51 -20 70 13 10 19 9 36 -6 19
-17 21 -17 62 24 l42 42 20 -20 20 -20 -62 -62z m-273 -438 c0 -27 -3 -30 -30
-30 -27 0 -30 3 -30 30 0 27 3 30 30 30 27 0 30 -3 30 -30z m520 0 c0 -27 -3
-30 -30 -30 -27 0 -30 3 -30 30 0 27 3 30 30 30 27 0 30 -3 30 -30z"/>
</g>
</svg>
