<?xml version="1.0" encoding="utf-8"?>
<!-- Generator: Adobe Illustrator 27.5.0, SVG Export Plug-In . SVG Version: 6.00 Build 0)  -->
<svg version="1.1" xmlns="http://www.w3.org/2000/svg" xmlns:xlink="http://www.w3.org/1999/xlink" x="0px" y="0px"
	 viewBox="0 0 500 500" style="enable-background:new 0 0 500 500;" xml:space="preserve">
<g id="Background_Complete">
	<g>
		<g id="Shadow--inject-214">
			<ellipse id="path--inject-214" style="fill:#F5F5F5;" cx="250" cy="431.267" rx="193.89" ry="11.32"/>
		</g>
		<g>
			<path style="fill:#E6E6E6;" d="M238.395,341.53H45.305c-3.15-0.005-5.7-2.56-5.7-5.71V64.39c0.027-3.13,2.57-5.655,5.7-5.66
				h193.09c3.153,0,5.71,2.556,5.71,5.71l0,0v271.38C244.105,338.974,241.548,341.53,238.395,341.53z M45.305,58.93
				c-3.012,0.006-5.45,2.448-5.45,5.46v271.43c0,3.012,2.438,5.454,5.45,5.46h193.09c3.013-0.005,5.454-2.447,5.46-5.46V64.39
				c-0.006-3.013-2.447-5.455-5.46-5.46H45.305z"/>
			<path style="fill:#E6E6E6;" d="M454.705,341.53h-193.1c-3.151-0.005-5.705-2.559-5.71-5.71V64.39
				c0.033-3.132,2.578-5.655,5.71-5.66h193.1c3.126,0.011,5.663,2.534,5.69,5.66v271.43
				C460.395,338.966,457.851,341.519,454.705,341.53z M261.605,58.93c-3.013,0.006-5.455,2.447-5.46,5.46v271.43
				c0.005,3.013,2.447,5.454,5.46,5.46h193.1c3.013-0.005,5.454-2.447,5.46-5.46V64.39c-0.006-3.013-2.447-5.455-5.46-5.46H261.605z
				"/>
		</g>
		<g>
			<rect x="44.73" y="392.21" style="fill:#E0E0E0;" width="41.21" height="0.25"/>
			<rect x="128.61" y="390.21" style="fill:#E0E0E0;" width="41.33" height="0.25"/>
			<rect x="213.72" y="390.21" style="fill:#E0E0E0;" width="10" height="0.25"/>
			<rect x="77.52" y="398.75" style="fill:#E0E0E0;" width="46.25" height="0.25"/>
			<rect x="262.14" y="392.08" style="fill:#E0E0E0;" width="21.6" height="0.25"/>
			<rect x="292.64" y="392.08" style="fill:#E0E0E0;" width="27.93" height="0.25"/>
			<rect x="392.83" y="396.31" style="fill:#E0E0E0;" width="62.44" height="0.25"/>
		</g>
		<rect y="382.398" style="fill:#EBEBEB;" width="500" height="0.25"/>
	</g>
	<g>
		<g>
			<g>
				<g>
					<path style="opacity:0.8;fill:#E0E0E0;" d="M334.835,79.48l-2.492,34.274c-0.084,1.194-0.599,2.278-1.393,3.09
						c-0.915,0.974-2.21,1.583-3.607,1.583H299.85c-1.016,0-1.933-0.322-2.656-0.881c-1.127-0.838-1.8-2.227-1.691-3.793
						l2.492-34.274c0.181-2.582,2.418-4.674,5-4.674h27.491C333.07,74.807,335.015,76.898,334.835,79.48z"/>
				</g>
				<g>
					<path style="fill:#FFFFFF;" d="M322.911,94.997c-0.354,5.056-4.009,9.154-8.164,9.154c-4.155,0-7.237-4.098-6.884-9.154
						c0.354-5.056,4.009-9.154,8.164-9.154C320.182,85.843,323.264,89.942,322.911,94.997z"/>
					<path style="fill:#FFFFFF;" d="M326.377,116.066h-25.159c-1.595,0-2.7-0.765-2.74-1.839c-0.058-1.555,8.101-8.304,15.841-7.719
						c0.028,0.002,0.056,0,0.085,0l0,0c0.031,0,0.062,0,0.092,0c4.742,0.02,9.207,2.025,12.959,4.991
						C331.188,114.45,327.655,116.066,326.377,116.066z"/>
				</g>
			</g>
			<g>
				<g>
					<path style="fill:#E0E0E0;" d="M193.021,117.18c-5.352,0.067-10.065-4.237-10.507-9.593c-0.441-5.357,3.554-9.769,8.906-9.836
						c5.353-0.067,10.066,4.237,10.507,9.594C202.369,112.701,198.374,117.113,193.021,117.18z M191.846,102.913
						c-2.508,0.031-4.38,2.099-4.173,4.609c0.207,2.51,2.415,4.526,4.923,4.495c2.508-0.031,4.38-2.099,4.174-4.609
						C196.563,104.898,194.354,102.882,191.846,102.913z"/>
				</g>
				<g>
					<g>
						<polygon style="fill:#E0E0E0;" points="193.502,102.164 189.818,102.21 187.864,78.493 191.548,78.447 						"/>
					</g>
					<g>
						<g>
							<polygon style="fill:#E0E0E0;" points="195.039,79.511 188.122,79.598 187.818,75.91 194.735,75.824 							"/>
						</g>
						<g>
							<polygon style="fill:#E0E0E0;" points="195.435,84.25 188.931,84.331 188.627,80.643 195.131,80.562 							"/>
						</g>
						<g>
							<polygon style="fill:#E0E0E0;" points="195.996,90.934 190.319,91.005 190.015,87.317 195.693,87.246 							"/>
						</g>
					</g>
				</g>
			</g>
			<g>
				<g>
					<path style="fill:#F0F0F0;" d="M79.309,318.768c0.021,0.3,0.062,0.6,0.112,0.89c0.335,1.93,1.337,3.67,2.728,4.97
						c1.605,1.5,3.74,2.43,6.03,2.43h84.49c4.28,0,7.573-3.24,7.723-7.4c0.01-0.29,0.009-0.59-0.012-0.89
						c-0.16-2.28-1.235-4.36-2.839-5.85c-1.605-1.5-3.74-2.43-6.03-2.43H87.02C82.44,310.488,78.989,314.198,79.309,318.768z"/>
				</g>
				<g>
					<path style="fill:#E0E0E0;" d="M180.388,319.657c-0.005,0.27-0.029,0.54-0.074,0.8c-0.222-2.16-1.278-4.12-2.813-5.54
						c-1.604-1.5-3.737-2.43-6.027-2.43l-89.852,0.14c1.373-1.33,3.267-2.14,5.397-2.14h84.49c2.29,0,4.424,0.93,6.027,2.43
						c1.604,1.49,2.687,3.57,2.847,5.85C180.398,319.067,180.403,319.367,180.388,319.657z"/>
				</g>
				<g>
					<g>
						<path style="fill:#FFFFFF;" d="M165.93,314.484l0.283,4.042l3.788-1.403l0.859,1.995l-3.868,1.276l2.702,3.391l-1.746,1.277
							l-2.63-3.524l-2.101,3.524l-1.87-1.277l2.192-3.391l-4.011-1.276l0.578-1.983l4.019,1.352l-0.28-4.003H165.93z"/>
						<path style="fill:#FFFFFF;" d="M142.823,314.484l0.283,4.042l3.788-1.403l0.859,1.995l-3.868,1.276l2.702,3.391l-1.746,1.277
							l-2.63-3.524l-2.101,3.524l-1.87-1.277l2.192-3.391l-4.011-1.276l0.578-1.983l4.019,1.352l-0.28-4.003H142.823z"/>
						<path style="fill:#FFFFFF;" d="M119.716,314.484l0.283,4.042l3.788-1.403l0.859,1.995l-3.868,1.276l2.702,3.391l-1.746,1.277
							l-2.63-3.524l-2.101,3.524l-1.87-1.277l2.192-3.391l-4.011-1.276l0.578-1.983l4.019,1.352l-0.28-4.003H119.716z"/>
						<path style="fill:#FFFFFF;" d="M96.609,314.484l0.283,4.042l3.788-1.403l0.859,1.995l-3.868,1.276l2.702,3.391l-1.746,1.277
							l-2.63-3.524l-2.101,3.524l-1.87-1.277l2.192-3.391l-4.011-1.276l0.578-1.983l4.019,1.352l-0.28-4.003H96.609z"/>
					</g>
				</g>
				<g>
					<g>
						<polygon style="fill:#E0E0E0;" points="152.735,307.569 148.797,307.569 148.815,306.569 152.752,306.569 						"/>
					</g>
					<g>
						<polygon style="fill:#E0E0E0;" points="169.673,307.569 156.82,307.569 156.837,306.569 169.691,306.569 						"/>
					</g>
				</g>
			</g>
		</g>
		<g style="opacity:0.8;">
			<path style="fill:#E0E0E0;" d="M269.385,302.527l15.934,24.532l52.558-52.558c0.462-0.462-0.175-1.181-0.689-0.778L287.1,312.982
				l-9.459-15.251L269.385,302.527z"/>
		</g>
	</g>
</g>
<g id="Background_Simple_1_" style="display:none;">
	<g style="display:inline;">
		<g>
			<path style="fill:#407BFF;" d="M284.417,83.784c-16.634,14.948-25.176,34.714-34.57,53.53
				c-9.394,18.816-20.88,38.07-41.01,49.662c-14.297,8.233-36.397,4.377-51.833,11.033c-24.85,10.715-34.709,19.807-40.707,42.564
				c-7.133,27.065,47.181,96.099,99.455,112.213c32.035,9.875,76.757,4.932,101.607-14.582
				c24.85-19.514,20.795-57.656,24.973-85.882c3.009-20.323,1.419-41.433,9.746-60.701c7.382-17.079,22.11-31.522,28.726-48.817
				c8.8-23.005,1.007-53.625-21.788-69.674C336.628,57.367,302.493,67.541,284.417,83.784z"/>
		</g>
		<g style="opacity:0.9;">
			<path style="fill:#FFFFFF;stroke:#FFFFFF;stroke-miterlimit:10;" d="M284.417,83.784c-16.634,14.948-25.176,34.714-34.57,53.53
				c-9.394,18.816-20.88,38.07-41.01,49.662c-14.297,8.233-36.397,4.377-51.833,11.033c-24.85,10.715-34.709,19.807-40.707,42.564
				c-7.133,27.065,47.181,96.099,99.455,112.213c32.035,9.875,76.757,4.932,101.607-14.582
				c24.85-19.514,20.795-57.656,24.973-85.882c3.009-20.323,1.419-41.433,9.746-60.701c7.382-17.079,22.11-31.522,28.726-48.817
				c8.8-23.005,1.007-53.625-21.788-69.674C336.628,57.367,302.493,67.541,284.417,83.784z"/>
		</g>
	</g>
</g>
<g id="Shadows_1_">
</g>
<g id="Device_2">
	<g>
		<polygon style="opacity:0.1;fill:#FFFFFF;enable-background:new    ;" points="259.856,127.955 222.117,269.106 234.812,269.106 
			272.135,127.955 		"/>
		<polygon style="opacity:0.1;fill:#FFFFFF;enable-background:new    ;" points="279.449,127.955 241.709,269.106 266.891,269.106 
			304.214,127.955 		"/>
	</g>
	<g>
		<g>
			<g>
				<g>
					<g>
						<g>
							<path style="fill:#263238;" d="M415.31,255.315l7.961-113.304c0.263-3.743-2.573-6.776-6.335-6.772l-197.734,0.172
								c-3.762,0.003-7.025,3.041-7.288,6.784l-7.961,113.304c-0.263,3.743,2.573,6.776,6.335,6.772l197.734-0.172
								C411.784,262.095,415.047,259.058,415.31,255.315z"/>
						</g>
					</g>
				</g>
			</g>
			<g>
				<g>
					<path style="fill:#407BFF;" d="M412.773,252.844l7.961-113.304c0.263-3.743-2.573-6.776-6.335-6.772l-197.734,0.172
						c-3.762,0.003-7.025,3.041-7.288,6.784l-7.961,113.304c-0.263,3.744,2.573,6.776,6.335,6.772l197.734-0.172
						C409.247,259.625,412.51,256.587,412.773,252.844z"/>
					<path style="opacity:0.6;fill:#FFFFFF;" d="M407.531,254.516c-0.282,0.263-0.771,0.578-1.493,0.579l-197.734,0.171
						c-1.33,0.001-2.415-1.157-2.322-2.477l7.961-113.303c0.05-0.712,0.395-1.173,0.677-1.436c0.283-0.263,0.771-0.577,1.493-0.579
						l197.735-0.171c1.33-0.001,2.415,1.156,2.322,2.477l-7.961,113.303C408.157,253.793,407.812,254.254,407.531,254.516z"/>
					<g>
						<path style="fill:#FFFFFF;" d="M341.759,192.229h-69.406c-1.239,0-2.349,1-2.478,2.233l-1.062,10.149
							c-0.129,1.233,0.771,2.233,2.01,2.233h69.406c1.239,0,2.349-1,2.478-2.233l1.062-10.149
							C343.898,193.229,342.998,192.229,341.759,192.229z"/>
						<g>
							<path style="fill:#FFFFFF;" d="M280.608,233.685h-10.831c-1.239,0-2.349,1-2.478,2.233l-1.062,10.149
								c-0.129,1.233,0.771,2.233,2.01,2.233h10.831c1.239,0,2.349-1,2.478-2.233l1.062-10.149
								C282.748,234.685,281.848,233.685,280.608,233.685z"/>
							<path style="fill:#FFFFFF;" d="M299.309,233.685h-10.831c-1.239,0-2.349,1-2.478,2.233l-1.062,10.149
								c-0.129,1.233,0.771,2.233,2.01,2.233h10.831c1.239,0,2.349-1,2.478-2.233l1.062-10.149
								C301.449,234.685,300.549,233.685,299.309,233.685z"/>
							<path style="fill:#FFFFFF;" d="M318.01,233.685h-10.831c-1.239,0-2.349,1-2.478,2.233l-1.062,10.149
								c-0.129,1.233,0.771,2.233,2.01,2.233h10.831c1.239,0,2.349-1,2.478-2.233l1.062-10.149
								C320.15,234.685,319.25,233.685,318.01,233.685z"/>
							<path style="fill:#FFFFFF;" d="M336.711,233.685H325.88c-1.239,0-2.349,1-2.478,2.233l-1.062,10.149
								c-0.129,1.233,0.771,2.233,2.01,2.233h10.831c1.239,0,2.349-1,2.478-2.233l1.062-10.149
								C338.851,234.685,337.951,233.685,336.711,233.685z"/>
						</g>
						<path style="fill:none;stroke:#407BFF;stroke-linecap:round;stroke-linejoin:round;stroke-miterlimit:10;" d="
							M281.059,226.771h43.416c2.111,0,4-1.703,4.22-3.803l0.522-4.983c0.22-2.101-1.313-3.803-3.424-3.803h-43.416
							c-2.111,0-4,1.703-4.22,3.803l-0.521,4.983C277.415,225.068,278.948,226.771,281.059,226.771z"/>
						<path style="fill:#FFFFFF;" d="M344.26,171.094h-69.406c-1.239,0-2.349,1-2.478,2.233l-1.062,10.149
							c-0.129,1.233,0.771,2.233,2.01,2.233h69.406c1.239,0,2.349-1,2.478-2.233l1.062-10.149
							C346.4,172.094,345.499,171.094,344.26,171.094z"/>
						<path style="fill:#263238;" d="M280.793,199.537c0.143-1.365-0.854-2.472-2.225-2.472c-1.372,0-2.6,1.107-2.743,2.472
							c-0.143,1.365,0.854,2.472,2.226,2.472S280.65,200.902,280.793,199.537z"/>
						<path style="fill:#263238;" d="M288.427,199.537c0.143-1.365-0.854-2.472-2.226-2.472c-1.372,0-2.6,1.107-2.743,2.472
							c-0.143,1.365,0.854,2.472,2.225,2.472C287.056,202.009,288.284,200.902,288.427,199.537z"/>
						<path style="fill:#263238;" d="M296.06,199.537c0.143-1.365-0.854-2.472-2.226-2.472c-1.372,0-2.6,1.107-2.743,2.472
							c-0.143,1.365,0.853,2.472,2.226,2.472C294.689,202.009,295.917,200.902,296.06,199.537z"/>
						<path style="fill:#263238;" d="M303.694,199.537c0.143-1.365-0.853-2.472-2.225-2.472s-2.6,1.107-2.743,2.472
							c-0.143,1.365,0.854,2.472,2.226,2.472C302.323,202.009,303.551,200.902,303.694,199.537z"/>
						<path style="fill:#263238;" d="M311.477,199.537c0.143-1.365-0.854-2.472-2.225-2.472c-1.372,0-2.6,1.107-2.743,2.472
							c-0.143,1.365,0.854,2.472,2.226,2.472C310.106,202.009,311.334,200.902,311.477,199.537z"/>
						<path style="fill:#263238;" d="M283.294,178.402c0.143-1.365-0.854-2.472-2.226-2.472c-1.372,0-2.6,1.107-2.743,2.472
							c-0.143,1.365,0.854,2.472,2.225,2.472C281.923,180.875,283.151,179.768,283.294,178.402z"/>
						<path style="fill:#263238;" d="M290.928,178.402c0.143-1.365-0.853-2.472-2.226-2.472c-1.372,0-2.6,1.107-2.743,2.472
							c-0.143,1.365,0.853,2.472,2.225,2.472C289.557,180.875,290.785,179.768,290.928,178.402z"/>
						<path style="fill:#263238;" d="M298.561,178.402c0.143-1.365-0.854-2.472-2.225-2.472c-1.372,0-2.6,1.107-2.743,2.472
							c-0.143,1.365,0.854,2.472,2.225,2.472C297.19,180.875,298.418,179.768,298.561,178.402z"/>
						<path style="fill:#263238;" d="M306.195,178.402c0.143-1.365-0.854-2.472-2.225-2.472c-1.372,0-2.6,1.107-2.743,2.472
							c-0.143,1.365,0.854,2.472,2.226,2.472S306.052,179.768,306.195,178.402z"/>
						<path style="fill:#263238;" d="M313.828,178.402c0.143-1.365-0.854-2.472-2.225-2.472c-1.372,0-2.6,1.107-2.743,2.472
							c-0.143,1.365,0.854,2.472,2.226,2.472C312.457,180.875,313.685,179.768,313.828,178.402z"/>
						<path style="fill:#263238;" d="M321.462,178.402c0.143-1.365-0.854-2.472-2.225-2.472c-1.372,0-2.6,1.107-2.743,2.472
							c-0.143,1.365,0.853,2.472,2.226,2.472C320.091,180.875,321.319,179.768,321.462,178.402z"/>
					</g>
					<g>
						<g>
							<g>
								<path style="fill:#407BFF;" d="M314.978,148.712l-0.541,5.126c-0.049,0.462-0.465,0.836-0.929,0.836
									c-0.464,0-0.801-0.375-0.752-0.836l0.541-5.126c0.175-1.655-1.036-3.003-2.7-3.003h-1.843c-1.663,0-3.159,1.348-3.333,3.003
									l-0.469,4.761h-1.681l0.469-4.761c0.272-2.578,2.601-4.676,5.191-4.676h1.843
									C313.363,144.036,315.25,146.133,314.978,148.712z"/>
							</g>
							<g>
								<g>
									<path style="fill:#407BFF;" d="M315.012,153.65l-1.054,9.987c-0.067,0.632-0.634,1.143-1.269,1.143h-10.035
										c-0.634,0-1.095-0.511-1.028-1.143l1.054-9.987c0.043-0.408,0.297-0.767,0.641-0.968c0.188-0.111,0.404-0.175,0.628-0.175
										h10.035c0.218,0,0.414,0.06,0.576,0.164C314.872,152.871,315.056,153.234,315.012,153.65z"/>
								</g>
							</g>
						</g>
					</g>
				</g>
			</g>
		</g>
		<g>
			
				<line style="fill:none;stroke:#263238;stroke-linecap:round;stroke-linejoin:round;stroke-miterlimit:10;" x1="393.309" y1="132.108" x2="368.872" y2="132.253"/>
			
				<line style="fill:none;stroke:#263238;stroke-linecap:round;stroke-linejoin:round;stroke-miterlimit:10;" x1="406.629" y1="132.042" x2="397.992" y2="132.08"/>
		</g>
		<g style="opacity:0.3;">
			<path style="fill:#FFFFFF;" d="M235.099,137.442h27.976l-28.441,117.825h-22.516c-0.02,0-0.041,0-0.061,0
				c-2.786-0.015-4.752-2.681-4.099-5.387L235.099,137.442z"/>
			<polygon style="fill:#FFFFFF;" points="275.496,137.442 287.373,137.442 258.932,255.267 247.055,255.267 			"/>
		</g>
	</g>
</g>
<g id="Device_1">
	<g>
		<g>
			<g>
				<g>
					<g>
						<path style="fill:#407BFF;" d="M86.654,100.663h5.676c-5.713,0-10.021,4.631-9.621,10.345l12.048,172.298
							c0.399,5.713,5.355,10.345,11.068,10.345h-5.676c-5.713,0-10.668-4.631-11.068-10.345L77.032,111.007
							C76.633,105.294,80.94,100.663,86.654,100.663z"/>
						<path style="fill:#263238;" d="M86.654,100.663h5.676c-5.713,0-10.021,4.631-9.621,10.345l12.048,172.298
							c0.399,5.713,5.355,10.345,11.068,10.345h-5.676c-5.713,0-11.468-4.631-11.868-10.345L76.232,111.007
							C75.833,105.294,80.94,100.663,86.654,100.663z"/>
					</g>
					<path style="fill:#407BFF;" d="M101.841,293.65h69.497c5.713,0,10.021-4.631,9.621-10.345l-12.048-172.298
						c-0.4-5.713-5.355-10.345-11.068-10.345H88.346c-5.713,0-10.021,4.631-9.621,10.345l12.048,172.298
						C91.173,289.018,96.128,293.65,101.841,293.65z"/>
					<g style="opacity:0.6;">
						<path style="fill:#FFFFFF;" d="M157.656,103.982c3.967,0,7.421,3.23,7.698,7.199l12.048,172.297
							c0.129,1.848-0.46,3.574-1.659,4.861c-1.195,1.284-2.868,1.99-4.708,1.99h-69.497c-3.967,0-7.42-3.229-7.698-7.199
							L81.791,110.834c-0.129-1.847,0.46-3.574,1.659-4.861c1.195-1.283,2.868-1.99,4.708-1.99H157.656z"/>
					</g>
					<g style="opacity:0.3;">
						<path style="fill:#FFFFFF;" d="M138.033,290.33h-27.718l22.859-186.348h22.308c2.033,0,3.853,0.852,5.139,2.213
							L138.033,290.33z"/>
						<polygon style="fill:#FFFFFF;" points="105.34,290.33 99.104,290.33 121.963,103.982 128.198,103.982 						"/>
					</g>
					<g>
						
							<line style="fill:none;stroke:#FFFFFF;stroke-linecap:round;stroke-linejoin:round;stroke-miterlimit:10;" x1="103.176" y1="185.404" x2="153.517" y2="185.404"/>
						
							<line style="fill:none;stroke:#FFFFFF;stroke-linecap:round;stroke-linejoin:round;stroke-miterlimit:10;" x1="109.67" y1="192.848" x2="149.102" y2="192.848"/>
					</g>
					<g>
						<g>
							<path style="fill:#407BFF;" d="M104.678,151.078l0.069,1.978h-1.29l-0.069-1.994l-2.284-3.589h1.37l1.576,2.48l1.402-2.48
								h1.267L104.678,151.078z"/>
							<path style="fill:#407BFF;" d="M106.772,150.265c-0.059-1.659,1.188-2.887,2.949-2.887c1.752,0,3.094,1.221,3.152,2.887
								c0.059,1.667-1.197,2.887-2.949,2.887C108.164,153.152,106.831,151.923,106.772,150.265z M111.567,150.265
								c-0.037-1.061-0.812-1.786-1.807-1.786c-0.996,0-1.719,0.726-1.682,1.786c0.037,1.061,0.811,1.787,1.807,1.787
								C110.881,152.051,111.604,151.325,111.567,150.265z"/>
							<path style="fill:#407BFF;" d="M113.814,150.6l-0.109-3.126h1.29l0.107,3.079c0.037,1.061,0.515,1.499,1.296,1.499
								c0.788,0,1.227-0.439,1.19-1.499l-0.107-3.079h1.274l0.109,3.126c0.058,1.643-0.85,2.552-2.435,2.552
								C114.844,153.152,113.872,152.243,113.814,150.6z"/>
							<path style="fill:#407BFF;" d="M123.782,153.056l-1.13-1.555h-0.064h-1.123l0.055,1.555h-1.29l-0.195-5.583h2.413
								c1.49,0,2.448,0.774,2.492,2.026c0.03,0.837-0.37,1.452-1.085,1.763l1.314,1.794H123.782z M122.413,148.526h-1.053
								l0.068,1.946h1.052c0.788,0,1.174-0.367,1.152-0.973C123.611,148.885,123.2,148.526,122.413,148.526z"/>
							<path style="fill:#407BFF;" d="M127.895,150.265c-0.059-1.683,1.189-2.887,2.925-2.887c0.964,0,1.781,0.351,2.329,0.989
								l-0.802,0.766c-0.389-0.431-0.866-0.654-1.424-0.654c-1.044,0-1.759,0.733-1.722,1.786c0.037,1.053,0.803,1.787,1.847,1.787
								c0.558,0,1.02-0.224,1.378-0.662l0.855,0.766c-0.503,0.646-1.295,0.997-2.267,0.997
								C129.287,153.152,127.954,151.947,127.895,150.265z"/>
							<path style="fill:#407BFF;" d="M133.619,150.265c-0.059-1.659,1.189-2.887,2.949-2.887c1.752,0,3.094,1.221,3.152,2.887
								c0.059,1.667-1.197,2.887-2.949,2.887C135.011,153.152,133.678,151.923,133.619,150.265z M138.414,150.265
								c-0.037-1.061-0.812-1.786-1.807-1.786c-0.996,0-1.719,0.726-1.682,1.786c0.037,1.061,0.811,1.787,1.807,1.787
								C137.727,152.051,138.451,151.325,138.414,150.265z"/>
							<path style="fill:#407BFF;" d="M140.6,147.473h2.533c1.823,0,3.112,1.101,3.172,2.792c0.06,1.691-1.153,2.792-2.977,2.792
								h-2.533L140.6,147.473z M143.227,151.995c1.107,0,1.809-0.662,1.771-1.73c-0.037-1.068-0.785-1.73-1.893-1.73h-1.179
								l0.121,3.461H143.227z"/>
							<path style="fill:#407BFF;" d="M151.66,152.019l0.036,1.037h-4.317l-0.195-5.583h4.214l0.036,1.037h-2.932l0.042,1.212h2.589
								l0.036,1.005h-2.589l0.045,1.292H151.66z"/>
						</g>
						<g>
							<path style="fill:#263238;" d="M114.378,173.806l0.04,2.244h-10.527l-0.031-1.774l5.577-5.385
								c1.364-1.326,1.595-2.163,1.58-2.957c-0.022-1.306-0.934-2.061-2.688-2.061c-1.387,0-2.541,0.469-3.319,1.489l-1.882-1.428
								c1.076-1.489,3.04-2.366,5.386-2.366c3.101,0,5.128,1.57,5.172,4.1c0.024,1.387-0.341,2.652-2.288,4.508l-3.751,3.631
								H114.378z"/>
							<path style="fill:#263238;" d="M126.012,171.767c0.042,2.407-1.737,4.487-5.573,4.487c-2.02,0-4.05-0.612-5.394-1.652
								l1.106-2.061c1.034,0.856,2.595,1.408,4.206,1.408c1.897,0,3.005-0.837,2.981-2.162c-0.022-1.286-0.976-2.122-3.138-2.122
								h-1.306l-0.031-1.815l3.175-3.855h-6.487l-0.038-2.223h9.731l0.03,1.774l-3.396,4.121
								C124.579,168.013,125.974,169.624,126.012,171.767z"/>
							<path style="fill:#263238;" d="M139.336,171.95c0.047,2.652-2.23,4.304-5.78,4.304s-5.842-1.652-5.889-4.304
								c-0.027-1.571,0.768-2.733,2.225-3.406c-1.153-0.633-1.804-1.653-1.827-2.999c-0.043-2.448,2.072-3.978,5.234-3.978
								c3.183,0,5.372,1.53,5.415,3.978c0.023,1.346-0.611,2.366-1.763,2.999C138.452,169.217,139.309,170.379,139.336,171.95z
								 M136.662,171.869c-0.025-1.408-1.264-2.285-3.223-2.285c-1.958,0-3.127,0.877-3.102,2.285
								c0.025,1.448,1.224,2.305,3.182,2.305C135.478,174.173,136.687,173.316,136.662,171.869z M130.678,165.667
								c0.021,1.224,1.055,1.999,2.728,1.999c1.693,0,2.721-0.775,2.699-1.999c-0.022-1.285-1.137-2.02-2.769-2.02
								C131.703,163.648,130.655,164.382,130.678,165.667z"/>
							<path style="fill:#263238;" d="M152.637,171.95c0.047,2.652-2.23,4.304-5.78,4.304c-3.55,0-5.842-1.652-5.889-4.304
								c-0.027-1.571,0.768-2.733,2.225-3.406c-1.153-0.633-1.804-1.653-1.827-2.999c-0.043-2.448,2.072-3.978,5.234-3.978
								c3.183,0,5.372,1.53,5.415,3.978c0.024,1.346-0.611,2.366-1.763,2.999C151.753,169.217,152.609,170.379,152.637,171.95z
								 M149.963,171.869c-0.025-1.408-1.264-2.285-3.223-2.285c-1.958,0-3.127,0.877-3.102,2.285
								c0.025,1.448,1.224,2.305,3.182,2.305C148.779,174.173,149.988,173.316,149.963,171.869z M143.978,165.667
								c0.022,1.224,1.055,1.999,2.728,1.999c1.693,0,2.721-0.775,2.699-1.999c-0.022-1.285-1.137-2.02-2.77-2.02
								C145.004,163.648,143.956,164.382,143.978,165.667z"/>
						</g>
					</g>
				</g>
			</g>
			<g>
				
					<line style="fill:none;stroke:#407BFF;stroke-linecap:round;stroke-linejoin:round;stroke-miterlimit:10;" x1="76.719" y1="125.636" x2="78.492" y2="149.807"/>
				
					<line style="fill:none;stroke:#407BFF;stroke-linecap:round;stroke-linejoin:round;stroke-miterlimit:10;" x1="75.911" y1="114.625" x2="76.379" y2="121.004"/>
			</g>
		</g>
		<g>
			
				<line style="fill:none;stroke:#407BFF;stroke-linecap:round;stroke-linejoin:round;stroke-miterlimit:10;" x1="123.37" y1="90.593" x2="123.37" y2="75.877"/>
			
				<line style="fill:none;stroke:#407BFF;stroke-linecap:round;stroke-linejoin:round;stroke-miterlimit:10;" x1="111.721" y1="93.706" x2="104.366" y2="80.97"/>
			
				<line style="fill:none;stroke:#407BFF;stroke-linecap:round;stroke-linejoin:round;stroke-miterlimit:10;" x1="142.374" y1="80.97" x2="135.019" y2="93.712"/>
		</g>
	</g>
</g>
<g id="Plant">
	<g>
		<g>
			<path style="fill:none;stroke:#407BFF;stroke-miterlimit:10;" d="M313.892,351.759c-5.054,20.249-7.106,41.245-6.068,62.089"/>
			<g>
				<g>
					<path style="fill:#407BFF;" d="M309.221,350.897c0.045,1.867,1.719,8.468,3.587,8.423c1.867-0.045,3.22-6.72,3.175-8.587
						c-0.045-1.867-1.595-3.344-3.462-3.299C310.653,347.48,309.176,349.031,309.221,350.897z"/>
					<path style="fill:#407BFF;" d="M316.494,371.888c-0.045-1.867-1.719-8.468-3.586-8.423c-1.867,0.045-3.221,6.719-3.175,8.587
						c0.045,1.867,1.595,3.344,3.462,3.299C315.062,375.305,316.539,373.755,316.494,371.888z"/>
					<path style="fill:#407BFF;" d="M302.362,365.029c1.867-0.045,8.468-1.719,8.423-3.587c-0.045-1.867-6.719-3.22-8.587-3.175
						c-1.867,0.046-3.344,1.596-3.299,3.463C298.945,363.597,300.495,365.074,302.362,365.029z"/>
					<path style="fill:#407BFF;" d="M323.352,357.756c-1.867,0.045-8.468,1.719-8.423,3.586c0.045,1.867,6.719,3.22,8.587,3.175
						c1.867-0.045,3.344-1.595,3.299-3.462C326.77,359.188,325.219,357.711,323.352,357.756z"/>
					<path style="fill:#407BFF;" d="M302.864,356.543c1.352,1.288,7.204,4.772,8.492,3.42c1.289-1.352-2.474-7.029-3.826-8.317
						c-1.352-1.288-3.493-1.237-4.781,0.116C301.461,353.114,301.512,355.254,302.864,356.543z"/>
					<path style="fill:#407BFF;" d="M322.85,366.242c-1.352-1.288-7.203-4.772-8.492-3.42c-1.288,1.352,2.474,7.028,3.826,8.317
						c1.352,1.288,3.493,1.237,4.781-0.116C324.254,369.671,324.202,367.531,322.85,366.242z"/>
					<path style="fill:#407BFF;" d="M308.008,371.385c1.288-1.352,4.772-7.204,3.419-8.492c-1.352-1.288-7.028,2.474-8.317,3.826
						c-1.288,1.352-1.236,3.493,0.116,4.781C304.579,372.789,306.719,372.738,308.008,371.385z"/>
					<path style="fill:#407BFF;" d="M317.707,351.4c-1.288,1.352-4.772,7.203-3.42,8.492c1.352,1.288,7.029-2.474,8.317-3.827
						c1.289-1.352,1.237-3.493-0.116-4.781C321.136,349.996,318.995,350.048,317.707,351.4z"/>
					<path style="fill:#FFFFFF;" d="M308.854,361.49c0.053,2.211,1.889,3.961,4.1,3.907c2.211-0.053,3.961-1.889,3.907-4.1
						c-0.054-2.211-1.89-3.961-4.101-3.907C310.549,357.442,308.8,359.278,308.854,361.49z"/>
				</g>
			</g>
			<path style="fill:#407BFF;" d="M308.28,391.254c0,0,0.691-10.213,6.296-11.829c5.605-1.615,7.663-3.805,7.663-3.805
				S321.671,391.451,308.28,391.254z"/>
			<path style="opacity:0.5;fill:#FFFFFF;" d="M308.28,391.254c0,0,0.691-10.213,6.296-11.829c5.605-1.615,7.663-3.805,7.663-3.805
				S321.671,391.451,308.28,391.254z"/>
			<path style="fill:#407BFF;" d="M307.539,399.072c0,0-0.691-10.213-6.296-11.829c-5.605-1.615-7.663-3.805-7.663-3.805
				S294.148,399.268,307.539,399.072z"/>
			<path style="opacity:0.5;fill:#FFFFFF;" d="M307.539,399.072c0,0-0.691-10.213-6.296-11.829
				c-5.605-1.615-7.663-3.805-7.663-3.805S294.148,399.268,307.539,399.072z"/>
			<g>
				<path style="fill:#407BFF;" d="M328.699,420.342c0,7.97-9.49,14.42-21.19,14.42c-11.71,0-21.19-6.45-21.19-14.42
					c0-4.03,2.43-7.68,6.36-10.29c2.27-1.52,5.04-2.69,8.12-3.38h13.42c3.17,0.72,6.01,1.93,8.31,3.51
					C326.349,412.792,328.699,416.372,328.699,420.342z"/>
				<path style="opacity:0.8;fill:#FFFFFF;" d="M314.219,406.672c3.17,0.72,6.01,1.93,8.31,3.51c3.82,2.61,6.17,6.19,6.17,10.16
					c0,7.97-9.49,14.42-21.19,14.42c-11.71,0-21.19-6.45-21.19-14.42c0-4.03,2.43-7.68,6.36-10.29c2.27-1.52,5.04-2.69,8.12-3.38
					H314.219z"/>
				<path style="fill:none;stroke:#407BFF;stroke-miterlimit:10;" d="M307.57,407.97c0,2.376,0,4.753,0,7.129"/>
			</g>
			<polygon style="fill:#407BFF;" points="323.462,406.45 322.337,409.954 322.319,409.99 292.689,409.99 292.627,409.803 
				291.556,406.45 			"/>
		</g>
		<path style="fill:#263238;" d="M326.196,423.238c-2.042,2.951-4.95,5.306-8.139,6.998c-5.09,2.701-26.501,3.398-28.944-8.75
			c-0.034-0.169-0.091-0.333-0.122-0.504c-0.584-3.178,2.244-6.005,5.46-5.683c1.998,0.2,4.084-0.038,6.07-0.34
			c7.66-1.167,15.557-0.739,23.049,1.236C326.63,417.002,327.997,420.635,326.196,423.238z"/>
	</g>
</g>
<g id="Character_1_">
	<g>
		<g>
			<g>
				<path style="fill:#407BFF;" d="M172.51,419.199c0.375-0.134,0.624-0.43,0.741-0.879c0.088-0.339-0.039-0.561-0.161-0.688
					c-0.771-0.805-3.899-0.234-4.253-0.166c-0.082,0.016-0.146,0.077-0.164,0.158c-0.018,0.08,0.015,0.163,0.082,0.21
					c0.519,0.367,1.277,0.852,2.03,1.156C171.411,419.242,172.033,419.37,172.51,419.199z M172.786,417.913
					c0.051,0.053,0.104,0.136,0.06,0.305c-0.081,0.314-0.238,0.508-0.479,0.595c-0.567,0.204-1.652-0.179-2.953-1.031
					C170.671,417.59,172.381,417.485,172.786,417.913z"/>
				<path style="fill:#407BFF;" d="M168.903,417.87c0.957-0.119,3.159-1.249,3.352-2.226c0.037-0.187,0.031-0.539-0.428-0.791
					c-0.29-0.161-0.601-0.187-0.922-0.076c-1.207,0.413-2.18,2.715-2.222,2.813c-0.028,0.067-0.018,0.145,0.027,0.203
					c0.023,0.029,0.053,0.051,0.086,0.065C168.83,417.869,168.866,417.874,168.903,417.87z M171.623,415.209
					c0.234,0.129,0.242,0.258,0.222,0.355c-0.118,0.596-1.583,1.521-2.611,1.816c0.365-0.75,1.087-1.971,1.807-2.218
					c0.175-0.06,0.338-0.058,0.496,0.006C171.566,415.18,171.595,415.194,171.623,415.209z"/>
				<polygon style="fill:#FFB573;" points="159.409,413.84 167.55,417.13 174.655,398.32 166.514,395.03 				"/>
				<path style="fill:#263238;" d="M168.582,416.464l-9.146-3.697c-0.333-0.135-0.698-0.016-0.878,0.285l-4.014,6.699
					c-0.416,0.695-0.063,1.655,0.71,1.952c3.211,1.235,4.825,1.672,8.847,3.297c2.474,1,5.984,2.714,9.401,4.095
					c3.342,1.351,4.987-1.87,3.69-2.746c-5.816-3.929-6.047-6.198-7.454-8.843C169.483,417.029,169.069,416.66,168.582,416.464z"/>
				<polygon style="fill:#407BFF;" points="174.551,407.549 160.412,401.834 161.707,396.652 176.877,402.202 				"/>
			</g>
			<g>
				<path style="fill:#FFB573;" d="M188.707,189.835c-2.868,8.303-11.361,27.863-17.904,19.716c-1.168-1.454-2.164-3.029-2.858-4.76
					c-2.778-6.854-3.461-17.954-3.813-20.38l-2.229-7.609c-0.039-0.131-0.059-0.268-0.06-0.404l-0.036-4.345
					c0-1.761,1.419-2.808,3.341-2.647c0,0,3.1-0.362,3.1,1.49l0.604,6.521h-0.02c0.312,2.275-0.594,5.435-0.06,7.518
					c1.993,7.83,4.749,8.182,6.48,16.263c2.405-5.827,6.723-15.921,6.723-15.921C184.883,185.638,189.653,187.097,188.707,189.835z"
					/>
				<path style="fill:#407BFF;" d="M178.452,212.534c-1.954,3.014-6.35,3.188-8.469,0.289c-1.295-1.772-2.321-3.724-2.767-5.195
					c-2.597-8.524-4.207-13.808-4.428-22.715c1.812-1.882,4.76-2.586,7.226-1.711l4.257,14.432c0,0,8.675-21.55,12.177-22.325
					c4.136-0.906,5.857,2.78,7.598,7.319C195.301,185.895,184.102,203.817,178.452,212.534z"/>
				<g>
					<g>
						<path style="fill:#FFB573;" d="M213.481,153.745c-0.981,5.002-3.184,15.914,0.316,19.252c0,0-1.367,5.074-10.662,5.074
							c-10.22,0-4.884-5.074-4.884-5.074c5.578-1.332,5.434-5.471,4.463-9.357L213.481,153.745z"/>
						<path style="fill:#263238;" d="M197.848,141.948c0.06,0,0.121-0.014,0.178-0.042c0.197-0.099,0.277-0.339,0.178-0.536
							c-0.989-1.975-2.819-2.204-2.896-2.213c-0.218-0.027-0.417,0.133-0.442,0.352c-0.025,0.218,0.132,0.416,0.35,0.441l0,0
							c0.061,0.007,1.485,0.201,2.274,1.777C197.561,141.867,197.702,141.947,197.848,141.948z"/>
						<path style="fill:#ED893E;" d="M194.801,146.319c0,0-1.505,2.764-2.939,4.009c0.788,0.942,2.35,0.749,2.35,0.749
							L194.801,146.319z"/>
						<path style="fill:#263238;" d="M195.604,144.856c0.144,0.665-0.091,1.28-0.526,1.374c-0.434,0.094-0.903-0.368-1.047-1.033
							c-0.144-0.665,0.091-1.28,0.525-1.374C194.99,143.729,195.459,144.192,195.604,144.856z"/>
						<path style="fill:#263238;" d="M194.756,143.819l-1.696-0.114C193.06,143.705,194.149,144.774,194.756,143.819z"/>
						<path style="fill:#FFB573;" d="M159.979,169.052v0.02c0-0.01-0.01-0.01-0.01-0.02H159.979z"/>
						<path style="opacity:0.2;" d="M188.347,185.566c1.771-1.621,2.969-1.137,3.784,0.151c0.805,3.744-3.965,11.584-5.887,14.553
							L188.347,185.566z"/>
						<path style="fill:#407BFF;" d="M229.304,190.497c-0.23,4.12-0.62,9.31-1.25,15.84c-0.66,6.89-1.6,15.26-2.89,25.43
							c-13.59,0-27.82-0.21-34.43-0.21c0.553-13.508,0.757-27.195-5.303-54.081c-0.318-1.413,0.607-2.811,2.033-3.065
							c2.745-0.489,7.293-1.188,11.921-1.414c5.76-0.28,10.48-0.46,15.55,0c6.67,0.61,14.25,2.16,14.25,2.16
							S230.024,177.637,229.304,190.497z"/>
						<path style="opacity:0.2;" d="M229.304,190.497c-0.23,4.12-0.62,9.31-1.25,15.84c-3.66-4.24-7.12-18.84-6.02-23.83
							c2.7,1.84,5.2,4.67,7.11,7.2C229.204,189.947,229.264,190.206,229.304,190.497z"/>
						<g>
							<g>
								<path style="fill:#FFB573;" d="M264.593,208.8l6.964-3.916l1.301,7.13c0,0-5.902,2.261-9.027,0.677L264.593,208.8z"/>
								<path style="fill:#FFB573;" d="M276.222,205.694l0.484,2.327c0.152,0.732-0.152,1.483-0.77,1.903l-3.077,2.09l-1.301-7.13
									l2.408-0.604C274.983,204.024,276.009,204.667,276.222,205.694z"/>
							</g>
							<g>
								<path style="fill:#FFB573;" d="M222.597,183.421c2.232,4.542,10.418,21.688,14.016,25.652l0.704,0.739l0.352,0.368
									c0.12,0.124,0.216,0.234,0.408,0.402c0.675,0.635,1.394,1.168,2.122,1.604c1.46,0.875,2.939,1.388,4.361,1.76
									c2.848,0.712,5.554,0.828,8.179,0.777c5.261-0.206,10.183-1.089,15.1-2.565l-0.894-4.175
									c-2.305,0.196-4.727,0.338-7.071,0.377c-2.353,0.065-4.693-0.001-6.95-0.22c-2.25-0.195-4.442-0.589-6.296-1.225
									c-0.915-0.325-1.722-0.739-2.325-1.174c-0.303-0.216-0.546-0.444-0.744-0.663c-0.04-0.031-0.141-0.156-0.226-0.258
									l-0.261-0.312l-0.522-0.622c-2.763-3.459-10.053-20.137-12.241-24.306L222.597,183.421z"/>
							</g>
						</g>
						<path style="fill:#407BFF;" d="M264.483,215.895c-5.676,3.059-12.59,3.734-18.749,1.822
							c-5.857-1.822-11.07-6.069-14.09-11.413c-3.613-5.314-13.223-20.333-12.016-24.218c1.429-4.64,4.469-7.518,9.551-6.27
							c3.573,0.866,10.385,18.2,13.676,25.134c1.298,1.932,3.774,4.992,6.542,5.938c4.891,1.691,8.494,0.956,13.617,0.232
							c0.936,0.564,0.866,1.429,1.339,2.405C265.319,211.497,265.48,213.943,264.483,215.895z"/>
						<path style="fill:#FFB573;" d="M218.523,145.725c-1.534,8.225-2.008,11.738-6.72,15.474
							c-7.088,5.62-16.854,1.936-17.808-6.581c-0.859-7.666,1.795-19.828,10.315-22.123
							C212.704,130.236,220.058,137.501,218.523,145.725z"/>
						<g>
							<path style="fill:#263238;" d="M247.7,191.24c-1.57,1.79-2.065,2.826-4.245,3.796c-2.18,0.97-6.939,0.125-8.449-1.725
								c0.49,1.44,3.354,4.029,4.854,4.229c-3.32,1.94-7.99,1.12-10.46-1.84c0.24,1.75,1.89,3.32,3.56,3.91
								c-19.163,0.495-11.094-8.523-23.086-21.346c-13.285-14.205-10.404-25.944-10.404-25.944c-0.01-2.03-0.46-5.4-2.61-8.14
								c-1.92-2.46-1.36-5.78-0.75-7.64c0.89-2.73,3.6-3.69,6.2-3.85c0.458-2.694,5.962-2.198,6.666-1.748
								c0.604,0.386,0.758,0.354,1.361-0.033c1.353-0.867,4.752-1.772,8.392,1.171c2.222,1.797,4.595,5.02,4.675,11.88
								c0.083,7.134-3.321,15.597,8.471,26.435C238.825,176.782,235.503,190.492,247.7,191.24z"/>
						</g>
						<path style="fill:#FFB573;" d="M197.89,146.346c-1.011,1.4-1.301,3.14-1.078,4.544c0.335,2.111,2.393,2.251,3.883,0.898
							c1.341-1.218,2.782-3.784,1.684-5.534C201.297,144.53,199.046,144.746,197.89,146.346z"/>
						<g>
							<path style="fill:#263238;" d="M216.448,231.763c0,0-4.083,57.407-8.692,95.272c-1.381,11.345-4.839,22.344-10.215,32.473
								l-22.587,42.558l-11.561-4.547c0,0,7.964-40.454,23.583-62.511c0,0-11.658-65.93,3.6-103.447L216.448,231.763z"/>
						</g>
						<path style="opacity:0.2;" d="M200.728,245.665c0,0,3.437,26.041,5.326,41.472
							C198.963,277.836,193.532,264.861,200.728,245.665z"/>
						<g>
							<path style="fill:#407BFF;" d="M245.641,424.59c0.267-0.292,0.347-0.668,0.236-1.118c-0.083-0.339-0.302-0.478-0.47-0.534
								c-1.064-0.356-3.556,1.59-3.837,1.813c-0.065,0.051-0.092,0.136-0.07,0.215c0.022,0.078,0.09,0.137,0.173,0.148
								c0.633,0.085,1.534,0.164,2.344,0.086C244.691,425.134,245.301,424.96,245.641,424.59z M245.273,423.326
								c0.07,0.023,0.157,0.072,0.198,0.242c0.077,0.315,0.032,0.559-0.14,0.746c-0.404,0.441-1.545,0.603-3.1,0.45
								C243.251,424.015,244.711,423.135,245.273,423.326z"/>
							<path style="fill:#407BFF;" d="M241.821,425.077c0.789-0.546,2.197-2.559,1.903-3.512c-0.056-0.182-0.229-0.49-0.755-0.502
								c-0.333-0.009-0.62,0.112-0.851,0.357c-0.87,0.921-0.635,3.403-0.624,3.509c0.007,0.072,0.053,0.136,0.121,0.166
								c0.034,0.015,0.071,0.021,0.107,0.017C241.757,425.11,241.791,425.099,241.821,425.077z M242.959,421.473
								c0.268,0.006,0.336,0.116,0.366,0.211c0.179,0.581-0.675,2.073-1.443,2.808c-0.034-0.831,0.022-2.242,0.541-2.792
								c0.126-0.133,0.271-0.207,0.441-0.223C242.895,421.474,242.927,421.473,242.959,421.473z"/>
							<polygon style="fill:#FFB573;" points="231.516,425.892 240.275,425.047 237.602,405.153 228.843,405.997 							"/>
							<path style="fill:#263238;" d="M240.869,423.983l-9.84,0.948c-0.358,0.035-0.624,0.307-0.641,0.656l-0.359,7.769
								c-0.037,0.806,0.732,1.491,1.557,1.398c3.425-0.389,5.058-0.746,9.386-1.163c2.662-0.257,6.579-0.359,10.255-0.713
								c3.596-0.347,3.516-3.951,1.953-4.127c-7.008-0.791-8.292-2.69-10.795-4.379
								C241.935,424.067,241.393,423.932,240.869,423.983z"/>
							<path style="fill:#263238;" d="M225.111,231.749c0,0,11.205,68.51,13.364,109.094l0.403,72.695l-9.066,1.769
								c0,0-13.136-46.378-14.647-73.184c-4.01-71.128-27.177-71.245-13.239-110.501L225.111,231.749z"/>
							<polygon style="fill:#407BFF;" points="241.889,413.837 226.876,415.893 225.355,410.128 241.4,408.041 							"/>
						</g>
						<path style="fill:#FFB573;" d="M159.999,169.123h-0.03l0.01-0.05C159.979,169.093,159.989,169.103,159.999,169.123z"/>
					</g>
				</g>
			</g>
			<g>
				<g>
					<g>
						<g>
							<path style="fill:#407BFF;" d="M160.961,158.253h0.574c-0.577,0-1.021,0.468-0.991,1.046l0.913,17.414
								c0.03,0.577,0.523,1.046,1.1,1.046h-0.574c-0.577,0-1.07-0.468-1.1-1.046l-0.913-17.414
								C159.94,158.721,160.384,158.253,160.961,158.253z"/>
							<path style="opacity:0.1;fill:#FFFFFF;" d="M160.961,158.253h0.574c-0.577,0-1.021,0.468-0.991,1.046l0.913,17.414
								c0.03,0.577,0.523,1.046,1.1,1.046h-0.574c-0.577,0-1.07-0.468-1.1-1.046l-0.913-17.414
								C159.94,158.721,160.384,158.253,160.961,158.253z"/>
						</g>
						<path style="fill:#407BFF;" d="M162.154,177.759h7.024c0.578,0,1.021-0.468,0.991-1.046l-0.913-17.414
							c-0.03-0.577-0.523-1.046-1.1-1.046h-7.024c-0.577,0-1.021,0.468-0.991,1.046l0.913,17.414
							C161.084,177.29,161.577,177.759,162.154,177.759z"/>
						<path style="opacity:0.4;fill:#FFFFFF;" d="M162.154,177.759h7.024c0.578,0,1.021-0.468,0.991-1.046l-0.913-17.414
							c-0.03-0.577-0.523-1.046-1.1-1.046h-7.024c-0.577,0-1.021,0.468-0.991,1.046l0.913,17.414
							C161.084,177.29,161.577,177.759,162.154,177.759z"/>
						<g>
							<path style="fill:#263238;" d="M169.73,176.35c0.01,0.18-0.05,0.35-0.17,0.48c-0.12,0.12-0.29,0.19-0.47,0.19h-6.81
								c-0.39,0-0.72-0.32-0.74-0.71l-0.89-16.89c-0.01-0.18,0.05-0.35,0.17-0.47c0.12-0.13,0.29-0.2,0.47-0.2h6.81
								c0.39,0,0.72,0.32,0.74,0.71l0.06,1.21L169.73,176.35z"/>
						</g>
						<g style="opacity:0.1;">
							<path style="fill:#FFFFFF;" d="M168.9,160.67l-2.26,16.35h-2.71l2.56-18.27h1.61c0.39,0,0.72,0.32,0.74,0.71L168.9,160.67z"
								/>
							<polygon style="fill:#FFFFFF;" points="162.95,177.02 162.339,177.02 164.9,158.751 165.512,158.751 							"/>
						</g>
					</g>
				</g>
			</g>
		</g>
		<path style="fill:#407BFF;" d="M188.521,233.702c-5.092,9.983-7.863,21.141-8.032,32.347c17.022,13.188,32.831-2.257,52.289,0.352
			c-0.679-8.788-3.664-25.049-7.21-33.119C212.71,233.825,200.668,232.542,188.521,233.702z"/>
		<g>
			<path style="fill:#FFFFFF;" d="M190.292,230.133c0,0-1.373,3.522-0.98,3.522h35.677c0.307,0,0.561-0.15,0.58-0.343l0.307-3.045
				c0.021-0.211-0.245-0.39-0.58-0.39h-34.45C190.592,229.878,190.368,229.981,190.292,230.133z"/>
		</g>
		<path style="fill:#407BFF;" d="M195.318,233.955h-0.923c-0.184,0-0.324-0.095-0.311-0.21l0.433-3.956
			c0.013-0.116,0.173-0.21,0.357-0.21h0.923c0.184,0,0.324,0.095,0.311,0.21l-0.433,3.956
			C195.663,233.86,195.502,233.955,195.318,233.955z"/>
		<path style="fill:#407BFF;" d="M217.682,233.955h-0.923c-0.184,0-0.324-0.095-0.311-0.21l0.433-3.956
			c0.013-0.116,0.173-0.21,0.357-0.21h0.923c0.184,0,0.324,0.095,0.311,0.21l-0.433,3.956
			C218.027,233.86,217.866,233.955,217.682,233.955z"/>
	</g>
</g>
</svg>
