<svg width="35" height="36" viewBox="0 0 35 36" fill="none" xmlns="http://www.w3.org/2000/svg">
<path d="M19.3266 3.74768C19.702 3.74768 19.9908 4.05393 19.9908 4.41851V9.11435C19.9908 11.7831 22.1711 13.9706 24.8134 13.9852C25.9108 13.9852 26.7771 13.9998 27.4413 13.9998L27.6873 13.9987C28.1312 13.9953 28.7288 13.9852 29.2462 13.9852C29.6071 13.9852 29.8959 14.2768 29.8959 14.6414V26.3664C29.8959 29.9831 26.9937 32.9143 23.4128 32.9143H11.9194C8.1653 32.9143 5.10425 29.8373 5.10425 26.0456V10.3248C5.10425 6.7081 8.02091 3.74768 11.6162 3.74768H19.3266ZM20.8716 22.5602H13.0168C12.4248 22.5602 11.9339 23.0414 11.9339 23.6393C11.9339 24.2373 12.4248 24.7331 13.0168 24.7331H20.8716C21.4636 24.7331 21.9545 24.2373 21.9545 23.6393C21.9545 23.0414 21.4636 22.5602 20.8716 22.5602ZM17.8972 15.2685H13.0168C12.4248 15.2685 11.9339 15.7643 11.9339 16.3623C11.9339 16.9602 12.4248 17.4414 13.0168 17.4414H17.8972C18.4891 17.4414 18.9801 16.9602 18.9801 16.3623C18.9801 15.7643 18.4891 15.2685 17.8972 15.2685ZM22.0948 5.06893C22.0948 4.44039 22.85 4.12831 23.2817 4.58185C24.8426 6.22101 27.5701 9.08664 29.0948 10.6879C29.5165 11.1298 29.2075 11.8633 28.5996 11.8648C27.4127 11.8691 26.0136 11.8648 25.0072 11.8546C23.4102 11.8546 22.0948 10.526 22.0948 8.9131V5.06893Z" fill="#367CFF"/>
</svg>
