<?xml version="1.0" standalone="no"?>
<!DOCTYPE svg PUBLIC "-//W3C//DTD SVG 20010904//EN"
 "http://www.w3.org/TR/2001/REC-SVG-20010904/DTD/svg10.dtd">
<svg version="1.0" xmlns="http://www.w3.org/2000/svg"
 width="512.000000pt" height="512.000000pt" viewBox="0 0 512.000000 512.000000"
 preserveAspectRatio="xMidYMid meet">

<g transform="translate(0.000000,512.000000) scale(0.100000,-0.100000)"
fill="#000000" stroke="none">
<path d="M1636 4769 c-171 -25 -309 -84 -508 -216 -218 -145 -329 -180 -603
-190 -192 -6 -225 -14 -272 -65 -56 -60 -53 65 -53 -1953 l0 -1855 -75 0 c-67
0 -79 -3 -100 -25 -32 -31 -32 -69 0 -100 l24 -25 2511 0 2511 0 24 25 c32 31
32 69 0 100 -21 22 -33 25 -100 25 l-75 0 0 1855 c0 2018 3 1893 -53 1953 -47
51 -80 59 -272 65 -274 10 -385 45 -603 190 -160 106 -268 159 -400 195 l-97
26 -540 4 c-540 3 -541 3 -568 -18 -37 -29 -37 -80 -1 -109 26 -21 36 -21 519
-21 543 0 592 -4 749 -61 57 -20 130 -60 223 -121 278 -183 402 -224 703 -235
91 -3 171 -10 178 -16 9 -7 12 -391 12 -1858 l0 -1849 -155 0 -155 0 0 955 0
954 -22 21 c-40 37 -98 22 -117 -31 -8 -23 -11 -310 -11 -965 l0 -934 -145 0
-145 0 0 803 c0 778 -1 803 -20 834 -41 68 63 63 -1440 63 -1503 0 -1399 5
-1440 -63 -19 -30 -20 -53 -20 -383 0 -340 1 -352 21 -378 26 -33 79 -36 109
-6 19 19 20 33 20 350 l0 330 355 0 355 0 0 -775 0 -775 -355 0 -355 0 0 330
c0 317 -1 331 -20 350 -33 33 -75 30 -108 -6 -22 -25 -22 -27 -22 -350 l0
-324 -145 0 -145 0 0 1230 0 1230 1750 0 1750 0 0 -144 c0 -157 9 -198 46
-215 35 -16 47 -14 78 10 l26 20 0 220 c0 206 -1 220 -20 239 -20 20 -33 20
-1880 20 -1847 0 -1860 0 -1880 -20 -20 -20 -20 -33 -20 -1305 l0 -1285 -155
0 -155 0 0 1848 c0 1424 3 1851 12 1860 8 8 49 12 118 12 313 1 478 51 750
229 144 95 218 130 339 163 65 18 113 22 336 26 143 2 268 8 278 14 43 23 41
105 -4 128 -22 12 -460 11 -543 -1z m1374 -2849 l0 -120 -450 0 -450 0 0 120
0 120 450 0 450 0 0 -120z m860 -655 l0 -775 -355 0 -355 0 0 775 0 775 355 0
355 0 0 -775z m-860 -195 l0 -580 -450 0 -450 0 0 580 0 580 450 0 450 0 0
-580z"/>
<path d="M1874 4357 c-35 -31 -38 -82 -5 -109 22 -17 57 -18 691 -18 634 0
669 1 691 18 33 27 30 78 -5 109 l-27 23 -659 0 -659 0 -27 -23z"/>
<path d="M1202 4043 c-7 -3 -19 -18 -27 -33 -12 -24 -15 -81 -15 -309 0 -279
0 -280 23 -307 30 -34 83 -36 109 -3 15 18 18 42 18 140 0 82 5 131 14 154 17
40 43 46 71 15 15 -16 19 -44 23 -159 4 -117 8 -143 22 -156 27 -24 77 -22
103 4 21 20 22 30 21 164 -1 156 -12 211 -50 256 -33 40 -101 65 -159 59 l-45
-6 0 74 c0 67 -2 74 -26 93 -26 20 -55 25 -82 14z"/>
<path d="M710 4010 c-19 -19 -20 -33 -20 -309 0 -261 2 -291 18 -310 26 -33
79 -31 109 3 20 24 23 38 23 112 l0 84 48 0 c72 0 120 18 168 62 113 105 91
279 -45 350 -49 26 -62 28 -167 28 -101 0 -116 -2 -134 -20z m247 -152 c51
-48 9 -118 -72 -118 l-45 0 0 70 0 70 47 0 c34 0 53 -6 70 -22z"/>
<path d="M1957 3860 c-23 -18 -31 -19 -76 -9 -41 8 -61 7 -106 -5 -206 -60
-233 -336 -42 -432 46 -24 59 -26 128 -21 61 4 80 2 92 -11 23 -22 78 -18 99
9 16 19 18 46 18 234 l0 214 -26 20 c-33 26 -54 26 -87 1z m-59 -182 c50 -48
14 -138 -55 -138 -46 0 -68 13 -83 50 -10 24 -10 36 0 60 25 59 90 72 138 28z"/>
<path d="M3420 3873 c-8 -3 -22 -12 -30 -19 -12 -10 -26 -11 -59 -3 -141 32
-281 -87 -281 -237 0 -52 39 -133 81 -168 56 -48 95 -59 182 -53 42 3 77 1 77
-3 0 -4 13 -12 28 -18 34 -12 85 6 96 33 3 9 6 109 6 221 0 204 0 205 -25 229
-23 24 -44 29 -75 18z m-72 -199 c48 -54 10 -134 -63 -134 -69 0 -108 73 -69
128 33 48 92 50 132 6z"/>
<path d="M2129 3851 c-24 -19 -24 -21 -24 -230 0 -203 1 -211 22 -232 29 -29
81 -28 105 2 15 17 18 41 18 128 l0 107 60 61 c48 48 60 67 60 92 0 48 -32 74
-85 69 -26 -3 -49 0 -60 8 -27 20 -69 17 -96 -5z"/>
<path d="M2405 3847 c-12 -17 -15 -59 -15 -228 0 -182 2 -209 18 -228 24 -30
76 -31 105 -2 20 20 22 34 27 168 4 125 8 147 23 157 12 8 22 8 35 0 14 -10
18 -32 22 -157 5 -134 7 -148 27 -168 26 -26 76 -28 103 -4 16 14 19 37 22
160 2 117 6 147 19 161 21 21 55 11 63 -19 3 -12 6 -77 6 -145 0 -68 4 -132
10 -142 13 -24 59 -39 87 -29 48 18 55 46 51 211 -3 141 -5 156 -28 196 -35
61 -81 87 -155 87 -36 -1 -72 -7 -91 -17 -29 -16 -33 -16 -54 -1 -18 13 -52
18 -142 20 -111 2 -118 1 -133 -20z"/>
<path d="M3728 3856 c-103 -37 -178 -159 -163 -266 19 -130 125 -222 256 -222
125 0 225 104 164 172 -24 27 -82 27 -111 -1 -44 -41 -121 -22 -149 38 -21 45
-12 85 28 119 25 21 38 25 71 21 23 -2 56 -10 73 -18 29 -12 35 -11 60 7 30
22 39 51 28 91 -14 57 -165 92 -257 59z"/>
<path d="M4040 3850 c-31 -31 -24 -70 44 -260 l63 -175 -23 -64 c-30 -80 -30
-112 -1 -139 28 -27 67 -28 96 -4 23 19 211 550 211 596 0 36 -33 66 -73 66
-46 0 -62 -21 -97 -125 -16 -48 -31 -90 -33 -92 -2 -2 -19 38 -37 89 -17 51
-41 101 -52 111 -27 23 -73 22 -98 -3z"/>
<path d="M2518 2839 c-21 -12 -38 -69 -38 -131 l0 -48 -70 0 c-80 0 -110 -19
-110 -69 0 -53 27 -73 108 -79 l72 -5 1 -46 c0 -69 19 -114 52 -125 65 -23
105 25 106 125 l1 46 72 5 c81 6 108 26 108 79 0 50 -30 69 -110 69 l-70 0 0
48 c0 64 -17 120 -40 132 -24 13 -60 12 -82 -1z"/>
</g>
</svg>
