<?xml version="1.0" standalone="no"?>
<!DOCTYPE svg PUBLIC "-//W3C//DTD SVG 20010904//EN"
 "http://www.w3.org/TR/2001/REC-SVG-20010904/DTD/svg10.dtd">
<svg version="1.0" xmlns="http://www.w3.org/2000/svg"
 width="512.000000pt" height="512.000000pt" viewBox="0 0 512.000000 512.000000"
 preserveAspectRatio="xMidYMid meet">

<g transform="translate(0.000000,512.000000) scale(0.100000,-0.100000)"
fill="#000000" stroke="none">
<path d="M1664 5110 c-12 -5 -29 -19 -38 -32 -15 -20 -16 -188 -16 -1853 0
-1195 -4 -1843 -10 -1866 -16 -56 -51 -101 -100 -129 l-45 -25 -363 -3 -362
-3 2 391 3 392 71 22 c160 51 291 168 368 328 63 132 81 221 80 398 -1 222
-54 501 -150 788 -131 393 -291 594 -474 594 -143 0 -266 -115 -381 -356 -89
-188 -172 -465 -220 -741 -32 -180 -32 -424 -1 -538 67 -246 237 -427 451
-482 l46 -11 3 -392 2 -392 -234 0 c-229 0 -236 -1 -261 -22 -34 -30 -44 -88
-20 -124 35 -54 30 -54 732 -54 356 0 677 5 712 10 178 25 314 162 342 342 6
39 8 756 7 1886 l-3 1824 -33 29 c-33 30 -67 36 -108 19z m-1004 -1205 c209
-108 466 -1046 377 -1373 -46 -169 -154 -297 -284 -337 l-23 -6 0 176 0 177
-34 34 c-37 37 -70 43 -115 20 -45 -24 -51 -52 -51 -237 l0 -170 -23 6 c-94
29 -197 124 -246 228 -45 97 -56 158 -55 307 2 413 219 1068 387 1171 38 23
32 22 67 4z"/>
<path d="M2663 5108 c-11 -5 -28 -24 -38 -42 -15 -28 -16 -110 -13 -936 3
-839 4 -908 21 -950 45 -113 142 -209 250 -247 49 -17 117 -18 1115 -18 l1064
0 29 33 c16 18 29 44 29 58 0 33 -25 81 -49 94 -13 6 -193 10 -510 10 l-491 0
0 239 0 240 57 16 c94 27 174 74 239 139 175 176 195 424 63 821 -228 690
-631 743 -885 116 -88 -216 -141 -483 -124 -632 25 -220 167 -384 389 -445
l61 -17 -2 -236 -3 -236 -434 -3 c-280 -1 -447 2 -472 8 -50 14 -107 64 -130
115 -18 38 -19 91 -19 922 0 662 -3 889 -12 908 -21 47 -85 67 -135 43z m1387
-245 c130 -135 263 -505 264 -738 0 -76 -4 -99 -25 -145 -14 -31 -40 -72 -58
-92 -30 -34 -120 -88 -147 -88 -7 0 -13 27 -16 74 -6 87 -24 122 -71 134 -44
11 -72 4 -102 -25 -22 -23 -25 -34 -25 -104 0 -88 -3 -91 -67 -64 -56 24 -116
78 -145 131 -57 105 -56 230 2 449 56 211 137 381 225 472 70 72 91 72 165 -4z"/>
<path d="M2161 4807 c-43 -25 -50 -53 -51 -195 l0 -134 29 -29 c33 -33 75 -38
120 -14 44 22 53 58 49 199 -3 119 -4 127 -29 151 -30 31 -85 41 -118 22z"/>
<path d="M2183 4113 c-12 -2 -34 -18 -48 -34 -24 -29 -25 -36 -25 -166 l0
-135 29 -29 c49 -48 125 -38 156 21 17 34 21 242 5 284 -15 40 -70 68 -117 59z"/>
<path d="M2139 3381 l-29 -29 0 -136 c0 -136 0 -136 29 -168 39 -44 98 -46
139 -5 26 27 27 31 30 153 5 172 -15 214 -101 214 -29 0 -46 -7 -68 -29z"/>
<path d="M2161 2696 c-43 -24 -50 -52 -51 -189 0 -71 5 -137 10 -148 13 -24
61 -49 96 -49 16 0 38 12 60 34 l34 34 0 132 0 132 -34 34 c-37 37 -73 43
-115 20z"/>
<path d="M2644 2576 c-38 -38 -43 -72 -17 -116 25 -42 53 -50 183 -50 131 0
164 9 186 51 27 52 8 115 -41 137 -16 7 -75 12 -151 12 l-126 0 -34 -34z"/>
<path d="M3349 2582 c-28 -25 -34 -37 -34 -72 0 -35 6 -47 34 -72 l33 -29 140
3 c139 3 140 3 164 31 16 19 24 40 24 67 0 27 -8 48 -24 67 -24 28 -25 28
-164 31 l-140 3 -33 -29z"/>
<path d="M4074 2600 c-56 -22 -72 -108 -30 -157 24 -28 25 -28 164 -31 l140
-3 33 29 c28 25 34 37 34 72 0 35 -6 47 -33 71 -32 29 -33 29 -160 28 -70 0
-137 -4 -148 -9z"/>
<path d="M4771 2596 c-67 -37 -65 -143 4 -174 35 -16 255 -16 290 0 29 13 55
55 55 88 0 33 -26 75 -55 88 -37 17 -263 15 -294 -2z"/>
<path d="M2930 2099 c-102 -20 -208 -97 -263 -190 -55 -94 -57 -115 -57 -714
0 -462 -2 -560 -15 -610 -43 -167 -154 -290 -320 -356 l-60 -24 -1075 -5
c-591 -3 -1083 -9 -1093 -14 -21 -10 -47 -57 -47 -86 0 -33 26 -75 55 -88 20
-9 282 -12 1071 -12 1180 0 1128 -3 1294 77 81 39 108 59 181 132 71 72 94
103 132 182 76 154 77 167 77 801 0 513 2 556 19 593 23 51 79 101 128 114 25
7 380 11 1066 11 686 0 1035 3 1048 10 24 13 49 61 49 94 0 14 -13 40 -29 58
l-29 33 -1044 1 c-574 1 -1063 -2 -1088 -7z"/>
<path d="M2174 2001 c-12 -5 -31 -22 -43 -37 -19 -24 -21 -39 -21 -161 l0
-135 29 -29 c22 -22 39 -29 68 -29 86 0 106 42 101 214 -3 118 -4 127 -28 151
-28 28 -74 39 -106 26z"/>
<path d="M2139 1271 l-29 -29 0 -179 c0 -99 -5 -196 -11 -218 -15 -52 -82
-119 -134 -134 -24 -6 -132 -11 -268 -11 l-229 0 -29 -29 c-33 -33 -40 -91
-14 -127 29 -42 59 -46 322 -42 227 4 253 6 303 26 102 41 191 130 232 232 19
49 22 78 26 253 4 210 -1 244 -42 272 -36 26 -94 19 -127 -14z"/>
<path d="M47 689 c-22 -13 -47 -61 -47 -93 0 -14 13 -40 29 -58 l29 -33 142 0
142 0 30 34 c26 29 30 39 25 75 -4 27 -15 49 -32 63 -24 22 -35 23 -163 23
-75 0 -145 -5 -155 -11z"/>
<path d="M753 688 c-28 -14 -56 -73 -49 -103 3 -13 17 -37 30 -52 24 -28 26
-28 151 -31 173 -5 215 15 215 101 0 29 -7 46 -29 68 l-29 29 -134 -1 c-73 0
-143 -5 -155 -11z"/>
</g>
</svg>
